<svg id="Grupo_2431" data-name="Grupo 2431" xmlns="http://www.w3.org/2000/svg" xmlns:xlink="http://www.w3.org/1999/xlink" width="35.589" height="64" viewBox="0 0 35.589 64">
  <defs>
    <clipPath id="clip-path">
      <rect id="Rectángulo_2728" data-name="Rectángulo 2728" width="35.589" height="64" fill="none"/>
    </clipPath>
    <clipPath id="clip-path-3">
      <rect id="Rectángulo_2724" data-name="Rectángulo 2724" width="4.192" height="3.701" fill="none"/>
    </clipPath>
    <clipPath id="clip-path-4">
      <rect id="Rectángulo_2725" data-name="Rectángulo 2725" width="11.555" height="8.631" fill="none"/>
    </clipPath>
    <clipPath id="clip-path-5">
      <rect id="Rectángulo_2726" data-name="Rectángulo 2726" width="2.971" height="2.049" fill="none"/>
    </clipPath>
  </defs>
  <g id="Grupo_2430" data-name="Grupo 2430" clip-path="url(#clip-path)">
    <g id="Grupo_2429" data-name="Grupo 2429">
      <g id="Grupo_2428" data-name="Grupo 2428" clip-path="url(#clip-path)">
        <path id="Trazado_4626" data-name="Trazado 4626" d="M70.345,138.526a10.46,10.46,0,0,1,.609,5.216A5.454,5.454,0,0,0,72,148.862c1.153,1.633,4.148.068,4.821,1.177.191.315-1.453,2.3-2.1,2.6-.552.251-1.114-.058-2.235-.2-1.811-.236-2.695-.035-3.555-.828-.71-.654-1.29-4.388-5.029-7.106.317-.331,6.025-5.532,6.44-5.974" transform="translate(-43.036 -93.287)" fill="#dbb5a1"/>
        <path id="Trazado_4627" data-name="Trazado 4627" d="M74.905,62.515c-.051.039-.293,4.762,1.73,4.025,1.389-.507,1.88-2.607,3.936-6.058.465-.781,1.171-1.661,1.176-1.827.012-.362-.368-3.035-.795-3.065-1.015-.071-1.762,1.245-2.187,1.927-1.059,1.7-.991,2.795-3.861,5" transform="translate(-50.42 -37.434)" fill="#dbb5a1"/>
        <path id="Trazado_4628" data-name="Trazado 4628" d="M16.07,156.4c.889,5.055-3.748,7.592-7.037,8.019A13.757,13.757,0,0,1,1.2,163.042c-.391-.177-1.305-.828-1.187-1.563.083-.516.75-.7,1.411-.5a15.379,15.379,0,0,0,6.289,1.007c3.495-.275,5.787-2.838,5.082-6.853.556.217,3.268,1.226,3.276,1.276" transform="translate(0 -104.468)" fill="#d86f35"/>
        <path id="Trazado_4629" data-name="Trazado 4629" d="M49.034,61.474c-.955-.067-6.25.181-6.51,1.231.41,13.506-5.937,21.219-6.066,25.871-.091,3.27,3.59,6.886,8.337,6.38,1.692-4.221,7.587-8.942,9.127-14.387,2.255-7.976-2.588-11.17-3.647-14.783-.456-1.553-1.3-2.679-1.241-4.312" transform="translate(-24.55 -41.392)" fill="#ffdfc5"/>
        <path id="Trazado_4630" data-name="Trazado 4630" d="M62.112,129.116a8.9,8.9,0,0,1,.163,9.523c-2.749,3.977-2.374,5.8-2.407,6.874-.04,1.291,1.783,1.252,2.9,1.252.941,0,2.351-.549,2.508.509.071.481-.862,2.43-2.077,2.155-2.055-.464-7.524,1.646-7.036-2.683a18.613,18.613,0,0,0-1.078-7.216c-.507-1.3-5.1-6.932-1.735-11.063,1.477-1.814,6.849-2.233,8.762.647" transform="translate(-35.105 -85.547)" fill="#ffdfc5"/>
        <path id="Trazado_4631" data-name="Trazado 4631" d="M27.244,155.54a4.325,4.325,0,0,1,.062.9,5.256,5.256,0,0,1-5.174,5.82c-.249.02-.483.022-.718.027,1.7,2.005,7.856.145,9.117-3.524a6.591,6.591,0,0,0-.026-1.954c-.095-.08-2.714-1.055-3.26-1.268" transform="translate(-14.421 -104.745)" fill="#442721"/>
        <path id="Trazado_4632" data-name="Trazado 4632" d="M43.044,66.469c-.543.04-3.778.3-4.153.407.727,2.4,2.865,5.608,2.064,9.716-1.242,6.369-5.422,10.164-4.99,14.71.406,4.273,3.17,7.718,7.59,7.319a54.539,54.539,0,0,1,4.624-6.535c-1.408-7.5,6.821-11.717,1.8-18.372-3.086-4.091-6.088.987-6.933-7.246" transform="translate(-24.199 -44.762)" fill="#d86f35"/>
        <g id="Grupo_2421" data-name="Grupo 2421" transform="translate(26.129 35.001)" opacity="0.22">
          <g id="Grupo_2420" data-name="Grupo 2420">
            <g id="Grupo_2419" data-name="Grupo 2419" clip-path="url(#clip-path-3)">
              <path id="Trazado_4633" data-name="Trazado 4633" d="M80.024,107.944a7.675,7.675,0,0,0,2.309,2.746.8.8,0,0,0,1.273-.384,17.692,17.692,0,0,0,.6-2.647c-.591-.475-4.446-.9-4.178.285" transform="translate(-80.01 -107.177)" fill="#540404"/>
            </g>
          </g>
        </g>
        <path id="Trazado_4634" data-name="Trazado 4634" d="M66.985,85.7c-1.739.134.153,6.119,3.13,7.538,2.144,1.023,3.7,3.43,4.952,2.762.16-.558.353-3.586.361-3.87-3.507-1.729-4.184-6.757-8.443-6.43" transform="translate(-44.662 -57.702)" fill="#ffdfc5"/>
        <path id="Trazado_4635" data-name="Trazado 4635" d="M66.433,85.7c-1.739.134-1.023,5.6,1.954,7.022,2.144,1.022,4.286,2.291,5.542,1.624.16-.558.941-1.932.948-2.216-3.507-1.729-4.184-6.757-8.443-6.43" transform="translate(-44.11 -57.702)" fill="#d86f35"/>
        <path id="Trazado_4636" data-name="Trazado 4636" d="M83.975,94.65c-.056.031-.146,3.938,1.96,3.49,1.446-.308,2.225-2.319,4.743-5.449.569-.708,1.391-1.482,1.42-1.645.062-.357.059-3.056-.359-3.146-1-.212-1.919.987-2.434,1.6-1.286,1.536-2.18,3.365-5.329,5.147" transform="translate(-56.537 -59.178)" fill="#ffdfc5"/>
        <path id="Trazado_4637" data-name="Trazado 4637" d="M82.371,103.123c-2.761,1.459-1.64,1.714-.066,3.183.882.823,3.671-2.932,2.594-4.9a11.3,11.3,0,0,1-2.527,1.722" transform="translate(-54.338 -68.286)" fill="#d86f35"/>
        <path id="Trazado_4638" data-name="Trazado 4638" d="M47.247,91.6c-2.174-3.423-5.564.4-7.078-2.96-.011,4.629-1.5,6.865-2.711,9.091-1.409,2.586-3.031,4.535-2.933,7.816.091,3.085,1.2,5.556,4.128,7.131-1.527-2.792-.367-5.657,1.636-7.665,4.8-4.812,9.484-9.437,6.958-13.414" transform="translate(-23.247 -59.695)" fill="#442721"/>
        <path id="Trazado_4639" data-name="Trazado 4639" d="M61.853,137.166c-1.417-2.506-5.135-1.56-7.712-.281a6.012,6.012,0,0,0-2.312,1.833c.748,2.637,2.738,5.293,3.658,8.645a6.276,6.276,0,0,0,3.848-.751c2.591-1.466,3.935-6.941,2.518-9.447" transform="translate(-34.903 -91.314)" fill="#d86f35"/>
        <path id="Trazado_4640" data-name="Trazado 4640" d="M62.554,39.777c.589.265-4.7,5.341-5.16,5.09-1.2-.656-5.32-1.388-5.8-1.943-.252-.293.259-.9.543-1.684.5-1.367,7.805-2.636,10.414-1.463" transform="translate(-34.701 -26.475)" fill="#9b3c12"/>
        <path id="Trazado_4641" data-name="Trazado 4641" d="M59.609,37.675c.663-.084,3.658,1.992,3.13,4.8,3.1,4.138-2.632,5.483-3.826,7.686-.9,1.657-5.536,5.221-6.118,5.394-1.152-5.382-6.629-3.91-6.827-7.588-.192-3.577.787-6.7,3.921-8.124,2.834-1.039,5.827.642,7.586.029.809-1.159,1.262-2.083,2.133-2.194" transform="translate(-30.941 -25.37)" fill="#ffdfc5"/>
        <path id="Trazado_4642" data-name="Trazado 4642" d="M48.566,62.947c.831-.8,4.02-.691,6.389-1.579,1.828-.684,2.3-1.923,1.87-2.127-2.7-1.294-.862-3.046-1.961-5.087-.661-1.227-2.765-2.386-4.855-2.409a7.119,7.119,0,0,0-3.853,1.009c-2.481,5.4.948,7.636,2.41,10.192" transform="translate(-30.493 -34.847)" fill="#d86f35"/>
        <path id="Trazado_4643" data-name="Trazado 4643" d="M52.1,42.98a5.706,5.706,0,0,0-3.219,2.987c3.214-2.745,7.16-.2,9.2-1.082a3.207,3.207,0,0,0,1.452-1.719c-1.288.1-5.59-.941-7.428-.186" transform="translate(-32.92 -28.758)" fill="#d86f35"/>
        <path id="Trazado_4644" data-name="Trazado 4644" d="M84.411,38.906a1.615,1.615,0,0,1,.821,2.024,1.989,1.989,0,0,1-2.432.91c-.483-.25-.066-1.039.379-1.849s.734-1.252,1.231-1.085" transform="translate(-55.615 -26.177)" fill="#330a0a"/>
        <path id="Trazado_4645" data-name="Trazado 4645" d="M87.63,55.106c-.763.793-2.375,1.27-3.646,2.3.839-.915,2.64-1.74,3.207-2.611a2.372,2.372,0,0,0,.359-2.265.086.086,0,0,1,.01-.078.082.082,0,0,1,.072-.035.828.828,0,0,0,.739-.275c.026.041.075.168.1.2a3.111,3.111,0,0,1-.839,2.76" transform="translate(-56.557 -35.117)" fill="#842f1e"/>
        <path id="Trazado_4646" data-name="Trazado 4646" d="M65.536,60.157a1.352,1.352,0,1,0-.447-1.974,1.438,1.438,0,0,0,.447,1.974" transform="translate(-43.679 -38.833)" fill="#6b2e22"/>
        <path id="Trazado_4647" data-name="Trazado 4647" d="M66.041,60.185a1.327,1.327,0,1,0-.4-1.917,1.388,1.388,0,0,0,.4,1.917" transform="translate(-44.048 -38.888)" fill="#fff"/>
        <path id="Trazado_4648" data-name="Trazado 4648" d="M66.953,60.054a1.178,1.178,0,1,0-.388-1.72,1.252,1.252,0,0,0,.388,1.72" transform="translate(-44.692 -38.979)" fill="#56160f"/>
        <path id="Trazado_4649" data-name="Trazado 4649" d="M68.423,58.456a.283.283,0,1,0-.093-.413.3.3,0,0,0,.093.413" transform="translate(-45.983 -39.015)" fill="#f9feff"/>
        <path id="Trazado_4650" data-name="Trazado 4650" d="M73.035,45c.637.215,1.255.078,1.381-.305s-.288-.868-.925-1.083-1.255-.078-1.381.305.288.869.925,1.084" transform="translate(-48.546 -29.303)" fill="#6b2e22"/>
        <path id="Trazado_4651" data-name="Trazado 4651" d="M73.329,45.2c.607.2,1.2.064,1.324-.313s-.267-.85-.874-1.055-1.2-.064-1.324.314.267.85.874,1.055" transform="translate(-48.778 -29.453)" fill="#fff"/>
        <path id="Trazado_4652" data-name="Trazado 4652" d="M73.968,45.115c.554.187,1.093.068,1.2-.266s-.25-.757-.8-.944-1.093-.068-1.2.267.25.757.8.944" transform="translate(-49.257 -29.507)" fill="#56160f"/>
        <path id="Trazado_4653" data-name="Trazado 4653" d="M74.122,44.247c.133.045.262.016.289-.064s-.06-.182-.193-.227-.263-.016-.289.064.06.182.194.227" transform="translate(-49.782 -29.587)" fill="#f9feff"/>
        <path id="Trazado_4654" data-name="Trazado 4654" d="M45.317,68.372c.151.632.951,4.546,2.533,5.511,2.374,1.448,9.76,2.324,11.048-1.488.855-2.53-7.085-6.086-8.27-6.322-1.6-.32-3.485.951-4.436-.825-1.223-.076-1,2.583-.874,3.124" transform="translate(-30.449 -43.939)" fill="#a34414"/>
        <path id="Trazado_4655" data-name="Trazado 4655" d="M4.171,175.5a2.213,2.213,0,0,0,.19-1.811,29.248,29.248,0,0,1-2.938-.81c-.661-.194-1.329-.012-1.412.5-.118.735.8,1.386,1.187,1.563a18.744,18.744,0,0,0,2.635.953,1.923,1.923,0,0,0,.338-.4" transform="translate(0 -116.369)" fill="#f8dcc6"/>
        <path id="Trazado_4656" data-name="Trazado 4656" d="M82.761,5.983A5.984,5.984,0,1,1,76.777,0a5.984,5.984,0,0,1,5.984,5.983" transform="translate(-47.675)" fill="#24c2ce"/>
        <g id="Grupo_2424" data-name="Grupo 2424" transform="translate(23.531 3.336)" opacity="0.21">
          <g id="Grupo_2423" data-name="Grupo 2423">
            <g id="Grupo_2422" data-name="Grupo 2422" clip-path="url(#clip-path-4)">
              <path id="Trazado_4657" data-name="Trazado 4657" d="M82.967,10.214A6.134,6.134,0,0,1,72.055,15a5.967,5.967,0,1,0,10.912-4.788" transform="translate(-72.055 -10.214)" fill="#036168"/>
            </g>
          </g>
        </g>
        <g id="Grupo_2427" data-name="Grupo 2427" transform="translate(24.961 0.725)" opacity="0.4">
          <g id="Grupo_2426" data-name="Grupo 2426">
            <g id="Grupo_2425" data-name="Grupo 2425" clip-path="url(#clip-path-5)">
              <path id="Trazado_4658" data-name="Trazado 4658" d="M79.375,2.339c.164.263-.355.883-1.159,1.384s-1.588.693-1.752.431.355-.882,1.158-1.384,1.588-.693,1.752-.431" transform="translate(-76.434 -2.221)" fill="#fff"/>
            </g>
          </g>
        </g>
      </g>
    </g>
  </g>
</svg>
