<svg id="Grupo_2439" data-name="Grupo 2439" xmlns="http://www.w3.org/2000/svg" xmlns:xlink="http://www.w3.org/1999/xlink" width="58.491" height="45.64" viewBox="0 0 58.491 45.64">
  <defs>
    <clipPath id="clip-path">
      <rect id="Rect치ngulo_2731" data-name="Rect치ngulo 2731" width="58.491" height="45.64" fill="none"/>
    </clipPath>
    <clipPath id="clip-path-3">
      <rect id="Rect치ngulo_2729" data-name="Rect치ngulo 2729" width="5.344" height="15.619" fill="none"/>
    </clipPath>
  </defs>
  <g id="Grupo_2438" data-name="Grupo 2438" clip-path="url(#clip-path)">
    <g id="Grupo_2437" data-name="Grupo 2437">
      <g id="Grupo_2436" data-name="Grupo 2436" clip-path="url(#clip-path)">
        <path id="Trazado_4659" data-name="Trazado 4659" d="M131.436,6.672c.129.683.876,2.821.778,2.93-.777.872-4.972-.67-5.033-1.231-.16-1.465-2.053-5.553-1.856-6.316.1-.4.956-.328,1.822-.558,1.513-.4,3.719,2.149,4.289,5.175" transform="translate(-77.934 -0.905)" fill="#9b3c12"/>
        <path id="Trazado_4660" data-name="Trazado 4660" d="M11.409,19.683C5.474,19.4,4.984,13.92,4.143,9.7,3.56,6.77,3.486,4.889,1.048,2.52.335,1.827-.322.791.171.262s1.61-.187,2.439.4C5.181,2.464,6.147,5.93,7.021,9.033c1.133,4.017,1.947,7.049,6.662,7.275-.386.572-2.215,3.379-2.274,3.376" transform="translate(0 0)" fill="#d86f35"/>
        <path id="Trazado_4661" data-name="Trazado 4661" d="M104.747,47.2c-.545-1.972-7.793,5.795-6.147,9.289,2.347,4.985-1.374,12.8,1.651,17.274.3.448,3.263.37,3.64.045.9-.776-.8-2.473-1.054-3.758-1.134-5.78,4.416-13.774,1.91-22.85" transform="translate(-61.171 -29.156)" fill="#dbb5a1"/>
        <path id="Trazado_4662" data-name="Trazado 4662" d="M51.663,50.631a10.3,10.3,0,0,1-5.941,9.29C40.523,62,39.662,63.96,39,65.009c-.493.78-.285,2.59.053,4,.211.881.917,1.756.657,2.361-.223.518-3.735.433-3.905.105-1.152-2.216-.916-5.831-1.168-7.652-.155-1.123,2.845-4.246,3.581-7.65.341-1.575-2.586-10.352,5.308-12.724,5.289-1.589,8.14,3.176,8.14,7.178" transform="translate(-21.537 -26.83)" fill="#dbb5a1"/>
        <path id="Trazado_4663" data-name="Trazado 4663" d="M61.938,36.028c-1.352-.549-9.571-3.165-10.823-3.165-2.5,2.279-3.259,3.4-6.51,3.673-5.818.493-11.328-1.578-16.591-.427-3.7.809-5.878,5.253-6.18,8.654,9.166,3.31,13.8,7.882,20.323,8.44,13.812,1.181,15.468-5.545,16.953-9.643a77.019,77.019,0,0,1,2.829-7.533" transform="translate(-13.579 -20.438)" fill="#ffdfc5"/>
        <path id="Trazado_4664" data-name="Trazado 4664" d="M30.4,52.53a10.306,10.306,0,0,1-5.941,9.29c-5.2,2.074-6.06,4.039-6.723,5.088-.493.78-.3,2.577-.157,4.056.09.9.7,1.7.435,2.307-.223.518-3.735.433-3.905.105-1.152-2.216-.486-5.831-.737-7.651-.155-1.123,2.845-4.246,3.581-7.65C17.3,56.5,14.2,47.849,22.265,45.351c5.276-1.634,8.14,3.176,8.14,7.178" transform="translate(-8.316 -28.002)" fill="#ffdfc5"/>
        <path id="Trazado_4665" data-name="Trazado 4665" d="M117.373,10.769c.483.533.236,4.31-3.292,5.491-.29.1.346,3.565-.761,4.463-1.457,1.182-4.369.419-6.707-1.165-1.687-1.144-11.124-3.335-11.636-3.741C99.02,11.483,97.411,8.04,99.836,4.9c1.585-2.05,6.986-3.017,10.3-.7,2.665,1.862,2.358,4.86,3.984,6.035,1.522,0,2.617-.169,3.252.532" transform="translate(-59.069 -1.776)" fill="#ffdfc5"/>
        <path id="Trazado_4666" data-name="Trazado 4666" d="M17.037,20.748c-.181-.64-.369-1.3-.571-1.949a13.147,13.147,0,0,0-.341,4.853c.154,3.461,1.3,6.087,3.379,7.406a7.762,7.762,0,0,0,1.9.316c.059,0,1.888-2.8,2.274-3.376-4.715-.225-5.506-3.234-6.639-7.251" transform="translate(-9.992 -11.692)" fill="#442721"/>
        <path id="Trazado_4667" data-name="Trazado 4667" d="M130,78.048c-1.407-1.047-2.563-3.642-2.909-5.932-.08-.528.978.263,1.51.208l-.1-3.157c.492-.051,3.117,3.233,3.209,3.719a8.271,8.271,0,0,0,.471,1.614c.5,1.209,1.806,2.067,1.072,3a5.117,5.117,0,0,1-3.25.544" transform="translate(-79.039 -43.016)" fill="#ffdfc5"/>
        <path id="Trazado_4668" data-name="Trazado 4668" d="M98.355,63.908l-.435,3.061c-3.719-.456-7.91-1.438-10.857-.212-3.568,1.479-10.745-6.608-8.751-7.061,7.5-1.7,14.018,2.2,19.331,3.214a.887.887,0,0,1,.713,1" transform="translate(-48.49 -36.863)" fill="#ffdfc5"/>
        <path id="Trazado_4669" data-name="Trazado 4669" d="M97.848,64.549a3,3,0,0,0,.842-2.033c-4.467-1.2-9.692-3.55-15.512-2.828a46.081,46.081,0,0,0,3.758,5.841c3.867-.052,9.914.205,10.912-.98" transform="translate(-51.731 -37.038)" fill="#d86f35"/>
        <path id="Trazado_4670" data-name="Trazado 4670" d="M56.031,26.592c-.262.233-3.017-1.856-3.54-1.661A14.3,14.3,0,0,1,49.739,29.2a7.273,7.273,0,0,1-5.135,2.4c-5.818.493-11.328-1.578-16.591-.426-3.7.809-5.878,5.253-6.18,8.654a70.546,70.546,0,0,1,9.437,4.348c7.319-1.643,17.135,4.046,21.588-3.4,3.044-5.092-5.842-10.93,3.173-14.176" transform="translate(-13.579 -15.497)" fill="#d86f35"/>
        <path id="Trazado_4671" data-name="Trazado 4671" d="M51.543,49.225c3.328-3.4-4.036-6.1-1.586-8.747a9.288,9.288,0,0,1-3.122.793c-5.811.568-11.328-1.578-16.591-.426-2.248.491-3.664,1.985-4.823,4.121,2.938-.883,5.578-.33,8.593,1.129,6.684,3.235,13.662,7.076,17.528,3.13" transform="translate(-15.811 -25.174)" fill="#442721"/>
        <path id="Trazado_4672" data-name="Trazado 4672" d="M100.053,11.166c1.216.243,3.087,3.124,5.332,4.67,1.731,1.192,3.112.842,3.03.34-.522-3.183,2.159-2.639,3.283-4.867.676-1.34.4-3.911-.865-5.772a7.151,7.151,0,0,0-3.2-2.649c-6.382.772-6.225,5.412-7.58,8.278" transform="translate(-62.226 -1.796)" fill="#d86f35"/>
        <path id="Trazado_4673" data-name="Trazado 4673" d="M127.438,4.189A8.125,8.125,0,0,0,122.5,2.78c4.4,1.146,4.422,5.944,6.454,7.2a3.455,3.455,0,0,0,2.413.222c-.886-1.073-2.127-4.854-3.926-6.012" transform="translate(-76.184 -1.729)" fill="#d86f35"/>
        <path id="Trazado_4674" data-name="Trazado 4674" d="M147.53,23.988a1.739,1.739,0,0,1-1.282,1.973,2.141,2.141,0,0,1-2.3-1.587c-.077-.581.877-.7,1.867-.8s1.558-.123,1.716.419" transform="translate(-89.522 -14.622)" fill="#330a0a"/>
        <path id="Trazado_4675" data-name="Trazado 4675" d="M133.536,35.874c-.125.807.288,3.637-1.257,3.672-3.118.07-4.18-4.126-5.316-5.341,1.846,1.8,4.238,2.721,5.829,1.292.158.257.4.488.744.377" transform="translate(-78.962 -21.273)" fill="#540e0e"/>
        <path id="Trazado_4676" data-name="Trazado 4676" d="M138.922,45.789a3.371,3.371,0,0,1-.484,2.951,1.836,1.836,0,0,1-2.5-.129c-.542-.764.532-2.455-2.7-5.462.441-.8,1.734-.9,2.729-.347a.872.872,0,0,1,.955-.069,4.64,4.64,0,0,1,2.006,3.057" transform="translate(-82.86 -26.403)" fill="#ef8181"/>
        <path id="Trazado_4677" data-name="Trazado 4677" d="M122.047,19.926a1.456,1.456,0,1,0,1.467-1.612,1.548,1.548,0,0,0-1.467,1.612" transform="translate(-75.904 -11.39)" fill="#6b2e22"/>
        <path id="Trazado_4678" data-name="Trazado 4678" d="M122.333,20.325a1.429,1.429,0,1,0,1.445-1.536,1.494,1.494,0,0,0-1.445,1.536" transform="translate(-76.082 -11.685)" fill="#fff"/>
        <path id="Trazado_4679" data-name="Trazado 4679" d="M122.257,20.623a1.269,1.269,0,1,0,1.279-1.4,1.348,1.348,0,0,0-1.279,1.4" transform="translate(-76.035 -11.954)" fill="#56160f"/>
        <path id="Trazado_4680" data-name="Trazado 4680" d="M126.364,20.133a.3.3,0,1,0,.307-.337.324.324,0,0,0-.307.337" transform="translate(-78.589 -12.312)" fill="#f9feff"/>
        <path id="Trazado_4681" data-name="Trazado 4681" d="M139.333,17.084c.2.695.7,1.157,1.121,1.032s.589-.789.387-1.484-.7-1.157-1.121-1.032-.589.789-.387,1.484" transform="translate(-86.602 -9.689)" fill="#6b2e22"/>
        <path id="Trazado_4682" data-name="Trazado 4682" d="M139.34,17.4c.193.662.682,1.1,1.093.976s.586-.76.393-1.422-.682-1.1-1.093-.976-.586.76-.393,1.422" transform="translate(-86.61 -9.927)" fill="#fff"/>
        <path id="Trazado_4683" data-name="Trazado 4683" d="M139.277,17.577c.177.6.614,1.007.977.9s.514-.687.338-1.292-.614-1.007-.977-.9-.514.687-.338,1.292" transform="translate(-86.574 -10.117)" fill="#56160f"/>
        <path id="Trazado_4684" data-name="Trazado 4684" d="M140.977,16.8c.042.145.147.242.234.215s.124-.165.081-.31-.147-.242-.235-.216-.123.165-.081.31" transform="translate(-87.666 -10.254)" fill="#f9feff"/>
        <path id="Trazado_4685" data-name="Trazado 4685" d="M32.072,62.52c0-3.333-4.476-3.985-7.923-3.985a6.8,6.8,0,0,0-3.132.778c-.749,3.084.365,6.265.171,7.165a11.513,11.513,0,0,1-1.015,2.708A6.3,6.3,0,0,0,24.15,70.6c3.447,0,7.923-4.752,7.923-8.084" transform="translate(-12.546 -36.404)" fill="#d86f35"/>
        <path id="Trazado_4686" data-name="Trazado 4686" d="M5.157,3.779A8.328,8.328,0,0,0,2.61.657C1.782.075.665-.266.171.262s.164,1.565.878,2.258A8.888,8.888,0,0,1,2.941,5.052,5.548,5.548,0,0,0,5.157,3.779" transform="translate(0 0)" fill="#f8dcc6"/>
        <g id="Grupo_2435" data-name="Grupo 2435" transform="translate(39.874 1.884)" opacity="0.45">
          <g id="Grupo_2434" data-name="Grupo 2434">
            <g id="Grupo_2433" data-name="Grupo 2433" clip-path="url(#clip-path-3)">
              <path id="Trazado_4687" data-name="Trazado 4687" d="M105.719,5.789c-.518.468-.316,14.968,1.307,14.812,2.864-.274,3.783-4.859,3.783-6.62s-4.651-5.268-2.609-9a16.51,16.51,0,0,0-2.481.806" transform="translate(-105.465 -4.983)" fill="#100"/>
            </g>
          </g>
        </g>
        <path id="Trazado_4688" data-name="Trazado 4688" d="M98.492,4.429c-.465.523-4.8,4.434-4.68,6.425.184,2.989,3.078,9.29,5.712,9.321,2.876.034,3.231-5.26,3.231-7.021s-3.918-4.914-1.876-8.643c.089-.509-1.989-.529-2.387-.082" transform="translate(-58.342 -2.556)" fill="#a34414"/>
        <path id="Trazado_4689" data-name="Trazado 4689" d="M142.169,46.126c.053.282-.142.274-.212,0a5.344,5.344,0,0,0-1.509-2.746,3.657,3.657,0,0,1,1.721,2.75" transform="translate(-87.348 -26.977)" fill="#c44949"/>
      </g>
    </g>
  </g>
</svg>
