<svg id="Grupo_2418" data-name="Grupo 2418" xmlns="http://www.w3.org/2000/svg" xmlns:xlink="http://www.w3.org/1999/xlink" width="50.769" height="61.152" viewBox="0 0 50.769 61.152">
  <defs>
    <clipPath id="clip-path">
      <rect id="Rectángulo_2723" data-name="Rectángulo 2723" width="50.769" height="61.152" fill="none"/>
    </clipPath>
    <clipPath id="clip-path-3">
      <rect id="Rectángulo_2720" data-name="Rectángulo 2720" width="39.462" height="3.537" fill="none"/>
    </clipPath>
    <clipPath id="clip-path-4">
      <rect id="Rectángulo_2721" data-name="Rectángulo 2721" width="7.78" height="17.928" fill="none"/>
    </clipPath>
  </defs>
  <g id="Grupo_2417" data-name="Grupo 2417" clip-path="url(#clip-path)">
    <g id="Grupo_2416" data-name="Grupo 2416">
      <g id="Grupo_2415" data-name="Grupo 2415" clip-path="url(#clip-path)">
        <g id="Grupo_2411" data-name="Grupo 2411" transform="translate(4.38 53.266)" opacity="0.07">
          <g id="Grupo_2410" data-name="Grupo 2410">
            <g id="Grupo_2409" data-name="Grupo 2409" clip-path="url(#clip-path-3)">
              <path id="Trazado_4584" data-name="Trazado 4584" d="M49.888,128.574c0,.977-8.834,1.768-19.731,1.768s-19.731-.792-19.731-1.768,8.834-1.768,19.731-1.768,19.731.792,19.731,1.768" transform="translate(-10.426 -126.806)"/>
            </g>
          </g>
        </g>
        <path id="Trazado_4585" data-name="Trazado 4585" d="M14.767,126.652c-4.532.821-9.264.007-8.974-1.721.207-1.232,5.5-1.183,6.939-3.012a29.527,29.527,0,0,1-1.5-3.414c-2.342,2.85-7.232,2.247-9.086,5.184-.955,1.512-.251,3.915,2.81,5.231a16.564,16.564,0,0,0,9.7.434c1.088-.323,2.338-.91,2.293-1.664-.05-.824-1.038-1.243-2.178-1.036" transform="translate(-1.015 -68.725)" fill="#d86f35"/>
        <path id="Trazado_4586" data-name="Trazado 4586" d="M42.888,97.613c-.938,2.611-3.683,5.164-8.882,5.052-1.045-.023-3.028-2.373-3.652-5.412-.573-2.793.1-8.989,7.853-8.4,5.072.386,6.367,4.067,4.681,8.759" transform="translate(-17.513 -51.508)" fill="#dbb5a1"/>
        <path id="Trazado_4587" data-name="Trazado 4587" d="M52.534,123.206c-2.067.313-9.872.126-11.6.234-2.315.144-1.775-2.854,1.223-3.513,1.377-.3,6.444.316,8.433.554,2.031.244,3.432,2.5,1.943,2.724" transform="translate(-22.907 -69.504)" fill="#dbb5a1"/>
        <path id="Trazado_4588" data-name="Trazado 4588" d="M84.924,61.764c-.648-2.147-8.591,6.245-6.417,9.888,4.229,7.088,3.012,13.651,6.372,18.55.336.49,3.832.612,4.252.256,1-.849-1.042-2.746-1.466-4.117-3.382-10.917.486-13.879-2.741-24.577" transform="translate(-45.311 -35.619)" fill="#dbb5a1"/>
        <path id="Trazado_4589" data-name="Trazado 4589" d="M42.157,43.592c-.5,7.138-4.949,9.614-9.813,13.138C26.456,61,20.855,66.032,21.19,71.716c.373,6.334,5.155,4.578,8.638,4.976.746-8.929,22.639-2.73,23.414-19.536.145-3.152-.286-5.991.267-13.015-1.446-.473-10.05-.647-11.352-.549" transform="translate(-12.281 -25.266)" fill="#ffdfc5"/>
        <path id="Trazado_4590" data-name="Trazado 4590" d="M66.284,62.7c-.6-2.16-9.211,6.1-7.382,9.932,2.608,5.459-1.886,15.3,1.65,19.163.4.439,3.625.405,4.045.05,1-.85-.6-2.709-.877-4.117C62.46,81.4,69.069,72.646,66.284,62.7" transform="translate(-34.012 -36.16)" fill="#ffdfc5"/>
        <path id="Trazado_4591" data-name="Trazado 4591" d="M34.3,102.793c-.938,2.611-4.383,5.272-9.581,5.159-1.046-.023-3.029-2.373-3.653-5.412-.574-2.792.1-8.988,7.854-8.4,5.072.386,7.066,3.959,5.38,8.651" transform="translate(-12.127 -54.575)" fill="#ffdfc5"/>
        <path id="Trazado_4592" data-name="Trazado 4592" d="M38.432,127.508c-2.067.324-9.872.131-11.6.243-2.315.15-1.775-2.957,1.223-3.64,1.377-.313,6.445.328,8.433.575,2.031.252,3.432,2.589,1.943,2.822" transform="translate(-14.729 -71.928)" fill="#ffdfc5"/>
        <path id="Trazado_4593" data-name="Trazado 4593" d="M41.4,42.071C41.371,49.379,34.79,52.954,30.176,56.6c-6.689,5.289-11.941,11.46-8.514,18.512,5.052-3.242,7.724-7.064,11.665-7.848,8.791-1.749,12.647-4.947,11.79-13.627-.31-3.14-4.34-7.743-2.475-10.856-.5-.15-.967-.711-1.244-.711" transform="translate(-11.937 -24.399)" fill="#d86f35"/>
        <path id="Trazado_4594" data-name="Trazado 4594" d="M2.15,123.711c-.849,1.343-.378,3.384,1.88,4.747-1.793-2.822-.446-3.888.594-4.5,2.194-1.287,5.168-1.264,7.227-1.315a2.925,2.925,0,0,0,.884-.7,27.174,27.174,0,0,1-1.487-3.391l-.029-.007C8.872,121.372,4,120.78,2.15,123.711" transform="translate(-1.018 -68.748)" fill="#442721"/>
        <path id="Trazado_4595" data-name="Trazado 4595" d="M33.391,97.79c-.295-3.478-4.019-6.176-8.143-6.165-6.039,3.782-5.652,12.4-1.146,14.759a10.052,10.052,0,0,0,4.12-.616c3.358-1.467,5.491-4.174,5.169-7.977" transform="translate(-12.014 -53.137)" fill="#d86f35"/>
        <path id="Trazado_4596" data-name="Trazado 4596" d="M64.245,84.325a3.357,3.357,0,0,0,2.288.849c1.169-4.933,3.592-10.738,2.578-17.082a51.219,51.219,0,0,0-6.35,4.322c.2,4.231.131,10.861,1.484,11.911" transform="translate(-36.398 -39.489)" fill="#d86f35"/>
        <path id="Trazado_4597" data-name="Trazado 4597" d="M29.1,73.354c8.783-2.65,15.473-.646,15.09-6.216-.284-4.129-5.873-4.534-4.72-10.022-2.311,3.429-6.194,5.808-9.235,8.212-5.595,4.424-10.019,9.452-9.51,15.124a7.261,7.261,0,0,0,3.12,5.764C18.142,78.281,26.28,74.2,29.1,73.354" transform="translate(-11.996 -33.124)" fill="#442721"/>
        <path id="Trazado_4598" data-name="Trazado 4598" d="M25.96,140.53c1.088-.323,2.338-.91,2.293-1.664-.05-.824-1.038-1.243-2.178-1.036a20.035,20.035,0,0,1-4.206.309c-.668.691-.932,2.231-.1,2.913a16.36,16.36,0,0,0,4.19-.522" transform="translate(-12.323 -79.903)" fill="#ffdfc5"/>
        <path id="Trazado_4599" data-name="Trazado 4599" d="M93.972,16.7c.293.745,1.6,3,1.514,3.146-.707,1.153-5.845.312-6.035-.31-.495-1.621-3.533-5.839-3.469-6.744.034-.479,1.027-.576,1.971-1.024,1.651-.782,4.722,1.631,6.019,4.931" transform="translate(-49.864 -6.739)" fill="#9b3c12"/>
        <path id="Trazado_4600" data-name="Trazado 4600" d="M87.875,20.85c.667.5,1.185,4.824-2.612,6.918-.312.172,1.153,3.957.073,5.211-1.42,1.65-4.923,1.414-7.941.125-2.178-.93-11.933-3.069-12.606-3.419.8-4.73-.394-7.629,1.724-11.7,1.383-2.66,7.374-4.915,11.669-3.008,3.451,1.533,3.736,4.989,5.85,5.969,1.746-.327,2.966-.754,3.843-.1" transform="translate(-37.574 -8.275)" fill="#ffdfc5"/>
        <path id="Trazado_4601" data-name="Trazado 4601" d="M64.015,26.26c1.446.013,4.2,2.869,7.107,4.134,2.238.975,3.749.283,3.548-.267-1.274-3.487,1.917-3.448,2.734-6.21.491-1.661-.367-4.511-2.216-6.342a8.323,8.323,0,0,0-4.232-2.307c-7.158,2.246-5.993,7.459-6.94,10.992" transform="translate(-37.125 -8.855)" fill="#d86f35"/>
        <path id="Trazado_4602" data-name="Trazado 4602" d="M88.956,14.918a9.578,9.578,0,0,0-5.967-.531c5.3.349,6.334,5.771,8.931,6.754a4.086,4.086,0,0,0,2.815-.268c-1.244-1.023-3.47-5.032-5.779-5.954" transform="translate(-48.129 -8.214)" fill="#d86f35"/>
        <path id="Trazado_4603" data-name="Trazado 4603" d="M113.529,30.549a2,2,0,0,1-1.053,2.507,2.5,2.5,0,0,1-2.977-1.3c-.212-.64.858-.979,1.971-1.312s1.762-.475,2.058.1" transform="translate(-63.488 -17.488)" fill="#330a0a"/>
        <path id="Trazado_4604" data-name="Trazado 4604" d="M101.493,46.291c.028.94,1.1,4.052-.663,4.423-3.562.75-5.67-3.767-7.232-4.9,2.5,1.642,5.439,2.166,6.962.207a.748.748,0,0,0,.933.267" transform="translate(-54.282 -26.572)" fill="#540e0e"/>
        <path id="Trazado_4605" data-name="Trazado 4605" d="M109.084,54.823a3.833,3.833,0,0,1,.07,3.442,2.165,2.165,0,0,1-2.9.393c-.783-.748.09-2.891-4.261-5.6.337-1,1.8-1.4,3.057-.98a1.031,1.031,0,0,1,1.082-.284,5.339,5.339,0,0,1,2.95,3.025" transform="translate(-59.152 -30.011)" fill="#ef8181"/>
        <path id="Trazado_4606" data-name="Trazado 4606" d="M86.261,31.95A1.7,1.7,0,1,0,87.6,29.811a1.79,1.79,0,0,0-1.341,2.139" transform="translate(-50.009 -17.276)" fill="#6b2e22"/>
        <path id="Trazado_4607" data-name="Trazado 4607" d="M86.612,32.3a1.666,1.666,0,1,0,1.332-2.048A1.729,1.729,0,0,0,86.612,32.3" transform="translate(-50.213 -17.53)" fill="#fff"/>
        <path id="Trazado_4608" data-name="Trazado 4608" d="M86.551,32.655a1.478,1.478,0,1,0,1.17-1.862,1.559,1.559,0,0,0-1.17,1.862" transform="translate(-50.179 -17.847)" fill="#56160f"/>
        <path id="Trazado_4609" data-name="Trazado 4609" d="M90.391,31.55a.355.355,0,1,0,.281-.447.375.375,0,0,0-.281.447" transform="translate(-52.418 -18.035)" fill="#f9feff"/>
        <path id="Trazado_4610" data-name="Trazado 4610" d="M103.372,25.966c.38.743,1.053,1.157,1.5.926s.509-1.019.129-1.762-1.053-1.156-1.5-.925-.509,1.019-.129,1.761" transform="translate(-59.805 -14)" fill="#6b2e22"/>
        <path id="Trazado_4611" data-name="Trazado 4611" d="M103.436,26.282c.362.707,1.016,1.1,1.461.869s.511-.985.15-1.693-1.016-1.1-1.461-.87-.511.986-.149,1.693" transform="translate(-59.852 -14.222)" fill="#fff"/>
        <path id="Trazado_4612" data-name="Trazado 4612" d="M103.375,26.483c.331.646.917,1.007,1.311.805s.444-.888.113-1.534-.917-1.006-1.311-.805-.444.888-.113,1.534" transform="translate(-59.825 -14.437)" fill="#56160f"/>
        <path id="Trazado_4613" data-name="Trazado 4613" d="M104.8,25.384c.079.155.22.242.314.194s.107-.213.027-.369-.22-.242-.315-.193-.106.213-.027.368" transform="translate(-60.75 -14.5)" fill="#f9feff"/>
        <g id="Grupo_2414" data-name="Grupo 2414" transform="translate(28.061 7.912)" opacity="0.45">
          <g id="Grupo_2413" data-name="Grupo 2413">
            <g id="Grupo_2412" data-name="Grupo 2412" clip-path="url(#clip-path-4)">
              <path id="Trazado_4614" data-name="Trazado 4614" d="M66.853,20.28c-.5.641,2.811,17,4.641,16.471,3.227-.926,3.31-6.309,2.936-8.3s-6.452-4.958-4.9-9.614a19.476,19.476,0,0,0-2.676,1.445" transform="translate(-66.803 -18.835)" fill="#100"/>
            </g>
          </g>
        </g>
        <path id="Trazado_4615" data-name="Trazado 4615" d="M60.967,19.085c-.423.691-4.57,6.048-4.007,8.274.846,3.341,5.5,9.844,8.53,9.312,3.306-.58,2.591-6.644,2.218-8.636s-5.538-4.715-3.986-9.371c-.005-.595-2.394-.171-2.756.42" transform="translate(-33.003 -10.658)" fill="#a34414"/>
        <path id="Trazado_4616" data-name="Trazado 4616" d="M111.831,55.281c.121.308-.105.341-.244.041a6.13,6.13,0,0,0-2.313-2.781,4.2,4.2,0,0,1,2.557,2.74" transform="translate(-63.373 -30.471)" fill="#c44949"/>
        <path id="Trazado_4617" data-name="Trazado 4617" d="M40.071,77.506a3.508,3.508,0,1,1,4.3-2.475,3.508,3.508,0,0,1-4.3,2.475" transform="translate(-21.733 -40.949)" fill="#e6ecff"/>
        <path id="Trazado_4618" data-name="Trazado 4618" d="M28.717,89.03a3.257,3.257,0,1,1,3.993-2.3,3.257,3.257,0,0,1-3.993,2.3" transform="translate(-15.256 -47.918)" fill="#e6ecff"/>
        <path id="Trazado_4619" data-name="Trazado 4619" d="M10.683,95.358a5.7,5.7,0,1,1,6.987-4.022,5.7,5.7,0,0,1-6.987,4.022" transform="translate(-3.749 -48.803)" fill="#e6ecff"/>
        <path id="Trazado_4620" data-name="Trazado 4620" d="M4.246,76.287A4.2,4.2,0,1,1,9.39,73.325a4.2,4.2,0,0,1-5.144,2.961" transform="translate(-0.66 -39.457)" fill="#e6ecff"/>
        <path id="Trazado_4621" data-name="Trazado 4621" d="M3.571,100.523a4.824,4.824,0,1,1,5.912-3.4,4.823,4.823,0,0,1-5.912,3.4" transform="translate(0 -52.799)" fill="#e6ecff"/>
        <path id="Trazado_4622" data-name="Trazado 4622" d="M23.291,113.4a4.636,4.636,0,1,1,5.682-3.271,4.636,4.636,0,0,1-5.682,3.271" transform="translate(-11.517 -60.479)" fill="#e6ecff"/>
        <path id="Trazado_4623" data-name="Trazado 4623" d="M63.207,1.4c-1.1-3.092-3.644-.11-3.644-.11-2.1-1.657-2.43.994-2.43.994-7.621-3.2-8.283,3.755-6.847,5.522-2.209,0-2.319,3.2-2.319,3.2-4.528,1.1-3.645,7.731-.442,7.069a2.646,2.646,0,0,0,3.865,1.767c3.865,1.546,4.086-5.853,4.086-5.853,8.5,2.209,7.289-4.97,7.289-4.97,5.854-.552,5.854-6.958.442-7.621" transform="translate(-26.007 0)" fill="#e6ecff"/>
        <path id="Trazado_4624" data-name="Trazado 4624" d="M35.628,73.57a4.2,4.2,0,1,1-4.2-4.2,4.2,4.2,0,0,1,4.2,4.2" transform="translate(-15.793 -40.232)" fill="#e6ecff"/>
        <path id="Trazado_4625" data-name="Trazado 4625" d="M90.288,51a.725.725,0,1,1-.725-.725.725.725,0,0,1,.725.725" transform="translate(-51.521 -29.158)" fill="#e6ecff"/>
      </g>
    </g>
  </g>
</svg>
