<svg xmlns="http://www.w3.org/2000/svg" width="23.405" height="27.401" viewBox="0 0 23.405 27.401">
  <path id="Trazado_2551" data-name="Trazado 2551" d="M362.545,758.632a6.035,6.035,0,0,1-1.326,4.448,5.431,5.431,0,0,1-4.2,2.145,5.581,5.581,0,0,1,1.362-4.339A6.436,6.436,0,0,1,362.545,758.632Zm4.8,23.426a19.807,19.807,0,0,0,1.769-3.322,6.038,6.038,0,0,1-.793-10.91,6.934,6.934,0,0,0-5.236-2.78,8,8,0,0,0-3.095.669,5.743,5.743,0,0,1-2.109.508,6.9,6.9,0,0,1-2.36-.546,8.144,8.144,0,0,0-2.864-.627,7.108,7.108,0,0,0-5.721,3.458c-1.98,3.072-1.643,8.848,1.57,13.769,1.148,1.761,2.682,3.739,4.689,3.757a4.33,4.33,0,0,0,1.986-.509,6,6,0,0,1,2.724-.649,5.647,5.647,0,0,1,2.71.643,4.149,4.149,0,0,0,1.952.51C364.573,786.012,366.193,783.819,367.342,782.058Z" transform="translate(-345.706 -758.632)" fill="#0b0b0a"/>
</svg>
