<svg id="Grupo_2444" data-name="Grupo 2444" xmlns="http://www.w3.org/2000/svg" xmlns:xlink="http://www.w3.org/1999/xlink" width="43.378" height="35.495" viewBox="0 0 43.378 35.495">
  <defs>
    <clipPath id="clip-path">
      <rect id="Rectángulo_2735" data-name="Rectángulo 2735" width="43.378" height="35.495" fill="none"/>
    </clipPath>
  </defs>
  <g id="Grupo_2443" data-name="Grupo 2443" transform="translate(0 0)" clip-path="url(#clip-path)">
    <path id="Trazado_4690" data-name="Trazado 4690" d="M9.048,8.723a.877.877,0,0,0-.876.876.876.876,0,0,0,1.751,0,.877.877,0,0,0-.876-.876M8.994,9.6c0-.036.018-.071.054-.071s.054.036.054.071c0,.054-.107.054-.107,0" transform="translate(6.431 6.866)" fill="#57419d"/>
    <path id="Trazado_4691" data-name="Trazado 4691" d="M16.008,8.723a.877.877,0,0,0-.876.876.876.876,0,0,0,1.751,0,.877.877,0,0,0-.876-.876m-.071.876a.077.077,0,0,1,.071-.071c.036,0,.054.036.054.071,0,.054-.125.054-.125,0" transform="translate(11.909 6.866)" fill="#57419d"/>
    <path id="Trazado_4692" data-name="Trazado 4692" d="M9.937,7.583A2.9,2.9,0,1,0,12.832,10.5,2.9,2.9,0,0,0,9.937,7.583m0,3.771a.862.862,0,0,1-.876-.858.876.876,0,1,1,1.751,0,.862.862,0,0,1-.876.858" transform="translate(5.542 5.969)" fill="#fff"/>
    <path id="Trazado_4693" data-name="Trazado 4693" d="M16.9,7.583A2.9,2.9,0,1,0,19.8,10.5,2.913,2.913,0,0,0,16.9,7.583m0,3.771a.862.862,0,0,1-.876-.858.876.876,0,1,1,1.751,0,.862.862,0,0,1-.876.858" transform="translate(11.012 5.969)" fill="#fff"/>
    <path id="Trazado_4694" data-name="Trazado 4694" d="M16.955,13.6a1.423,1.423,0,0,0-.786-.965,7.049,7.049,0,0,0-2.555-.536,7.109,7.109,0,0,0-2.538.536,1.471,1.471,0,0,0-.786.965,1.512,1.512,0,0,0,.286,1.287l.036.036a3.874,3.874,0,0,0,6.04,0l.018-.036a1.512,1.512,0,0,0,.286-1.287m-1.036.733a2.952,2.952,0,0,1-4.61-.036.566.566,0,0,1-.107-.482.41.41,0,0,1,.268-.322,6.028,6.028,0,0,1,2.144-.465,6.158,6.158,0,0,1,2.18.465.448.448,0,0,1,.268.322.577.577,0,0,1-.143.518" transform="translate(8.066 9.526)" fill="#fff"/>
    <path id="Trazado_4695" data-name="Trazado 4695" d="M15.643,13.414a.606.606,0,0,1-.134.516,2.952,2.952,0,0,1-4.616-.036.576.576,0,0,1-.107-.481.451.451,0,0,1,.268-.329,6.323,6.323,0,0,1,2.152-.463,6.367,6.367,0,0,1,2.171.463.452.452,0,0,1,.266.329" transform="translate(8.478 9.934)" fill="#57419d"/>
    <path id="Trazado_4696" data-name="Trazado 4696" d="M18.231,16.137a.475.475,0,0,0-.661,0,1.349,1.349,0,0,1-.733.357,4.292,4.292,0,0,1-2.52-.786.487.487,0,0,0-.536,0,4.466,4.466,0,0,1-2.448.786,1.428,1.428,0,0,1-.822-.357.475.475,0,0,0-.661,0,.459.459,0,0,0,.018.661,2.038,2.038,0,0,0,1.126.59c.3.733,1.251,2.663,3.056,2.681,1.8-.018,2.823-1.984,3.109-2.7a1.981,1.981,0,0,0,1.072-.572.475.475,0,0,0,0-.661m-4.182,3c-1-.018-1.7-1.054-2.019-1.733a5.952,5.952,0,0,0,2.019-.768,5.662,5.662,0,0,0,2.073.768c-.357.7-1.054,1.716-2.073,1.733" transform="translate(7.648 12.3)" fill="#fff"/>
    <path id="Trazado_4697" data-name="Trazado 4697" d="M15.11,16.961c-.365.684-1.067,1.717-2.073,1.726-1.013-.009-1.7-1.051-2.028-1.735a5.95,5.95,0,0,0,2.019-.756,6.012,6.012,0,0,0,2.082.765" transform="translate(8.664 12.747)" fill="#57419d"/>
    <path id="Trazado_4698" data-name="Trazado 4698" d="M42.856,21.628l-4.914.608-.965.107c.322-.036.105-2.723.086-3.108a7.912,7.912,0,0,1,.965-3.529c1.867-4.375,1.6-9.339,1.088-14.069C39.048,1,38.88.248,38.278.043c-1-.34-2.725,1.444-3.445,2.021A35.113,35.113,0,0,0,31.08,5.527a2.313,2.313,0,0,1-2.716.554A14.849,14.849,0,0,0,21.6,5.03a14.9,14.9,0,0,0-5.879.761,4.018,4.018,0,0,1-1.873.509c-1.319-.111-2.318-1.592-3.208-2.42A42.063,42.063,0,0,0,6.727.654a2.418,2.418,0,0,0-1.4-.608C3.54.071,3.889,6.428,3.9,7.691a21.368,21.368,0,0,0,1.855,8.987,6.358,6.358,0,0,1,.475,1.149,20.6,20.6,0,0,1,.155,4.53c0-.1-4.964-.627-5.406-.683a1.355,1.355,0,0,0-.667.03.459.459,0,0,0-.3.533c.082.231.37.295.611.325.574.073,5.935.624,5.935.733q.362,1.193.722,2.386-2.79.407-5.583.813c-.315.046-1.063.191-.843.7a.633.633,0,0,0,.583.329,2.566,2.566,0,0,0,.69-.136c.552-.148,5.411-1.06,5.538-.833q.6,1.075,1.21,2.15Q6.2,30.161,3.519,31.617c-.32.173-.692.516-.5.829.177.295.627.164.931,0q2.737-1.493,5.474-2.99c.138-.034,2.023,2.152,2.32,2.4A15.375,15.375,0,0,0,21.7,35.5a15.684,15.684,0,0,0,12.259-6.038l5.481,2.99c.315.17.792.3.954-.02s-.195-.618-.5-.784L34.5,28.678a16.121,16.121,0,0,0,1.226-2.119c0,.145,5.722.865,6.29.949.036,0,.054.018.071.018a.479.479,0,0,0,.465-.411.49.49,0,0,0-.393-.536l-5.129-.768-.947-.143a12.882,12.882,0,0,0,.715-2.359l.983-.125,5.182-.643a.448.448,0,0,0,.411-.5.462.462,0,0,0-.518-.411M11.709,8.762a15.693,15.693,0,0,0-3.431,4.718.451.451,0,0,1-.411.268.487.487,0,0,1-.447-.34c-.071-.25-1.68-5.844-1.519-9.471a.822.822,0,0,1,.5-.7.744.744,0,0,1,.822.2l4.5,4.664a.472.472,0,0,1,.125.34.447.447,0,0,1-.143.322m7.434,13.4a7.109,7.109,0,0,1,2.538-.536,7.049,7.049,0,0,1,2.555.536,1.423,1.423,0,0,1,.786.965,1.512,1.512,0,0,1-.286,1.287l-.018.036a3.874,3.874,0,0,1-6.04,0l-.036-.036a1.512,1.512,0,0,1-.286-1.287,1.471,1.471,0,0,1,.786-.965m-6.558-5.7a2.895,2.895,0,1,1,2.895,2.895,2.9,2.9,0,0,1-2.895-2.895M25.88,29.1a1.981,1.981,0,0,1-1.072.572c-.286.715-1.3,2.681-3.109,2.7-1.8-.018-2.752-1.948-3.056-2.681a2.038,2.038,0,0,1-1.126-.59.459.459,0,0,1-.018-.661.475.475,0,0,1,.661,0,1.428,1.428,0,0,0,.822.357,4.466,4.466,0,0,0,2.448-.786.487.487,0,0,1,.536,0,4.292,4.292,0,0,0,2.52.786,1.349,1.349,0,0,0,.733-.357.468.468,0,0,1,.661.661m2.037-9.739a2.9,2.9,0,1,1,2.895-2.895,2.91,2.91,0,0,1-2.895,2.895m8.059-5.951a.481.481,0,0,1-.411.34h-.036a.477.477,0,0,1-.429-.268,15.338,15.338,0,0,0-3.413-4.718.554.554,0,0,1-.161-.322.488.488,0,0,1,.143-.34l4.485-4.664a.752.752,0,0,1,.822-.2.822.822,0,0,1,.5.7c.179,3.628-1.43,9.221-1.5,9.471" transform="translate(0 0.001)" fill="#57419d"/>
    <path id="Trazado_4699" data-name="Trazado 4699" d="M22.092,12a.481.481,0,0,1-.411.34h-.036a.477.477,0,0,1-.429-.268A15.338,15.338,0,0,0,17.8,7.356a.554.554,0,0,1-.161-.322.488.488,0,0,1,.143-.34L22.27,2.031a.752.752,0,0,1,.822-.2.822.822,0,0,1,.5.7c.179,3.628-1.43,9.221-1.5,9.471" transform="translate(13.884 1.406)" fill="#efeef3"/>
    <path id="Trazado_4700" data-name="Trazado 4700" d="M9.258,7.035a.447.447,0,0,1-.143.322,15.693,15.693,0,0,0-3.431,4.718.451.451,0,0,1-.411.268A.487.487,0,0,1,4.826,12c-.071-.25-1.68-5.844-1.519-9.471a.822.822,0,0,1,.5-.7.744.744,0,0,1,.822.2L9.133,6.7a.472.472,0,0,1,.125.34" transform="translate(2.594 1.406)" fill="#efeef3"/>
  </g>
</svg>
