<svg id="Grupo_2323" data-name="Grupo 2323" xmlns="http://www.w3.org/2000/svg" xmlns:xlink="http://www.w3.org/1999/xlink" width="72.304" height="78" viewBox="0 0 72.304 78">
  <defs>
    <clipPath id="clip-path">
      <rect id="Rectángulo_1219" data-name="Rectángulo 1219" width="72.304" height="78" fill="none"/>
    </clipPath>
  </defs>
  <g id="Grupo_2322" data-name="Grupo 2322" clip-path="url(#clip-path)">
    <path id="Trazado_4379" data-name="Trazado 4379" d="M68.947,79.468h-52.4A8.544,8.544,0,0,1,8,70.924v-58.1a8.544,8.544,0,0,1,8.544-8.544h52.4a8.544,8.544,0,0,1,8.544,8.544v58.1a8.544,8.544,0,0,1-8.544,8.544" transform="translate(-6.594 -3.528)" fill="#9cb1fa"/>
    <path id="Trazado_4380" data-name="Trazado 4380" d="M72.69,87.187c-.015.038-.111.238-.113.243A20.2,20.2,0,0,1,54.553,98.955a21.42,21.42,0,0,1-2.352-.13V124.7H18.253a9.173,9.173,0,0,1-9.173-9.173v-6.242a45.6,45.6,0,0,1,13.559-6.021L38.306,60.037a2.539,2.539,0,0,1,4.828.168l1.816,6.357L47.911,63.3a2.54,2.54,0,0,1,4.411,1.485l.612,7.051a9.589,9.589,0,0,1,7.038,7.485l11.313,4.564a2.54,2.54,0,0,1,1.406,3.3" transform="translate(-7.484 -48.103)" fill="#683da3"/>
    <path id="Trazado_4381" data-name="Trazado 4381" d="M62.354,78H9.95A9.962,9.962,0,0,1,0,68.05V9.95A9.962,9.962,0,0,1,9.95,0h52.4A9.962,9.962,0,0,1,72.3,9.95v58.1A9.962,9.962,0,0,1,62.354,78M9.95,2.813A7.146,7.146,0,0,0,2.813,9.95v58.1A7.146,7.146,0,0,0,9.95,75.187h52.4a7.146,7.146,0,0,0,7.138-7.138V9.95a7.146,7.146,0,0,0-7.138-7.138Z" fill="#ff9436"/>
    <path id="Trazado_4382" data-name="Trazado 4382" d="M297.908,50.279c.369,1.692-1.469,2.06-2.278,1.839a11.927,11.927,0,0,0-4.925,0c-.81.222-2.649-.147-2.281-1.839s1.986-1.619,2.43-3.9a2.324,2.324,0,0,1,4.632,0c.441,2.281,2.057,2.208,2.424,3.9m-3.04-6.183a2.165,2.165,0,0,0,2.459-1.757,1.927,1.927,0,1,0-3.605-1.039,2.166,2.166,0,0,0,1.146,2.8M299,43.638a2.433,2.433,0,1,0,.842,2.9,2.165,2.165,0,0,0-.842-2.9m-7.533.458a2.166,2.166,0,0,0,1.146-2.8,1.927,1.927,0,1,0-1.146,2.8m-2.337,3.928a2.433,2.433,0,0,0-1.79-4.385,2.433,2.433,0,0,0,1.79,4.385" transform="translate(-235.949 -32.542)" fill="#579d9d"/>
  </g>
</svg>
