<svg xmlns="http://www.w3.org/2000/svg" width="32" height="32" viewBox="0 0 32 32">
  <g id="Grupo_2486" data-name="Grupo 2486" transform="translate(-231 -482)">
    <circle id="Elipse_20" data-name="Elipse 20" cx="16" cy="16" r="16" transform="translate(231 482)" fill="#efeef3"/>
    <path id="Union" d="M4.976,1.888c2.2-2.517,11.854-2.518,14.049,0a5.037,5.037,0,0,1,.832,2.554C23.122,5.038,24,6.348,24,9c0,2.84-1.008,4.141-4.876,4.675A7.821,7.821,0,0,1,13,17.94V22h2a1,1,0,1,1,0,2H9a1,1,0,0,1,0-2h2V17.94a7.815,7.815,0,0,1-6.158-4.335l.033.07C1.008,13.141,0,11.84,0,9,0,6.348.878,5.038,4.143,4.442A5.036,5.036,0,0,1,4.976,1.888ZM4.007,6.511a5.972,5.972,0,0,0-.943.291,1.423,1.423,0,0,0-.813.621A3.446,3.446,0,0,0,2,9a3.446,3.446,0,0,0,.25,1.577,1.423,1.423,0,0,0,.813.621,6.459,6.459,0,0,0,1.156.338q-.037-.252-.056-.51C4.048,9.509,3.977,7.934,4.007,6.511ZM19.78,11.539v0a6.459,6.459,0,0,0,1.156-.338,1.423,1.423,0,0,0,.813-.621A3.446,3.446,0,0,0,22,9a3.446,3.446,0,0,0-.25-1.577,1.423,1.423,0,0,0-.813-.621,5.972,5.972,0,0,0-.943-.291c.03,1.423-.041,3-.156,4.514Q19.818,11.285,19.78,11.539Z" transform="translate(235 486)" fill="#eb9448"/>
  </g>
</svg>
