<svg id="Grupo_2083" data-name="Grupo 2083" xmlns="http://www.w3.org/2000/svg" xmlns:xlink="http://www.w3.org/1999/xlink" width="57.803" height="47.767" viewBox="0 0 57.803 47.767">
  <defs>
    <clipPath id="clip-path">
      <rect id="Rectángulo_1098" data-name="Rectángulo 1098" width="57.803" height="47.767" fill="none"/>
    </clipPath>
    <clipPath id="clip-path-3">
      <rect id="Rectángulo_1088" data-name="Rectángulo 1088" width="19.704" height="37.848" fill="none"/>
    </clipPath>
    <clipPath id="clip-path-4">
      <rect id="Rectángulo_1089" data-name="Rectángulo 1089" width="2.184" height="3.714" fill="none"/>
    </clipPath>
    <clipPath id="clip-path-5">
      <rect id="Rectángulo_1090" data-name="Rectángulo 1090" width="1.872" height="1.547" fill="none"/>
    </clipPath>
    <clipPath id="clip-path-6">
      <rect id="Rectángulo_1091" data-name="Rectángulo 1091" width="9.729" height="1.012" fill="none"/>
    </clipPath>
    <clipPath id="clip-path-7">
      <rect id="Rectángulo_1092" data-name="Rectángulo 1092" width="0.57" height="0.59" fill="none"/>
    </clipPath>
    <clipPath id="clip-path-8">
      <rect id="Rectángulo_1093" data-name="Rectángulo 1093" width="2.09" height="0.997" fill="none"/>
    </clipPath>
    <clipPath id="clip-path-9">
      <rect id="Rectángulo_1094" data-name="Rectángulo 1094" width="6.43" height="7.377" fill="none"/>
    </clipPath>
    <clipPath id="clip-path-10">
      <rect id="Rectángulo_1095" data-name="Rectángulo 1095" width="0.579" height="0.575" fill="none"/>
    </clipPath>
  </defs>
  <g id="Grupo_2082" data-name="Grupo 2082" clip-path="url(#clip-path)">
    <g id="Grupo_2081" data-name="Grupo 2081">
      <g id="Grupo_2080" data-name="Grupo 2080" clip-path="url(#clip-path)">
        <path id="Trazado_3446" data-name="Trazado 3446" d="M86.088,156.607a115.027,115.027,0,0,1-20.94-6.1.974.974,0,0,1,.636-1.839l20.756,6.05a.974.974,0,0,1-.452,1.893" transform="translate(-47.259 -108.858)" fill="#326ab3"/>
        <path id="Trazado_3447" data-name="Trazado 3447" d="M130.848,10.367,114.176,5.508a.642.642,0,0,1-.437-.8L114.977.463a.642.642,0,0,1,.8-.437l16.672,4.859a.642.642,0,0,1,.437.8L131.644,9.93a.642.642,0,0,1-.8.437" transform="translate(-83.288 0)" fill="#326ab3"/>
        <rect id="Rectángulo_1087" data-name="Rectángulo 1087" width="0.946" height="17.644" transform="translate(30.28 7.173) rotate(-73.751)" fill="#326ab3"/>
        <path id="Trazado_3448" data-name="Trazado 3448" d="M128.231,31.678l-16.9-4.926a.523.523,0,1,1,.293-1l16.9,4.926a.523.523,0,1,1-.293,1" transform="translate(-81.267 -18.843)" fill="#87cbff"/>
        <path id="Trazado_3449" data-name="Trazado 3449" d="M129.808,26.268l-16.9-4.926a.523.523,0,1,1,.293-1l16.9,4.926a.523.523,0,0,1-.293,1" transform="translate(-82.422 -14.88)" fill="#87cbff"/>
        <path id="Trazado_3450" data-name="Trazado 3450" d="M98.3,38.673,89.736,67.907a100.062,100.062,0,0,1-21.341-6.535l8.44-28.956a4.145,4.145,0,0,1,1.238-1.946,4.035,4.035,0,0,1,.692-.489v0a4.137,4.137,0,0,1,1.4-.482l16.9,4.925a4.129,4.129,0,0,1,1.24,4.253" transform="translate(-50.095 -21.603)" fill="#abdbff"/>
        <g id="Grupo_2058" data-name="Grupo 2058" transform="translate(28.67 7.891)" style="mix-blend-mode: multiply;isolation: isolate">
          <g id="Grupo_2057" data-name="Grupo 2057">
            <g id="Grupo_2056" data-name="Grupo 2056" clip-path="url(#clip-path-3)">
              <path id="Trazado_3451" data-name="Trazado 3451" d="M126.691,38.673l-8.356,28.669-1.856-.347c1.309-4.169,8.3-26.786,7.043-29.865-1.123-2.749-16.37-7.149-16.37-7.149v0a4.137,4.137,0,0,1,1.4-.482l16.9,4.925a4.129,4.129,0,0,1,1.24,4.253" transform="translate(-107.152 -29.494)" fill="#e6e7e8"/>
            </g>
          </g>
        </g>
        <g id="Grupo_2061" data-name="Grupo 2061" transform="translate(27.097 10.561)" style="mix-blend-mode: overlay;isolation: isolate">
          <g id="Grupo_2060" data-name="Grupo 2060">
            <g id="Grupo_2059" data-name="Grupo 2059" clip-path="url(#clip-path-4)">
              <path id="Trazado_3452" data-name="Trazado 3452" d="M103.321,41.607c-.3,1.014-.961,1.712-1.487,1.558s-.713-1.1-.417-2.113.961-1.712,1.487-1.559.713,1.1.417,2.113" transform="translate(-101.276 -39.472)" fill="#ccc"/>
            </g>
          </g>
        </g>
        <path id="Trazado_3453" data-name="Trazado 3453" d="M98.453,77.558a7.467,7.467,0,1,1,5.079,9.259,7.467,7.467,0,0,1-5.079-9.259" transform="translate(-71.891 -52.867)" fill="#fff"/>
        <path id="Trazado_3454" data-name="Trazado 3454" d="M115.344,97.34c-1.227-1.963-6.257-3.26-7.154-.182-.726,2.49,1.319,1.262,2.8,2.432,2.92,2.313,6.414,1,4.358-2.25" transform="translate(-79.132 -69.815)" fill="#4cacf5"/>
        <path id="Trazado_3455" data-name="Trazado 3455" d="M112.239,84.536c-.265,1.319,1.339,1.869,1.563.408.408-1.568-1.856-2.472-1.563-.408" transform="translate(-82.187 -61.038)" fill="#4cacf5"/>
        <path id="Trazado_3456" data-name="Trazado 3456" d="M141.36,97.436c.638-1.825-2.242-.738-2.261.364.247,1.195,1.987.5,2.261-.364" transform="translate(-101.882 -70.649)" fill="#4cacf5"/>
        <path id="Trazado_3457" data-name="Trazado 3457" d="M121.968,83.642c.935,1.281,2.3-.684,2.02-1.733-.831-1.862-2.562.5-2.02,1.733" transform="translate(-89.258 -59.488)" fill="#4cacf5"/>
        <path id="Trazado_3458" data-name="Trazado 3458" d="M131.869,88.275c-.278,2.022,2.4.271,1.986-.984-.465-1.687-2.056-.114-1.986.984" transform="translate(-96.571 -63.393)" fill="#4cacf5"/>
        <path id="Trazado_3459" data-name="Trazado 3459" d="M37.884,46.634,37.618,40.6l7.171-.316a3.011,3.011,0,0,1,1.921.588h0a3.024,3.024,0,0,1-1.659,5.452Z" transform="translate(-27.553 -29.5)" fill="#99c7ff"/>
        <path id="Trazado_3460" data-name="Trazado 3460" d="M37.884,46.634l.463-.02-.182-4.134a1.142,1.142,0,0,1,1.09-1.191l6.031-.266a3.011,3.011,0,0,1,1.921.588h0a3.075,3.075,0,0,1,.443.4,3.042,3.042,0,0,0-.939-1.148h0a3.011,3.011,0,0,0-1.921-.588l-7.171.316Z" transform="translate(-27.553 -29.5)" fill="#7aadeb"/>
        <path id="Trazado_3461" data-name="Trazado 3461" d="M0,44.938a3.024,3.024,0,0,1,2.886-3.153l7.176-.317.266,6.039-7.175.317A3.031,3.031,0,0,1,0,44.938" transform="translate(0 -30.374)" fill="#52a0ff"/>
        <path id="Trazado_3462" data-name="Trazado 3462" d="M.349,46.21a3.011,3.011,0,0,0,1.364,1.32,2.963,2.963,0,0,1-.4-.589,3.02,3.02,0,0,1,2.54-4.423l6.25-.276-.034-.772-7.175.316A3.017,3.017,0,0,0,.349,46.21" transform="translate(0 -30.374)" fill="#4d96f0"/>
        <g id="Grupo_2064" data-name="Grupo 2064" transform="translate(17.497 14.631)" style="mix-blend-mode: overlay;isolation: isolate">
          <g id="Grupo_2063" data-name="Grupo 2063">
            <g id="Grupo_2062" data-name="Grupo 2062" clip-path="url(#clip-path-5)">
              <path id="Trazado_3463" data-name="Trazado 3463" d="M65.408,56.027a.3.3,0,0,0,.371.19,2.443,2.443,0,0,0,1.451-1.105.3.3,0,0,0-.123-.4.3.3,0,0,0-.4.123c-.018.029-.035.058-.054.086l-.005.008-.021.03q-.058.077-.123.148c-.043.048-.089.093-.136.137l-.037.033-.077.06a2.269,2.269,0,0,1-.327.2l-.043.019-.094.037c-.063.023-.128.043-.193.06a.3.3,0,0,0-.19.371" transform="translate(-65.393 -54.682)" fill="#a7a9ac"/>
            </g>
          </g>
        </g>
        <g id="Grupo_2067" data-name="Grupo 2067" transform="translate(6.72 15.779)" style="mix-blend-mode: overlay;isolation: isolate">
          <g id="Grupo_2066" data-name="Grupo 2066">
            <g id="Grupo_2065" data-name="Grupo 2065" clip-path="url(#clip-path-6)">
              <path id="Trazado_3464" data-name="Trazado 3464" d="M25.413,59.984l9.16-.422a.3.3,0,0,0-.026-.589l-9.16.422a.3.3,0,0,0,.026.589" transform="translate(-25.115 -58.973)" fill="#a7a9ac"/>
            </g>
          </g>
        </g>
        <g id="Grupo_2070" data-name="Grupo 2070" transform="translate(5.542 16.232)" style="mix-blend-mode: overlay;isolation: isolate">
          <g id="Grupo_2069" data-name="Grupo 2069">
            <g id="Grupo_2068" data-name="Grupo 2068" clip-path="url(#clip-path-7)">
              <path id="Trazado_3465" data-name="Trazado 3465" d="M21.012,61.254a.3.3,0,0,0-.026-.589.3.3,0,0,0,.026.589" transform="translate(-20.714 -60.665)" fill="#a7a9ac"/>
            </g>
          </g>
        </g>
        <path id="Trazado_3466" data-name="Trazado 3466" d="M169.542,91.023l-4.493,3.848-4.569-5.335a2.948,2.948,0,0,1-.706-1.835l0,0a2.95,2.95,0,0,1,3.185-3.031,2.921,2.921,0,0,1,2.016,1.021Z" transform="translate(-117.022 -62.007)" fill="#ffa8b5"/>
        <path id="Trazado_3467" data-name="Trazado 3467" d="M169.542,95.47l-.295-.344-3.075,2.634a1.117,1.117,0,0,1-1.575-.122l-3.843-4.486a2.947,2.947,0,0,1-.706-1.835l0,0a3.019,3.019,0,0,1,.044-.585,2.976,2.976,0,0,0-.318,1.416l0,0a2.948,2.948,0,0,0,.706,1.835l4.569,5.335Z" transform="translate(-117.022 -66.453)" fill="#f095a3"/>
        <path id="Trazado_3468" data-name="Trazado 3468" d="M188.243,117.956a2.959,2.959,0,0,1-4.17-.322L179.5,112.3l4.492-3.848,4.572,5.338a2.966,2.966,0,0,1-.322,4.17" transform="translate(-131.474 -79.432)" fill="#d4485c"/>
        <path id="Trazado_3469" data-name="Trazado 3469" d="M189.013,126.109a2.947,2.947,0,0,0,.195-1.847,2.951,2.951,0,0,1-3.132,2.4,2.956,2.956,0,0,1-2.018-1.024l-3.982-4.649-.574.492,4.572,5.338a2.952,2.952,0,0,0,4.94-.711" transform="translate(-131.474 -88.618)" fill="#bf394c"/>
        <g id="Grupo_2073" data-name="Grupo 2073" transform="translate(45.253 23.312)" style="mix-blend-mode: overlay;isolation: isolate">
          <g id="Grupo_2072" data-name="Grupo 2072">
            <g id="Grupo_2071" data-name="Grupo 2071" clip-path="url(#clip-path-8)">
              <path id="Trazado_3470" data-name="Trazado 3470" d="M171.177,88a.3.3,0,0,0-.078-.4,2.391,2.391,0,0,0-1.727-.452.291.291,0,0,0-.233.335.3.3,0,0,0,.335.233l.1-.01h.045c.063,0,.126,0,.189.005s.125.012.187.022l.048.009.093.023a2.192,2.192,0,0,1,.351.131l.041.022.086.05c.056.035.111.073.163.112a.29.29,0,0,0,.4-.078" transform="translate(-169.134 -87.129)" fill="#a7a9ac"/>
            </g>
          </g>
        </g>
        <g id="Grupo_2076" data-name="Grupo 2076" transform="translate(47.894 24.875)" style="mix-blend-mode: overlay;isolation: isolate">
          <g id="Grupo_2075" data-name="Grupo 2075">
            <g id="Grupo_2074" data-name="Grupo 2074" clip-path="url(#clip-path-9)">
              <path id="Trazado_3471" data-name="Trazado 3471" d="M185.362,99.871l-5.85-6.8a.289.289,0,0,0-.439.375l5.85,6.8a.289.289,0,0,0,.439-.375" transform="translate(-179.003 -92.968)" fill="#a7a9ac"/>
            </g>
          </g>
        </g>
        <g id="Grupo_2079" data-name="Grupo 2079" transform="translate(54.478 32.566)" style="mix-blend-mode: overlay;isolation: isolate">
          <g id="Grupo_2078" data-name="Grupo 2078">
            <g id="Grupo_2077" data-name="Grupo 2077" clip-path="url(#clip-path-10)">
              <path id="Trazado_3472" data-name="Trazado 3472" d="M204.119,121.813a.289.289,0,0,0-.438.375.289.289,0,0,0,.438-.375" transform="translate(-203.611 -121.713)" fill="#a7a9ac"/>
            </g>
          </g>
        </g>
        <path id="Trazado_3473" data-name="Trazado 3473" d="M58.053,101.857a5.955,5.955,0,1,1-5.829-5.877,5.855,5.855,0,0,1,5.829,5.877" transform="translate(-33.803 -70.299)" fill="#e86678"/>
        <path id="Trazado_3474" data-name="Trazado 3474" d="M46.726,102.548A5.855,5.855,0,0,1,52.8,96.923a6.013,6.013,0,0,1,4.7,2.385,5.972,5.972,0,0,0-5.273-3.327,5.854,5.854,0,0,0-6.072,5.625,5.6,5.6,0,0,0,1.13,3.492,5.572,5.572,0,0,1-.556-2.549" transform="translate(-33.803 -70.299)" fill="#e88290"/>
        <path id="Trazado_3475" data-name="Trazado 3475" d="M58.165,105.412a5.569,5.569,0,0,1,.416,2.237,5.855,5.855,0,0,1-6.072,5.625,6.006,6.006,0,0,1-4.8-2.523,5.959,5.959,0,0,0,5.413,3.639,5.854,5.854,0,0,0,6.072-5.625,5.6,5.6,0,0,0-1.031-3.354" transform="translate(-34.945 -77.208)" fill="#d95265"/>
        <rect id="Rectángulo_1096" data-name="Rectángulo 1096" width="7.774" height="1.017" transform="matrix(0.731, -0.683, 0.683, 0.731, 15.234, 33.807)" fill="#b34352"/>
      </g>
    </g>
  </g>
</svg>
