<svg id="Grupo_2454" data-name="Grupo 2454" xmlns="http://www.w3.org/2000/svg" xmlns:xlink="http://www.w3.org/1999/xlink" width="46.969" height="48" viewBox="0 0 46.969 48">
  <defs>
    <clipPath id="clip-path">
      <rect id="Rectángulo_2741" data-name="Rectángulo 2741" width="46.969" height="48" fill="#eb9448"/>
    </clipPath>
  </defs>
  <g id="Grupo_2453" data-name="Grupo 2453" transform="translate(0 0)" clip-path="url(#clip-path)">
    <path id="Trazado_4715" data-name="Trazado 4715" d="M23.486,22.146c-.024,0-3.522.048-3.714,2.157-.072.479.383.982.767,1.318a4.567,4.567,0,0,0,5.894,0,1.937,1.937,0,0,0,.791-1.318c-.216-2.109-3.69-2.157-3.738-2.157m0,0c-.024,0-3.522.048-3.714,2.157-.072.479.383.982.767,1.318a4.567,4.567,0,0,0,5.894,0,1.937,1.937,0,0,0,.791-1.318c-.216-2.109-3.69-2.157-3.738-2.157m0,0c-.024,0-3.522.048-3.714,2.157-.072.479.383.982.767,1.318a4.567,4.567,0,0,0,5.894,0,1.937,1.937,0,0,0,.791-1.318c-.216-2.109-3.69-2.157-3.738-2.157m0,0c-.024,0-3.522.048-3.714,2.157-.072.479.383.982.767,1.318a4.567,4.567,0,0,0,5.894,0,1.937,1.937,0,0,0,.791-1.318c-.216-2.109-3.69-2.157-3.738-2.157m17.875-19C34-1.049,12.967-1.049,5.611,3.145A11.424,11.424,0,0,0,.531,16.467c1.174,3.738,2.132,8.866.551,12.915A7.707,7.707,0,0,0,6.474,27.9c2.42-1.965,3.57-5.7,3.378-11.166a.935.935,0,0,1,.911-.958.95.95,0,0,1,.959.911c.191,5.679-1.03,9.752-3.57,12.172a17.314,17.314,0,0,0,5.032,9.9l.1.1a14.555,14.555,0,0,0,10.064,3.522h.288a14.507,14.507,0,0,0,10.207-3.642A1.027,1.027,0,0,1,34,38.583a17.551,17.551,0,0,0,4.84-9.729c-2.564-2.42-3.786-6.493-3.57-12.172a.907.907,0,0,1,.959-.911.968.968,0,0,1,.91.958c-.191,5.463.935,9.2,3.379,11.166a7.6,7.6,0,0,0,5.367,1.485c-1.582-4.049-.623-9.177.551-12.915a11.454,11.454,0,0,0-5.08-13.322M23.486,20.3c1.941,0,5.3.791,5.583,3.834a3.461,3.461,0,0,1-1.414,2.9,6.435,6.435,0,0,1-8.339,0,3.461,3.461,0,0,1-1.414-2.9c.288-3.043,3.642-3.834,5.583-3.834m-9.369-6.421a2.24,2.24,0,1,1,2.228,2.252,2.244,2.244,0,0,1-2.228-2.252m14.544,20.7a9.19,9.19,0,0,0-9.728,0c-.79.5-1.509-.743-.742-1.222a10.586,10.586,0,0,1,11.19,0c.79.479.072,1.725-.719,1.222m1.965-18.45a2.252,2.252,0,1,1,2.228-2.252,2.25,2.25,0,0,1-2.228,2.252M20.539,25.62a4.567,4.567,0,0,0,5.894,0,1.937,1.937,0,0,0,.791-1.318c-.216-2.109-3.69-2.157-3.738-2.157-.024,0-3.522.048-3.714,2.157-.072.479.383.982.767,1.318m2.947-3.474c-.024,0-3.522.048-3.714,2.157-.072.479.383.982.767,1.318a4.567,4.567,0,0,0,5.894,0,1.937,1.937,0,0,0,.791-1.318c-.216-2.109-3.69-2.157-3.738-2.157m0,0c-.024,0-3.522.048-3.714,2.157-.072.479.383.982.767,1.318a4.567,4.567,0,0,0,5.894,0,1.937,1.937,0,0,0,.791-1.318c-.216-2.109-3.69-2.157-3.738-2.157m0,0c-.024,0-3.522.048-3.714,2.157-.072.479.383.982.767,1.318a4.567,4.567,0,0,0,5.894,0,1.937,1.937,0,0,0,.791-1.318c-.216-2.109-3.69-2.157-3.738-2.157m0,0c-.024,0-3.522.048-3.714,2.157-.072.479.383.982.767,1.318a4.567,4.567,0,0,0,5.894,0,1.937,1.937,0,0,0,.791-1.318c-.216-2.109-3.69-2.157-3.738-2.157" transform="translate(0 0)" fill="#eb9448"/>
    <path id="Trazado_4716" data-name="Trazado 4716" d="M52.365,52.474a1.935,1.935,0,0,1-.79,1.318,4.567,4.567,0,0,1-5.895,0c-.383-.335-.838-.838-.767-1.318.192-2.109,3.69-2.157,3.714-2.157.048,0,3.522.048,3.738,2.157" transform="translate(-25.142 -28.171)" fill="#eb9448"/>
    <path id="Trazado_4717" data-name="Trazado 4717" d="M52.365,52.474a1.935,1.935,0,0,1-.79,1.318,4.567,4.567,0,0,1-5.895,0c-.383-.335-.838-.838-.767-1.318.192-2.109,3.69-2.157,3.714-2.157.048,0,3.522.048,3.738,2.157" transform="translate(-25.142 -28.171)" fill="#eb9448"/>
    <path id="Trazado_4718" data-name="Trazado 4718" d="M39.884,96.693h-.309a16.551,16.551,0,0,1-9.851-2.886,24.732,24.732,0,0,1-.7,3.527,18.4,18.4,0,0,0,10.493,3.129.72.72,0,0,1,.221-.044.837.837,0,0,1,.177.033,22.467,22.467,0,0,0,10.57-3.184,23.093,23.093,0,0,1-.6-3.56,16.514,16.514,0,0,1-10.006,2.985" transform="translate(-16.251 -52.464)" fill="#eb9448"/>
  </g>
</svg>
