<svg id="Grupo_2456" data-name="Grupo 2456" xmlns="http://www.w3.org/2000/svg" xmlns:xlink="http://www.w3.org/1999/xlink" width="46.975" height="48" viewBox="0 0 46.975 48">
  <defs>
    <clipPath id="clip-path">
      <rect id="Rectángulo_2742" data-name="Rectángulo 2742" width="46.975" height="48" transform="translate(0 0)" fill="none"/>
    </clipPath>
  </defs>
  <g id="Grupo_2455" data-name="Grupo 2455" transform="translate(0 0)" clip-path="url(#clip-path)">
    <path id="Trazado_4719" data-name="Trazado 4719" d="M48.623,50.289s-3.492.04-3.695,2.152c-.081.487.365,1.015.771,1.34a4.6,4.6,0,0,0,5.887,0,1.921,1.921,0,0,0,.771-1.34c-.2-2.111-3.695-2.152-3.735-2.152m0,0s-3.492.04-3.695,2.152c-.081.487.365,1.015.771,1.34a4.6,4.6,0,0,0,5.887,0,1.921,1.921,0,0,0,.771-1.34c-.2-2.111-3.695-2.152-3.735-2.152m0,0s-3.492.04-3.695,2.152c-.081.487.365,1.015.771,1.34a4.6,4.6,0,0,0,5.887,0,1.921,1.921,0,0,0,.771-1.34c-.2-2.111-3.695-2.152-3.735-2.152m0,0s-3.492.04-3.695,2.152c-.081.487.365,1.015.771,1.34a4.6,4.6,0,0,0,5.887,0,1.921,1.921,0,0,0,.771-1.34c-.2-2.111-3.695-2.152-3.735-2.152m0,0s-3.492.04-3.695,2.152c-.081.487.365,1.015.771,1.34a4.6,4.6,0,0,0,5.887,0,1.921,1.921,0,0,0,.771-1.34c-.2-2.111-3.695-2.152-3.735-2.152m0,0s-3.492.04-3.695,2.152c-.081.487.365,1.015.771,1.34a4.6,4.6,0,0,0,5.887,0,1.921,1.921,0,0,0,.771-1.34c-.2-2.111-3.695-2.152-3.735-2.152m0,0s-3.492.04-3.695,2.152c-.081.487.365,1.015.771,1.34a4.6,4.6,0,0,0,5.887,0,1.921,1.921,0,0,0,.771-1.34c-.2-2.111-3.695-2.152-3.735-2.152m0,0s-3.492.04-3.695,2.152c-.081.487.365,1.015.771,1.34a4.6,4.6,0,0,0,5.887,0,1.921,1.921,0,0,0,.771-1.34c-.2-2.111-3.695-2.152-3.735-2.152m0,0s-3.492.04-3.695,2.152c-.081.487.365,1.015.771,1.34a4.6,4.6,0,0,0,5.887,0,1.921,1.921,0,0,0,.771-1.34c-.2-2.111-3.695-2.152-3.735-2.152m0,0s-3.492.04-3.695,2.152c-.081.487.365,1.015.771,1.34a4.6,4.6,0,0,0,5.887,0,1.921,1.921,0,0,0,.771-1.34c-.2-2.111-3.695-2.152-3.735-2.152m0,0s-3.492.04-3.695,2.152c-.081.487.365,1.015.771,1.34a4.6,4.6,0,0,0,5.887,0,1.921,1.921,0,0,0,.771-1.34c-.2-2.111-3.695-2.152-3.735-2.152" transform="translate(-25.146 -28.152)" fill="#57419d"/>
    <path id="Trazado_4720" data-name="Trazado 4720" d="M23.478,22.137s-3.492.04-3.695,2.152c-.081.487.365,1.015.771,1.34a4.6,4.6,0,0,0,5.887,0,1.921,1.921,0,0,0,.771-1.34c-.2-2.111-3.695-2.152-3.735-2.152m0,0s-3.492.04-3.695,2.152c-.081.487.365,1.015.771,1.34a4.6,4.6,0,0,0,5.887,0,1.921,1.921,0,0,0,.771-1.34c-.2-2.111-3.695-2.152-3.735-2.152m0,0s-3.492.04-3.695,2.152c-.081.487.365,1.015.771,1.34a4.6,4.6,0,0,0,5.887,0,1.921,1.921,0,0,0,.771-1.34c-.2-2.111-3.695-2.152-3.735-2.152m0,0s-3.492.04-3.695,2.152c-.081.487.365,1.015.771,1.34a4.6,4.6,0,0,0,5.887,0,1.921,1.921,0,0,0,.771-1.34c-.2-2.111-3.695-2.152-3.735-2.152m0,0s-3.492.04-3.695,2.152c-.081.487.365,1.015.771,1.34a4.6,4.6,0,0,0,5.887,0,1.921,1.921,0,0,0,.771-1.34c-.2-2.111-3.695-2.152-3.735-2.152m0,0s-3.492.04-3.695,2.152c-.081.487.365,1.015.771,1.34a4.6,4.6,0,0,0,5.887,0,1.921,1.921,0,0,0,.771-1.34c-.2-2.111-3.695-2.152-3.735-2.152m17.9-19c-7.389-4.182-28.421-4.182-35.769,0A11.409,11.409,0,0,0,.538,16.453c1.178,3.736,2.111,8.892.528,12.911a7.656,7.656,0,0,0,5.4-1.461c2.436-1.99,3.573-5.725,3.37-11.165a.98.98,0,0,1,.934-.974,1.009,1.009,0,0,1,.974.934c.162,5.684-1.056,9.744-3.573,12.14a17.066,17.066,0,0,0,5.034,9.906l.081.122a14.615,14.615,0,0,0,10.069,3.492h.284a14.52,14.52,0,0,0,10.191-3.614c.041-.081.121-.121.162-.162a17.805,17.805,0,0,0,4.872-9.744c-2.6-2.4-3.816-6.456-3.573-12.14a.919.919,0,0,1,.934-.934.98.98,0,0,1,.934.974c-.2,5.44.934,9.176,3.37,11.165a7.559,7.559,0,0,0,5.359,1.461c-1.583-4.02-.609-9.176.569-12.911A11.512,11.512,0,0,0,41.383,3.136m-12.3,20.99A3.614,3.614,0,0,1,27.66,27.05a6.456,6.456,0,0,1-4.182,1.5,6.35,6.35,0,0,1-4.141-1.5,3.394,3.394,0,0,1-1.421-2.923c.284-3.045,3.614-3.817,5.562-3.817s5.319.772,5.6,3.817M15.114,16.21a.568.568,0,0,1-.365-.121.641.641,0,0,1-.121-.894c.081-.081,1.867-2.436,2.6-3.166A1.012,1.012,0,0,1,18,11.744c1.056.081,2.558,1.868,3.167,2.639a.628.628,0,0,1-.528,1.015.634.634,0,0,1-.487-.243A8.617,8.617,0,0,0,18,13c-.731.771-2.355,2.923-2.4,2.964a.579.579,0,0,1-.487.243M29.405,33.1a10.618,10.618,0,0,1-11.205,0,.71.71,0,0,1,.731-1.218,9.174,9.174,0,0,0,9.744,0c.772-.488,1.5.731.731,1.218m3.37-17.012a.569.569,0,0,1-.365.121.635.635,0,0,1-.487-.243c0-.041-1.665-2.193-2.4-2.964a8.625,8.625,0,0,0-2.152,2.152.635.635,0,0,1-.487.243.683.683,0,0,1-.406-.121.637.637,0,0,1-.081-.893c.569-.771,2.071-2.558,3.126-2.639a1.012,1.012,0,0,1,.772.284c.731.731,2.517,3.085,2.6,3.166a.642.642,0,0,1-.122.894m-6.334,9.541a1.921,1.921,0,0,0,.771-1.34c-.2-2.111-3.695-2.152-3.735-2.152,0,0-3.492.04-3.695,2.152-.081.487.365,1.015.771,1.34a4.6,4.6,0,0,0,5.887,0m-2.964-3.492s-3.492.04-3.695,2.152c-.081.487.365,1.015.771,1.34a4.6,4.6,0,0,0,5.887,0,1.921,1.921,0,0,0,.771-1.34c-.2-2.111-3.695-2.152-3.735-2.152m0,0s-3.492.04-3.695,2.152c-.081.487.365,1.015.771,1.34a4.6,4.6,0,0,0,5.887,0,1.921,1.921,0,0,0,.771-1.34c-.2-2.111-3.695-2.152-3.735-2.152m0,0s-3.492.04-3.695,2.152c-.081.487.365,1.015.771,1.34a4.6,4.6,0,0,0,5.887,0,1.921,1.921,0,0,0,.771-1.34c-.2-2.111-3.695-2.152-3.735-2.152m0,0s-3.492.04-3.695,2.152c-.081.487.365,1.015.771,1.34a4.6,4.6,0,0,0,5.887,0,1.921,1.921,0,0,0,.771-1.34c-.2-2.111-3.695-2.152-3.735-2.152" transform="translate(0 0)" fill="#57419d"/>
    <path id="Trazado_4721" data-name="Trazado 4721" d="M52.358,52.441a1.921,1.921,0,0,1-.771,1.34,4.6,4.6,0,0,1-5.887,0c-.406-.325-.853-.853-.771-1.34.2-2.111,3.695-2.152,3.695-2.152.041,0,3.532.04,3.735,2.152" transform="translate(-25.145 -28.152)" fill="#57419d"/>
    <path id="Trazado_4722" data-name="Trazado 4722" d="M52.358,52.441a1.921,1.921,0,0,1-.771,1.34,4.6,4.6,0,0,1-5.887,0c-.406-.325-.853-.853-.771-1.34.2-2.111,3.695-2.152,3.695-2.152.041,0,3.532.04,3.735,2.152" transform="translate(-25.145 -28.152)" fill="#57419d"/>
    <path id="Trazado_4723" data-name="Trazado 4723" d="M52.358,52.441a1.921,1.921,0,0,1-.771,1.34,4.6,4.6,0,0,1-5.887,0c-.406-.325-.853-.853-.771-1.34.2-2.111,3.695-2.152,3.695-2.152.041,0,3.532.04,3.735,2.152" transform="translate(-25.145 -28.152)" fill="#57419d"/>
    <path id="Trazado_4724" data-name="Trazado 4724" d="M39.889,96.677h-.309a16.549,16.549,0,0,1-9.851-2.886,24.731,24.731,0,0,1-.7,3.527,18.409,18.409,0,0,0,10.493,3.129.72.72,0,0,1,.221-.044.837.837,0,0,1,.177.033,22.467,22.467,0,0,0,10.57-3.184,23.093,23.093,0,0,1-.6-3.56,16.515,16.515,0,0,1-10.006,2.985" transform="translate(-16.251 -52.448)" fill="#57419d"/>
  </g>
</svg>
