<svg id="Grupo_2489" data-name="Grupo 2489" xmlns="http://www.w3.org/2000/svg" xmlns:xlink="http://www.w3.org/1999/xlink" width="20" height="20.827" viewBox="0 0 20 20.827">
  <defs>
    <clipPath id="clip-path">
      <rect id="Rectángulo_2772" data-name="Rectángulo 2772" width="20" height="20.827" fill="#57419d"/>
    </clipPath>
  </defs>
  <g id="Grupo_2488" data-name="Grupo 2488" transform="translate(0 0)" clip-path="url(#clip-path)">
    <path id="Trazado_4810" data-name="Trazado 4810" d="M19.728,4.793l-2.117-.854a.019.019,0,0,1-.012-.014,1.8,1.8,0,0,0-1.308-1.393.019.019,0,0,1-.014-.017l-.111-1.28A.511.511,0,0,0,15.944.84a.478.478,0,0,0-.611.082L14.8,1.51a.02.02,0,0,1-.034-.008L14.435.341A.48.48,0,0,0,13.527.31L11.069,7.092A3.04,3.04,0,0,1,9.385,8.844a8.508,8.508,0,0,0-3.909,3.344,7.014,7.014,0,0,0-.664,6.2.9.9,0,0,1-1.127,1.2A4.824,4.824,0,0,1,.911,17.1a.477.477,0,0,0-.861.413,5.849,5.849,0,0,0,5.266,3.318H14.41a.492.492,0,0,0,.5-.484A2.185,2.185,0,0,0,13,18.27a.019.019,0,0,1-.012-.027c.409-.808.094-1.6.392-1.992a.114.114,0,0,1,.127-.03c1.188.534,2.862,4.381,2.862,4.381a.5.5,0,0,0,.417.226h1.727a.481.481,0,0,0,.4-.732c-.008-.013-.361-.574-.836-1.334A12.756,12.756,0,0,1,16.14,12V7.624a.019.019,0,0,1,.022-.019c2.225.22,3.388-.555,3.809-2.145a.522.522,0,0,0-.243-.667" transform="translate(0 0)" fill="#57419d"/>
  </g>
</svg>
