<svg xmlns="http://www.w3.org/2000/svg" width="32" height="20" viewBox="0 0 32 20">
  <g id="Grupo_2487" data-name="Grupo 2487" transform="translate(-200 -276)">
    <path id="Union" d="M16,10a5,5,0,1,1,5-5A5,5,0,0,1,16,10Z" transform="translate(200 276)" fill="#57419d"/>
    <path id="Union-2" data-name="Union" d="M16,20c-6.588,0-8-.706-8-4s1.412-4,8-4,8,.706,8,4S22.588,20,16,20Z" transform="translate(200 276)" fill="#57419d"/>
    <path id="Union-3" data-name="Union" d="M27,6a4.006,4.006,0,0,0-4-4,1,1,0,0,0,0,2,2,2,0,0,1,0,4,1,1,0,0,0,0,2A4.006,4.006,0,0,0,27,6Z" transform="translate(200 276)" fill="#57419d"/>
    <path id="Union-4" data-name="Union" d="M9,2a4,4,0,0,0,0,8A1,1,0,0,0,9,8,2,2,0,0,1,9,4,1,1,0,0,0,9,2Z" transform="translate(200 276)" fill="#57419d"/>
    <path id="Union-5" data-name="Union" d="M24,12a1,1,0,0,1,1-1,28.762,28.762,0,0,1,2.9.113,7.092,7.092,0,0,1,2.164.512,3.086,3.086,0,0,1,1.5,1.344A4.2,4.2,0,0,1,32,15a4.54,4.54,0,0,1-.393,1.988,3.048,3.048,0,0,1-1.261,1.345A7.722,7.722,0,0,1,26.6,19a1,1,0,1,1,0-2,6,6,0,0,0,2.754-.4,1.05,1.05,0,0,0,.452-.477A2.587,2.587,0,0,0,30,15a2.255,2.255,0,0,0-.2-1.075,1.1,1.1,0,0,0-.564-.477A5.186,5.186,0,0,0,27.69,13.1,26.883,26.883,0,0,0,25,13,1,1,0,0,1,24,12Z" transform="translate(200 276)" fill="#57419d"/>
    <path id="Union-6" data-name="Union" d="M7,11a1,1,0,0,1,0,2,26.883,26.883,0,0,0-2.69.1,5.186,5.186,0,0,0-1.549.346,1.1,1.1,0,0,0-.564.477A2.255,2.255,0,0,0,2,15a2.587,2.587,0,0,0,.194,1.119,1.05,1.05,0,0,0,.452.477A6,6,0,0,0,5.4,17a1,1,0,0,1,0,2,7.722,7.722,0,0,1-3.746-.667A3.048,3.048,0,0,1,.393,16.988,4.54,4.54,0,0,1,0,15a4.2,4.2,0,0,1,.44-2.032,3.086,3.086,0,0,1,1.5-1.344A7.092,7.092,0,0,1,4.1,11.113,28.762,28.762,0,0,1,7,11Z" transform="translate(200 276)" fill="#57419d"/>
  </g>
</svg>
