<svg id="Grupo_1666" data-name="Grupo 1666" xmlns="http://www.w3.org/2000/svg" width="26.778" height="27.401" viewBox="0 0 26.778 27.401">
  <path id="Trazado_2547" data-name="Trazado 2547" d="M306.161,766.1a13.122,13.122,0,0,1,3.554-4.5,13.676,13.676,0,0,1,15.7-1.193,15.3,15.3,0,0,1,1.886,1.346c.148.121.131.192.006.311-1.219,1.215-2.439,2.429-3.648,3.654-.143.143-.219.131-.372.017a8.06,8.06,0,0,0-12.459,3.68,1.445,1.445,0,0,1-.1.191c-.706-.536-1.416-1.072-2.116-1.614C307.8,767.361,306.975,766.731,306.161,766.1Z" transform="translate(-304.743 -758.472)" fill="#e94335"/>
  <path id="Trazado_2548" data-name="Trazado 2548" d="M310.733,772.732a14.176,14.176,0,0,0,.727,1.547,7.868,7.868,0,0,0,5.349,3.806,8.542,8.542,0,0,0,6.015-.919c.066-.032.131-.065.192-.1a1.264,1.264,0,0,0,.094.1q2.116,1.642,4.239,3.282a10.788,10.788,0,0,1-2.27,1.684,13.149,13.149,0,0,1-7.668,1.7,13.422,13.422,0,0,1-8.7-4,12.484,12.484,0,0,1-2.554-3.609c.585-.448,1.17-.892,1.755-1.34C308.852,774.16,309.792,773.448,310.733,772.732Z" transform="translate(-304.744 -756.471)" fill="#34a853"/>
  <path id="Trazado_2549" data-name="Trazado 2549" d="M325.842,781.073q-2.116-1.64-4.239-3.282a.752.752,0,0,1-.092-.1,8.4,8.4,0,0,0,1.383-1.225,6.357,6.357,0,0,0,1.34-2.713c.027-.125.006-.17-.12-.164-.066.006-.125,0-.192,0-2.232,0-4.468-.006-6.7.006-.246,0-.3-.066-.3-.3q.015-2.379,0-4.758c0-.2.055-.258.257-.258q6.137.009,12.278,0c.176,0,.246.043.291.23a12.914,12.914,0,0,1,.109,4.534,14.842,14.842,0,0,1-.913,3.527,12.547,12.547,0,0,1-2.965,4.4C325.935,781.013,325.886,781.04,325.842,781.073Z" transform="translate(-303.232 -757.095)" fill="#4285f3"/>
  <path id="Trazado_2550" data-name="Trazado 2550" d="M310.907,773.794c-.941.716-1.882,1.428-2.822,2.144-.585.442-1.17.892-1.755,1.34a11.837,11.837,0,0,1-.99-2.652,13.8,13.8,0,0,1-.279-5.393,12.563,12.563,0,0,1,1.269-4.069c.82.628,1.635,1.263,2.455,1.892q1.059.812,2.116,1.614a16.058,16.058,0,0,0-.344,1.761,8.507,8.507,0,0,0,.317,3.211A.429.429,0,0,1,310.907,773.794Z" transform="translate(-304.918 -757.533)" fill="#fabb06"/>
</svg>
