<svg xmlns="http://www.w3.org/2000/svg" width="24" height="24" viewBox="0 0 24 24">
  <g id="Grupo_1659" data-name="Grupo 1659" transform="translate(-24 -16)">
    <rect id="Rectángulo_809" data-name="Rectángulo 809" width="24" height="24" transform="translate(24 16)" fill="none"/>
    <path id="Trazado_2546" data-name="Trazado 2546" d="M564.834,765.511v10.377a2.545,2.545,0,0,1-2.5,2.583h-3.851v-7.527a1.7,1.7,0,0,0-1.666-1.723H552.85a1.7,1.7,0,0,0-1.666,1.723v7.527h-3.85a2.545,2.545,0,0,1-2.5-2.583V765.494a1.744,1.744,0,0,1,.775-1.455l8.067-5.271a1.812,1.812,0,0,1,1.958-.018l8.4,5.3A1.74,1.74,0,0,1,564.834,765.511Z" transform="translate(-518.834 -740.472)" fill="#57419d"/>
  </g>
</svg>
