<svg id="Grupo_2330" data-name="Grupo 2330" xmlns="http://www.w3.org/2000/svg" xmlns:xlink="http://www.w3.org/1999/xlink" width="100.164" height="80.091" viewBox="0 0 100.164 80.091">
  <defs>
    <clipPath id="clip-path">
      <rect id="Rect치ngulo_1224" data-name="Rect치ngulo 1224" width="100.164" height="80.091" fill="none"/>
    </clipPath>
  </defs>
  <g id="Grupo_2329" data-name="Grupo 2329" clip-path="url(#clip-path)">
    <path id="Trazado_4428" data-name="Trazado 4428" d="M55.91,16.765a27.754,27.754,0,0,1-3.3,7.093c-.173.275-.346.559-.535.841.472-2.721-.747-2.768-.747-2.768a9.787,9.787,0,0,0-2.627.48s.967-.85.967-1.384-4.758.11-7.164,1.219S37.539,26.8,37.539,26.8a19.191,19.191,0,0,0-4-.181c6.456-5.072,14.108-9.193,22.374-9.854" transform="translate(-13.899 -6.948)" fill="#a1d7d6"/>
    <path id="Trazado_4429" data-name="Trazado 4429" d="M19.167,57.461c-.747.346-1.525.684-2.32,1.014l-.016.008a.047.047,0,0,1-.031.008c-.582.181-7.18,2.163-7.935.55-.755-1.6,2.493-6.425,2.847-6.959a.116.116,0,0,1,.023-.032.024.024,0,0,0,.008-.016c.2-.228.409-.464.613-.7a10.625,10.625,0,0,0,2.831,2.98s-.212.605,1.377,1.447a16.338,16.338,0,0,1,2.6,1.7" transform="translate(-3.627 -21.275)" fill="#a1d7d6"/>
    <path id="Trazado_4430" data-name="Trazado 4430" d="M5.236,59.548c.774,1.654,7.659-.461,7.972-.558A85.637,85.637,0,0,1,0,63.236,93.494,93.494,0,0,1,8.112,52.557c-.195.283-3.65,5.346-2.876,6.991" transform="translate(0 -21.782)" fill="#579d9d"/>
    <path id="Trazado_4431" data-name="Trazado 4431" d="M42.011,16.766a27.754,27.754,0,0,1-3.3,7.093c-.173.275-.346.558-.535.841a42.3,42.3,0,0,1-2.634,3.57c0,.008,0,.008-.008.016a48.37,48.37,0,0,1-6.795,6.74,60.485,60.485,0,0,1-13.2,8.108c-.747.347-1.526.685-2.32,1.015l-.016.008a.046.046,0,0,1-.032.008A85.11,85.11,0,0,1,0,48.4s6.111,4.758,19.708,4.884c.559.008,1.132.008,1.722-.008l13.306-9.492,3.185-2.281h.008c.173-.291,7.148-11.654,4.081-24.74" transform="translate(0 -6.949)" fill="#a1d7d6"/>
    <path id="Trazado_4432" data-name="Trazado 4432" d="M56,30.633a12.585,12.585,0,0,0-.881,2.509c0,.008,0,.008-.008.016A48.331,48.331,0,0,1,48.32,39.9s-1.487-.409-.952-4.64,7.369-6.763,8.454-6.74.661,1.3.181,2.116" transform="translate(-19.583 -11.819)" fill="#d3a484"/>
    <path id="Trazado_4433" data-name="Trazado 4433" d="M52.5,23.911c0,.535-.967,1.384-.967,1.384a18.918,18.918,0,0,0-7.55,5.23,21.208,21.208,0,0,0-3.609-.841s2.555-3.445,4.962-4.553S52.5,23.384,52.5,23.911" transform="translate(-16.732 -9.832)" fill="#775239"/>
    <path id="Trazado_4434" data-name="Trazado 4434" d="M42.8,25.589a9.833,9.833,0,0,0-2.627.48,18.923,18.923,0,0,0-7.55,5.23,21.208,21.208,0,0,0-3.609-.841,19.233,19.233,0,0,0-4-.181c-.189.008-.385.016-.582.04-4.231.425-5.387,4.679-5.387,4.679a5.094,5.094,0,0,1-2.226.369c-.6,0-1.227-.047-1.793-.1,0,0-.094,2.21-2.052,2.446a7.843,7.843,0,0,0,1.132,2.957,10.741,10.741,0,0,0,2.722,2.9c-.231.836,4.01,3.151,4.088,3.221a60.507,60.507,0,0,0,13.2-8.108s-1.487-.409-.952-4.64,7.369-6.764,8.454-6.74.661,1.3.181,2.116a12.573,12.573,0,0,0-.881,2.509,42.521,42.521,0,0,0,2.634-3.57c.472-2.721-.747-2.769-.747-2.769" transform="translate(-5.377 -10.605)" fill="#9b6d49"/>
    <path id="Trazado_4435" data-name="Trazado 4435" d="M130.409,62.055a17.6,17.6,0,0,1,1.949,6.118c.225-.091,6.913-2.581,13.412,5.8,0,0-2.205-11.465-15.36-11.922" transform="translate(-54.047 -25.718)" fill="#724e36"/>
    <path id="Trazado_4436" data-name="Trazado 4436" d="M47.368,118.249a7.243,7.243,0,0,1-1.235,2.532H40.668s-.314-2.6.881-2.886a2.941,2.941,0,0,1,2.257.558s-.354-4.86-.983-10L42.162,98.18c1.887,1.825,6.205,4.207,8.053,7.738-.936,2.533-2.784,6.582-3.17,8.454-.526,2.571.323,3.067.323,3.877" transform="translate(-16.839 -40.69)" fill="#775239"/>
    <path id="Trazado_4437" data-name="Trazado 4437" d="M111.129,112.587c-.078.087-.158.165-.236.252-1.2,1.274-2.831,3.082-2.831,3.082H103.3s-.637-2.485,1.376-3.067,2.116,1.219,2.116,1.219c1.219-1.007,1.266-3.067.417-5.961s-3.1-5-7.613-8.029a14.687,14.687,0,0,1-4.781-6.236,66.922,66.922,0,0,0,6.968-3.618s1.51,6.818,6.024,9.854c.818.55,1.565,1.062,2.242,1.565a3.915,3.915,0,0,0-.4,1.849c.362,6.551,2.7,7.825,1.479,9.091" transform="translate(-39.297 -37.395)" fill="#775239"/>
    <path id="Trazado_4438" data-name="Trazado 4438" d="M97.8,67.944a20,20,0,0,0-1.258-4.262,17.606,17.606,0,0,0-3.531-5.364,18.877,18.877,0,0,0-2.282-2v-.01l.008-.008a21.364,21.364,0,0,0-6.071-3.036A41.328,41.328,0,0,0,53.1,55.8H53.09l-3.185,2.28L36.6,67.575s1.549,8.666,3.664,10.923c.071.079.142.15.228.236,1.887,1.825,6.2,4.208,8.053,7.739A7.4,7.4,0,0,1,49.355,89c.637,5.144.991,10,.991,10a2.944,2.944,0,0,0-2.257-.559c-1.2.283-.881,2.886-.881,2.886h5.466A7.26,7.26,0,0,0,53.9,98.8c0-.81-.841-1.305-.314-3.877s3.807-9.24,3.7-10.467a11.59,11.59,0,0,0-1.58-3.532S60.9,82.021,70.69,77.7a66.733,66.733,0,0,0,6.968-3.617s1.51,6.818,6.024,9.854c.818.55,1.565,1.062,2.241,1.565,3.044,2.249,4.679,4.1,5.371,6.465.85,2.894.795,4.954-.425,5.961,0,0-.1-1.8-2.107-1.219a1.95,1.95,0,0,0-.889.511,3.014,3.014,0,0,0-.487,2.556h4.758s1.848-2.06,3.067-3.334-1.487-2.533-1.487-9.091,4.711-15.917,4.074-19.4" transform="translate(-15.168 -21.244)" fill="#9b6d49"/>
    <path id="Trazado_4439" data-name="Trazado 4439" d="M88.639,85.4a66.806,66.806,0,0,1-6.968,3.618c-9.791,4.326-14.989,3.232-14.989,3.232l-.385-.724-3.106-5.953A11.347,11.347,0,0,0,71.2,89.95a10.551,10.551,0,0,0,4.215-.692,57.981,57.981,0,0,0,5.466-2.3c3.161-1.565,4.16-2.737,4.4-3.767.338-1.423,3.02-4.475,3.232-4.711a11.836,11.836,0,0,0,.118,6.912" transform="translate(-26.189 -32.527)" fill="#9b6d49"/>
    <path id="Trazado_4440" data-name="Trazado 4440" d="M15.9,42.123s-.914,2.926-2.872,3.162c-.052-.34-.194-1.47-.2-1.835A1.451,1.451,0,0,1,14.457,42c.163.019,1.268.1,1.445.118" transform="translate(-5.319 -17.404)" fill="#202021"/>
    <path id="Trazado_4441" data-name="Trazado 4441" d="M29.658,39.729c-.412.714-1.142,1.065-1.629.783s-.548-1.088-.136-1.8,1.142-1.065,1.629-.783.548,1.088.136,1.8" transform="translate(-11.447 -15.678)" fill="#202021"/>
    <path id="Trazado_4442" data-name="Trazado 4442" d="M19.487,54.739s.456-1.62,4.789-2.462h.566c1.589.841,1.376,1.447,1.376,1.447s-3.067-1.769-6.732,1.015" transform="translate(-8.076 -21.666)" fill="#202021"/>
    <path id="Trazado_4443" data-name="Trazado 4443" d="M103.165,35.333l1.462,1.33-1.039,1.142-2.272,2.256L100.037,38.9l1.912-2.1Z" transform="translate(-41.459 -14.644)" fill="#b2e6e3"/>
    <path id="Trazado_4444" data-name="Trazado 4444" d="M94.21,37.5l.519-.571,4.172,3.8-.551.542Z" transform="translate(-39.045 -15.303)" fill="#d4583f"/>
    <path id="Trazado_4445" data-name="Trazado 4445" d="M116.587,12.189l.588-.646a.078.078,0,0,0,.026.035c1.111,1.275,2.466,2.76,3.943,4.162l.007.018-.423.464-1.24-1.209-1.409-1.374Z" transform="translate(-48.319 -4.784)" fill="#d4583f"/>
    <path id="Trazado_4446" data-name="Trazado 4446" d="M142.184,13.027c1.664,3.327,5.244,10.117,5.244,10.117a.782.782,0,0,0,.064.1c-.033-.064-.053-.105-.053-.105s-3.58-6.791-5.25-10.123h-.012Zm6.163,11.653.012.012v-.012c-.254-.415-.481-.794-.651-1.074.163.286.391.666.639,1.074" transform="translate(-58.925 -5.396)" fill="#fecc9b"/>
    <path id="Trazado_4447" data-name="Trazado 4447" d="M99.714,31.849l.006-.006,2.246,2.044-1.216,1.462-1.912,2.1-1.694-1.542,3-3.293a.045.045,0,0,0-.03.008l.206-.226Z" transform="translate(-40.26 -13.197)" fill="#579d9d"/>
    <path id="Trazado_4448" data-name="Trazado 4448" d="M104.83.087a2.189,2.189,0,0,1,.392.162,25.1,25.1,0,0,1,3.435,2.679,25.957,25.957,0,0,0,3.166,2.343,9.389,9.389,0,0,0,3.589,1.374,25.567,25.567,0,0,1,4.946.98l.006.005c1.664,3.327,5.244,10.117,5.244,10.117a.838.838,0,0,0,.065.1c.013.023.033.053.052.082l.006.005a.87.87,0,0,0,.092.164.476.476,0,0,0,.065.105c.163.286.392.666.639,1.074l.013.012a23.151,23.151,0,0,1-4.9,7.5c-2.811,2.66-9.522,6.278-11.919,7.526l-.012.013c-.539.278-.85.43-.85.43a3.05,3.05,0,0,1-3.7.637c-1.921-1-.528-3.44-.182-3.984-1.535,2.33-4.107,3.075-5.214,1.482a3.225,3.225,0,0,1,.126-3.441l-.067-.026c-1.3,1.214-2.934,2.342-4.191,1.668a2.065,2.065,0,0,1-1.017-2.864,5.988,5.988,0,0,1,1.561-2.043l.235-.233.551-.542,2.271-2.257.057-.051,1.038-1.039.717-.7,3.339-3.315c-.968.232-2.4.5-3.938.774q-.911.17-1.84.321c-.423.074-.846.148-1.257.21l-.784-.714-.006.006.6.548-.206.225c-.7.117-1.359.22-1.949.314h-.012l-.321.052a3.056,3.056,0,0,1-1.158,1.033c-.006.006-.012,0-.018.007a2.81,2.81,0,0,1-2.036.119l-.006-.005c-.134-.042-.275-.09-.415-.149a2.1,2.1,0,0,1-1.2-3.144,3.272,3.272,0,0,1,2.507-1.847c.213-.07.5-.162.84-.268l.005-.006c.22-.064.467-.148.722-.226.006-.006.006-.006.018-.007,1.532-.487,3.623-1.107,5.228-1.435.916-.2,2.389-.533,3.963-.9,1.134-.264,2.322-.547,3.4-.808.3-.069.582-.136.861-.2.867-.209,1.621-.395,2.131-.515.457-.112.73-.184.73-.184l-.307-.28-.006-.018-3.943-4.162a.078.078,0,0,1-.025-.035c-1.4-1.616-2.363-2.873-2.636-3.191-.789-.947-.471-4.133,1.505-3.481" transform="translate(-37.104 0)" fill="#fecc9b"/>
    <path id="Trazado_4449" data-name="Trazado 4449" d="M82.7,45.214,89.357,37.9l4.14,3.768-.235.233A5.98,5.98,0,0,0,91.7,43.944l-4.659,5.119a.746.746,0,0,1-.752.221l-1.629-.416a2.335,2.335,0,0,1-1.577-1.379c-.014-.035-.021-.065-.035-.1l-.5-1.406a.736.736,0,0,1,.15-.769" transform="translate(-34.191 -15.707)" fill="#ff9436"/>
    <path id="Trazado_4450" data-name="Trazado 4450" d="M80.658,56.1l1.664-1.828A2.325,2.325,0,0,0,83.9,55.653L82.207,57.51l-.439-.4L81.1,56.5Z" transform="translate(-33.428 -22.493)" fill="#d4583f"/>
    <path id="Trazado_4451" data-name="Trazado 4451" d="M72.479,63.822l5.228-5.745.671.61-5.229,5.745c.265-.29.33-.661.144-.83s-.55-.07-.815.22" transform="translate(-30.038 -24.07)" fill="#a1d7d6"/>
    <path id="Trazado_4452" data-name="Trazado 4452" d="M72.241,67.3c.426-.468.932-.7,1.133-.519s.009.7-.417,1.171-.932.7-1.126.525-.016-.709.41-1.176" transform="translate(-29.736 -27.651)" fill="#7bc0be"/>
    <path id="Trazado_4453" data-name="Trazado 4453" d="M103.991,24.863l8.867-9.743,1.41,1.375-8.821,9.692Z" transform="translate(-43.098 -6.267)" fill="#579d9d"/>
    <path id="Trazado_4454" data-name="Trazado 4454" d="M94.343,26.552c.213-.07.5-.162.84-.268l.005-.006c.22-.064.468-.148.722-.226.006-.006.006-.006.018-.007.908-.217,2.394-.287,2.924,1.274a2.451,2.451,0,0,1,.124,1.1,2,2,0,0,1-.416.974l-.006.006a1.456,1.456,0,0,1-.125.15A3.792,3.792,0,0,1,97,30.486H96.99l-.321.052a2.966,2.966,0,0,0,.3-.573c.006-.006.006-.006.005-.019a1.971,1.971,0,0,0,.183-.819,2.732,2.732,0,0,0-.681-1.583,2.477,2.477,0,0,0-2.136-.993" transform="translate(-39.1 -10.746)" fill="#f6b07f"/>
    <path id="Trazado_4455" data-name="Trazado 4455" d="M108.173,31.107l.409-.45c2.706-.448,5.646-1.043,5.646-1.043l-2.117.714c-.966.232-2.4.505-3.938.779" transform="translate(-44.831 -12.273)" fill="#f6b07f"/>
    <path id="Trazado_4456" data-name="Trazado 4456" d="M130.926,24.089c-5.612,1.08-10.913-4.17-10.913-4.17.87-.21,1.618-.393,2.131-.516l.732-.179,0,0c2.5,2.338,5.282,4.372,7.659,4.7Z" transform="translate(-49.738 -7.966)" fill="#f6b07f"/>
    <path id="Trazado_4457" data-name="Trazado 4457" d="M110.52,37.535l.387-.426c1.731.616,3.6-.03,5.129.987s4.4.268,5.949,2.373,2,3.045,1.163,4.42a15.314,15.314,0,0,1-4.814,4.815l-.013.007c-.536.28-.851.439-.851.439l3.539-4.9a2.649,2.649,0,0,0-.158-3.344c-1.475-1.545-3.857.478-4.335,1.01a2.3,2.3,0,0,0-.389-3.469c-2.147-1.675-3.66.969-5.258,2.753a2.374,2.374,0,0,0-.287-3.255,3.59,3.59,0,0,0-.273-.29.5.5,0,0,0,.559-.125.5.5,0,0,0-.033-.709Z" transform="translate(-45.716 -15.38)" fill="#f6b07f"/>
    <path id="Trazado_4458" data-name="Trazado 4458" d="M124.506,31.152c-4.322-3.988-4.8-7.587-2.407-4.861,0,0,5.421,6.589,8.655,8.252s-1.926.594-6.248-3.391" transform="translate(-50.01 -10.502)" fill="#f6b07f"/>
    <path id="Trazado_4459" data-name="Trazado 4459" d="M158.332,17.459a1.077,1.077,0,0,1-.466.82c-.073.052-.139.1-.227.155a2.858,2.858,0,0,1-.254.138,18.288,18.288,0,0,1-2.856.995c-.193.051-.372.11-.544.169-.395.137-.768.275-1.1.43a13.994,13.994,0,0,0-1.368.772c-.22.148-.425.282-.614.4-.789.505-1.274.735-1.736.138-.071-.089-.149-.192-.227-.309a4.276,4.276,0,0,1-.257-.374c-.3-.447-.628-.973-.928-1.448-.255-.416-.484-.8-.649-1.072a.445.445,0,0,1-.064-.109.841.841,0,0,1-.095-.16l-.007-.008c-.019-.029-.038-.059-.051-.081-.031-.065-.05-.108-.05-.108s-3.585-6.788-5.252-10.121c-.088-.167-.169-.333-.244-.485s-.15-.3-.2-.42c-.094-.2-.174-.362-.236-.5-.018-.05-.043-.094-.055-.13a1.306,1.306,0,0,1-.111-.365c-.135-.759.546-1.209,1.624-1.724.036-.019.08-.037.131-.062.022-.013.043-.019.065-.031a.125.125,0,0,1,.058-.032h.007a.245.245,0,0,0,.029-.019A21.691,21.691,0,0,0,145.888,2.2c2.945-1.979,3.364-2.5,4.051-1.7a4.731,4.731,0,0,1,.287.46c1.477,2.55,7.2,14.167,7.991,15.972v.007a1.245,1.245,0,0,1,.115.519" transform="translate(-58.32 -0.058)" fill="#9cb1fa"/>
    <path id="Trazado_4460" data-name="Trazado 4460" d="M170.6,28.818h.014a.021.021,0,0,1-.015.006Z" transform="translate(-70.705 -11.943)" fill="#9cb1fa"/>
    <path id="Trazado_4461" data-name="Trazado 4461" d="M170.676,28.728c.044-.025.123-.056.224-.1-.1.043-.18.08-.224.1" transform="translate(-70.735 -11.865)" fill="#9cb1fa"/>
    <path id="Trazado_4462" data-name="Trazado 4462" d="M98,27.431A.507.507,0,0,1,98.7,27.4l6.969,6.343a.4.4,0,0,1,.07.075.559.559,0,0,1,.081.176.469.469,0,0,1-.117.456.507.507,0,0,1-.552.128l-.006-.006a2.491,2.491,0,0,0-.361-.283l-6.756-6.15a.309.309,0,0,1-.063-.069.521.521,0,0,1-.1-.277A.538.538,0,0,1,98,27.431" transform="translate(-40.559 -11.302)" fill="#d4583f"/>
    <rect id="Rect치ngulo_1223" data-name="Rect치ngulo 1223" width="4.733" height="1.612" transform="translate(55.679 21.616) rotate(-47.692)" fill="#b2e6e3"/>
    <path id="Trazado_4463" data-name="Trazado 4463" d="M84.667,48.888a8.552,8.552,0,0,1,1.819,1.44A8.6,8.6,0,0,1,88.091,52a8.552,8.552,0,0,1-1.819-1.44,8.562,8.562,0,0,1-1.605-1.676" transform="translate(-35.088 -20.259)" fill="#fff"/>
    <path id="Trazado_4464" data-name="Trazado 4464" d="M87.338,45.858a8.575,8.575,0,0,1,1.819,1.44,8.584,8.584,0,0,1,1.605,1.676,8.551,8.551,0,0,1-1.819-1.44,8.563,8.563,0,0,1-1.605-1.676" transform="translate(-36.195 -19.004)" fill="#fff"/>
    <path id="Trazado_4465" data-name="Trazado 4465" d="M90.064,42.847a8.575,8.575,0,0,1,1.819,1.44,8.583,8.583,0,0,1,1.605,1.676,8.552,8.552,0,0,1-1.819-1.44,8.562,8.562,0,0,1-1.605-1.676" transform="translate(-37.325 -17.756)" fill="#fff"/>
    <path id="Trazado_4466" data-name="Trazado 4466" d="M92.844,39.751a8.575,8.575,0,0,1,1.819,1.44,8.584,8.584,0,0,1,1.605,1.676,8.551,8.551,0,0,1-1.819-1.44,8.562,8.562,0,0,1-1.605-1.676" transform="translate(-38.477 -16.473)" fill="#fff"/>
  </g>
</svg>
