<svg id="Grupo_2102" data-name="Grupo 2102" xmlns="http://www.w3.org/2000/svg" xmlns:xlink="http://www.w3.org/1999/xlink" width="65.802" height="46.135" viewBox="0 0 65.802 46.135">
  <defs>
    <clipPath id="clip-path">
      <rect id="Rectángulo_1120" data-name="Rectángulo 1120" width="65.802" height="46.135" fill="none"/>
    </clipPath>
  </defs>
  <rect id="Rectángulo_1117" data-name="Rectángulo 1117" width="65.802" height="46.134" rx="5" transform="translate(0 0)" fill="#b2d7d6"/>
  <rect id="Rectángulo_1118" data-name="Rectángulo 1118" width="17.993" height="22.302" transform="translate(4.985 3.323)" fill="#e99248"/>
  <g id="Grupo_2101" data-name="Grupo 2101">
    <g id="Grupo_2100" data-name="Grupo 2100" clip-path="url(#clip-path)">
      <path id="Trazado_3492" data-name="Trazado 3492" d="M152.046,23.948H127.391a1,1,0,0,1,0-1.994h24.656a1,1,0,0,1,0,1.994" transform="translate(-99.938 -17.468)" fill="#57419b"/>
      <path id="Trazado_3493" data-name="Trazado 3493" d="M187.735,23.948H162.144a1,1,0,1,1,0-1.994h25.591a1,1,0,1,1,0,1.994" transform="translate(-128.215 -17.467)" fill="#57419b"/>
      <rect id="Rectángulo_1119" data-name="Rectángulo 1119" width="14.866" height="15.661" transform="translate(45.591 26.338)" fill="#57419b"/>
      <path id="Trazado_3494" data-name="Trazado 3494" d="M153.986,51.5H125.533a.748.748,0,0,1,0-1.5h28.452a.748.748,0,0,1,0,1.5" transform="translate(-98.318 -39.787)" fill="#82a7b5"/>
      <path id="Trazado_3495" data-name="Trazado 3495" d="M175.073,51.5H145.662a.748.748,0,0,1,0-1.5h29.411a.748.748,0,1,1,0,1.5" transform="translate(-115.299 -39.787)" fill="#82a7b5"/>
      <path id="Trazado_3496" data-name="Trazado 3496" d="M138.186,81.587H125.558a.748.748,0,1,1,0-1.5h12.628a.748.748,0,1,1,0,1.5" transform="translate(-98.318 -63.724)" fill="#82a7b5"/>
      <path id="Trazado_3497" data-name="Trazado 3497" d="M221.747,81.587H210.114a.748.748,0,1,1,0-1.5h11.633a.748.748,0,1,1,0,1.5" transform="translate(-166.58 -63.724)" fill="#82a7b5"/>
      <path id="Trazado_3498" data-name="Trazado 3498" d="M243.265,81.587H231.632a.748.748,0,1,1,0-1.5h11.633a.748.748,0,0,1,0,1.5" transform="translate(-183.701 -63.724)" fill="#82a7b5"/>
      <path id="Trazado_3499" data-name="Trazado 3499" d="M146.027,105.982h-22.1a.748.748,0,0,1,0-1.5h22.1a.748.748,0,0,1,0,1.5" transform="translate(-96.688 -83.133)" fill="#82a7b5"/>
      <path id="Trazado_3500" data-name="Trazado 3500" d="M47.422,147.854H26.361a.748.748,0,1,1,0-1.5H47.422a.748.748,0,1,1,0,1.5" transform="translate(-20.379 -116.449)" fill="#82a7b5"/>
      <path id="Trazado_3501" data-name="Trazado 3501" d="M120.534,147.854H99.473a.748.748,0,1,1,0-1.5h21.061a.748.748,0,1,1,0,1.5" transform="translate(-78.55 -116.449)" fill="#82a7b5"/>
      <path id="Trazado_3502" data-name="Trazado 3502" d="M34.239,174.687h-9.1a.748.748,0,1,1,0-1.5h9.1a.748.748,0,1,1,0,1.5" transform="translate(-19.409 -137.798)" fill="#82a7b5"/>
      <path id="Trazado_3503" data-name="Trazado 3503" d="M98.716,174.078h-7.1a.748.748,0,0,1,0-1.5h7.1a.748.748,0,0,1,0,1.5" transform="translate(-72.296 -137.313)" fill="#82a7b5"/>
      <path id="Trazado_3504" data-name="Trazado 3504" d="M172.133,174.078h-7.1a.748.748,0,1,1,0-1.5h7.1a.748.748,0,1,1,0,1.5" transform="translate(-130.709 -137.313)" fill="#82a7b5"/>
      <path id="Trazado_3505" data-name="Trazado 3505" d="M261.729,105.982h-7.1a.748.748,0,1,1,0-1.5h7.1a.748.748,0,0,1,0,1.5" transform="translate(-201.996 -83.133)" fill="#82a7b5"/>
      <path id="Trazado_3506" data-name="Trazado 3506" d="M45.082,199.69H25.142a.748.748,0,0,1,0-1.5h19.94a.748.748,0,0,1,0,1.5" transform="translate(-19.409 -157.691)" fill="#82a7b5"/>
      <path id="Trazado_3507" data-name="Trazado 3507" d="M122.158,199.69h-19.94a.748.748,0,0,1,0-1.5h19.94a.748.748,0,0,1,0,1.5" transform="translate(-80.734 -157.691)" fill="#82a7b5"/>
      <path id="Trazado_3508" data-name="Trazado 3508" d="M237.853,164.936c-1.045,0-3.547-.11-4.221-1.119-.647-.97.355-3.012.678-3.616,1-1.871,2.774-3.869,4.179-3.758,1.637.149,4.507,3.756,5,5.852.238,1.024-.116,1.485-.455,1.692a11.845,11.845,0,0,1-5.176.949m.5-8.019c-1.133,0-2.713,1.808-3.624,3.511-.752,1.408-1.028,2.633-.7,3.123.373.559,1.837.906,3.823.906a11.6,11.6,0,0,0,4.926-.878c.3-.182.377-.577.238-1.176-.474-2.032-3.251-5.363-4.571-5.483-.03,0-.06,0-.09,0" transform="translate(-185.718 -124.469)" fill="#fff"/>
      <path id="Trazado_3509" data-name="Trazado 3509" d="M275.3,157.638c-.748,0-1.356-.809-1.356-1.8s.608-1.8,1.356-1.8,1.355.809,1.355,1.8-.608,1.8-1.355,1.8m0-3.126c-.476,0-.877.607-.877,1.323s.4,1.323.877,1.323.876-.607.876-1.323-.4-1.323-.876-1.323" transform="translate(-217.959 -122.555)" fill="#fff"/>
      <path id="Trazado_3510" data-name="Trazado 3510" d="M230.2,157.738c-.759,0-1.377-.831-1.377-1.852s.618-1.852,1.377-1.852,1.377.831,1.377,1.852-.618,1.852-1.377,1.852m0-3.225c-.487,0-.9.629-.9,1.373s.411,1.373.9,1.373.9-.629.9-1.373-.411-1.373-.9-1.373" transform="translate(-182.058 -122.555)" fill="#fff"/>
      <path id="Trazado_3511" data-name="Trazado 3511" d="M260.945,141.245c-.868,0-1.573-.945-1.573-2.107s.706-2.106,1.573-2.106,1.572.944,1.572,2.106-.706,2.107-1.572,2.107m0-3.734c-.593,0-1.094.745-1.094,1.627,0,.9.49,1.628,1.094,1.628s1.093-.73,1.093-1.628-.49-1.627-1.093-1.627" transform="translate(-206.367 -109.028)" fill="#fff"/>
      <path id="Trazado_3512" data-name="Trazado 3512" d="M243.015,141.543c-.868,0-1.573-.945-1.573-2.106s.706-2.107,1.573-2.107,1.573.945,1.573,2.107-.706,2.106-1.573,2.106m0-3.734c-.6,0-1.094.73-1.094,1.628,0,.882.5,1.627,1.094,1.627s1.094-.745,1.094-1.627c0-.9-.49-1.628-1.094-1.628" transform="translate(-192.101 -109.265)" fill="#fff"/>
      <path id="Trazado_3513" data-name="Trazado 3513" d="M42.7,39.361H38.363a.224.224,0,0,1-.223-.223V35.745H34.748a.224.224,0,0,1-.223-.223V31.184a.224.224,0,0,1,.223-.223h3.391V27.569a.224.224,0,0,1,.223-.223H42.7a.224.224,0,0,1,.223.223v3.392h3.392a.223.223,0,0,1,.223.223v4.338a.224.224,0,0,1-.223.223H42.924v3.392a.224.224,0,0,1-.223.223m-4.114-.447h3.891V35.522A.224.224,0,0,1,42.7,35.3h3.392V31.408H42.7a.224.224,0,0,1-.223-.223V27.793H38.586v3.392a.224.224,0,0,1-.223.223H34.972V35.3h3.391a.224.224,0,0,1,.223.223Z" transform="translate(-26.615 -19.194)" fill="#f7f7f7" stroke="#f7f7f7" stroke-width="1"/>
    </g>
  </g>
</svg>
