<svg id="Grupo_2317" data-name="Grupo 2317" xmlns="http://www.w3.org/2000/svg" xmlns:xlink="http://www.w3.org/1999/xlink" width="100.332" height="74.027" viewBox="0 0 100.332 74.027">
  <defs>
    <clipPath id="clip-path">
      <rect id="Rectángulo_1217" data-name="Rectángulo 1217" width="100.332" height="74.027" fill="none"/>
    </clipPath>
  </defs>
  <rect id="Rectángulo_1215" data-name="Rectángulo 1215" width="8.113" height="15.911" transform="translate(46.109 11.171)" fill="#579d9d"/>
  <rect id="Rectángulo_1216" data-name="Rectángulo 1216" width="8.113" height="15.911" transform="translate(46.109 11.171)" fill="#579d9d"/>
  <g id="Grupo_2315" data-name="Grupo 2315">
    <g id="Grupo_2314" data-name="Grupo 2314" clip-path="url(#clip-path)">
      <path id="Trazado_4353" data-name="Trazado 4353" d="M100,3.132,94.93,10.968a5.543,5.543,0,0,1-4.364,2.525L50.744,15.58,10.921,17.666a5.544,5.544,0,0,1-4.6-2.053L.453,8.348a2.029,2.029,0,0,1,1.473-3.3L50.06,2.526,98.194,0A2.029,2.029,0,0,1,100,3.132" transform="translate(0 0)" fill="#a1d7d6"/>
      <path id="Trazado_4354" data-name="Trazado 4354" d="M183.107,192.953H111.214l12.492-44.6a4.733,4.733,0,0,1,4.842-3.448l37.727,2.275a4.733,4.733,0,0,1,4.252,3.378Z" transform="translate(-96.995 -126.374)" fill="#a1d7d6"/>
      <path id="Trazado_4355" data-name="Trazado 4355" d="M183.107,192.953H111.214l12.492-44.6a4.733,4.733,0,0,1,4.842-3.448l37.727,2.275a4.733,4.733,0,0,1,4.252,3.378Z" transform="translate(-96.995 -126.374)" fill="#a1d7d6"/>
      <path id="Trazado_4356" data-name="Trazado 4356" d="M276.511,235.84A19.545,19.545,0,0,1,275.2,242.9c-.114.3-.234.587-.363.875a19.677,19.677,0,0,1-9.992,9.993q-.432.192-.875.363a19.686,19.686,0,0,1-14.132,0c-.3-.115-.587-.235-.875-.363a19.677,19.677,0,0,1-9.992-9.993q-.192-.432-.363-.875a19.682,19.682,0,0,1,0-14.131q.171-.443.363-.875a19.677,19.677,0,0,1,9.993-9.992c.288-.128.578-.249.873-.363a19.686,19.686,0,0,1,14.132,0q.443.171.875.363a19.67,19.67,0,0,1,9.992,9.992q.192.432.363.875a19.545,19.545,0,0,1,1.312,7.065" transform="translate(-206.957 -188.587)" fill="#683da3"/>
      <path id="Trazado_4357" data-name="Trazado 4357" d="M215.4,168.633a25.692,25.692,0,1,0,25.691,25.692A25.693,25.693,0,0,0,215.4,168.633m17.932,33.632a19.677,19.677,0,0,1-9.992,9.993q-.431.192-.875.363a19.686,19.686,0,0,1-14.132,0c-.3-.115-.587-.235-.875-.363a19.677,19.677,0,0,1-9.992-9.993q-.192-.431-.363-.875a19.683,19.683,0,0,1,0-14.131q.171-.443.363-.875a19.677,19.677,0,0,1,9.993-9.992c.288-.128.578-.249.873-.363a19.686,19.686,0,0,1,14.132,0q.443.171.875.363a19.67,19.67,0,0,1,9.992,9.992q.192.432.363.875a19.683,19.683,0,0,1,0,14.131c-.114.3-.234.587-.363.875" transform="translate(-165.452 -147.072)" fill="#683da3"/>
      <path id="Trazado_4358" data-name="Trazado 4358" d="M276.511,235.84A19.545,19.545,0,0,1,275.2,242.9c-.114.3-.234.587-.363.875a19.677,19.677,0,0,1-9.992,9.993q-.432.192-.875.363a19.686,19.686,0,0,1-14.132,0c-.3-.115-.587-.235-.875-.363a19.677,19.677,0,0,1-9.992-9.993q-.192-.432-.363-.875a19.682,19.682,0,0,1,0-14.131q.171-.443.363-.875a19.677,19.677,0,0,1,9.993-9.992c.288-.128.578-.249.873-.363a19.686,19.686,0,0,1,14.132,0q.443.171.875.363a19.67,19.67,0,0,1,9.992,9.992q.192.432.363.875a19.545,19.545,0,0,1,1.312,7.065" transform="translate(-206.957 -188.587)" fill="#683da3"/>
      <path id="Trazado_4359" data-name="Trazado 4359" d="M330.043,228.678l-.375.155a.269.269,0,0,1-.353-.146l-.758-1.831c.288-.128.578-.249.873-.363l.759,1.831a.273.273,0,0,1-.147.354" transform="translate(-286.549 -197.535)" fill="#ee9623"/>
      <path id="Trazado_4360" data-name="Trazado 4360" d="M249.9,308.594l-.156.376a.27.27,0,0,1-.353.146l-1.832-.758q.171-.443.363-.875l1.831.758a.271.271,0,0,1,.147.353" transform="translate(-215.906 -268.17)" fill="#ee9623"/>
      <path id="Trazado_4361" data-name="Trazado 4361" d="M249.751,419.646l-1.831.758q-.192-.432-.363-.875l1.832-.758a.27.27,0,0,1,.353.147l.156.375a.271.271,0,0,1-.147.353" transform="translate(-215.906 -365.212)" fill="#ee9623"/>
      <path id="Trazado_4362" data-name="Trazado 4362" d="M330.181,494.74l-.759,1.832c-.3-.115-.587-.235-.875-.363l.759-1.832a.27.27,0,0,1,.353-.146l.375.155a.272.272,0,0,1,.147.354" transform="translate(-286.541 -431.024)" fill="#ee9623"/>
      <path id="Trazado_4363" data-name="Trazado 4363" d="M441.477,496.209q-.431.192-.875.363l-.758-1.832a.271.271,0,0,1,.146-.354l.375-.155a.272.272,0,0,1,.354.146Z" transform="translate(-383.59 -431.024)" fill="#ee9623"/>
      <path id="Trazado_4364" data-name="Trazado 4364" d="M517.644,419.53c-.114.3-.234.587-.363.875l-1.831-.758a.269.269,0,0,1-.146-.353l.155-.375a.27.27,0,0,1,.353-.147Z" transform="translate(-449.402 -365.212)" fill="#ee9623"/>
      <path id="Trazado_4365" data-name="Trazado 4365" d="M517.644,308.358l-1.832.758a.27.27,0,0,1-.353-.146l-.155-.376a.269.269,0,0,1,.146-.353l1.831-.758q.192.431.363.875" transform="translate(-449.402 -268.17)" fill="#ee9623"/>
      <path id="Trazado_4366" data-name="Trazado 4366" d="M441.477,226.856l-.758,1.831a.271.271,0,0,1-.354.146l-.375-.155a.271.271,0,0,1-.146-.354l.758-1.831q.443.171.875.363" transform="translate(-383.59 -197.535)" fill="#ee9623"/>
      <path id="Trazado_4367" data-name="Trazado 4367" d="M254.724,253.587a19.863,19.863,0,0,1-7.182-1.333c-.319-.124-.61-.245-.889-.369A19.918,19.918,0,0,1,236.5,241.728c-.133-.3-.257-.6-.369-.889a20,20,0,0,1,0-14.361c.112-.291.237-.59.369-.889a19.919,19.919,0,0,1,10.156-10.154c.308-.137.6-.258.888-.369a20.006,20.006,0,0,1,14.362,0c.291.112.591.237.889.369a19.91,19.91,0,0,1,10.154,10.154c.133.3.257.6.369.889a20,20,0,0,1,0,14.361c-.122.316-.243.608-.37.89a19.918,19.918,0,0,1-10.154,10.154c-.3.132-.6.257-.889.369a19.826,19.826,0,0,1-7.18,1.333m0-39.214a19.2,19.2,0,0,0-6.951,1.29c-.28.108-.561.225-.859.357a19.28,19.28,0,0,0-9.831,9.829c-.128.289-.248.578-.357.86a19.363,19.363,0,0,0,0,13.9c.109.282.229.571.357.86a19.279,19.279,0,0,0,9.829,9.831c.27.12.552.237.861.357a19.366,19.366,0,0,0,13.9,0c.282-.109.571-.229.86-.357a19.28,19.28,0,0,0,9.829-9.831c.123-.273.239-.554.357-.86a19.362,19.362,0,0,0,0-13.9c-.108-.282-.229-.571-.357-.86a19.272,19.272,0,0,0-9.829-9.829c-.289-.128-.578-.249-.86-.357a19.187,19.187,0,0,0-6.95-1.29" transform="translate(-204.777 -186.406)" fill="#fff"/>
      <path id="Trazado_4368" data-name="Trazado 4368" d="M365.463,340.067a4.327,4.327,0,1,1-4.327-4.327,4.327,4.327,0,0,1,4.327,4.327" transform="translate(-311.189 -292.814)" fill="#fff"/>
      <path id="Trazado_4369" data-name="Trazado 4369" d="M393.514,277.47l-12.583,10.478,2.486,2.486,10.478-12.583a.27.27,0,0,0-.381-.381" transform="translate(-332.227 -241.938)" fill="#fff"/>
      <path id="Trazado_4370" data-name="Trazado 4370" d="M378.058,354.826a2.164,2.164,0,1,1-2.164-2.164,2.164,2.164,0,0,1,2.164,2.164" transform="translate(-325.948 -307.572)" fill="#a1d7d6"/>
      <path id="Trazado_4371" data-name="Trazado 4371" d="M378.058,354.826a2.164,2.164,0,1,1-2.164-2.164,2.164,2.164,0,0,1,2.164,2.164" transform="translate(-325.948 -307.572)" fill="#a1d7d6"/>
      <path id="Trazado_4372" data-name="Trazado 4372" d="M150.753,494.848H71.34a1.539,1.539,0,0,1-1.534-1.534v-9.267a1.539,1.539,0,0,1,1.534-1.534h79.413a1.539,1.539,0,0,1,1.534,1.534v9.267a1.539,1.539,0,0,1-1.534,1.534" transform="translate(-60.881 -420.821)" fill="#579d9d"/>
    </g>
  </g>
</svg>
