<svg id="Grupo_2099" data-name="Grupo 2099" xmlns="http://www.w3.org/2000/svg" xmlns:xlink="http://www.w3.org/1999/xlink" width="96" height="45.491" viewBox="0 0 96 45.491">
  <defs>
    <clipPath id="clip-path">
      <rect id="Rectángulo_1116" data-name="Rectángulo 1116" width="96" height="45.491" fill="none"/>
    </clipPath>
    <clipPath id="clip-path-3">
      <rect id="Rectángulo_1099" data-name="Rectángulo 1099" width="14.266" height="11.15" fill="none"/>
    </clipPath>
    <clipPath id="clip-path-4">
      <rect id="Rectángulo_1106" data-name="Rectángulo 1106" width="58.018" height="21.202" fill="none"/>
    </clipPath>
    <clipPath id="clip-path-5">
      <rect id="Rectángulo_1107" data-name="Rectángulo 1107" width="12.212" height="13.434" fill="none"/>
    </clipPath>
    <clipPath id="clip-path-6">
      <rect id="Rectángulo_1114" data-name="Rectángulo 1114" width="55.829" height="31.623" fill="none"/>
    </clipPath>
  </defs>
  <g id="Grupo_2098" data-name="Grupo 2098" clip-path="url(#clip-path)">
    <g id="Grupo_2097" data-name="Grupo 2097">
      <g id="Grupo_2096" data-name="Grupo 2096" clip-path="url(#clip-path)">
        <path id="Trazado_3476" data-name="Trazado 3476" d="M234.622,41.617h0a.352.352,0,0,1-.3.4L218.2,44.363l-.1-.7,16.127-2.347a.352.352,0,0,1,.4.3" transform="translate(-138.626 -26.261)" fill="#344978"/>
        <path id="Trazado_3477" data-name="Trazado 3477" d="M30.561,59.348l1.321,9.075a1.761,1.761,0,1,0,3.475-.506l-.328-2.255,9.777-1.423-.665-4.565L34.364,61.1l-.328-2.255a1.761,1.761,0,1,0-3.475.506" transform="translate(-19.412 -36.359)" fill="#5e3fa0"/>
        <g id="Grupo_2086" data-name="Grupo 2086" transform="translate(11.128 20.843)" style="mix-blend-mode: multiply;isolation: isolate">
          <g id="Grupo_2085" data-name="Grupo 2085">
            <g id="Grupo_2084" data-name="Grupo 2084" clip-path="url(#clip-path-3)">
              <path id="Trazado_3478" data-name="Trazado 3478" d="M43.252,84.066a2.036,2.036,0,0,0-.013-.435l-.248-1.706-.05.007Z" transform="translate(-38.422 -72.916)" fill="#e4e4e4"/>
              <path id="Trazado_3479" data-name="Trazado 3479" d="M30.561,59.348l.017.12a1.788,1.788,0,0,1,1.477-1.693A1.83,1.83,0,0,1,34.066,59.4l.328,2.255,9.777-1.423.585,4.016.05-.007-.665-4.565L34.364,61.1l-.328-2.255a1.761,1.761,0,1,0-3.475.506" transform="translate(-30.54 -57.202)" fill="#e4e4e4"/>
            </g>
          </g>
        </g>
        <path id="Trazado_3480" data-name="Trazado 3480" d="M54.912,51.18,56.923,65a.768.768,0,0,1-1.52.221L53.392,51.4a.768.768,0,0,1,1.52-.221" transform="translate(-33.932 -32.113)" fill="#344978"/>
        <path id="Trazado_3481" data-name="Trazado 3481" d="M59.608,53.641,109.4,46.394l4.5-4.425,2.493-.363-.106-.728a1.549,1.549,0,0,0,1.309-1.756l-.242-1.666a1.549,1.549,0,0,0-1.756-1.31l-.122-.841-2.565.373-5.539-3.241L57.577,39.686Z" transform="translate(-36.597 -20.619)" fill="#f1d4da"/>
        <path id="Trazado_3482" data-name="Trazado 3482" d="M63.336,59.432l-1.651-11.34,28.749-4.186c2.947,2.781-2.282,6.5,1.471,11.367Z" transform="translate(-39.208 -27.908)" fill="#b7495c"/>
        <rect id="Rectángulo_1100" data-name="Rectángulo 1100" width="0.83" height="4.573" transform="matrix(0.99, -0.144, 0.144, 0.99, 28.555, 17.965)" fill="#fff"/>
        <rect id="Rectángulo_1101" data-name="Rectángulo 1101" width="0.834" height="4.573" transform="translate(35.132 17.007) rotate(-8.293)" fill="#fff"/>
        <rect id="Rectángulo_1102" data-name="Rectángulo 1102" width="0.834" height="4.573" transform="translate(41.712 16.05) rotate(-8.268)" fill="#fff"/>
        <rect id="Rectángulo_1103" data-name="Rectángulo 1103" width="0.83" height="4.573" transform="matrix(0.99, -0.144, 0.144, 0.99, 48.293, 15.092)" fill="#fff"/>
        <rect id="Rectángulo_1104" data-name="Rectángulo 1104" width="0.83" height="4.573" transform="translate(54.872 14.134) rotate(-8.276)" fill="#fff"/>
        <rect id="Rectángulo_1105" data-name="Rectángulo 1105" width="0.83" height="4.573" transform="matrix(0.99, -0.144, 0.144, 0.99, 61.45, 13.177)" fill="#fff"/>
        <g id="Grupo_2089" data-name="Grupo 2089" transform="translate(20.98 11.82)" style="mix-blend-mode: multiply;isolation: isolate">
          <g id="Grupo_2088" data-name="Grupo 2088">
            <g id="Grupo_2087" data-name="Grupo 2087" clip-path="url(#clip-path-4)">
              <path id="Trazado_3483" data-name="Trazado 3483" d="M57.834,41.451l1.774,12.191,1.287-.187-.652-4.476c-.62-4.261.036-8.285,4.3-8.9l41.311-5.612a5.117,5.117,0,0,1,3.32.647l3.992,2.336,2.431-1.3-.122-.841-2.565.373-5.539-3.241-48.5,7.06-1.287.187Z" transform="translate(-57.577 -32.439)" fill="#f0f1f1"/>
            </g>
          </g>
        </g>
        <path id="Trazado_3484" data-name="Trazado 3484" d="M.042.185h0A.352.352,0,0,1,.518.041L14.885,7.734l-.332.621L.186.662A.352.352,0,0,1,.042.185" transform="translate(0 0)" fill="#344978"/>
        <path id="Trazado_3485" data-name="Trazado 3485" d="M181.146,100.372l4.329-8.084a1.761,1.761,0,1,0-3.1-1.658L181.3,92.639l-8.71-4.664-2.178,4.067,8.71,4.664-1.076,2.009a1.761,1.761,0,1,0,3.1,1.658" transform="translate(-108.32 -55.919)" fill="#5e3fa0"/>
        <g id="Grupo_2092" data-name="Grupo 2092" transform="translate(62.097 32.057)" style="mix-blend-mode: multiply;isolation: isolate">
          <g id="Grupo_2091" data-name="Grupo 2091">
            <g id="Grupo_2090" data-name="Grupo 2090" clip-path="url(#clip-path-5)">
              <path id="Trazado_3486" data-name="Trazado 3486" d="M202.077,94.28a2.029,2.029,0,0,0-.249.358l-.814,1.52.044.024Z" transform="translate(-189.865 -91.983)" fill="#e4e4e4"/>
              <path id="Trazado_3487" data-name="Trazado 3487" d="M181.146,100.372l.057-.107a1.788,1.788,0,0,1-2.194.485,1.829,1.829,0,0,1-.653-2.5l1.076-2.009-8.71-4.664L172.638,88l-.044-.024-2.178,4.067,8.71,4.664-1.076,2.009a1.761,1.761,0,1,0,3.1,1.658" transform="translate(-170.416 -87.975)" fill="#e4e4e4"/>
            </g>
          </g>
        </g>
        <path id="Trazado_3488" data-name="Trazado 3488" d="M171.608,92.447l6.592-12.31a.768.768,0,0,1,1.354.725l-6.591,12.31a.768.768,0,0,1-1.354-.725" transform="translate(-109.019 -50.679)" fill="#344978"/>
        <path id="Trazado_3489" data-name="Trazado 3489" d="M91.923,38.551,47.567,14.8l-6.246.888L39.1,14.5l-.348.649a1.549,1.549,0,0,0-2.1.634l-.794,1.484a1.549,1.549,0,0,0,.634,2.1l-.4.749,2.285,1.224,2.53,5.9L85.266,50.983Z" transform="translate(-22.677 -9.215)" fill="#f1d4da"/>
        <path id="Trazado_3490" data-name="Trazado 3490" d="M130.918,58.223l-5.409,10.1L99.9,54.612c-.718-3.988,5.7-3.874,5.57-10.018Z" transform="translate(-63.461 -28.345)" fill="#b2d7d6"/>
        <rect id="Rectángulo_1108" data-name="Rectángulo 1108" width="4.573" height="0.83" transform="translate(55.11 37.763) rotate(-61.837)" fill="#fff"/>
        <rect id="Rectángulo_1109" data-name="Rectángulo 1109" width="4.573" height="0.834" transform="translate(49.246 34.623) rotate(-61.833)" fill="#fff"/>
        <rect id="Rectángulo_1110" data-name="Rectángulo 1110" width="4.573" height="0.834" transform="translate(43.385 31.485) rotate(-61.833)" fill="#fff"/>
        <rect id="Rectángulo_1111" data-name="Rectángulo 1111" width="4.573" height="0.83" transform="translate(37.525 28.347) rotate(-61.837)" fill="#fff"/>
        <rect id="Rectángulo_1112" data-name="Rectángulo 1112" width="4.573" height="0.83" transform="translate(31.665 25.209) rotate(-61.849)" fill="#fff"/>
        <rect id="Rectángulo_1113" data-name="Rectángulo 1113" width="4.573" height="0.83" transform="translate(25.804 22.071) rotate(-61.837)" fill="#fff"/>
        <g id="Grupo_2095" data-name="Grupo 2095" transform="translate(13.417 10.146)" style="mix-blend-mode: multiply;isolation: isolate">
          <g id="Grupo_2094" data-name="Grupo 2094">
            <g id="Grupo_2093" data-name="Grupo 2093" clip-path="url(#clip-path-6)">
              <path id="Trazado_3491" data-name="Trazado 3491" d="M86.834,57.894l5.815-10.86L91.5,46.42l-2.135,3.987c-2.033,3.8-4.951,6.642-8.747,4.61L44.057,34.988A5.117,5.117,0,0,1,41.77,32.5l-1.823-4.251-2.726-.4-.4.749,2.285,1.224,2.53,5.9L84.846,58.853l1.146.614Z" transform="translate(-36.82 -27.844)" fill="#f0f1f1"/>
            </g>
          </g>
        </g>
      </g>
    </g>
  </g>
</svg>
