<svg id="Grupo_2325" data-name="Grupo 2325" xmlns="http://www.w3.org/2000/svg" xmlns:xlink="http://www.w3.org/1999/xlink" width="62.194" height="80" viewBox="0 0 62.194 80">
  <defs>
    <clipPath id="clip-path">
      <rect id="Rectángulo_1220" data-name="Rectángulo 1220" width="62.194" height="80" fill="none"/>
    </clipPath>
  </defs>
  <g id="Grupo_2324" data-name="Grupo 2324" clip-path="url(#clip-path)">
    <path id="Trazado_4383" data-name="Trazado 4383" d="M33.368,73.755A20.108,20.108,0,0,0,31.912,83.87a5.3,5.3,0,0,0-1.159,3.106,3.77,3.77,0,0,1-.374,1.446,3.086,3.086,0,0,0-.719.222,1.548,1.548,0,0,0-.7.668,7.626,7.626,0,0,1-1.236.028,10.666,10.666,0,0,1-2.769-.408s-2.433-3.013,0-3.5,2.443.853,2.443.853.623-.482,1.878-8.771c1.236-8.149.038-22.492,0-22.928a.574.574,0,0,1,.048.111.94.94,0,0,1,.067.139c.288.668,1.092,2.578,1.935,4.979a.128.128,0,0,0,.019.055A47.341,47.341,0,0,1,33.3,71.947c.029.63.047,1.224.067,1.8Z" transform="translate(-6.712 -15.344)" fill="#af9187"/>
    <path id="Trazado_4384" data-name="Trazado 4384" d="M68.255,74.772c1.264-2.9,1.915-7.092.881-13.119v-.009a55.851,55.851,0,0,0-2.511-9.317c-3.018-8.557-7.31-13.462-11.353-16.28a19.167,19.167,0,0,0-11.354-3.755S36.685,42.685,29.232,45.606a19.255,19.255,0,0,1,1.552,2.707.569.569,0,0,1,.048.111.948.948,0,0,1,.067.139,35.318,35.318,0,0,1,1.935,4.978.125.125,0,0,0,.019.056,47.307,47.307,0,0,1,1.954,12.081c.029.63.048,1.224.068,1.8v.009c.106,2.93.181,5.183.239,6.908.172,5.034.172,5.618.172,5.618a2.157,2.157,0,0,0-1.954,2.058,4.318,4.318,0,0,0-1.446.083,3.066,3.066,0,0,0-.719.223,1.547,1.547,0,0,0-.7.667c-.518.909-.288,2.448,2.328,3.737,3.5,1.715,16.873,3.245,23.962,1.576S70.363,82,70.411,78.713s-2.155-3.941-2.155-3.941M44.494,79.918a23.773,23.773,0,0,0-4.734.973c-.326.111-.5.185-.5.185l1.341-9.5a5.253,5.253,0,0,0,.192-1.261,13.953,13.953,0,0,0-.326-3.375,31.424,31.424,0,0,1,.134-5.572,7.01,7.01,0,0,0,2.817,3.106,11.826,11.826,0,0,0-2.3,5.86A6.417,6.417,0,0,0,42.865,75.7c3.162,3.106,8.432,3.338,8.432,3.338s-3.449.51-6.8.881" transform="translate(-8.218 -9.075)" fill="#ebc3b3"/>
    <path id="Trazado_4385" data-name="Trazado 4385" d="M43.257,31.859S36.023,42.252,28.569,45.173a4.134,4.134,0,0,1-1.694-1.931s8.8-4.976,14.37-12.5c0,0,1.629-.129,2.012,1.113" transform="translate(-7.555 -8.643)" fill="#683da3"/>
    <path id="Trazado_4386" data-name="Trazado 4386" d="M42.386,79.4A5.858,5.858,0,0,1,42.2,80.66l-1.341,9.5s-.077.816-.106,1.586a3.876,3.876,0,0,0,.106,1.344,37.79,37.79,0,0,1-4.9-1.586,2.233,2.233,0,0,0-1.044-.343,2.154,2.154,0,0,1,1.964-2.058s0-.584-.173-5.618c0,0,2.471.37,2.855-3.941s.948-11.561,2.653-14.917a19.373,19.373,0,0,0-.019,5.832,31.06,31.06,0,0,0-.144,5.563,13.944,13.944,0,0,1,.326,3.374" transform="translate(-9.818 -18.169)" fill="#ebc3b3"/>
    <path id="Trazado_4387" data-name="Trazado 4387" d="M45.945,39.606c-.1.835-2.012,2.737-1.292,5.427s1.579,2.226,3.259,3.988,1.866,4.173,2.415,6.072,2.569,2,5.872,2.133,4.888-.093,4.937-3.012-3.021-5.427-4.6-7.141a6.855,6.855,0,0,1-1.629-4.08c-.142-1.068-.192-4.685-3.642-5.338s-5.225,1.116-5.32,1.951" transform="translate(-12.508 -10.546)" fill="#6e6765"/>
    <path id="Trazado_4388" data-name="Trazado 4388" d="M57.089,68.127a11.494,11.494,0,0,0-9.312,3.338,7.015,7.015,0,0,1-2.807-3.106,19.322,19.322,0,0,1,.019-5.832,16,16,0,0,1,1.744-5.377c-1.476,6.017.009,8.381.393,9.67s2.443.427,5.308.056a6.108,6.108,0,0,1,4.656,1.252" transform="translate(-12.582 -16.066)" fill="#ebc3b3"/>
    <path id="Trazado_4389" data-name="Trazado 4389" d="M70.353,95.453a10.439,10.439,0,0,1-3.814,2.939,43.887,43.887,0,0,1-20.522,4.015s-2.635-.278-2.874-.649a3.876,3.876,0,0,1-.106-1.344c.029-.769.106-1.585.106-1.585s.163-.065.5-.176c12.072,4.839,24.077-1.632,26.712-3.2" transform="translate(-12.098 -26.834)" fill="#af9187"/>
    <path id="Trazado_4390" data-name="Trazado 4390" d="M78.784,63.12v-.007a56.73,56.73,0,0,0-2.511-9.322c-3.024-8.55-7.314-13.462-11.354-16.277a7.636,7.636,0,0,0-1.3,5.293c.383,3.153.046,3.383,2.012,5.052s5.463,3.617,5.7,7.652.625,7.092,2.3,8.439,4.967,1.106,5.148-.831" transform="translate(-17.87 -10.546)" fill="#6e6765"/>
    <path id="Trazado_4391" data-name="Trazado 4391" d="M4.257,24.429c2.468,2.887,9.718-4.052,7.709-6.315-2.758-3.106-10.46-6.432-11.622-5.3C-.982,14.1,1.789,21.542,4.257,24.429" transform="translate(0 -3.539)" fill="#c4a397"/>
    <path id="Trazado_4392" data-name="Trazado 4392" d="M37.442,11.317c.046,3.8-9.979,3.356-9.959.33C27.511,7.493,31.112-.084,32.732,0c1.847.1,4.664,7.517,4.71,11.315" transform="translate(-7.726 0)" fill="#c4a397"/>
    <path id="Trazado_4393" data-name="Trazado 4393" d="M35.827,10.19c.073,1.653-3.488,1.093-3.522-.224-.047-1.806,1.234-6.735,1.912-6.675.774.068,1.537,5.246,1.61,6.9" transform="translate(-9.082 -0.925)" fill="#8e6b61"/>
    <path id="Trazado_4394" data-name="Trazado 4394" d="M8.945,19.522c1.262,1.069-1.566,3.3-2.555,2.434-1.358-1.192-4.108-5.478-3.6-5.936.575-.522,4.9,2.433,6.159,3.5" transform="translate(-0.766 -4.486)" fill="#8e6b61"/>
    <path id="Trazado_4395" data-name="Trazado 4395" d="M36.368,23.384a7.8,7.8,0,0,0-.468-2.293,1.176,1.176,0,0,0-.079-.208,8.69,8.69,0,0,0-.41-.927c-.014-.029-.028-.065-.042-.093,0,0-.014,0-.008-.007-.1-.194-.208-.381-.323-.575-.4-.654-.805-1.28-1.221-1.869a22.9,22.9,0,0,0-2.474-2.933,16.633,16.633,0,0,0-2.94-2.358,13.554,13.554,0,0,0-3.422-1.546,13.415,13.415,0,0,0-2.725-.489,16.684,16.684,0,0,0-7.131,1.157,13.327,13.327,0,0,0-5.11,3.372A13.107,13.107,0,0,0,8.36,16.749a15.084,15.084,0,0,0-1.5,3.134A17.975,17.975,0,0,0,6,23.8a19.908,19.908,0,0,0,.352,6.261,2.226,2.226,0,0,0,.079.3,3.9,3.9,0,0,0,.108.424,9.523,9.523,0,0,0,.6,1.546c.035.072.072.144.115.216a8.471,8.471,0,0,0,1.006,1.538,1.952,1.952,0,0,0,.166.187.762.762,0,0,0,.064.079A8.964,8.964,0,0,0,9.733,35.5a2.134,2.134,0,0,0,.2.144,11.921,11.921,0,0,0,5.658,2.049h.058c.295.036.589.058.891.079h.007a16.891,16.891,0,0,0,2.336-.036c.374-.029.748-.065,1.121-.122.252-.029.5-.072.748-.115a17.92,17.92,0,0,0,3.479-.978c5.277-2.1,10.46-5.9,11.8-10.452.028-.079.05-.158.071-.237v-.007a7.858,7.858,0,0,0,.26-1.524V24.29c.006-.216.014-.446.006-.669a1.309,1.309,0,0,0-.006-.237m-16.29,7.4.589-.252h.008l.97-.41a.528.528,0,0,1,0,.151,5.464,5.464,0,0,0-.784.28c-.006,0-.014.007-.022.014a6.4,6.4,0,0,0-.948.6,2.861,2.861,0,0,1,.187-.381" transform="translate(-1.657 -2.824)" fill="#ebc3b3"/>
    <path id="Trazado_4396" data-name="Trazado 4396" d="M47.77,27.765a30.98,30.98,0,0,1,1.761-2.681,5.556,5.556,0,0,1-3.538-2.653c-.789-.217,1.373,6.045,1.777,5.334" transform="translate(-12.881 -6.304)" fill="#ebc3b3"/>
    <path id="Trazado_4397" data-name="Trazado 4397" d="M45.2,22.778a3.864,3.864,0,0,0,2.346-.928,6.855,6.855,0,0,1-3.464-2.192c-.743-.041.375,3.1,1.118,3.12" transform="translate(-12.324 -5.526)" fill="#ebc3b3"/>
    <path id="Trazado_4398" data-name="Trazado 4398" d="M8.436,42.157c-1.332-.3-2.571-.485-2.571-.485a5.26,5.26,0,0,0,.014-3.81c.334-.664,3.283,4.456,2.558,4.295" transform="translate(-1.649 -10.627)" fill="#ebc3b3"/>
    <path id="Trazado_4399" data-name="Trazado 4399" d="M6.7,37.1a3.867,3.867,0,0,1-2.377.848,6.853,6.853,0,0,0,1.162-3.932C6.015,33.5,7.246,36.6,6.7,37.1" transform="translate(-1.215 -9.547)" fill="#ebc3b3"/>
    <path id="Trazado_4400" data-name="Trazado 4400" d="M27.076,33.8a5.841,5.841,0,0,0-.28-1.172c-.367-1.093-.827-2.264-1.308-3.4-1.359-3.17-2.955-6.017-3.616-5.794s-.2,3.465.647,6.808c.151.589.309,1.172.482,1.747.093.323.187.633.28.942.093.273.18.539.266.8a6.014,6.014,0,0,0,.6,1.308.3.3,0,0,0,.058.086v.007a3.373,3.373,0,0,0,.338.453,1.841,1.841,0,0,0,1.387.755,1.089,1.089,0,0,0,.266-.05c.554-.173.949-.812.942-1.84a3.521,3.521,0,0,0-.065-.647M24.294,34.93a2.938,2.938,0,0,1,.186-.381l.589-.252h.007l.97-.41a.528.528,0,0,1,0,.151,5.464,5.464,0,0,0-.784.28c-.007,0-.014.007-.022.014a6.4,6.4,0,0,0-.948.6" transform="translate(-6.06 -6.585)" fill="#fff"/>
    <path id="Trazado_4401" data-name="Trazado 4401" d="M29.729,35.978a7.778,7.778,0,0,0-4.234-4.543,2.391,2.391,0,0,0-2.969,1.014,7.831,7.831,0,0,0-.568,6.161,4.928,4.928,0,0,0,.345.805,4.088,4.088,0,0,0,.446.647,2.724,2.724,0,0,0,1.51.891,3.338,3.338,0,0,0,.935.065,4.661,4.661,0,0,0,.618-.072,6.828,6.828,0,0,0,1-.259c2.149-.726,3.76-2.229,2.919-4.709m-4.457.546c-.007,0-.014.007-.022.014a6.443,6.443,0,0,0-.949.6,3.049,3.049,0,0,1,.187-.381l.589-.252h.007l.97-.41a.529.529,0,0,1,0,.151,5.463,5.463,0,0,0-.784.28" transform="translate(-6.068 -8.79)" fill="#fff"/>
    <path id="Trazado_4402" data-name="Trazado 4402" d="M26.638,34.186c.3.787-1.3,1.706-1.3,1.706s-1.806.361-2.1-.426,3.106-2.067,3.4-1.28" transform="translate(-6.527 -9.541)" fill="#202021"/>
    <path id="Trazado_4403" data-name="Trazado 4403" d="M28.957,37.974c.014.158-.51.288-1.208.5a10.191,10.191,0,0,0-1.351.474c-.036.014-.065.029-.1.043-.194.086-.381.187-.568.288s-.4.223-.575.331c-.82.489-1.409.927-1.431.733V40.3c.014-.316.5-.805,1.035-1.236a1.658,1.658,0,0,0,.137-.1l.007-.007a6.442,6.442,0,0,1,.949-.6c.007-.007.014-.014.022-.014a5.463,5.463,0,0,1,.784-.28,9.706,9.706,0,0,1,1.028-.237c.669-.115,1.251-.122,1.272.144" transform="translate(-6.669 -10.614)" fill="#202021"/>
    <path id="Trazado_4404" data-name="Trazado 4404" d="M32.187,26.049a1.4,1.4,0,1,1-1.8-.817,1.4,1.4,0,0,1,1.8.817" transform="translate(-8.287 -7.068)" fill="#202021"/>
    <path id="Trazado_4405" data-name="Trazado 4405" d="M13.942,32.145a1.441,1.441,0,1,0,.842-1.856,1.442,1.442,0,0,0-.842,1.856" transform="translate(-3.893 -8.489)" fill="#202021"/>
    <path id="Trazado_4406" data-name="Trazado 4406" d="M10.929,41.091a.118.118,0,0,1-.071.014,18.918,18.918,0,0,0-9.34,1.282.11.11,0,0,1-.146-.06.1.1,0,0,1,.06-.145,19.141,19.141,0,0,1,9.458-1.3.111.111,0,0,1,.095.127.109.109,0,0,1-.055.082" transform="translate(-0.383 -11.454)" fill="#202021"/>
    <path id="Trazado_4407" data-name="Trazado 4407" d="M11.187,42.434a.1.1,0,0,1-.042.013A18.008,18.008,0,0,0,2.62,45.884a.034.034,0,0,1-.013.009.11.11,0,0,1-.144-.029.111.111,0,0,1,.022-.157,18.207,18.207,0,0,1,8.634-3.481.112.112,0,0,1,.068.208" transform="translate(-0.686 -11.87)" fill="#202021"/>
    <path id="Trazado_4408" data-name="Trazado 4408" d="M5.3,48.444a.112.112,0,0,1-.137-.173,20.247,20.247,0,0,1,7.111-4.64.112.112,0,0,1,.078.211,19.983,19.983,0,0,0-7.024,4.581.109.109,0,0,1-.027.022" transform="translate(-1.442 -12.264)" fill="#202021"/>
    <path id="Trazado_4409" data-name="Trazado 4409" d="M38.371,29.681a.112.112,0,0,1-.137-.174A30.129,30.129,0,0,1,48.392,22.82a.111.111,0,0,1,.144.064.109.109,0,0,1-.064.144A29.872,29.872,0,0,0,38.4,29.66a.085.085,0,0,1-.025.021" transform="translate(-10.74 -6.413)" fill="#202021"/>
    <path id="Trazado_4410" data-name="Trazado 4410" d="M50.386,27.212a.148.148,0,0,1-.037.013,28.763,28.763,0,0,0-10.9,4.235.105.105,0,0,1-.155-.031.113.113,0,0,1,.031-.156A28.981,28.981,0,0,1,50.312,27a.111.111,0,0,1,.129.092.114.114,0,0,1-.055.116" transform="translate(-11.042 -7.591)" fill="#202021"/>
    <path id="Trazado_4411" data-name="Trazado 4411" d="M50.382,31.66a.113.113,0,0,1-.058.014,26.344,26.344,0,0,0-10.356,2.067.113.113,0,0,1-.148-.058.106.106,0,0,1,.057-.148A26.614,26.614,0,0,1,50.33,31.451a.11.11,0,0,1,.109.115.108.108,0,0,1-.056.094" transform="translate(-11.191 -8.84)" fill="#202021"/>
    <path id="Trazado_4412" data-name="Trazado 4412" d="M24.469,41.415c-.23.865-.423,1.692-.653,2.658-.129.525-.266,1.076-.432,1.7-.129.487-.257.993-.4,1.518-.469,1.766-1,3.78-1.619,6.126a2.83,2.83,0,0,1-2.566,2.2c-.984-.074-1.913-.175-2.814-.212-1.241-.055-2.9-2.115-1.913-3.577a33.838,33.838,0,0,0,2.382-4.286c.341-.69.662-1.343.984-1.95.7-1.278,1.325-2.437,1.886-3.476.1-.193.2-.377.3-.561a1.577,1.577,0,0,1,.635-.579l.111-.055c1.067-.533,1.159-.864,1.4-1.462v-.009c.028-.073.065-.156.1-.239l.009-.009a8.276,8.276,0,0,1,1.213-.763c.01-.009.019-.019.028-.019a7.12,7.12,0,0,1,1-.359.61.61,0,0,1-.027.166,7.251,7.251,0,0,1-.3.965c-.119.377-.257.763-.34,1.113v.019a.571.571,0,0,1,.175.027.055.055,0,0,1,.037.009,1.365,1.365,0,0,1,.257.138c.009,0,.009.009.009.018a1.31,1.31,0,0,1,.386.423.762.762,0,0,1,.147.478" transform="translate(-3.873 -10.699)" fill="#5b9486"/>
    <path id="Trazado_4413" data-name="Trazado 4413" d="M27.118,37.98a.528.528,0,0,1,0,.151,5.464,5.464,0,0,0-.784.28c-.007,0-.014.007-.022.014a6.442,6.442,0,0,0-.949.6,3.049,3.049,0,0,1,.187-.381l.589-.252h.007Z" transform="translate(-7.13 -10.677)" fill="#fff"/>
    <path id="Trazado_4414" data-name="Trazado 4414" d="M24.067,40.975c-.019.055-.037.119-.055.175-.321,1.086-.643,2.124-.956,3.164-.331,1.076-.653,2.152-.993,3.274-.469,1.554-.965,3.191-1.518,5.031a2.713,2.713,0,0,1-2.686,1.95c-1.628-.34-4.847.028-3.752-2.594.855-1.582,1.618-3.007,2.308-4.286.377-.689.727-1.334,1.057-1.95.7-1.278,1.324-2.437,1.886-3.476.1-.193.2-.377.3-.561a1.567,1.567,0,0,1,.635-.579l.11-.055A2.173,2.173,0,0,0,21.8,39.6V39.6c.027-.074.064-.156.1-.239l.009-.009a8.3,8.3,0,0,1,1.214-.763c.4.138.119.5-.037.93a1.466,1.466,0,0,0-.119.248c-.239.589.147.625.515.69.065.018.119.027.175.046a.053.053,0,0,1,.037.009.5.5,0,0,1,.258.137c.009,0,.009.009.009.019a.379.379,0,0,1,.1.313" transform="translate(-3.903 -10.847)" fill="#b9e4d9"/>
    <path id="Trazado_4415" data-name="Trazado 4415" d="M18.379,50.369q.8-1.7,1.483-3.136c.691-1.058.761-2.745,2.042-3.011.429.013,1.756-.477,1.649.26-.677,1.93-1.341,3.817-2.08,5.919a1.361,1.361,0,0,1-1.23.846c-.67-.1-2.313.3-1.864-.879" transform="translate(-5.145 -12.391)" fill="#683da3"/>
    <path id="Trazado_4416" data-name="Trazado 4416" d="M20.593,49.54a.409.409,0,0,1,.717-.041c.16-.165.283-.3.375-.295.217-.141.564.106.412.375-.008.157-.421.49-.377.193.152-.152.223-.4.01-.4-.106-.068-.266.439-.486.466-.046.013-.251-.39-.4-.329a.016.016,0,0,1-.016.01.364.364,0,0,0,.033.318c-.144.336-.4.062-.272-.3m.351-.772c-.144.459.367.293.682.045.829,1.181,1.524-1.443.147-.261a.518.518,0,0,0-.829.216m.249.1c-.15-.132.231-.372.324-.188a1.046,1.046,0,0,1-.324.188m.931.053c-.07,0-.152-.071-.244-.219l0-.009a1.18,1.18,0,0,1,.387-.257c.11.127.024.465-.146.486m.1-.872c.045-.154.434-.226.34-.005-.005.126-.415.165-.34.005m-.83-.321c0,.052,0,.078,0,.081.3.18,1.584.134,1.454-.385a1.107,1.107,0,0,0-1.451.3m.745-.01c-.338.009-.5-.009-.505-.058.018-.163.855-.322.992-.1-.059.128-.3.149-.487.162" transform="translate(-5.779 -13.288)" fill="#fff"/>
  </g>
</svg>
