<svg id="Grupo_2328" data-name="Grupo 2328" xmlns="http://www.w3.org/2000/svg" xmlns:xlink="http://www.w3.org/1999/xlink" width="55.703" height="80" viewBox="0 0 55.703 80">
  <defs>
    <clipPath id="clip-path">
      <rect id="Rect치ngulo_1222" data-name="Rect치ngulo 1222" width="55.703" height="80" fill="none"/>
    </clipPath>
  </defs>
  <rect id="Rect치ngulo_1221" data-name="Rect치ngulo 1221" width="48.985" height="68.316" transform="translate(2.629 6.631)" fill="#fff"/>
  <g id="Grupo_2327" data-name="Grupo 2327">
    <g id="Grupo_2326" data-name="Grupo 2326" clip-path="url(#clip-path)">
      <path id="Trazado_4417" data-name="Trazado 4417" d="M91.906,12.9a4.245,4.245,0,0,0-4.246-4.243h-8.28l.009-.042H89.455A4.245,4.245,0,0,1,93.7,12.858V79.837a4.242,4.242,0,0,1-4.243,4.243h-1.2a4.248,4.248,0,0,0,3.649-4.2Z" transform="translate(-37.996 -4.122)" fill="#579d9d"/>
      <path id="Trazado_4418" data-name="Trazado 4418" d="M4.246,84.161A4.248,4.248,0,0,1,0,79.915V12.936A4.245,4.245,0,0,1,4.246,8.693h1.2a4.248,4.248,0,0,0-3.649,4.2V79.876a4.245,4.245,0,0,0,4.246,4.243H50.261a4.311,4.311,0,0,1-.6.042Z" transform="translate(0 -4.161)" fill="#579d9d"/>
      <path id="Trazado_4419" data-name="Trazado 4419" d="M55.552,12.932V79.912a4.242,4.242,0,0,1-3.646,4.2H7.682a4.24,4.24,0,0,1-4.249-4.24V12.895a4.242,4.242,0,0,1,3.655-4.2H13.8l.733,2.829H5.177V78.558l46.578-.013.262-67.024H42.378l.65-2.829H51.3a4.246,4.246,0,0,1,4.249,4.24" transform="translate(-1.643 -4.161)" fill="#a1d7d6"/>
      <path id="Trazado_4420" data-name="Trazado 4420" d="M52.889,0l-.64,2.8L51.4,6.486l-.87,3.769H16.1l-.955-3.769L14.187,2.8h-.012L13.45,0Z" transform="translate(-6.438 0)" fill="#ff9436"/>
      <path id="Trazado_4421" data-name="Trazado 4421" d="M53.619,14.119v5.808H6.778V14.119H16.13l.733,2.894H43.312l.668-2.894Z" transform="translate(-3.245 -6.758)" fill="#300a47"/>
      <path id="Trazado_4422" data-name="Trazado 4422" d="M49.752,115.1c-.165,2.191-2.532,1.971-3.435,1.41a17.977,17.977,0,0,0-2.9-1.2,18.041,18.041,0,0,0-3.089-.581c-1.064-.023-3.166-1.138-2.106-3.061s3-1.248,4.366-3.86,3.59-1.755,3.59-1.755,2.328.5,2.039,3.432,1.7,3.428,1.533,5.618M48.3,106.484c1.107.71,2.729.153,3.625-1.244s.726-3.1-.381-3.813-2.728-.153-3.624,1.244-.726,3.1.38,3.813m5.183.939c-1.024-.824-2.7-.443-3.736.851s-1.053,3.009-.028,3.831,2.7.443,3.736-.851,1.052-3.007.028-3.831m-9.321-2.172c1.315.011,2.391-1.325,2.4-2.983s-1.04-3.013-2.353-3.024-2.391,1.325-2.4,2.983,1.038,3.012,2.353,3.024M39.9,109.179c1.308-.129,2.236-1.571,2.073-3.221s-1.353-2.886-2.661-2.757-2.236,1.571-2.073,3.221,1.353,2.886,2.661,2.757" transform="translate(-17.814 -47.505)" fill="#683da3"/>
      <path id="Trazado_4423" data-name="Trazado 4423" d="M27.1,34.345H11.954v3.477h17.23V34.345Z" transform="translate(-5.722 -16.44)" fill="#6e6765"/>
      <path id="Trazado_4424" data-name="Trazado 4424" d="M48.3,49.225H11.954V52.7H53.295V49.225Z" transform="translate(-5.722 -23.562)" fill="#6e6765"/>
      <path id="Trazado_4425" data-name="Trazado 4425" d="M48.3,64.105H11.954v3.477H53.295V64.105Z" transform="translate(-5.722 -30.685)" fill="#6e6765"/>
      <path id="Trazado_4426" data-name="Trazado 4426" d="M51.424,85.105H30.832v3.477H54.255V85.105Z" transform="translate(-14.758 -40.736)" fill="#6e6765"/>
      <path id="Trazado_4427" data-name="Trazado 4427" d="M53.149,6.59a1.4,1.4,0,0,1-.418.956,1.424,1.424,0,0,1-1,.408H28.518a1.4,1.4,0,0,1-1.41-1.364h-.019V6.581a1.411,1.411,0,0,1,.418-1,1.451,1.451,0,0,1,1-.417H51.72a1.425,1.425,0,0,1,1.419,1.419V6.59Z" transform="translate(-12.966 -2.471)" fill="#f9cd53"/>
    </g>
  </g>
</svg>
