<svg id="Grupo_2305" data-name="Grupo 2305" xmlns="http://www.w3.org/2000/svg" xmlns:xlink="http://www.w3.org/1999/xlink" width="307.042" height="278.556" viewBox="0 0 307.042 278.556">
  <defs>
    <clipPath id="clip-path">
      <rect id="Rectángulo_1214" data-name="Rectángulo 1214" width="307.042" height="278.556" fill="none"/>
    </clipPath>
  </defs>
  <g id="Grupo_2304" data-name="Grupo 2304" clip-path="url(#clip-path)">
    <path id="Trazado_4306" data-name="Trazado 4306" d="M26.117,128.24c12.876-22.917,27.334-27.248,46.145-33.519s43.093-6.5,59.686,9.068c45.52,42.7,56.419,40.55,73.328,33.009,20.719-9.241,40.927-5.8,64.8,42.194,11.24,22.6,19.141,89.627-14.276,128.334-3.6,4.173-7.949,6.36-12.39,6.325-32.95-.259-177.247-.895-215.1-.534-6.026.058-11.648-4.837-14.922-12.968C-6.486,250.8-5.8,185.05,26.117,128.24" transform="translate(0 -65.931)" fill="#c6e6f7"/>
    <path id="Trazado_4307" data-name="Trazado 4307" d="M585.323,101.993c-15.238-55.03,55.99-62.042,56.729-1.067,10.941-32.249,40.578-8.319,34.043,8.553.015.031.029.061.047.1,15.744-12.989,24.786,21.966,1.726,21.966-22.609.5-80.029,0-104.465,0-18.247,0-14.419-35.4,11.92-29.557" transform="translate(-408.52 -42.082)" fill="#579d9d"/>
    <path id="Trazado_4308" data-name="Trazado 4308" d="M115.94,28.124,96.29,77.053C90.6,91.225,84.84,105.683,83.763,120.916s3.272,31.647,14.878,41.573c9.489,8.116,22.4,10.873,34.832,12.051,20.324,1.925,42.1-.026,58.774-11.8s25.984-35.572,16.363-53.578c-6-11.223-17.837-18.274-24.476-29.13-5.824-9.523-7.114-21.045-8.241-32.15s-2.358-22.623-8.091-32.2C162.38,6.624,153.674,2.669,143.777.36c-8.982-2.1-15.761,5.341-20.253,12.324a90.91,90.91,0,0,0-7.584,15.44" transform="translate(-60.759 0)" fill="#9fc2d6"/>
    <path id="Trazado_4309" data-name="Trazado 4309" d="M273.53,371.683a448.523,448.523,0,0,1-4.188-52.294c-.448-18.459-.125-36.862.734-55.206A1075.015,1075.015,0,0,1,281.149,154.9a1070.742,1070.742,0,0,0-2.267,109.343c.609,18.175,1.753,36.306,3.641,54.295a489.658,489.658,0,0,0,8.345,53.273Z" transform="translate(-195.598 -112.576)" fill="#5c727c"/>
    <path id="Trazado_4310" data-name="Trazado 4310" d="M197.139,430.836a88.507,88.507,0,0,0-9.9-30.628,122.768,122.768,0,0,0-19.254-26.783,124.478,124.478,0,0,1,22.174,25.051,93.577,93.577,0,0,1,13.671,31.22Z" transform="translate(-122.085 -271.386)" fill="#5c727c"/>
    <path id="Trazado_4311" data-name="Trazado 4311" d="M278.251,379.9a67.824,67.824,0,0,1,37.285-35.245,65.287,65.287,0,0,0-32.547,37.115Z" transform="translate(-202.218 -250.48)" fill="#5c727c"/>
    <path id="Trazado_4312" data-name="Trazado 4312" d="M229.446,375.026c-1.647-6.267-3.578-12.632-4.208-19.263a32.52,32.52,0,0,1,.468-9.92,23.783,23.783,0,0,1,4.015-8.941,23.353,23.353,0,0,0-3.179,9.088,31.267,31.267,0,0,0,.379,9.546c1.156,6.307,3.558,12.321,5.766,18.478Z" transform="translate(-163.565 -244.844)" fill="#5c727c"/>
    <path id="Trazado_4313" data-name="Trazado 4313" d="M307.376,350.077a68.981,68.981,0,0,1,4.332-16.223,33.586,33.586,0,0,1,9.891-13.3,32.73,32.73,0,0,0-8.3,13.891,66.555,66.555,0,0,0-2.551,16.028Z" transform="translate(-223.385 -232.963)" fill="#5c727c"/>
    <path id="Trazado_4314" data-name="Trazado 4314" d="M298.744,419.375a90.565,90.565,0,0,1,15.759-4.891,33.444,33.444,0,0,1,16.309.542,32.176,32.176,0,0,0-15.65,1.918,87.066,87.066,0,0,0-14.227,7.029Z" transform="translate(-217.112 -300.684)" fill="#5c727c"/>
    <path id="Trazado_4315" data-name="Trazado 4315" d="M198.046,471.628a58.209,58.209,0,0,0-9.709-12.415,27.172,27.172,0,0,0-6.417-4.534,17.025,17.025,0,0,0-7.729-1.837,17.665,17.665,0,0,1,8.193.651,29.047,29.047,0,0,1,7.527,3.718,61.875,61.875,0,0,1,12.262,11.432Z" transform="translate(-126.593 -328.941)" fill="#5c727c"/>
    <path id="Trazado_4316" data-name="Trazado 4316" d="M205.269,809.958a10.5,10.5,0,0,0-17.594-5.651c.04-.516.078-1.032.078-1.557a19.666,19.666,0,0,0-29.128-17.242,32.377,32.377,0,1,0-64.212,8.216,14.637,14.637,0,0,0-21.456,16.234Z" transform="translate(-52.71 -549.724)" fill="#5c727c"/>
    <path id="Trazado_4317" data-name="Trazado 4317" d="M449.988,908.524h-29.3l-.019-1.563,7.148-7.613,18.21-3.249,1.844,1.552Z" transform="translate(-305.722 -651.239)" fill="#bf6f43"/>
    <path id="Trazado_4318" data-name="Trazado 4318" d="M651.579,728.865l-.055.765v0l0,.005-.257,3.536-.858-.724-5.061-4.268a42.718,42.718,0,0,0-14.542-8.034c-.683-.219-1.375-.421-2.069-.6a42.392,42.392,0,0,0-7.167-1.26l-57.908-5.129a23.535,23.535,0,0,1-15.149-8.05c-.077-.087-.15-.175-.224-.262a23.257,23.257,0,0,1-1.547-2.077l-1.719-2.62-.09-.139-32.241,14.7.087,1.323.3,1.41c.008.046.016.093.027.137,0,.005,0,.008,0,.014.03.213.057.424.082.637,0,.016,0,.036.005.052a19.836,19.836,0,0,1-.139,5.473h.025q1.074-.1,2.085-.1.254,0,.5.008c11.832.331,17.138,11.329,18.8,20.781l.6,2.071A25.846,25.846,0,0,0,559.3,763.38h21.8a18.794,18.794,0,0,0,17.647-12.332l.724-1.992.475-1.309.2-.538,5.591-15.4,40.012,10.479-5.378,7.856c4.29-.036,7.746.762,9.46,2.9-.008.022-.014.044-.022.066-2.686,8.3-15.335,10.843-24.836,10.763l-35.318.331-.574.005-.776.008-8.766.082h-.019l-1.426.014-45.7.429-6.889.066,0,0-15.963-13.452-1.844-1.552c-.082-.183-.161-.369-.238-.555a25.321,25.321,0,0,1,.97-21.5l1.724-3.276a19.9,19.9,0,0,0,1.913-5.419c.014-.071.027-.139.041-.21.03-.145.057-.3.079-.443a19.987,19.987,0,0,0,.137-5.479c0-.019,0-.036-.005-.055a66.885,66.885,0,0,0,6.727-2.618h0c2.183-.959,4.331-1.97,6.072-2.787,9.769-4.591,15.406-8.774,19-12.662l1.721,2.626a23.6,23.6,0,0,0,1.544,2.074c.074.087.145.175.221.26a23.567,23.567,0,0,0,15.155,8.055l57.908,5.129a42.782,42.782,0,0,1,23.778,9.9Z" transform="translate(-367.375 -504.944)" fill="#5e392f"/>
    <path id="Trazado_4319" data-name="Trazado 4319" d="M670.375,747.026,669.944,753c-.724-.388-1.437-.784-2.137-1.183l-.186.271v0l-2.771,4.047L624.838,745.66l-5.591,15.4-.2.538-.475,1.309-.724,1.992A18.794,18.794,0,0,1,600.2,777.232h-21.8a25.846,25.846,0,0,1-24.235-16.865l-.6-2.071c-1.659-9.452-6.965-20.45-18.8-20.781q-.246-.008-.5-.008-1.012,0-2.085.1h-.025a19.838,19.838,0,0,0,.139-5.473c0-.016,0-.036-.005-.052-.025-.213-.052-.424-.082-.637,0-.005,0-.008,0-.014-.011-.044-.019-.09-.027-.137l-.3-1.41-.087-1.323,32.241-14.7.09.139,1.719,2.62A23.254,23.254,0,0,0,567.4,718.7c.074.087.148.175.224.262a23.535,23.535,0,0,0,15.149,8.05l57.908,5.129a42.4,42.4,0,0,1,7.167,1.26c.694.183,1.385.385,2.069.6a42.717,42.717,0,0,1,14.542,8.034l5.061,4.268Z" transform="translate(-386.485 -518.796)" fill="#5e392f"/>
    <path id="Trazado_4320" data-name="Trazado 4320" d="M650.841,870.5l-47.189.559,11.012-21.112,48.9-9.02,23.577,26.6Z" transform="translate(-438.704 -611.139)" fill="#d8844c"/>
    <path id="Trazado_4321" data-name="Trazado 4321" d="M330.281,921.541l7.35-1.312-4.64,6.162c-.445.391-.88.74-1.29,1.082a7.662,7.662,0,0,0-2.12,2.44.014.014,0,0,0-.005.011l-7.195.148.044-.046Z" transform="translate(-234.29 -668.775)" fill="#d8844c"/>
    <path id="Trazado_4322" data-name="Trazado 4322" d="M451.034,911.106l-47.912.978h-.071l.514-.546,4.3-4.577,7.148-7.613,18.209-3.249,1.844,1.552Z" transform="translate(-292.916 -651.238)" fill="#d8844c"/>
    <path id="Trazado_4323" data-name="Trazado 4323" d="M394.337,878.538l-1.844-1.552-18.209,3.249-7.148,7.613-4.3,4.577-.514.547h.071l-2.29,2.538c-.765,1.047-3.875,1.913-5.167,1.834l-5.684-.046a2.388,2.388,0,0,1-2.161-3,5.525,5.525,0,0,1,.383-1.019.014.014,0,0,1,.005-.011,7.663,7.663,0,0,1,2.12-2.44c.41-.341.844-.691,1.29-1.082l4.64-6.162,8.018-10.645a7.867,7.867,0,0,1,8.63-2.776l20.318,6.828Z" transform="translate(-252.186 -632.125)" fill="#bf6f43"/>
    <path id="Trazado_4324" data-name="Trazado 4324" d="M323.795,930.961a7.664,7.664,0,0,0-2.12,2.44l-7.156.112-2.976.047-.03-.541a6.709,6.709,0,0,1,5.462-6.976l5.4-1.014Z" transform="translate(-226.383 -672.263)" fill="#d8844c"/>
    <path id="Trazado_4325" data-name="Trazado 4325" d="M783.665,945.264l-12.824.2-.031-.541a6.711,6.711,0,0,1,5.463-6.977l5.4-1.012Z" transform="translate(-560.177 -680.917)" fill="#bf6f43"/>
    <path id="Trazado_4326" data-name="Trazado 4326" d="M534.681,724.136c.036.208-3.3,1.333-3.271,1.543l0,1.452c.022.145-.284,2.074-.268,2.219,1.948-.6,5.3-2.205,7.673-3.246l4.279-2.263c2.183-.959,4.408-2.577,6.148-3.394,9.769-4.591,11.75-5.506,15.346-9.394l1.377-.984" transform="translate(-386.004 -516.041)" fill="#5e392f"/>
    <path id="Trazado_4327" data-name="Trazado 4327" d="M671.758,748.2l-.005.014-.21.623v0l0,.005-1.424,4.211-.014.036-.21.623.052-.713c-.724-.388-1.437-.784-2.137-1.183l-.186.271v0l-2.771,4.047L624.838,745.66l-5.591,15.4-.2.538-.475,1.309-.724,1.992A18.794,18.794,0,0,1,600.2,777.232h-21.8a25.846,25.846,0,0,1-24.235-16.865l-.6-2.071c-1.659-9.452-6.965-20.45-18.8-20.781q-.246-.008-.5-.008-1.012,0-2.085.1h-.025a19.838,19.838,0,0,0,.139-5.473c0-.016,0-.036-.005-.052-.025-.213-.052-.424-.082-.637,0-.005,0-.008,0-.014-.011-.044-.019-.09-.027-.137l-.3-1.41-.087-1.323,32.241-14.7.09.139,1.719,2.62A23.254,23.254,0,0,0,567.4,718.7c.074.087.148.175.224.262a23.535,23.535,0,0,0,15.149,8.05l57.908,5.129a42.4,42.4,0,0,1,7.167,1.26c.694.183,1.385.385,2.069.6a42.717,42.717,0,0,1,14.542,8.034l5.061,4.268.858.724,1.227,1.033Z" transform="translate(-386.485 -518.796)" fill="#5e392f"/>
    <path id="Trazado_4328" data-name="Trazado 4328" d="M1032.075,819.611l-.21.623v0l0,.005-.257,3.536-.432,5.976c-.724-.388-1.437-.784-2.137-1.183l-.186.271.1-.314v-.005l0-.005,1.79-5.462,1.172-3.585Z" transform="translate(-747.716 -595.548)" fill="#5e392f"/>
    <path id="Trazado_4329" data-name="Trazado 4329" d="M1013.139,991.253q.722-.152,1.418-.314-1.3.316-2.705.588c-2.44.47-5.684,1.079-9.23,1.743-.514.1-1.055.2-1.62.3.544-.1,1.077-.2,1.6-.3,3.547-.664,6.793-1.273,9.23-1.743.448-.087.883-.178,1.312-.27" transform="translate(-727.476 -720.163)" fill="#d8844c"/>
    <path id="Trazado_4330" data-name="Trazado 4330" d="M1088.411,863.995q.164.156.336.328l-1.066-.984c.082.068.164.139.249.213l.049.044.267.246Z" transform="translate(-790.47 -627.43)" fill="#d8844c"/>
    <path id="Trazado_4331" data-name="Trazado 4331" d="M1111.026,904.934c2.864-4.38,3.137-10.1-1.7-17.144-.057-.1-.115-.189-.172-.281,5.082,7.222,4.8,13.07,1.842,17.521,0-.005,0-.008.005-.014.011-.027.016-.055.027-.082" transform="translate(-806.073 -644.995)" fill="#d8844c"/>
    <path id="Trazado_4332" data-name="Trazado 4332" d="M866.383,812.239l.014-.019-.093-.036-.044-.016s0,0-.005,0h0l-.008-.005-37.086-14.379A11.266,11.266,0,0,0,814.3,811.548l1.956,6.471,1.566,3.462,1.7,3.768,1,3.088a4.334,4.334,0,0,1-3.336,5.6l-.9.167-11.25,2.528.943,1.866,2.566,5.072,44.018-2.082c2.705-.123,8.419-.823,11.936-6.1,0,0,4.347-6.383,3.006-8.064l.568-7.807v-.022l.391-5.356.052-.713q-1.086-.582-2.137-1.183" transform="translate(-585.062 -579.216)" fill="#bf6f43"/>
    <path id="Trazado_4333" data-name="Trazado 4333" d="M403.594,952.621l-.473.525h-.071l.514-.547Z" transform="translate(-292.916 -692.3)" fill="#bf6f43"/>
    <path id="Trazado_4334" data-name="Trazado 4334" d="M997.222,800.185a.29.29,0,0,1-.047-.014,44.26,44.26,0,0,0-4.473-5.159l-1.066-.984s-.006,0-.008-.005l-12.843-11.84-.211.623v0l0,.006-.257,3.536-.432,5.976c-.724-.388-1.437-.784-2.137-1.183l-.068-.041-.014-.008a.307.307,0,0,0-.041-.022s0,0-.005,0h0l-.008-.005c-10.731-6.156-18.346-13.266-19.822-18.343a4.72,4.72,0,0,1,.139-3.484,3.843,3.843,0,0,1,1.011-1.257.021.021,0,0,1,.011-.011A42.717,42.717,0,0,1,971.49,776l7.145,6.025.156.142,13.094,12.072.049.044.268.246.164.153.341.314a22.1,22.1,0,0,1,4.514,5.186" transform="translate(-694.426 -558.12)" fill="#5e392f"/>
    <path id="Trazado_4335" data-name="Trazado 4335" d="M1059.375,842.617c-4.558-7.1-22.024-12.485-22.024-12.485l.689-9.512,0-.005v0l.21-.623,12.843,11.84s.005.005.008.005l1.066.984a44.242,44.242,0,0,1,4.473,5.159c.112.153.219.3.322.456.005,0,.005,0,.005.005.057.093.115.186.172.281a25.552,25.552,0,0,1,2.233,3.9" transform="translate(-753.893 -595.925)" fill="#5e392f"/>
    <path id="Trazado_4336" data-name="Trazado 4336" d="M957.59,882.841c-.011.027-.016.055-.027.082,0,.005,0,.008-.005.014-2.948,4.438-8.244,8.413-17.8,10.733a.11.11,0,0,1-.041.008c-4.222.946-8.527,1.657-13.556,2.629-10.367,1.862-22.419,4.352-25.511,5.151a2.642,2.642,0,0,1-.91-5.116.1.1,0,0,1,.03-.011c1.012-.724,26.964-5.49,36.733-7.359,5.26-1.2,12.96-5.544,14.384-10.419.99-4.472-3.924-8.552-5.66-10.368a1.523,1.523,0,0,0-.478-.339c-.035-.016-.073-.034-.117-.058l-8.982-4.588v-.022c.029-.4.43-5.886.443-6.069,1.989.646,17.6,5.695,22.024,12.485l0,0c2.4,5.285,1.783,9.7-.532,13.245" transform="translate(-652.638 -622.902)" fill="#d8844c"/>
    <path id="Trazado_4337" data-name="Trazado 4337" d="M1059.52,869.821l-.057-.033-22.112-12.679s17.466,5.383,22.024,12.485c.052.074.1.15.145.227" transform="translate(-753.893 -622.902)" fill="#d8844c"/>
    <path id="Trazado_4338" data-name="Trazado 4338" d="M533.93,719.261c-.115.986-.306,2.918-.516,5.4l-3.142-7.266-.65-1.5c.306.284.623.566.945.842a33.816,33.816,0,0,0,3.364,2.53" transform="translate(-384.901 -520.271)" fill="#5e392f"/>
    <path id="Trazado_4339" data-name="Trazado 4339" d="M444.863,666.286c-.243,2.853-.516,6.427-.735,10.1l-6.424-5.878,0,.024h0l-1.64,6.927a15.167,15.167,0,0,1-3.9,7.11,14.94,14.94,0,0,1-2.167,1.842c-.123.085-.249.172-.374.251s-.281.183-.424.271a.107.107,0,0,1-.03.016c-.1.066-.213.128-.317.189-.066.041-.131.077-.2.112s-.134.071-.2.109c-.117.063-.232.12-.352.183-.1.049-.2.1-.3.145-.224.109-.451.208-.678.3-.123.049-.246.1-.372.15-.093.036-.186.071-.281.1a.21.21,0,0,1-.055.022c-.107.038-.216.074-.328.112-.238.082-.473.156-.713.221-.016,0-.036.011-.055.014-.1.03-.2.055-.3.079-.118.03-.24.06-.361.087s-.213.049-.32.071c-.052.011-.1.022-.156.03-.413.082-.828.145-1.252.188a14.776,14.776,0,0,1-2.364.074c-.148-.005-.3-.016-.448-.027-.249-.016-.5-.044-.749-.074l-.126-.016a.034.034,0,0,1-.016,0l-.623-.079v0l-4.312-.544-2.842-.358a4.2,4.2,0,0,1-3.58-5.055l.131-.6,4.2-19.324.005-.033s-.071-.071-.115-.109a5.8,5.8,0,0,1-1.568-6.359l4.99-13.313a12.372,12.372,0,0,1,15.461-7.006l3.006,1.033c-1.522,2.3-1.65,5.435-.6,8.818a22.608,22.608,0,0,0,2.659,5.525,31,31,0,0,0,5.025,5.9l.65,1.5Z" transform="translate(-296.35 -461.899)" fill="#d8844c"/>
    <path id="Trazado_4340" data-name="Trazado 4340" d="M432.1,757.658a14.941,14.941,0,0,1-2.167,1.842c-.123.085-.249.172-.374.251s-.281.183-.424.271a.107.107,0,0,1-.03.016c-.1.066-.213.128-.317.189-.066.041-.131.076-.2.112s-.134.071-.2.109c-.117.063-.232.12-.352.183-.1.049-.2.1-.3.145-.224.109-.451.208-.678.3-.123.049-.246.1-.372.15-.093.036-.186.071-.281.1a.206.206,0,0,1-.055.022c-.107.038-.216.074-.328.112-.238.082-.473.156-.713.221-.016,0-.036.011-.055.014-.1.03-.2.055-.3.079-.118.03-.24.06-.361.087s-.213.049-.32.071c-.052.011-.1.022-.156.03-.413.082-.828.145-1.251.189a14.783,14.783,0,0,1-2.364.074c-1.159-.137-1.929-.221-1.962-.2v0a.02.02,0,0,1-.016.011l-4.3-.538-2.858-.361a4.2,4.2,0,0,1-3.577-5.058l.128-.6,4.211-19.349c.005,0,.008.008.014.011a20.318,20.318,0,0,1,1.779,1.451c4.648,4.17,15.78,12.6,18.169,20.057" transform="translate(-296.299 -534.988)" fill="#bf6f43"/>
    <path id="Trazado_4341" data-name="Trazado 4341" d="M434.232,720.395c1.4.957,2.169,2.261,1.723,2.912s-1.941.4-3.338-.553-2.169-2.261-1.723-2.912,1.941-.4,3.338.553" transform="translate(-313.06 -522.879)" fill="#3b1c1c"/>
    <path id="Trazado_4342" data-name="Trazado 4342" d="M413.294,807.269a4.79,4.79,0,0,1,.947,4.44c0,.005,0,.009-.006.015l-2.857-.359a4.2,4.2,0,0,1-3.578-5.057l.13-.6c.006-.005.014-.008.021-.013,1.53-.988,3.87-.318,5.342,1.577" transform="translate(-296.298 -585.206)" fill="#3b1c1c"/>
    <path id="Trazado_4343" data-name="Trazado 4343" d="M437.634,814.757a.614.614,0,1,1-.829-.256.614.614,0,0,1,.829.256" transform="translate(-317.209 -591.885)" fill="#3b1c1c"/>
    <path id="Trazado_4344" data-name="Trazado 4344" d="M445.421,814.44a.614.614,0,1,1-.829-.256.614.614,0,0,1,.829.256" transform="translate(-322.868 -591.655)" fill="#3b1c1c"/>
    <path id="Trazado_4345" data-name="Trazado 4345" d="M433.817,803.535a.614.614,0,1,1-.829-.256.614.614,0,0,1,.829.256" transform="translate(-314.435 -583.73)" fill="#3b1c1c"/>
    <path id="Trazado_4346" data-name="Trazado 4346" d="M529.561,651.862c-.456,5.276-2.342,12.037-7.241,21.655-.872,1.713-1.948,3.828-3.085,5.924l0,0a67.531,67.531,0,0,1-3.705,6.195c-.1-.1-.208-.21-.314-.312h0c-.15-.15-.3-.3-.459-.437l-1.011-.926a11.039,11.039,0,0,0-.158-7.534l-2.427-5.61c.21-2.478.4-4.41.516-5.4a33.813,33.813,0,0,1-3.364-2.53c-.322-.276-.639-.557-.945-.842l-1.339-3.093a19.278,19.278,0,0,0-5.536-7.763l-.213-.178a2.9,2.9,0,0,0-.6-.391c-1.052-3.383-.924-6.523.6-8.818l29.126,10Z" transform="translate(-362.642 -466.434)" fill="#5e392f"/>
    <path id="Trazado_4347" data-name="Trazado 4347" d="M507.846,682.41l1.339,3.093a31,31,0,0,1-5.025-5.9,22.609,22.609,0,0,1-2.659-5.525,2.905,2.905,0,0,1,.6.391l.213.178a19.277,19.277,0,0,1,5.536,7.763" transform="translate(-364.465 -489.886)" fill="#5e392f"/>
    <path id="Trazado_4348" data-name="Trazado 4348" d="M544.131,761.122l-3.32-3.044c.219-3.672.492-7.247.735-10.1l2.427,5.61a11.04,11.04,0,0,1,.158,7.534" transform="translate(-393.033 -543.592)" fill="#5e392f"/>
    <path id="Trazado_4349" data-name="Trazado 4349" d="M603.095,684.024a100.6,100.6,0,0,0-11.319-6.338c-4.322-1.827-6.978,4.272-6.978,4.272l-.2,11.608,15.346-3.345Z" transform="translate(-424.858 -492.259)" fill="#5e392f"/>
    <path id="Trazado_4350" data-name="Trazado 4350" d="M564.594,697.046s-.008.005-.008.011q-.32.34-.656.68a.039.039,0,0,1-.011.008c-4.063,4.112-10.14,8.452-19.967,13.067a121.484,121.484,0,0,1-12.87,5.481c-.287.093-.566.18-.842.262q-.976.3-1.864.484a.079.079,0,0,1-.025.005c-.12.027-.238.052-.355.074-.008,0-.019,0-.027.005.033-.156.057-.309.082-.465a20.558,20.558,0,0,0,.145-5.675.064.064,0,0,1,.025-.008c.038-.014.079-.025.12-.036.087-.025.175-.052.265-.079l.022-.008a66.929,66.929,0,0,0,6.727-2.618h0c2.183-.959,4.331-1.97,6.072-2.787,9.769-4.591,15.406-8.774,19-12.662q.008,0,.008-.008c.23-.249.451-.495.664-.74l.008-.008,1.877,2.864a24.045,24.045,0,0,0,1.6,2.153" transform="translate(-383.701 -502.931)" fill="#ff9436"/>
    <path id="Trazado_4351" data-name="Trazado 4351" d="M501.551,706.6a11.1,11.1,0,0,1-.926,2.028l-3.612,6.337h0l-1.741,3.049a2.8,2.8,0,0,1-4.828.016,3.038,3.038,0,0,1-.213-.445c-.019-.06-.041-.12-.057-.186,0-.005-.005-.008-.005-.014-.014-.044-.025-.087-.036-.134l-.992-4.137-.093-.377-.238-.995-.115-.465v0l-.484-2-.872-3.6-.049-.2-.148-.612-.175-.721-.322-1.331V702.8l-3.8-15.7a21.663,21.663,0,0,1,.516-12.05l.03-.088a2.951,2.951,0,0,1,4.1-1.705,2.9,2.9,0,0,1,.6.391l.213.178a19.277,19.277,0,0,1,5.536,7.763l1.339,3.093.65,1.5,3.142,7.266,2.427,5.61a11.04,11.04,0,0,1,.158,7.534" transform="translate(-350.454 -489.072)" fill="#ba6641"/>
    <path id="Trazado_4352" data-name="Trazado 4352" d="M464.773,796.073a6.546,6.546,0,0,0-2.394,2.213,4.487,4.487,0,0,0-.484,1.047c-.06.186-.112.377-.156.568-.019.09-.036.178-.052.268-.005.044-.014.087-.019.131a.01.01,0,0,1,0,.008v.008a7.087,7.087,0,0,0-.044,1.049c.008.178.019.358.038.536,0,.022.011.079.014.117,0,.005,0,.014,0,.022s0,.014,0,.022c.008.052.016.107.027.161a8.582,8.582,0,0,0,.383,1.473c.03.082.063.164.093.246,0,.008.008.016.011.025a.009.009,0,0,1,0,.005c.022.049.044.1.068.15a.692.692,0,0,1,.06.475c-.413.082-.828.145-1.252.189a7.065,7.065,0,0,1-.358-.9,8.363,8.363,0,0,1-.325-4.181,7.236,7.236,0,0,1,3.694-4.815.684.684,0,0,1,.689,1.18" transform="translate(-334.492 -577.616)" fill="#3b1c1c"/>
  </g>
</svg>
