<svg id="Grupo_2184" data-name="Grupo 2184" xmlns="http://www.w3.org/2000/svg" xmlns:xlink="http://www.w3.org/1999/xlink" width="296" height="209.762" viewBox="0 0 296 209.762">
  <defs>
    <clipPath id="clip-path">
      <rect id="Rectángulo_1155" data-name="Rectángulo 1155" width="296" height="209.762" fill="none"/>
    </clipPath>
    <clipPath id="clip-path-3">
      <rect id="Rectángulo_1151" data-name="Rectángulo 1151" width="77.162" height="69.602" fill="none"/>
    </clipPath>
    <clipPath id="clip-path-5">
      <rect id="Rectángulo_1152" data-name="Rectángulo 1152" width="9.651" height="5.678" fill="none"/>
    </clipPath>
  </defs>
  <g id="Grupo_2183" data-name="Grupo 2183" clip-path="url(#clip-path)">
    <g id="Grupo_2175" data-name="Grupo 2175" transform="translate(0 0)">
      <g id="Grupo_2174" data-name="Grupo 2174" clip-path="url(#clip-path)">
        <path id="Trazado_3813" data-name="Trazado 3813" d="M711.716,993.479c31.733-52.215-15.8-58.667-49.446-73.469-4.361-4.74-5.036-9.51-5.042-14.555-.016-14.185-7.086-27.292-18.62-34.332-27.783-16.959-62.11-18.611-89.283,3.311-5.45,4.4-9.647,9.247-11.013,15.792-5.2,24.915,6.754,67.181-26.9,75.946-10.242,5.225,13.229-19.143-24.487,2.815-80,66.723,242.935,50.729,224.792,24.492" transform="translate(-445.547 -806.405)" fill="#d9ecf9"/>
        <path id="Trazado_3814" data-name="Trazado 3814" d="M2331.508,1568.9a5.946,5.946,0,0,1,5.753,6.122v75.742a5.946,5.946,0,0,1-5.753,6.122H2222.052a5.946,5.946,0,0,1-5.753-6.122v-75.742a5.947,5.947,0,0,1,5.753-6.122Z" transform="translate(-2082.561 -1474.229)" fill="#579d9d"/>
        <path id="Trazado_3815" data-name="Trazado 3815" d="M4114.024,2921.242h1.374a5.946,5.946,0,0,1-5.753,6.123h-1.374a5.947,5.947,0,0,0,5.753-6.123" transform="translate(-3860.366 -2744.966)" fill="#ccc"/>
        <rect id="Rectángulo_1149" data-name="Rectángulo 1149" width="1.374" height="75.742" transform="translate(253.658 100.534)" fill="#ccc"/>
        <path id="Trazado_3816" data-name="Trazado 3816" d="M4108.271,1564.581h1.374a5.946,5.946,0,0,1,5.753,6.122h-1.374a5.947,5.947,0,0,0-5.753-6.122" transform="translate(-3860.366 -1470.169)" fill="#ccc"/>
        <path id="Trazado_3817" data-name="Trazado 3817" d="M2450.193,1712.039h-102.53a1.027,1.027,0,0,0-.994,1.057v68.077a1.027,1.027,0,0,0,.994,1.058h102.53a1.027,1.027,0,0,0,.994-1.058V1713.1a1.027,1.027,0,0,0-.994-1.057" transform="translate(-2205.065 -1608.73)" fill="#f5f3f3"/>
        <path id="Trazado_3818" data-name="Trazado 3818" d="M4109.212,2269.044a2.216,2.216,0,1,1-2.216-2.216,2.216,2.216,0,0,1,2.216,2.216" transform="translate(-3857.087 -2130.041)" fill="#ccc"/>
        <path id="Trazado_3819" data-name="Trazado 3819" d="M3087.962,2117.328c0-1.333.012-2.666-.008-4a.468.468,0,0,1,.123-.4c.145-.107.375-.063.54-.057.581.02,1.163.021,1.744-.008.406-.021.494.141.476.506-.025.492.008.984-.01,1.476a.55.55,0,0,0,.073.394.468.468,0,0,0,.361.1c1.64-.014,3.281.006,4.92-.015.414-.005.561.105.558.539-.009,1.217.01,1.214-1.21,1.213-1.4,0-2.8.011-4.2-.006-.218,0-.439.029-.489.275a2.293,2.293,0,0,0-.008.488c0,.216.005.432.006.648,0,.851-.01,1.7.013,2.553a1.427,1.427,0,0,0,1.592,1.583,1.49,1.49,0,0,0,1.442-.843,2.821,2.821,0,0,0,.155-1.092c.006-.509.007-1.019,0-1.528a1.1,1.1,0,0,1,.053-.573.42.42,0,0,1,.405-.145c.614.028,1.23,0,1.845.006a.63.63,0,0,1,.278.026c.108.053.1.174.1.277,0,.353.009.706.019,1.059a9.71,9.71,0,0,1-.106,2.131,3.247,3.247,0,0,1-2.651,2.6,5.93,5.93,0,0,1-3.865-.19,3.229,3.229,0,0,1-2.13-3.034c-.047-1.331-.01-2.665-.01-4h-.01" transform="translate(-2901.619 -1985.365)" fill="#ff9436"/>
        <path id="Trazado_3820" data-name="Trazado 3820" d="M3232.122,1959.065a2.943,2.943,0,0,1-3.35.693,2.46,2.46,0,0,1-1.7-2.233c-.124-1.667-.037-3.34-.052-5.01,0-.115,0-.231,0-.346a.483.483,0,0,1,.028-.207c.056-.121.2-.126.312-.116a6.22,6.22,0,0,0,.941-.059,1.006,1.006,0,0,1,.772.169.884.884,0,0,1,.174.717c-.019.307-.081.612-.078.921.01.937,0,1.873,0,2.81,0,.566-.011,1.259.507,1.625a1.453,1.453,0,0,0,.85.223,1.477,1.477,0,0,0,1.6-1.539c.012-1.451.016-2.9,0-4.354,0-.379.057-.563.495-.52a10,10,0,0,0,1.331,0c.247-.008.326.084.325.327-.009,2.75.031,5.5-.029,8.248a3.274,3.274,0,0,1-2.946,3.224,5.187,5.187,0,0,1-2.034-.088,2.947,2.947,0,0,1-2.239-2.945.307.307,0,0,1,.093-.257c.1-.066.252-.033.361-.03.294.008.585-.015.878-.017a.893.893,0,0,1,.52.117.86.86,0,0,1,.3.6c.091.582.853.872,1.606.8a1.527,1.527,0,0,0,1.292-1.217,6.96,6.96,0,0,0,.042-1.54" transform="translate(-3032.277 -1834.003)" fill="#5e3f9e"/>
        <path id="Trazado_3821" data-name="Trazado 3821" d="M3105.453,1920.5c0-1.179.01-2.357-.006-3.536,0-.322.067-.467.422-.443a10.375,10.375,0,0,0,1.049.015c.181-.006.516-.087.633.108a.486.486,0,0,1,.047.255c0,.169-.01.338-.009.508s0,.353,0,.529c0,.159-.018.322-.009.481.013.25.192.3.415.3,1.178-.017,2.358.009,3.535-.013.2,0,.391.031.437.249a2.762,2.762,0,0,1,.005.688.83.83,0,0,1-.085.4.386.386,0,0,1-.276.157,3.95,3.95,0,0,1-.7.028c-.973,0-1.948.01-2.92-.006-.309-.005-.417.082-.41.4.022,1.058-.007,2.118.025,3.176a1.189,1.189,0,0,0,1.92,1.091,1.219,1.219,0,0,0,.381-.725,5.715,5.715,0,0,0,.087-1.221,10.634,10.634,0,0,1-.023-1.163.34.34,0,0,1,.385-.345c.181,0,.361.024.542.026.213,0,.426-.006.638-.018.139-.008.321-.009.4.127a.481.481,0,0,1,.049.246c0,.148-.011.3-.014.446-.011.617.009,1.235-.022,1.851a2.892,2.892,0,0,1-2.847,2.859,3.974,3.974,0,0,1-1.862-.239,2.83,2.83,0,0,1-1.558-1.556,3.547,3.547,0,0,1-.222-1.1c-.03-.551-.019-1.107-.018-1.659,0-.64.007-1.281.007-1.921Z" transform="translate(-2918.054 -1800.87)" fill="#5e3f9e"/>
        <path id="Trazado_3822" data-name="Trazado 3822" d="M2972.774,1950.513a2.539,2.539,0,0,1,2.312-1.1c.174,0,.309.047.325.238.024.284-.006.581-.006.866q0,.223,0,.445a3.541,3.541,0,0,1,0,.4c-.019.188-.148.234-.322.21a2.164,2.164,0,0,0-1.647.393,1.741,1.741,0,0,0-.557,1.332c-.021,1.3-.025,2.6,0,3.895.007.388-.1.524-.487.483-.537-.057-1.237.228-1.574-.117-.249-.255-.161-.708-.125-1.024a12.382,12.382,0,0,0,.037-1.431c0-1.073,0-2.146,0-3.219q0-.9-.008-1.8c0-.348.074-.5.447-.463a6.13,6.13,0,0,0,1.075,0c.188-.017.438-.008.507.207a.841.841,0,0,1,0,.326,3.129,3.129,0,0,0,.018.361" transform="translate(-2791.395 -1831.78)" fill="#5e3f9e"/>
        <path id="Trazado_3823" data-name="Trazado 3823" d="M3059.187,1956.776c0,.829,0,1.658,0,2.487,0,.391.021.786.008,1.177-.008.232-.1.368-.346.367-.216,0-.433-.025-.65-.027-.234,0-.468.006-.7.023a.4.4,0,0,1-.386-.125.923.923,0,0,1-.063-.493q0-.85.007-1.7,0-1.678,0-3.357,0-.962-.008-1.924a.611.611,0,0,1,.068-.348.332.332,0,0,1,.278-.118c.2-.006.4.023.6.025.229,0,.459,0,.687-.021.388-.03.532.076.521.5-.031,1.178-.011,2.357-.011,3.536" transform="translate(-2872.573 -1834.904)" fill="#5e3f9e"/>
        <path id="Trazado_3824" data-name="Trazado 3824" d="M3058.2,1905.978a4.114,4.114,0,0,1-.685-.027.387.387,0,0,1-.3-.178,1.066,1.066,0,0,1-.077-.477c-.007-.26-.009-.521,0-.781a.65.65,0,0,1,.108-.411.566.566,0,0,1,.39-.121c.266-.016.536-.009.8-.005a1.791,1.791,0,0,1,.554.057.364.364,0,0,1,.242.286,3.244,3.244,0,0,1,.034.715c0,.943,0,.943-1.073.941" transform="translate(-2872.658 -1789.082)" fill="#5e3f9e"/>
        <path id="Trazado_3825" data-name="Trazado 3825" d="M2781.186,2111.367c-1.741-.013-3.482.005-5.223-.016-.386,0-.487.107-.483.489.015,1.453.012,2.906.01,4.359s0,2.9,0,4.356v2.151a2.187,2.187,0,0,1,0,.3c-.048.337.056.5.436.475.436-.024.872-.027,1.307-.015a3.108,3.108,0,0,0,.558.008.293.293,0,0,0,.228-.144.784.784,0,0,0,.049-.379q-.005-.324-.006-.649c0-.44,0-.88,0-1.32,0-.5,0-1,0-1.5,0-.309.092-.414.409-.408.612.012,1.224.022,1.837.019a8.509,8.509,0,0,0,1.623-.1,3.546,3.546,0,0,0,2.212-1.483,4.232,4.232,0,0,0,.594-2.834,3.671,3.671,0,0,0-1.035-2.233,3.587,3.587,0,0,0-2.51-1.073m-.462,5.613c-.781.051-1.567.009-2.351.022-.263,0-.311-.134-.31-.352,0-.954.007-1.909-.007-2.863,0-.256.086-.315.328-.3.39.022.783.006,1.175.006v.006c.358,0,.716-.013,1.073,0a1.881,1.881,0,0,1,1.745,1.066,1.74,1.74,0,0,1-.463,1.954,2.026,2.026,0,0,1-1.191.46" transform="translate(-2607.998 -1983.946)" fill="#ff9436"/>
        <path id="Trazado_3826" data-name="Trazado 3826" d="M2934.767,2127.03c1.475.044,2.954.005,4.43.006.419,0,.839,0,1.258.008.3,0,.447-.079.411-.405-.07-.643-.084-1.283-.215-1.918a5.579,5.579,0,0,0-.555-1.576,4.038,4.038,0,0,0-.579-.8,3.732,3.732,0,0,0-2.087-1.126,6.2,6.2,0,0,0-2.376.042,3.9,3.9,0,0,0-1.877.978,4.7,4.7,0,0,0-1.242,2.144,8.15,8.15,0,0,0-.122,3.108,4.933,4.933,0,0,0,.873,2.432,4.115,4.115,0,0,0,2.025,1.428,5.669,5.669,0,0,0,2.383.162,4.273,4.273,0,0,0,2.094-.746,4.38,4.38,0,0,0,1.414-1.96c.132-.338.077-.468-.3-.451-.477.021-.957.017-1.434,0-.415-.011-.806-.038-1,.46-.061.152-.261.266-.419.36a1.951,1.951,0,0,1-1.915.085,2.46,2.46,0,0,1-1.176-1.691.589.589,0,0,1,.006-.421c.083-.128.281-.123.413-.119m-.366-2a1.975,1.975,0,0,1,1.9-1.8,1.925,1.925,0,0,1,1.894,1.73c.031.307-.041.437-.374.423-.511-.022-1.024-.006-1.536-.006v0c-.512,0-1.025-.01-1.537,0-.264.007-.364-.076-.346-.351" transform="translate(-2754.813 -1993.127)" fill="#ff9436"/>
        <path id="Trazado_3827" data-name="Trazado 3827" d="M2555.284,1906.108c-1.5-.007-3.007.014-4.51-.013-.4-.007-.476.127-.472.495.019,1.64.008,3.28.008,4.92,0,.844,0,1.688,0,2.532s-.016,1.679-.009,2.517a.514.514,0,0,0,.075.323.4.4,0,0,0,.344.093,12.085,12.085,0,0,1,1.485,0c.329.021.4-.1.4-.4-.015-1.042,0-2.084-.011-3.126,0-.167.022-.346.207-.393a1.173,1.173,0,0,1,.316-.013c.176,0,.352.007.528.008.623.006,1.254.022,1.876-.018a3.249,3.249,0,0,0,2.193-1.014,3.761,3.761,0,0,0,.061-4.77,3.261,3.261,0,0,0-2.493-1.139m.038,4.98a14.191,14.191,0,0,1-2.5.075c-.223.006-.224-.156-.224-.317,0-.426,0-.853,0-1.279.015,0-.005-.065.009-.065,0-.271,0-.481-.014-.75-.013-.214-.037-.511.123-.643a.861.861,0,0,1,.624-.148c.258.015.514.066.773.065a6.3,6.3,0,0,1,1.162.053,1.516,1.516,0,0,1,.889,2.551,1.611,1.611,0,0,1-.843.458" transform="translate(-2396.409 -1791.075)" fill="#5e3f9e"/>
        <path id="Trazado_3828" data-name="Trazado 3828" d="M2833.469,1952.061a4.5,4.5,0,0,0-.884-2.437,4.107,4.107,0,0,0-2.293-1.326,4.21,4.21,0,0,0-2.377.131,3.913,3.913,0,0,0-1.808,1.366,4.544,4.544,0,0,0-.826,2.693c0,.188-.012.377,0,.563a4.117,4.117,0,0,0,.908,2.332,3.762,3.762,0,0,0,2.038,1.227,4.292,4.292,0,0,0,4.434-1.383,4.661,4.661,0,0,0,.806-3.167m-2.353,1.722a1.6,1.6,0,0,1-1.3,1.111,1.979,1.979,0,0,1-1.78-.473,2.121,2.121,0,0,1-.5-1.11c-.044-.268-.062-.54-.092-.811a2.488,2.488,0,0,1,.782-2.061,2.028,2.028,0,0,1,1.684-.335,1.7,1.7,0,0,1,.848.5,2.629,2.629,0,0,1,.547,1.521,4.057,4.057,0,0,1-.187,1.656" transform="translate(-2654.792 -1830.628)" fill="#5e3f9e"/>
        <path id="Trazado_3829" data-name="Trazado 3829" d="M2698.921,1949.778c.011-.274-.092-.342-.353-.346a2.836,2.836,0,0,0-2.319.966,1.565,1.565,0,0,1,0-.244c.062-.385-.059-.56-.485-.519a8.045,8.045,0,0,1-1.019.008c-.186-.006-.445-.047-.49.191a2.584,2.584,0,0,0-.007.476q0,.266,0,.53,0,.52,0,1.04.005,2.121,0,4.242,0,.592,0,1.183c0,.107-.009.248.08.327a.415.415,0,0,0,.289.059,11.989,11.989,0,0,1,1.279,0,.488.488,0,0,0,.4-.09.636.636,0,0,0,.091-.445q-.013-.843-.01-1.686t.014-1.666a3.39,3.39,0,0,1,.147-1.264,1.5,1.5,0,0,1,.885-.823,2.154,2.154,0,0,1,1.106-.135c.343.056.4-.073.389-.375-.021-.477-.02-.956,0-1.433" transform="translate(-2531.663 -1831.797)" fill="#5e3f9e"/>
        <path id="Trazado_3830" data-name="Trazado 3830" d="M2780.941,1956.79c0-1.194-.014-2.388.008-3.581.007-.383-.072-.565-.5-.521a6.23,6.23,0,0,1-1.176,0c-.385-.034-.482.09-.478.476.011,1.071.013,2.142.012,3.213q0,.8,0,1.6c0,.493.023.991-.017,1.482-.018.217-.044.435-.04.654a.8.8,0,0,0,.146.52c.212.238.606.178.886.148a4.774,4.774,0,0,1,.536-.04,1.231,1.231,0,0,0,.433-.01c.292-.1.2-.58.194-.808-.007-.491-.008-.982-.007-1.473,0-.553,0-1.105,0-1.658" transform="translate(-2611.071 -1834.85)" fill="#5e3f9e"/>
        <path id="Trazado_3831" data-name="Trazado 3831" d="M2780.58,1905.9c.182,0,.365,0,.546-.007a1.08,1.08,0,0,0,.328-.051c.178-.067.211-.24.221-.412a7.446,7.446,0,0,0,0-.939.6.6,0,0,0-.183-.489,1.27,1.27,0,0,0-.662-.1,4.887,4.887,0,0,0-.947.027.356.356,0,0,0-.312.329,5.324,5.324,0,0,0-.021.946c0,.193-.011.486.176.607a.67.67,0,0,0,.3.079c.183.016.368.012.552.012" transform="translate(-2611.812 -1789.005)" fill="#5e3f9e"/>
        <path id="Trazado_3832" data-name="Trazado 3832" d="M3583.333,2015.34a1.868,1.868,0,0,0,.865.736,1.566,1.566,0,0,0,1.734-.281,2.219,2.219,0,0,0,.115-3.152,1.641,1.641,0,0,0-2.422,0,2.082,2.082,0,0,0-.591,1.5,2.5,2.5,0,0,0,.077.675,2.05,2.05,0,0,0,.223.525" transform="translate(-3366.824 -1890.691)" fill="#ff9436"/>
        <path id="Trazado_3833" data-name="Trazado 3833" d="M3648.475,2031.469a2.151,2.151,0,0,0,.855-2.447,1.544,1.544,0,0,0-2.306-.792,2.108,2.108,0,0,0-.789,2.473,1.515,1.515,0,0,0,2.239.766" transform="translate(-3426.097 -1905.607)" fill="#ff9436"/>
        <path id="Trazado_3834" data-name="Trazado 3834" d="M3684.028,2079.889a1.863,1.863,0,0,0-1.826,1.843,1.415,1.415,0,0,0,1.423,1.506,1.89,1.89,0,0,0,1.826-1.848,1.409,1.409,0,0,0-1.424-1.5" transform="translate(-3460.008 -1954.382)" fill="#ff9436"/>
        <path id="Trazado_3835" data-name="Trazado 3835" d="M3536.417,2054.415a1.672,1.672,0,0,0,.481-1.269,1.556,1.556,0,0,0-.336-1.04,1.592,1.592,0,0,0-1.511-.752,1.316,1.316,0,0,0-1.179.965,1.839,1.839,0,0,0,.428,1.938,1.694,1.694,0,0,0,.776.483,1.436,1.436,0,0,0,1.341-.325" transform="translate(-3320.523 -1927.562)" fill="#ff9436"/>
        <path id="Trazado_3836" data-name="Trazado 3836" d="M3565.65,2090.077a2.7,2.7,0,0,0-1.887-1.227h0a2.157,2.157,0,0,0-.592-.076,2.954,2.954,0,0,0-2.327,1.171q-.359.526-.7,1.064-.3.473-.594.952a3.052,3.052,0,0,0-.427.871,1.848,1.848,0,0,0,.4,1.622,1.876,1.876,0,0,0,2.111.537,5.67,5.67,0,0,1,1.54-.359l.024,0,.221.008a1.6,1.6,0,0,1,.49.069c.347.117.69.248,1.042.348a1.874,1.874,0,0,0,1.973-.655,1.85,1.85,0,0,0,.156-2.068c-.46-.761-.924-1.523-1.428-2.255" transform="translate(-3344.307 -1962.732)" fill="#ff9436"/>
        <path id="Trazado_3837" data-name="Trazado 3837" d="M3401.184,2049.5h-2.118l-.736-1.426a.553.553,0,0,0-.587-.263.483.483,0,0,0-.422.406l-.4,2.775-.406-1.1a.559.559,0,0,0-.523-.389h-1.446a.548.548,0,0,0,0,1.095h1.066l1.02,2.769a.559.559,0,0,0,.523.389.544.544,0,0,0,.532-.422l.461-3.221.107.207a.544.544,0,0,0,.477.278h2.45a.524.524,0,0,0,.534-.547.566.566,0,0,0-.132-.37.518.518,0,0,0-.4-.177" transform="translate(-3189.209 -1924.23)" fill="#ff9436"/>
        <path id="Trazado_3838" data-name="Trazado 3838" d="M3756.842,2050.986h-1l-.96-2.607a.527.527,0,0,0-.493-.366.513.513,0,0,0-.5.4l-.434,3.033-.1-.195a.511.511,0,0,0-.449-.262h-2.307a.516.516,0,0,0,0,1.031h1.994l.694,1.343a.506.506,0,0,0,.455.256.6.6,0,0,0,.1-.008.455.455,0,0,0,.4-.382l.374-2.614.383,1.039a.526.526,0,0,0,.493.366h1.362a.516.516,0,0,0,0-1.031" transform="translate(-3523.799 -1924.43)" fill="#ff9436"/>
        <path id="Trazado_3839" data-name="Trazado 3839" d="M3441.043,2055.233a.578.578,0,0,1-.015.136c0-.086,0-.174,0-.259a.648.648,0,0,1,.012.123" transform="translate(-3233.387 -1931.099)" fill="#5e3f9e"/>
        <path id="Trazado_3840" data-name="Trazado 3840" d="M3450.853,2161.976a.616.616,0,0,1-.141-.2c.047.068.092.133.141.2" transform="translate(-3242.486 -2031.33)" fill="#5e3f9e"/>
        <path id="Trazado_3841" data-name="Trazado 3841" d="M3446.344,1911.755v0c-.623-4.081-3.4-7.169-6.711-7.169-2.7,0-4.562.932-5.664,2.843-1.1-1.911-2.966-2.843-5.666-2.843-3.721,0-6.759,3.887-6.839,8.708v.01a.251.251,0,0,0,0,.049.159.159,0,0,0,0,.029.588.588,0,0,0,1.16.1c0-.083,0-.167,0-.248h0c.1-4.151,2.609-7.487,5.677-7.487,2.538,0,4.113.906,4.955,2.853a.768.768,0,0,0,1.421,0c.844-1.947,2.418-2.853,4.955-2.853,2.749,0,5.047,2.676,5.568,6.217v.007a.592.592,0,0,0,.02.131s0,0,0,0a.6.6,0,0,0,.355.4.589.589,0,0,0,.762-.335.535.535,0,0,0,.039-.176v-.006a.589.589,0,0,0-.033-.228" transform="translate(-3215 -1789.655)" fill="#ff9436"/>
        <path id="Trazado_3842" data-name="Trazado 3842" d="M3470.593,2151.462a.592.592,0,0,0-.668.173l0,.006c-.017.031-.038.061-.059.092a6.372,6.372,0,0,1-1.458,1.559l-8.255,6.633a.2.2,0,0,1-.265,0l-8.544-6.865v0a6.483,6.483,0,0,1-1.045-1.148c-.031-.041-.061-.083-.089-.126a.589.589,0,0,0-.973.635c.045.065.089.127.135.19a7.632,7.632,0,0,0,1.219,1.336l8.57,6.888a1.369,1.369,0,0,0,1.721,0l8.231-6.616a7.519,7.519,0,0,0,1.668-1.77s0,0,0,0c.052-.076.1-.154.154-.232a.59.59,0,0,0-.339-.75" transform="translate(-3241.048 -2021.599)" fill="#5e3f9e"/>
      </g>
    </g>
    <g id="Grupo_2177" data-name="Grupo 2177" transform="translate(159.106 103.741)">
      <g id="Grupo_2176" data-name="Grupo 2176" clip-path="url(#clip-path-3)">
        <path id="Trazado_3843" data-name="Trazado 3843" d="M3129.594,2430.5h-12.472l3.253-9.941h6.507Z" transform="translate(-3088.133 -2378.235)" fill="#d6a68e"/>
        <path id="Trazado_3844" data-name="Trazado 3844" d="M3029.163,2563.343c.437,0,23.155.437,23.155.437l-3.382-39.917-2.9-1.461a6.278,6.278,0,0,1-5.517,3.369,5.407,5.407,0,0,1-5.147-3.007Z" transform="translate(-3005.481 -2473.934)" fill="#84a2ba"/>
        <path id="Trazado_3845" data-name="Trazado 3845" d="M2969.993,2572.8l-9.611.437,2.621-31.309s-.8-11.867,1.824-13.178,6.173-2.636,6.173-2.636Z" transform="translate(-2940.85 -2477.419)" fill="#fffffd"/>
        <path id="Trazado_3846" data-name="Trazado 3846" d="M3051.91,2532.291c.229-.118.707-.368,1.179-.643,1.23-.718,1.4-1,1.4-1.194a10.9,10.9,0,0,0-1.337-2.5,20.519,20.519,0,0,1-1.283-2.3,70.191,70.191,0,0,1,4.751-5.236l.13-.709c-.425.447-1.627,1.649-2.6,2.71-2.644,2.88-2.644,3.1-2.644,3.224a10.894,10.894,0,0,0,1.336,2.5,19.882,19.882,0,0,1,1.285,2.3,9.544,9.544,0,0,1-2.521,1.592.181.181,0,0,0-.09.22l4.587,13.325a.181.181,0,0,0,.171.122.171.171,0,0,0,.059-.01.181.181,0,0,0,.112-.23Z" transform="translate(-3026.476 -2471.408)" fill="#cbcfda"/>
        <path id="Trazado_3847" data-name="Trazado 3847" d="M3155.337,2358.609h-1.686c-1.331,0-3.875-.145-3.875-1.476l1.283-8.466h6.507l1.156,8.689c0,1.331-2.055,1.252-3.386,1.252" transform="translate(-3118.816 -2310.683)" fill="#d6a68e"/>
        <path id="Trazado_3848" data-name="Trazado 3848" d="M2960.308,2085.688c0,2.2,1.122,3.975,2.506,3.975s2.506-1.78,2.506-3.975-1.122-3.975-2.506-3.975-2.506,1.78-2.506,3.975" transform="translate(-2940.781 -2059.837)" fill="#f4bd9e"/>
        <path id="Trazado_3849" data-name="Trazado 3849" d="M3401.375,2085.688c0,2.2,1.122,3.975,2.506,3.975s2.506-1.78,2.506-3.975-1.122-3.975-2.506-3.975-2.506,1.78-2.506,3.975" transform="translate(-3355.232 -2059.837)" fill="#f4bd9e"/>
        <path id="Trazado_3850" data-name="Trazado 3850" d="M3016.722,1900.165h0c-6.272,0-9.851-4.667-11.25-11.011l-1.992-11.781a12.17,12.17,0,0,1,12.115-13.329h2.255a12.169,12.169,0,0,1,12.114,13.329l-2.164,11.781c-1.053,6.172-4.805,11.011-11.077,11.011" transform="translate(-2981.294 -1855.303)" fill="#f4bd9e"/>
        <path id="Trazado_3851" data-name="Trazado 3851" d="M3137.785,2306.543l2.307.4a16.172,16.172,0,0,0,5.425.011l2.428-.408a.209.209,0,0,1,.2.275c-.279.818-1.42,3.182-5.279,3.182s-5-2.364-5.278-3.182a.209.209,0,0,1,.2-.275" transform="translate(-3107.351 -2271.1)" fill="#fff"/>
        <path id="Trazado_3852" data-name="Trazado 3852" d="M3062.941,2055.117a8.992,8.992,0,0,0-4.976-.331,8.584,8.584,0,0,0-1.355.414.267.267,0,0,0-.181.319.26.26,0,0,0,.319.181,8.429,8.429,0,0,1,6.055-.083.261.261,0,0,0,.319-.181.265.265,0,0,0-.181-.319" transform="translate(-3031.093 -2034.342)" fill="#36200b"/>
        <path id="Trazado_3853" data-name="Trazado 3853" d="M3280.612,2055.117a8.994,8.994,0,0,0-4.977-.331,8.579,8.579,0,0,0-1.354.414.267.267,0,0,0-.181.319.261.261,0,0,0,.319.181,8.429,8.429,0,0,1,6.055-.083.261.261,0,0,0,.319-.181.265.265,0,0,0-.181-.319" transform="translate(-3235.628 -2034.342)" fill="#36200b"/>
        <path id="Trazado_3854" data-name="Trazado 3854" d="M3118.647,2097.849c0,1-.5,1.815-1.124,1.815s-1.124-.813-1.124-1.815.5-1.815,1.124-1.815,1.124.813,1.124,1.815" transform="translate(-3087.453 -2073.294)" fill="#4a2e23"/>
        <path id="Trazado_3855" data-name="Trazado 3855" d="M3301.947,2097.849c0,1-.5,1.815-1.123,1.815s-1.123-.813-1.123-1.815.5-1.815,1.123-1.815,1.123.813,1.123,1.815" transform="translate(-3259.693 -2073.294)" fill="#4a2e23"/>
        <path id="Trazado_3856" data-name="Trazado 3856" d="M3025.578,1820.8c-.662-1.336-3.194-2.563-4.8-2.52-.4.011-1.582-.05-1.716.326-.286.8.98.854,1.695,1.086.052.017-.008.2.043.217,0,0,.562.432.565.434.129.063.4-.1.521-.022.056.037.141-.407.2-.37-.036-.024.023.146,0,.13.015.011.1.6.108.608.108.1.274-.564.369-.456,0,0,.234.081.239.087.029.041.276.087.283.109.092.287,2.663,18.6.407-.462.022.065-.209-.13-.189-.064h0a.065.065,0,0,1-.092.076,16.921,16.921,0,0,0-2.665-1.021c-2.9-.853-5.142-2.242-8.134-1.79-9.615,1.452-10.871,6.14-10.871,12.251,0,3.241-.335,6.039.156,7.419.225.631.583,2.138.732,2.791.1.433.306.885.74.885.831,0-.173-9.174,1.489-11.667s7.479-3.324,4.986-1.662-2.493,3.324,0,1.662,8.31-3.324,7.479-2.493-2.493,1.662-.831,1.662a22.4,22.4,0,0,0,5.717-1.617.34.34,0,0,1,.379.081c1.23,1.307,3.045,4.071,3.045,9.014,0,7.479,1.662,4.986,1.662,3.324s1.719-5.591.888-9.746a57.954,57.954,0,0,0-1.494-6.055" transform="translate(-2979.416 -1811.178)" fill="#36200b"/>
        <path id="Trazado_3857" data-name="Trazado 3857" d="M3351.039,1846.115c-.065-.049-.138-.1,0,0" transform="translate(-3307.86 -1838.403)" fill="#36200b"/>
        <path id="Trazado_3858" data-name="Trazado 3858" d="M3225.081,2146.187s-.192,3.968-.328,6.781c6.364.877.454-6.622.331-6.78Z" transform="translate(-3189.269 -2120.421)" fill="#f4bd9e"/>
        <path id="Trazado_3859" data-name="Trazado 3859" d="M3224.754,2153.006c6.364.877.454-6.623.331-6.779.093.151,4.127,6.768-.331,6.779" transform="translate(-3189.269 -2120.458)" fill="#b06d4d"/>
        <path id="Trazado_3860" data-name="Trazado 3860" d="M3308.78,2566.9l9.611.437-2.621-31.309s.874-11.8-1.748-13.107-6.116-2.621-6.116-2.621Z" transform="translate(-3267.404 -2471.962)" fill="#fffffd"/>
        <path id="Trazado_3861" data-name="Trazado 3861" d="M3309.819,2528.769a9.6,9.6,0,0,1-2.52-1.591,19.9,19.9,0,0,1,1.283-2.3,10.879,10.879,0,0,0,1.336-2.5c0-.127,0-.34-2.4-3.133-.864-1-1.908-2.1-2.308-2.546l.174.655a55.874,55.874,0,0,1,4.175,5.032,20.174,20.174,0,0,1-1.283,2.3,10.887,10.887,0,0,0-1.336,2.5c0,.2.169.476,1.4,1.194.475.277.955.528,1.184.646l-3.788,12.01v1.2l4.179-13.249a.181.181,0,0,0-.092-.216" transform="translate(-3264.866 -2468.574)" fill="#cbcfda"/>
        <path id="Trazado_3862" data-name="Trazado 3862" d="M3423.139,3061.139l-3.012,3.189.874,5.243,5.2-4.937Z" transform="translate(-3372.854 -2980.162)" fill="#fdd8c0"/>
        <path id="Trazado_3863" data-name="Trazado 3863" d="M3403.451,2561.573s5.289,2.752,14.463,13.675,5.243,10.048-6.99,22.281l-3.978-5.811,6.6-7.733s-7.427-5.679-9.175-10.048-.638-4.948-.92-12.364" transform="translate(-3357.097 -2510.741)" fill="#fffffd"/>
        <path id="Trazado_3864" data-name="Trazado 3864" d="M3568.344,2885.924l2.454-2.688a.181.181,0,1,0-.267-.243l-2.521,2.766c.161.127.251.2.251.2l.023.016c.035-.008.033-.017.059-.046" transform="translate(-3511.812 -2812.71)" fill="#cbcfda"/>
        <path id="Trazado_3865" data-name="Trazado 3865" d="M3103.655,2736.581l.188-.384a.418.418,0,0,0-.147-.569l-1.24-.606a.418.418,0,0,0-.54.234l-.187.384a.418.418,0,0,1-.539.234l-1.153-.563a.418.418,0,0,0-.539.234l-.217.444a.418.418,0,0,0,.147.569l4.917,2.4a.418.418,0,0,0,.539-.234l.217-.444a.418.418,0,0,0-.147-.569l-1.152-.564a.418.418,0,0,1-.147-.569" transform="translate(-3071.318 -2673.692)" fill="#f7e07c"/>
        <path id="Trazado_3866" data-name="Trazado 3866" d="M3172.636,2768.519l1.153.564a.338.338,0,0,1,.155.158.371.371,0,0,0-.2-.322l-1.153-.563a.343.343,0,0,1-.156-.158.37.37,0,0,0,.2.321" transform="translate(-3140.11 -2704.898)" fill="#f7a952"/>
        <path id="Trazado_3867" data-name="Trazado 3867" d="M3099.326,2736.151l.217-.444a.418.418,0,0,1,.539-.234l1.153.563a.418.418,0,0,0,.539-.234l.188-.384a.418.418,0,0,1,.539-.234l1.24.606a.343.343,0,0,1,.155.158.37.37,0,0,0-.2-.322l-1.24-.606a.418.418,0,0,0-.539.234l-.187.384a.419.419,0,0,1-.54.234l-1.153-.564a.418.418,0,0,0-.539.234l-.217.444a.469.469,0,0,0-.009.411.5.5,0,0,1,.051-.248" transform="translate(-3071.322 -2673.692)" fill="#f7a952"/>
        <path id="Trazado_3868" data-name="Trazado 3868" d="M2884.258,2737.383l-12.833-6.275a.479.479,0,0,1-.22-.641l9.65-19.737a.479.479,0,0,1,.641-.22l12.833,6.275a.479.479,0,0,1,.22.641l-9.65,19.737a.479.479,0,0,1-.641.22" transform="translate(-2857.008 -2650.645)" fill="#d1d2d4"/>
        <path id="Trazado_3869" data-name="Trazado 3869" d="M3049.765,2716.251l-12.936-6.325a.428.428,0,0,0-.424.04.4.4,0,0,1,.269.027l12.936,6.325a.485.485,0,0,1,.171.661l-9.643,19.723a.58.58,0,0,1-.2.231.548.548,0,0,0,.358-.3l9.643-19.723a.485.485,0,0,0-.171-.661" transform="translate(-3012.286 -2650.106)" fill="#6f6f6f"/>
        <path id="Trazado_3870" data-name="Trazado 3870" d="M3041.456,2930.185s2.621.874,3.058.437,1.747-2.185,3.495-2.621.874.874.437,1.311-.437.873,0,.873,3.932-.437,3.058,2.622-1.311,5.242-4.369,3.932-3.424-2.3-6.518-2.245Z" transform="translate(-3016.244 -2854.975)" fill="#fdd8c0"/>
        <path id="Trazado_3871" data-name="Trazado 3871" d="M2740.851,2568.814s-5.186,2.714-14.361,13.636-5.253,13.145,18.339,16.2l.437-6.99-11.8-3.058a28.971,28.971,0,0,0,5.2-8c1.748-4.369,1.9-4.38,2.184-11.8" transform="translate(-2716.778 -2517.545)" fill="#fffffd"/>
        <path id="Trazado_3872" data-name="Trazado 3872" d="M3414.612,3104.166l1.027,4.942.295,1.418a.136.136,0,0,0,.167.094.139.139,0,0,0,.095-.167c-.009-.066-.018-.133-.027-.2a.136.136,0,0,0-.167-.094.139.139,0,0,0-.095.167l.027.2.261-.072-1.027-4.942-.294-1.418c-.036-.17-.3-.1-.261.072" transform="translate(-3367.667 -3020.433)" fill="#cbcfda"/>
        <path id="Trazado_3873" data-name="Trazado 3873" d="M2839.073,2870.162l.273-.3c-3.243-.822-4.781-1.395-4.8-1.4a.181.181,0,1,0-.127.338,35.591,35.591,0,0,0,4.608,1.358.133.133,0,0,0,.035,0Z" transform="translate(-2822.381 -2799.102)" fill="#cbcfda"/>
      </g>
    </g>
    <g id="Grupo_2182" data-name="Grupo 2182" transform="translate(0 0)">
      <g id="Grupo_2181" data-name="Grupo 2181" clip-path="url(#clip-path)">
        <path id="Trazado_3874" data-name="Trazado 3874" d="M2906.97,2139.739c-.891,2.793-.895,7.647,2.768,15.838l-.9-.052a44.186,44.186,0,0,1-2.3-6.466c-1-3.845-1.089-7.1-.264-9.675a7.523,7.523,0,0,1,5.184-5.293l.1.951h0a6.817,6.817,0,0,0-4.589,4.7" transform="translate(-2730.375 -2005.314)" fill="#8c939b"/>
        <path id="Trazado_3875" data-name="Trazado 3875" d="M3442.825,2136.953a53.022,53.022,0,0,1-2.414,6.507h-.827c3.8-8.406,4.16-13.658,3.588-16.8-.815-4.482-3.681-5.672-3.71-5.684l.166-1.032c.133.054,3.273,1.358,4.194,6.42a23.532,23.532,0,0,1-1,10.585" transform="translate(-3231.915 -1992.024)" fill="#8c939b"/>
        <path id="Trazado_3876" data-name="Trazado 3876" d="M3100.507,2652.435a8.829,8.829,0,0,1-3.176,7.342,6.9,6.9,0,0,1-3.291,1.33l-.032,0c-.141.015-.561.051-.754.05h-.412l-.172-.01c-.1-.008-.24-.019-.377-.036-.054-.007-.12-.016-.2-.03a7.753,7.753,0,0,1-3.1-1.267,8.857,8.857,0,0,1-3.291-7.375.957.957,0,0,1,.026-.221.623.623,0,0,1,.549-.531h0a.678.678,0,0,1,.581.744,10.416,10.416,0,0,0,.058,1.046,6.957,6.957,0,0,0,2.651,5.041,6.011,6.011,0,0,0,2.719,1.1,6.17,6.17,0,0,0,1.747-.006,5.968,5.968,0,0,0,2.706-1.128,6.8,6.8,0,0,0,2.574-5.2q.031-.407.029-.851a.682.682,0,0,1,.574-.75h0a.584.584,0,0,1,.517.411.927.927,0,0,1,.062.332" transform="translate(-2899.508 -2491.679)" fill="#414042"/>
        <path id="Trazado_3877" data-name="Trazado 3877" d="M3100.507,2652.435a8.829,8.829,0,0,1-3.176,7.342,6.9,6.9,0,0,1-3.291,1.33l-.032,0c-.141.015-.561.051-.754.05h-.412l-.172-.01c-.1-.008-.24-.019-.377-.036-.054-.007-.12-.016-.2-.03a7.753,7.753,0,0,1-3.1-1.267,8.857,8.857,0,0,1-3.291-7.375.957.957,0,0,1,.026-.221.623.623,0,0,1,.549-.531h0a.678.678,0,0,1,.581.744,10.416,10.416,0,0,0,.058,1.046,6.957,6.957,0,0,0,2.651,5.041,6.011,6.011,0,0,0,2.719,1.1,6.17,6.17,0,0,0,1.747-.006,5.968,5.968,0,0,0,2.706-1.128,6.8,6.8,0,0,0,2.574-5.2q.031-.407.029-.851a.682.682,0,0,1,.574-.75h0a.584.584,0,0,1,.517.411A.927.927,0,0,1,3100.507,2652.435Z" transform="translate(-2899.508 -2491.679)" fill="none" stroke="#2e3192" stroke-width="1"/>
        <path id="Trazado_3878" data-name="Trazado 3878" d="M2971.539,2467.29l-1.877-.512c-2.324,3.219-10.185,11.308-10.185,11.308a5.7,5.7,0,0,1-4.2,2.24,6.613,6.613,0,0,1-4.294-2.218s-7.926-8.8-10.122-12.229l-1.823.55a83.117,83.117,0,0,0,10.542,12.948c.045.049.1.107.166.173l.189.2.006,0a8.192,8.192,0,0,0,5.292,2.382,7.558,7.558,0,0,0,5.76-2.9s7.974-8.305,10.543-11.937" transform="translate(-2761.691 -2317.082)" fill="#414042"/>
        <path id="Trazado_3879" data-name="Trazado 3879" d="M2971.539,2467.29l-1.877-.512c-2.324,3.219-10.185,11.308-10.185,11.308a5.7,5.7,0,0,1-4.2,2.24,6.613,6.613,0,0,1-4.294-2.218s-7.926-8.8-10.122-12.229l-1.823.55a83.117,83.117,0,0,0,10.542,12.948c.045.049.1.107.166.173l.189.2.006,0a8.192,8.192,0,0,0,5.292,2.382,7.558,7.558,0,0,0,5.76-2.9S2968.971,2470.922,2971.539,2467.29Z" transform="translate(-2761.691 -2317.082)" fill="none" stroke="#2e3192" stroke-width="1"/>
        <path id="Trazado_3880" data-name="Trazado 3880" d="M1994,1748.938c-.019.028-.039.056-.061.083q-1.182,1.457-2.421,2.867a58.148,58.148,0,0,1-7.42,7.166,34.576,34.576,0,0,1-4.6,3.132c-1.162.648-2.38,1.205-3.6,1.735-4.766,2.073-9.922,3.549-15.166,3.268a22.832,22.832,0,0,1-8.325-2.051,26.6,26.6,0,0,1-8.068-5.933,24.643,24.643,0,0,1-4.166-5.5,33.69,33.69,0,0,1-1.781-4.25,112.617,112.617,0,0,1-3.222-11.535c-1.119-4.721-2.119-9.469-3.131-14.213-1.056-4.943-2.115-9.886-3.3-14.8-1.08-4.485-2.249-8.96-3.735-13.329-.324-.953-.664-1.9-1.028-2.841q-.257-.665-.531-1.326c-.074-.179-.1-.25-.226-.53q-.131-.3-.267-.6a28.333,28.333,0,0,0-2.307-4.247c-.106-.156-.214-.312-.326-.465-.047-.065-.095-.13-.143-.194l-.1-.135,0,0-.007-.009,0,0c-.189-.238-.383-.471-.587-.7s-.41-.434-.629-.638c-.109-.1-.221-.2-.336-.3l-.159-.129.034.025.031.022c-.013-.012-.133-.1-.075-.056l.01.009-.06-.045a7.333,7.333,0,0,0-.662-.43c-.116-.065-.234-.127-.354-.183-.034-.017-.07-.032-.1-.048h0a.544.544,0,0,0-.061-.026h0l-.045-.016a5.521,5.521,0,0,0-.7-.206c-.068-.014-.135-.025-.2-.038l-.014,0h.011c.088,0-.2-.037-.011,0-.123-.005-.244-.023-.367-.028-.97-.036-.971-1.545,0-1.508a5.346,5.346,0,0,1,1.583.293c2.51.89,4.209,3.271,5.475,5.492a53.968,53.968,0,0,1,4.316,10.609c1.407,4.483,2.547,9.048,3.61,13.622,1.148,4.935,2.193,9.893,3.252,14.847.988,4.622,1.977,9.246,3.111,13.834a86.436,86.436,0,0,0,3.262,10.9q.107.274.219.545l.068.165v0l0,0v0s0,.008.006.014a.008.008,0,0,1,0,0,.091.091,0,0,1,.005.013l.015.036-.011-.028.056.131q.209.484.436.961a17.5,17.5,0,0,0,.885,1.635,23.49,23.49,0,0,0,2.24,2.919,30.9,30.9,0,0,0,3.93,3.835,21.524,21.524,0,0,0,15.913,4.844A37.569,37.569,0,0,0,1987,1754.466a73.936,73.936,0,0,0,5.084-5.555c.078.013.144.023.2.03.137.017.275.028.377.036l.172.01h.191l.221,0c.194,0,.614-.035.755-.05" transform="translate(-1799.498 -1579.507)" fill="#414042"/>
        <path id="Trazado_3881" data-name="Trazado 3881" d="M1986.623,1741.658c-.666.913-1.451,1.763-2.2,2.614q-1.05,1.2-2.147,2.354a54.93,54.93,0,0,1-4.748,4.458,34.922,34.922,0,0,1-5.39,3.739,44.879,44.879,0,0,1-5.989,2.677,30.825,30.825,0,0,1-12.724,2.168,22.741,22.741,0,0,1-11.737-4.289,30.428,30.428,0,0,1-4.544-4.1,22.466,22.466,0,0,1-3.721-5.142,42.461,42.461,0,0,1-2.423-6.375c-.676-2.173-1.256-4.374-1.8-6.583-2.229-9.048-3.973-18.207-6.044-27.291-1.02-4.474-2.093-8.941-3.4-13.342a59.044,59.044,0,0,0-4.7-12.14,20.438,20.438,0,0,0-1.585-2.444l-.711.548,0,0c.421.423,1-.2.64-.64l-.058-.073c-.063-.079-.127-.158-.192-.236-.161-.193-.327-.382-.5-.565a9.985,9.985,0,0,0-.972-.9l-.548.711c.021.016.043.032.065.047.417.289.953-.391.548-.711-.058-.046-.117-.091-.176-.135-.422-.316-.894.353-.548.711a.11.11,0,0,0,.019.018l.548-.711a6.569,6.569,0,0,0-1.18-.706l-.349.827h0c.476.122.836-.618.349-.827-.1-.041-.195-.053-.289-.088.257.094-.057-.046-.135-.072a7.178,7.178,0,0,0-.707-.176l-.12.889a.106.106,0,0,0,.028,0c.482-.038.645-.761.12-.889a1.642,1.642,0,0,0-.209-.031c-.415-.046-.563.512-.32.772a.477.477,0,0,0,.261.132q.06-.445.12-.889c-.247-.017-.583.027-.639-.286-.072-.4.322-.35.594-.325a5.87,5.87,0,0,1,3.062,1.355,16.224,16.224,0,0,1,3.891,5.3,73.5,73.5,0,0,1,5.253,14.862c2.875,10.675,4.852,21.566,7.318,32.337.687,3,1.4,6,2.224,8.96.4,1.432.826,2.855,1.308,4.261q.374,1.092.795,2.167c.094.238.19.475.288.712.149.36-.1-.245.049.115-.085-.2,0,0,.029.068.2.467,1.02.128.827-.349l-.011-.028-.827.349a20.33,20.33,0,0,0,3.169,5.13,32.8,32.8,0,0,0,4.448,4.442,22.3,22.3,0,0,0,10.883,4.844,28.111,28.111,0,0,0,12.419-1.347,38.272,38.272,0,0,0,11.013-5.439,59.015,59.015,0,0,0,10.16-9.924l-.44.117a7.825,7.825,0,0,0,2.034.043c.574-.058.58-.964,0-.905a9.3,9.3,0,0,1-.976.048c-.309,0-.636-.092-.938-.075-.41.023-.762.661-1.006.947q-.558.654-1.128,1.3a65.71,65.71,0,0,1-4.6,4.708,39.287,39.287,0,0,1-4.944,3.927,36.254,36.254,0,0,1-5.625,2.961,32.891,32.891,0,0,1-12.429,2.961,21.218,21.218,0,0,1-12.083-3.556,27.609,27.609,0,0,1-5.32-4.726,25.275,25.275,0,0,1-2.308-2.913,19.63,19.63,0,0,1-1.549-3c-.2-.466-1.02-.128-.827.349l.011.028.827-.349c.054.127,0-.006-.022-.054.089.215-.062-.152.036.085q-.178-.43-.347-.864-.388-1-.735-2.014c-.464-1.354-.879-2.724-1.264-4.1-.781-2.8-1.461-5.624-2.115-8.454-1.327-5.742-2.506-11.517-3.755-17.276-1.242-5.727-2.519-11.456-4.094-17.1-1.465-5.253-3.075-10.66-5.895-15.369a11.934,11.934,0,0,0-4.6-4.8,6.093,6.093,0,0,0-1.766-.583,2.028,2.028,0,0,0-1.436.109,1.261,1.261,0,0,0-.145,1.893,1.712,1.712,0,0,0,1.184.364.455.455,0,0,0,.12-.889l.139.1-.32.773c-.061-.01-.072-.01-.032,0l.12-.889a.1.1,0,0,1-.028,0,.455.455,0,0,0-.12.889c.215.047.428.088.638.154.108.034.213.074.321.109.482.157-.269-.115-.044-.018l.349-.827h0c-.477-.122-.83.6-.349.827a6.584,6.584,0,0,1,1.18.706c.408.305.945-.384.548-.711a.117.117,0,0,1-.019-.018l-.548.711-.007-.006.549-.711c-.022-.015-.044-.03-.065-.047-.407-.305-.947.387-.548.711a11.476,11.476,0,0,1,1.721,1.771l.64-.64,0,0c-.35-.351-1.031.13-.711.548,2.627,3.437,4.1,7.743,5.41,11.817,1.416,4.406,2.546,8.9,3.606,13.4,2.177,9.252,3.947,18.595,6.151,27.841a86.5,86.5,0,0,0,3.988,13.358,21.933,21.933,0,0,0,3.34,5.577,34.092,34.092,0,0,0,4.319,4.4,24.211,24.211,0,0,0,11.311,5.44,28.1,28.1,0,0,0,12.949-1,40.308,40.308,0,0,0,11.921-5.612,56.414,56.414,0,0,0,9.647-9.038c.7-.811,1.436-1.621,2.069-2.489.344-.472-.441-.924-.782-.457" transform="translate(-1792.513 -1572.454)" fill="#414042"/>
        <path id="Trazado_3882" data-name="Trazado 3882" d="M1932.2,1706.17h-.011c-.187-.037.1,0,.011,0" transform="translate(-1815.533 -1603.2)" fill="#414042"/>
        <path id="Trazado_3883" data-name="Trazado 3883" d="M1932.2,1706.17h-.011C1932,1706.133,1932.287,1706.174,1932.2,1706.17Z" transform="translate(-1815.533 -1603.2)" fill="none" stroke="#2e3192" stroke-width="1"/>
        <path id="Trazado_3884" data-name="Trazado 3884" d="M1949.138,1710.79h0Z" transform="translate(-1831.522 -1607.556)" fill="#414042"/>
        <path id="Trazado_3885" data-name="Trazado 3885" d="M1949.138,1710.79h0Z" transform="translate(-1831.522 -1607.556)" fill="none" stroke="#2e3192" stroke-width="1"/>
        <path id="Trazado_3886" data-name="Trazado 3886" d="M1969.32,1722.613l-.031-.022-.034-.025-.01-.008c-.058-.047.063.044.075.055" transform="translate(-1850.401 -1618.601)" fill="#414042"/>
        <path id="Trazado_3887" data-name="Trazado 3887" d="M1969.32,1722.613l-.031-.022-.034-.025-.01-.008C1969.187,1722.51,1969.308,1722.6,1969.32,1722.613Z" transform="translate(-1850.401 -1618.601)" fill="none" stroke="#2e3192" stroke-width="1"/>
        <path id="Trazado_3888" data-name="Trazado 3888" d="M1998.059,1752.11l.027.034c-.007-.01-.015-.019-.023-.028a.013.013,0,0,0,0-.006" transform="translate(-1877.49 -1646.382)" fill="#414042"/>
        <path id="Trazado_3889" data-name="Trazado 3889" d="M1998.059,1752.11l.027.034c-.007-.01-.015-.019-.023-.028A.013.013,0,0,0,1998.059,1752.11Z" transform="translate(-1877.49 -1646.382)" fill="none" stroke="#2e3192" stroke-width="1"/>
        <path id="Trazado_3890" data-name="Trazado 3890" d="M2339.907,2846.591l.012.028c-.006-.014-.011-.026-.015-.036l-.005-.013a.038.038,0,0,1,0,.008.093.093,0,0,1,.005.013" transform="translate(-2198.702 -2674.8)" fill="#414042"/>
        <path id="Trazado_3891" data-name="Trazado 3891" d="M2339.907,2846.591l.012.028c-.006-.014-.011-.026-.015-.036l-.005-.013a.038.038,0,0,1,0,.008A.093.093,0,0,1,2339.907,2846.591Z" transform="translate(-2198.702 -2674.8)" fill="none" stroke="#2e3192" stroke-width="1"/>
        <path id="Trazado_3892" data-name="Trazado 3892" d="M3193.462,2789.084c-.141.015-.561.051-.755.05l-.221,0h-.191l-.172-.01c-.1-.007-.24-.019-.377-.036-.054-.007-.12-.016-.2-.03q.4-.476.786-.957a.75.75,0,0,1,1.127.984" transform="translate(-2998.961 -2619.652)" fill="#414042"/>
        <path id="Trazado_3893" data-name="Trazado 3893" d="M3193.462,2789.084c-.141.015-.561.051-.755.05l-.221,0h-.191l-.172-.01c-.1-.007-.24-.019-.377-.036-.054-.007-.12-.016-.2-.03q.4-.476.786-.957a.75.75,0,0,1,1.127.984Z" transform="translate(-2998.961 -2619.652)" fill="none" stroke="#2e3192" stroke-width="1"/>
        <path id="Trazado_3894" data-name="Trazado 3894" d="M32.382,1915.44s-49.035-5.461-8.325-51.257c-1.957-2.35-59.2,49.91,10.131,57.636,0-2.282-1.806-6.379-1.806-6.379" transform="translate(0 -1751.62)" fill="#814d24"/>
        <path id="Trazado_3895" data-name="Trazado 3895" d="M1858.95,966.446c-2,.455-4.025,7.165-4.025,7.165s-11.065,20.032,18.43,29.928c.039-6.733-11.618-29.92-11.618-29.92s2.319-2.71,2.079-3.757c-.334-1.448-3.416-3.746-4.866-3.417" transform="translate(-1741.083 -908.098)" fill="#814d24"/>
        <path id="Trazado_3896" data-name="Trazado 3896" d="M1266.707,85.947c-7.457,3.274-77.74,20.7-77.74,20.7s-17.34-20.7-9.292-32.316c0-6.26-2.38-9.245.607-16.4,5.222-12.509,33.269-33.24,51.251-17.578,1.866,1.625,19.886-.7,26.629-1.486,1.609-.176,11.8-5.06,9.977,13.539-.072.626,1.555,18.347-35.71,29.076,5.669,2.074,35.95-6.564,35.95-6.564s5.787,7.744-1.67,11.034" transform="translate(-1106.488 -32.631)" fill="#faa37b"/>
        <path id="Trazado_3897" data-name="Trazado 3897" d="M1630.489,225.087c0,3.7-4.369,5.1-7.179,6.191-1.709.664-2.953,2.692-5.024,2.692-6.741,0-12.2-3.978-12.2-8.884,0-3.953,3.381-6.672,6.782-7.943a13.085,13.085,0,0,1,10.764.96c2.4,1.232,6.861,3.89,6.862,6.983" transform="translate(-1509.167 -203.331)" fill="#9a7150"/>
        <path id="Trazado_3898" data-name="Trazado 3898" d="M2541.415,51.164c-4.881,18.639-16.388-1.965-13.855-5.637.759-1.1,17.756-9.253,13.855,5.637" transform="translate(-2374.702 -39.761)" fill="#814d24"/>
        <path id="Trazado_3899" data-name="Trazado 3899" d="M1839.01,320.721s-1.148-6.259,5.462-3.465c-2.331.559-4.567.559-5.462,3.465" transform="translate(-1727.968 -297.437)" fill="#613a1b"/>
        <path id="Trazado_3900" data-name="Trazado 3900" d="M2018.977,148.947s-1.149-6.259,5.461-3.464c-2.331.558-4.567.558-5.461,3.464" transform="translate(-1897.074 -136.028)" fill="#814d24"/>
        <path id="Trazado_3901" data-name="Trazado 3901" d="M573.556,1125.8s-74.656,77.268-33.919,109.367h79.832a9.219,9.219,0,0,0-8.264-7.828c0-10.179-4.137-79.811-13.57-107.624-15.7,0-24.079,6.085-24.079,6.085" transform="translate(-495.646 -1052.147)" fill="#faa37b"/>
        <path id="Trazado_3902" data-name="Trazado 3902" d="M765.1,2278.354c9.9,2.233,24.464,7.635,20.55,35.032,13.113-2.153,10.765,9.59,10.765,9.59l-57.177-2.349s-12.132-50.84,25.863-42.274" transform="translate(-692.898 -2139.957)" fill="#cc8264"/>
        <path id="Trazado_3903" data-name="Trazado 3903" d="M726.182,2317.282c9.9,2.233,24.464,7.634,20.55,35.033,13.112-2.155,13.112,7.241,13.112,7.241H700.319s-12.133-50.84,25.862-42.273" transform="translate(-656.328 -2176.536)" fill="#faa37b"/>
        <path id="Trazado_3904" data-name="Trazado 3904" d="M1577.173,1978.591l7.045,52.842s9.132,1.37,9.132,7.046h-14.219l-13.309-53.624s-1.176-18.008,11.351-6.264" transform="translate(-1471.308 -1855.46)" fill="#cc8264"/>
        <path id="Trazado_3905" data-name="Trazado 3905" d="M1538.252,1978.591l7.045,52.842s9.131,1.37,9.131,7.046h-14.219l-13.308-53.624s-1.175-18.008,11.351-6.264" transform="translate(-1434.736 -1855.46)" fill="#faa37b"/>
        <path id="Trazado_3906" data-name="Trazado 3906" d="M1512.256,6.739s-4.029-5.748,1.963-6.347c-1.948-.9-8.089-1.2-7.19,10.485a26.339,26.339,0,0,0,5.227-4.138" transform="translate(-1416.006 -0.004)" fill="#faa37b"/>
        <path id="Trazado_3907" data-name="Trazado 3907" d="M1408.274,7.418s-8.059-2.4-2.875-7.422c-2.5.6-8.491,4.888,1.038,15.2a31.543,31.543,0,0,0,1.837-7.775" transform="translate(-1316.68 0.004)" fill="#faa37b"/>
        <g id="Grupo_2180" data-name="Grupo 2180" transform="translate(156.21 3.388)" opacity="0.38">
          <g id="Grupo_2179" data-name="Grupo 2179">
            <g id="Grupo_2178" data-name="Grupo 2178" clip-path="url(#clip-path-5)">
              <path id="Trazado_3908" data-name="Trazado 3908" d="M2588.706,58.43s10.844-6.935,9.543,3.4c-1.879-2.679-2.891-4.7-9.543-3.4" transform="translate(-2588.706 -56.153)" fill="#f9e9dd"/>
            </g>
          </g>
        </g>
        <path id="Trazado_3909" data-name="Trazado 3909" d="M1662.382,251.845l-5.025,8.087h2.513l5.741-6.594Z" transform="translate(-1557.347 -236.648)" fill="#613a1b"/>
        <path id="Trazado_3910" data-name="Trazado 3910" d="M1882.452,72.423l5.518-2.64,1.082.79-4.468,4.748Z" transform="translate(-1768.859 -65.572)" fill="#814d24"/>
        <rect id="Rectángulo_1153" data-name="Rectángulo 1153" width="33.1" height="6.444" transform="translate(74.088 67.567)" fill="#e55c70"/>
        <path id="Trazado_3911" data-name="Trazado 3911" d="M995.957,604.109c-3.306-.49-10.321,8.494-10.321,8.494s-28.574,23.858,10.321,56.23c4.023-10.182,0-52.206,0-52.206s5.113-2.743,5.364-4.472c.347-2.392-2.973-7.691-5.364-8.046" transform="translate(-916.654 -567.637)" fill="#814d24"/>
        <path id="Trazado_3912" data-name="Trazado 3912" d="M1600.219,1112.036a3.921,3.921,0,1,1-3.92-3.921,3.921,3.921,0,0,1,3.92,3.921" transform="translate(-1496.289 -1041.248)" fill="#fcc066"/>
        <path id="Trazado_3913" data-name="Trazado 3913" d="M1588.387,1112.036a3.921,3.921,0,1,1-3.92-3.921,3.921,3.921,0,0,1,3.92,3.921" transform="translate(-1485.172 -1041.248)" fill="#fcc066"/>
        <path id="Trazado_3914" data-name="Trazado 3914" d="M1599.5,1112.036a3.58,3.58,0,1,1-3.563-3.921,3.754,3.754,0,0,1,3.563,3.921" transform="translate(-1496.289 -1041.248)" fill="#ff9436"/>
        <path id="Trazado_3915" data-name="Trazado 3915" d="M1051.26,1793.677c0,3.7-4.369,5.1-7.178,6.192-1.71.664-2.953,2.692-5.025,2.692-6.741,0-12.2-3.978-12.2-8.884,0-3.954,3.381-6.671,6.782-7.944a13.08,13.08,0,0,1,10.763.961c2.4,1.233,6.861,3.889,6.862,6.983" transform="translate(-964.89 -1677.268)" fill="#814d24"/>
        <path id="Trazado_3916" data-name="Trazado 3916" d="M1872.653,1623.309l-2.734.432-1.276-9.572,2.735-.432Z" transform="translate(-1755.884 -1516.359)" fill="#579d9d"/>
        <path id="Trazado_3917" data-name="Trazado 3917" d="M1806.214,1588.549a2.544,2.544,0,0,1-2.227,2.738,2.4,2.4,0,0,1-2.849-1.937l-1.433-10.749a2.545,2.545,0,0,1,2.227-2.738,2.4,2.4,0,0,1,2.849,1.937Z" transform="translate(-1691.088 -1480.739)" fill="#bcbec0"/>
        <path id="Trazado_3918" data-name="Trazado 3918" d="M3510.564,3027.579h76.946a1.014,1.014,0,0,0,1.011-1.011v-.4a1.014,1.014,0,0,0-1.011-1.011h-76.946a1.014,1.014,0,0,0-1.01,1.011v.4a1.014,1.014,0,0,0,1.01,1.011" transform="translate(-3297.777 -2842.606)" fill="#5c5c5c"/>
        <path id="Trazado_3919" data-name="Trazado 3919" d="M4574.377,2424.886h5.526a223.357,223.357,0,0,1-5.563-22.1c-2.116-12.28,2.295-8.016,6.785-6.406v0a5.449,5.449,0,0,0,3.778.264c6.666-2.58-.833-2.422,0-5.163-32.079-21.909-10.526,33.4-10.526,33.4" transform="translate(-4291.689 -2242.35)" fill="#814d24"/>
        <path id="Trazado_3920" data-name="Trazado 3920" d="M3853.714,2495.276h55.649a.124.124,0,0,0,.117-.168v0c-.064-.189-.128-.375-.194-.563-3.135-8.927-6.594-15.646-10.2-20.62-9.513-13.113-20.078-14.115-28.593-11.51-9.566,2.927-16.549,10.413-16.549,10.413Z" transform="translate(-3621.171 -2312.74)" fill="#faeed4"/>
        <path id="Trazado_3921" data-name="Trazado 3921" d="M3550.822,2621.031s-6.949-8.882-11.374-5.794c-.341,3.087,5.687,11.313,5.687,11.313Z" transform="translate(-3325.855 -2456.813)" fill="#814d24"/>
        <path id="Trazado_3922" data-name="Trazado 3922" d="M3574.258,2647.213s-4.986-6.373-8.162-4.157c-.244,2.215,4.08,8.118,4.08,8.118Z" transform="translate(-3350.899 -2483.127)" fill="#e6e7e8"/>
        <path id="Trazado_3923" data-name="Trazado 3923" d="M3926.64,2621.031s6.949-8.882,11.373-5.794c.341,3.087-5.686,11.313-5.686,11.313Z" transform="translate(-3689.696 -2456.813)" fill="#814d24"/>
        <path id="Trazado_3924" data-name="Trazado 3924" d="M3953.293,2647.213s4.986-6.373,8.161-4.157c.244,2.215-4.081,8.118-4.081,8.118Z" transform="translate(-3714.74 -2483.127)" fill="#e6e7e8"/>
        <path id="Trazado_3925" data-name="Trazado 3925" d="M3567.908,2659.293a15.658,15.658,0,1,0,16.169-15.649c-.17-.007-.34-.009-.51-.009s-.34,0-.51.009a15.656,15.656,0,0,0-15.148,15.649" transform="translate(-3352.61 -2484.11)" fill="#faeed4"/>
        <path id="Trazado_3926" data-name="Trazado 3926" d="M4151.936,2866.693h.583c1.2-3.48-.811-9.857-.911-10.166,1.26,5.563,1.058,8.532.328,10.166" transform="translate(-3901.088 -2684.156)" fill="#b5b6b6"/>
        <path id="Trazado_3927" data-name="Trazado 3927" d="M3567.908,2659.436a15.67,15.67,0,0,0,.6,4.318c15.052,9.386,15.141-11.147,14.545-19.968a15.657,15.657,0,0,0-15.148,15.65" transform="translate(-3352.61 -2484.252)" fill="#814d24"/>
        <path id="Trazado_3928" data-name="Trazado 3928" d="M3847.668,2663.753a15.667,15.667,0,0,0-14.544-19.968c-.6,8.821-.508,29.354,14.544,19.968" transform="translate(-3601.658 -2484.252)" fill="#814d24"/>
        <path id="Trazado_3929" data-name="Trazado 3929" d="M3799.131,2996.695a1.815,1.815,0,0,1-1.815-1.816h3.631a1.815,1.815,0,0,1-1.815,1.816" transform="translate(-3568.175 -2814.159)" fill="#231f20"/>
        <path id="Trazado_3930" data-name="Trazado 3930" d="M3827.343,3019a1.856,1.856,0,0,0,1.282-.642l-.2-.2a1.425,1.425,0,0,1-1.308.537c-1.015-.233-1.634-1.979-1.64-2l-.262.09c.027.078.677,1.91,1.84,2.177a1.273,1.273,0,0,0,.284.032" transform="translate(-3594.394 -2834.663)" fill="#231f20"/>
        <path id="Trazado_3931" data-name="Trazado 3931" d="M3774.4,3019a1.267,1.267,0,0,0,.284-.032c1.164-.267,1.813-2.1,1.84-2.177l-.263-.09c-.006.017-.626,1.764-1.64,2a1.427,1.427,0,0,1-1.308-.537l-.2.2a1.858,1.858,0,0,0,1.283.642" transform="translate(-3545.439 -2834.663)" fill="#231f20"/>
        <path id="Trazado_3932" data-name="Trazado 3932" d="M4000.825,2962.864h10.551c.184,0,.577.279.215.279h-10.552c-.184,0-.577-.279-.215-.279" transform="translate(-3759.264 -2784.076)" fill="#231f20"/>
        <path id="Trazado_3933" data-name="Trazado 3933" d="M4006.763,2989.93a82.361,82.361,0,0,0,8.51,2.383c.334.083.232.455-.1.372a82.587,82.587,0,0,1-8.509-2.383c-.318-.116-.226-.492.1-.373" transform="translate(-3764.706 -2809.488)" fill="#231f20"/>
        <path id="Trazado_3934" data-name="Trazado 3934" d="M3995.277,3013.038a46.719,46.719,0,0,0,6.407,4.39c.316.182.027.443-.231.294a47.541,47.541,0,0,1-6.526-4.459c-.282-.232.154-.387.35-.225" transform="translate(-3753.775 -2831.159)" fill="#231f20"/>
        <path id="Trazado_3935" data-name="Trazado 3935" d="M3481.7,2963.142h-10.551c-.184,0-.577-.279-.215-.279h10.552c.184,0,.577.279.215.279" transform="translate(-3261.352 -2784.076)" fill="#231f20"/>
        <path id="Trazado_3936" data-name="Trazado 3936" d="M3498.757,2992.527a82.746,82.746,0,0,0,8.509-2.383c.231-.085.63.247.309.365a82.63,82.63,0,0,1-8.509,2.383c-.233.058-.636-.284-.309-.365" transform="translate(-3287.516 -2809.697)" fill="#231f20"/>
        <path id="Trazado_3937" data-name="Trazado 3937" d="M3550.662,3013.112a47.093,47.093,0,0,1-6.468,4.425c-.191.11-.668-.152-.416-.3a47,47,0,0,0,6.466-4.425c.173-.141.649.107.417.3" transform="translate(-3329.869 -2830.973)" fill="#231f20"/>
        <path id="Trazado_3938" data-name="Trazado 3938" d="M4318.718,2763.075a23.879,23.879,0,0,0,2.369,3.825h24.4c.093-.075.161-.132.205-.168s.058-.05.058-.05c-.084-.173-4.609-4.873-4.693-5.042-11.045-21.969-18.258-3.768-22.34,1.434" transform="translate(-4058.115 -2585.046)" fill="#b5b6b6"/>
        <path id="Trazado_3939" data-name="Trazado 3939" d="M4226.429,2949.646s-3.233-.789-6.41,4.506c3.328,0,8.778-.68,8.778-.68Z" transform="translate(-3965.372 -2771.616)" fill="#b5b6b6"/>
        <path id="Trazado_3940" data-name="Trazado 3940" d="M4326.231,2770.02a23.933,23.933,0,0,0,2.37,3.826H4353c.093-.075.162-.131.205-.168l.059-.05c-.084-.172-.171-.344-.255-.513-11.044-21.969-18.989-18.05-26.78-3.095" transform="translate(-4065.174 -2591.31)" fill="#faeed4"/>
        <path id="Trazado_3941" data-name="Trazado 3941" d="M4227.706,2962.484h8.314l-2.369-3.826s-2.768-1.469-5.945,3.826" transform="translate(-3972.595 -2779.949)" fill="#faeed4"/>
        <path id="Trazado_3942" data-name="Trazado 3942" d="M4131.708,2462.415c2.51,3.479,6.414,7.57,11.138,8.1,8.4.936,8.821,4.795,14.4,4.114a17.04,17.04,0,0,0,3.06-.7c-9.511-13.112-20.077-14.115-28.594-11.51" transform="translate(-3882.389 -2312.741)" fill="#814d24"/>
        <path id="Trazado_3943" data-name="Trazado 3943" d="M4256.771,2995.293h1.422a4.3,4.3,0,0,1,.981-1.906,2.749,2.749,0,0,0-2.4,1.906" transform="translate(-3999.906 -2812.758)" fill="#b5b6b6"/>
        <path id="Trazado_3944" data-name="Trazado 3944" d="M3700.364,2831.3c0,1.111-.643,2.011-1.437,2.011s-1.437-.9-1.437-2.011.643-2.011,1.437-2.011,1.437.9,1.437,2.011" transform="translate(-3474.374 -2658.56)" fill="#231f20"/>
        <path id="Trazado_3945" data-name="Trazado 3945" d="M3914.646,2831.3c0,1.111-.643,2.011-1.437,2.011s-1.437-.9-1.437-2.011.644-2.011,1.437-2.011,1.437.9,1.437,2.011" transform="translate(-3675.725 -2658.56)" fill="#231f20"/>
        <path id="Trazado_3946" data-name="Trazado 3946" d="M3159.219,774.73h-75.951a7.511,7.511,0,0,0-7.51,7.51v27.152a7.51,7.51,0,0,0,7.51,7.51h9.962v12.049l12.049-12.049h53.94a7.51,7.51,0,0,0,7.51-7.51V782.24a7.51,7.51,0,0,0-7.51-7.51" transform="translate(-2890.158 -727.98)" fill="#41589c"/>
      </g>
    </g>
    <text id="Veterinario" transform="translate(195.081 74.01)" fill="#fff" font-size="17" font-family="BebasNeueBold, Bebas Neue"><tspan x="0" y="0" letter-spacing="0.025em">V</tspan><tspan y="0" letter-spacing="0.024em">e</tspan><tspan y="0" letter-spacing="0.025em">terin</tspan><tspan y="0" letter-spacing="0.024em">a</tspan><tspan y="0" letter-spacing="0.025em">ri</tspan><tspan y="0">o</tspan></text>
  </g>
</svg>
