<svg id="Grupo_2303" data-name="Grupo 2303" xmlns="http://www.w3.org/2000/svg" xmlns:xlink="http://www.w3.org/1999/xlink" width="274.5" height="265.585" viewBox="0 0 274.5 265.585">
  <defs>
    <clipPath id="clip-path">
      <rect id="Rectángulo_1213" data-name="Rectángulo 1213" width="274.5" height="265.585" fill="none"/>
    </clipPath>
    <clipPath id="clip-path-2">
      <rect id="Rectángulo_1212" data-name="Rectángulo 1212" width="274.5" height="265.584" fill="none"/>
    </clipPath>
    <clipPath id="clip-path-3">
      <rect id="Rectángulo_1183" data-name="Rectángulo 1183" width="6.06" height="6.454" fill="none"/>
    </clipPath>
    <clipPath id="clip-path-4">
      <rect id="Rectángulo_1184" data-name="Rectángulo 1184" width="7.814" height="16.558" fill="none"/>
    </clipPath>
    <clipPath id="clip-path-5">
      <rect id="Rectángulo_1185" data-name="Rectángulo 1185" width="4.962" height="6.321" fill="none"/>
    </clipPath>
    <clipPath id="clip-path-6">
      <rect id="Rectángulo_1186" data-name="Rectángulo 1186" width="8.446" height="7.073" fill="none"/>
    </clipPath>
    <clipPath id="clip-path-7">
      <rect id="Rectángulo_1187" data-name="Rectángulo 1187" width="7.814" height="16.557" fill="none"/>
    </clipPath>
    <clipPath id="clip-path-8">
      <rect id="Rectángulo_1188" data-name="Rectángulo 1188" width="4.962" height="6.32" fill="none"/>
    </clipPath>
    <clipPath id="clip-path-9">
      <rect id="Rectángulo_1189" data-name="Rectángulo 1189" width="8.445" height="7.073" fill="none"/>
    </clipPath>
    <clipPath id="clip-path-12">
      <rect id="Rectángulo_1194" data-name="Rectángulo 1194" width="7.746" height="2.073" fill="none"/>
    </clipPath>
    <clipPath id="clip-path-13">
      <rect id="Rectángulo_1196" data-name="Rectángulo 1196" width="7.746" height="7.114" fill="none"/>
    </clipPath>
    <clipPath id="clip-path-14">
      <rect id="Rectángulo_1197" data-name="Rectángulo 1197" width="4.421" height="11.775" fill="none"/>
    </clipPath>
    <clipPath id="clip-path-15">
      <rect id="Rectángulo_1198" data-name="Rectángulo 1198" width="4.421" height="11.706" fill="none"/>
    </clipPath>
    <clipPath id="clip-path-16">
      <rect id="Rectángulo_1199" data-name="Rectángulo 1199" width="9.412" height="8.748" fill="none"/>
    </clipPath>
    <clipPath id="clip-path-17">
      <rect id="Rectángulo_1200" data-name="Rectángulo 1200" width="10.279" height="8.88" fill="none"/>
    </clipPath>
    <clipPath id="clip-path-21">
      <rect id="Rectángulo_1204" data-name="Rectángulo 1204" width="5.299" height="2.65" fill="none"/>
    </clipPath>
    <clipPath id="clip-path-22">
      <rect id="Rectángulo_1205" data-name="Rectángulo 1205" width="9.411" height="8.748" fill="none"/>
    </clipPath>
    <clipPath id="clip-path-23">
      <rect id="Rectángulo_1206" data-name="Rectángulo 1206" width="43.365" height="11.642" fill="none"/>
    </clipPath>
    <clipPath id="clip-path-24">
      <rect id="Rectángulo_1209" data-name="Rectángulo 1209" width="7.746" height="1.683" fill="none"/>
    </clipPath>
    <clipPath id="clip-path-25">
      <rect id="Rectángulo_1211" data-name="Rectángulo 1211" width="7.746" height="2.727" fill="none"/>
    </clipPath>
  </defs>
  <g id="Grupo_2302" data-name="Grupo 2302" clip-path="url(#clip-path)">
    <g id="Grupo_2301" data-name="Grupo 2301" transform="translate(0 0.001)">
      <g id="Grupo_2300" data-name="Grupo 2300" clip-path="url(#clip-path-2)">
        <path id="Trazado_4155" data-name="Trazado 4155" d="M23.411,479.2C17.626,473.459,3.183,458.712.47,435.612c-1.545-13.162.161-37.475,13.764-45.881,10.509-6.494,19.934,4.229,34.829,0,15.232-4.325,29.02-18.085,27.111-27.529-1.817-8.983-16.716-8.565-18.5-18.5-1.4-7.778,6.356-15.694,11.905-21.358a60.153,60.153,0,0,1,16.058-11.47c8.341-4.383,16.051-8.434,25.235-8.316,14.282.183,26.634,10.377,36.992,18.926,8.9,7.349,14.751,14.446,20.646,12.617,2.811-.872,3.779-3.2,5.8-5.8,9.807-12.63,29.724-12.844,31.479-12.84,11.207.025,27.813,4.777,34.411,17.205,10.42,19.631-12.594,42.47,0,59.625,4.319,5.883,8.419,5.1,11.184,11.778,5.271,12.741-4.9,27.037,0,30.543,1.934,1.383,3.705-.706,7.776,0,7.383,1.28,12.522,10.049,14.3,15.911,5.158,16.962-10.483,33.577-12.617,35.845a50.557,50.557,0,0,1-26.955,15.2c-17.321,3.339-22.144-5.878-55.344-10.323-19.371-2.594-27.759-.8-30.982,0-12.825,3.178-15.484,8.324-26.656,12.617-16.94,6.51-33.256,3.887-47.6.789-12.177-2.63-32.152-7.844-49.9-25.45" transform="translate(0 -242.305)" fill="#9cb1fa"/>
        <path id="Trazado_4156" data-name="Trazado 4156" d="M234.67,922.773c-12.227,10.48-5.823,30.858-7.278,44.251-3.2-.583-8.152,1.455-5.822,5.531,2.62,4.367,7.568.873,10.48.873,4.367-.291,9.024,1.456,13.392,1.747,3.493.291,7.278-.873,10.48-.291,3.493.874,8.443,5.241,10.771,0,2.039-4.658-3.493-5.531-4.658-8.734-.873-3.493,2.038-7.86,2.038-11.644a25.25,25.25,0,0,0-4.367-13.391c-4.366-6.987-4.949-11.354-6.113-19.505" transform="translate(-176.964 -738.083)" fill="#ebc3b3"/>
        <path id="Trazado_4157" data-name="Trazado 4157" d="M418.185,963.949c2.888-1.67,6.113-3.468,7.278-7.836,1.746-5.531-1.747-12.809-2.039-18.34-.291-7.278,2.669-14.872,10.821-16.327,4.949-1.165,11.353.315,13.1,5.556,1.746,4.658-1.165,9.316-6.113,9.316-3.2,0-6.7-3.493-9.607-.582-5.822,5.24,5.24,16.012,1.747,23-2.911,5.822-8.734,7.957-13.973,7.957" transform="translate(-334.909 -737.654)" fill="#ebc3b3"/>
        <path id="Trazado_4158" data-name="Trazado 4158" d="M484.57,927c-1.747-5.24-8.152-6.72-13.1-5.556a12,12,0,0,0-6.8,3.586,16.062,16.062,0,0,0,4.736,10.23c2.794-2.014,6.052,1.056,9.054,1.056,4.949,0,7.86-4.658,6.114-9.316" transform="translate(-372.134 -737.654)" fill="#6e6765"/>
        <path id="Trazado_4159" data-name="Trazado 4159" d="M283.811,1098.5c.582,6.4.636,20.294,3.785,19.8,4.594,0,3.2-15.211,3.2-20.16" transform="translate(-227.294 -879.455)" fill="#ebc3b3"/>
        <path id="Trazado_4160" data-name="Trazado 4160" d="M283.811,1098.5c.205,1.729.321,3.468.466,5.2.13,1.735.26,3.47.434,5.2s.365,3.455.694,5.152a15.092,15.092,0,0,0,.669,2.479,4.216,4.216,0,0,0,.582,1.086.965.965,0,0,0,.9.448l.013,0h.023a1.694,1.694,0,0,0,1.087-.4,3.154,3.154,0,0,0,.757-.988,9.6,9.6,0,0,0,.807-2.489,35.568,35.568,0,0,0,.539-5.308c.074-1.785.072-3.575.046-5.366l-.031-2.687c-.013-.9-.025-1.793,0-2.689.067,1.791.183,3.578.266,5.37s.116,3.586.085,5.383c-.014.9-.052,1.8-.129,2.7a25.257,25.257,0,0,1-.354,2.686,10,10,0,0,1-.828,2.613,3.592,3.592,0,0,1-.862,1.135,2.111,2.111,0,0,1-1.381.512l.036,0a1.235,1.235,0,0,1-.776-.136,1.811,1.811,0,0,1-.556-.489,4.638,4.638,0,0,1-.641-1.209,15.508,15.508,0,0,1-.67-2.56,48.838,48.838,0,0,1-.632-5.2c-.131-1.738-.223-3.477-.3-5.216s-.14-3.477-.241-5.215" transform="translate(-227.294 -879.455)" fill="#6e6765"/>
        <path id="Trazado_4161" data-name="Trazado 4161" d="M358,1098.5c-.582,6.4-.636,20.294-3.785,19.8-4.594,0-3.2-15.211-3.2-20.16" transform="translate(-280.956 -879.455)" fill="#ebc3b3"/>
        <path id="Trazado_4162" data-name="Trazado 4162" d="M357.349,1098.5c-.1,1.738-.171,3.476-.241,5.215s-.174,3.478-.3,5.216a48.83,48.83,0,0,1-.632,5.2,15.5,15.5,0,0,1-.67,2.56,4.638,4.638,0,0,1-.641,1.209,1.812,1.812,0,0,1-.556.489,1.235,1.235,0,0,1-.776.136l.036,0a2.111,2.111,0,0,1-1.381-.512,3.591,3.591,0,0,1-.862-1.135,10,10,0,0,1-.828-2.613,25.233,25.233,0,0,1-.354-2.686c-.078-.9-.115-1.8-.129-2.7-.03-1.8.015-3.591.085-5.383s.2-3.579.266-5.37c.023.9.012,1.793,0,2.689l-.031,2.687c-.025,1.79-.028,3.581.046,5.366a35.568,35.568,0,0,0,.539,5.308,9.6,9.6,0,0,0,.807,2.489,3.155,3.155,0,0,0,.757.988,1.694,1.694,0,0,0,1.087.4h.023l.013,0a.965.965,0,0,0,.9-.448,4.22,4.22,0,0,0,.582-1.086,15.086,15.086,0,0,0,.669-2.479c.329-1.7.512-3.425.694-5.152s.3-3.464.434-5.2c.146-1.734.261-3.472.466-5.2" transform="translate(-280.303 -879.455)" fill="#6e6765"/>
        <path id="Trazado_4163" data-name="Trazado 4163" d="M270.206,949.878c-5.995,0-11.966-1.214-15.926-3.59l1.206-2.009c6.721,4.033,20.381,4.366,28.109.687l1.007,2.116a34.7,34.7,0,0,1-14.4,2.8" transform="translate(-203.644 -756.239)" fill="#683da3"/>
        <path id="Trazado_4164" data-name="Trazado 4164" d="M320.026,977.426a2.125,2.125,0,1,0-2.568,2.079v4.355a.443.443,0,1,0,.886,0V979.5a2.126,2.126,0,0,0,1.683-2.079" transform="translate(-252.893 -781.083)" fill="#ff9436"/>
        <path id="Trazado_4165" data-name="Trazado 4165" d="M228.38,744.3c.582-3.493,3.87-17.443,7.181-17.491,2.377-.034,5.337,11.936,5.628,15.429" transform="translate(-182.901 -582.076)" fill="#c4a397"/>
        <path id="Trazado_4166" data-name="Trazado 4166" d="M375.2,744.3c-.582-3.493-3.87-17.443-7.181-17.491-2.377-.034-5.337,11.936-5.628,15.429" transform="translate(-290.223 -582.076)" fill="#c4a397"/>
        <path id="Trazado_4167" data-name="Trazado 4167" d="M257.969,751.358l1.054,10.31h-2.109Z" transform="translate(-205.753 -601.736)" fill="#8e6b61"/>
        <path id="Trazado_4168" data-name="Trazado 4168" d="M388.639,751.358l1.054,10.31h-2.109Z" transform="translate(-310.402 -601.736)" fill="#8e6b61"/>
        <path id="Trazado_4169" data-name="Trazado 4169" d="M236.857,783.337c-12.455,0-23.031,1.718-22.974,15.138C213.961,816.923,229,817.4,242.1,816.816c12.227-.874,20.644-9.607,16.57-22.707-2.912-9.607-13.076-10.771-21.81-10.771" transform="translate(-171.291 -627.346)" fill="#ebc3b3"/>
        <path id="Trazado_4170" data-name="Trazado 4170" d="M233.561,823.235c-5.837-1.087-5.508,1.82-9.257,4.49s-6.7-.2-10.471.72c-10.744,2.18-3.88,14.9,1.984,18.025,7.328,3.688,21.055,2.775,29.423,1.358,10-1.692,15.814-15.057,5.879-17.837-2.627-.548-5.511,1.528-8.434.694-3.509-1.118-3.865-6.063-8.246-7.17" transform="translate(-166.733 -659.112)" fill="#fff"/>
        <path id="Trazado_4171" data-name="Trazado 4171" d="M320.429,833.883c-4.894.165-.9,3.249.073,3.249,1.3,0,5.422-3.252-.073-3.249" transform="translate(-254.709 -667.827)" fill="#202021"/>
        <path id="Trazado_4172" data-name="Trazado 4172" d="M313.17,845.585a3.161,3.161,0,0,1-.565,3.252,1.976,1.976,0,0,1-2.278.591,1.757,1.757,0,0,1-.769-1.323c-.029-.188-.316-.108-.287.079a2.1,2.1,0,0,0,.754,1.4,1.712,1.712,0,0,0,1.277.286,2.934,2.934,0,0,0,2.238-2.061,3.718,3.718,0,0,0-.083-2.3C313.4,845.326,313.108,845.4,313.17,845.585Z" transform="translate(-247.682 -677.053)" fill="none" stroke="#202021" stroke-width="2"/>
        <path id="Trazado_4173" data-name="Trazado 4173" d="M330.486,848.008c.093.571.127,1.15.238,1.718a2.891,2.891,0,0,0,.647,1.48,2.014,2.014,0,0,0,1.475.481,2.634,2.634,0,0,0,1.456-.5,2.085,2.085,0,0,0,.861-1.432c.024-.189-.274-.188-.3,0a2.048,2.048,0,0,1-1.994,1.632,1.711,1.711,0,0,1-1.325-.429,2.8,2.8,0,0,1-.548-1.37c-.1-.549-.137-1.108-.227-1.66C330.742,847.741,330.455,847.821,330.486,848.008Z" transform="translate(-264.672 -678.99)" fill="none" stroke="#202021" stroke-width="2"/>
        <path id="Trazado_4174" data-name="Trazado 4174" d="M187.32,865.521l-8.329-1.063-1.173-.15c-.189-.024-.188.273,0,.3l8.329,1.063,1.173.15c.189.024.188-.273,0-.3" transform="translate(-142.295 -692.192)" fill="#202021"/>
        <path id="Trazado_4175" data-name="Trazado 4175" d="M184.872,881.573H174.763a.149.149,0,0,0,0,.3h10.108a.149.149,0,0,0,0-.3" transform="translate(-139.846 -706.02)" fill="#202021"/>
        <path id="Trazado_4176" data-name="Trazado 4176" d="M186.1,892.736l-8.139.885-1.16.126c-.188.02-.19.318,0,.3l8.139-.885,1.16-.126c.188-.02.19-.318,0-.3" transform="translate(-141.479 -714.959)" fill="#202021"/>
        <path id="Trazado_4177" data-name="Trazado 4177" d="M433.654,865.819l8.33-1.063,1.173-.15c.187-.024.19-.322,0-.3l-8.33,1.063-1.173.15c-.187.024-.19.322,0,.3" transform="translate(-347.184 -692.192)" fill="#202021"/>
        <path id="Trazado_4178" data-name="Trazado 4178" d="M433.644,881.87h10.108a.149.149,0,0,0,0-.3H433.644a.149.149,0,0,0,0,.3" transform="translate(-347.175 -706.02)" fill="#202021"/>
        <path id="Trazado_4179" data-name="Trazado 4179" d="M435.682,893.033l8.139.885,1.16.126c.19.02.188-.277,0-.3l-8.139-.885-1.16-.126c-.19-.021-.189.277,0,.3" transform="translate(-348.808 -714.959)" fill="#202021"/>
        <path id="Trazado_4180" data-name="Trazado 4180" d="M270.619,821.948a1.557,1.557,0,1,1-1.557-1.557,1.557,1.557,0,0,1,1.557,1.557" transform="translate(-214.235 -657.022)" fill="#252526"/>
        <path id="Trazado_4181" data-name="Trazado 4181" d="M377.375,821.948a1.557,1.557,0,1,1-1.557-1.557,1.557,1.557,0,0,1,1.557,1.557" transform="translate(-299.732 -657.022)" fill="#252526"/>
        <path id="Trazado_4182" data-name="Trazado 4182" d="M984.2,865.957c6.488-.463,9.732-5.1,10.658-10.658.464-4.171,0-15.295,7.88-7.879,8.342,7.879-3.244,24.562-12.513,25.952" transform="translate(-788.21 -676.675)" fill="#72623c"/>
        <path id="Trazado_4183" data-name="Trazado 4183" d="M600.58,1015.615c1.468,16.814,25.1,21.885,38.621,22.207-7.4,5.472.966,8.046,6.437,8.046,4.828,0,16.091,0,18.988-4.505,3.219-5.15-2.252-18.023-5.47-22.207-6.759-8.368-28-12.874-37.334-7.724" transform="translate(-480.983 -808.269)" fill="#e9d3b4"/>
        <path id="Trazado_4184" data-name="Trazado 4184" d="M503.609,504.827c-27.806-6.488-38.929,22.709-32.441,45.419,6.489,23.635,16.607,49.124,16.607,73.688,0,4.17-1.776,10.194-.85,13.9,1.39,6.488,8.342,7.415,12.513,4.171,9.27-6.951.5-18.962.039-27.768,3.707.464,7.377.888,10.621,2.279,5.1,2.78,4.634.927,5.1,8.341.464,6.489-1.39,6.025-3.706,11.122-1.855,4.171-3.708,7.879,1.853,10.2,9.732,3.707,15.294-6.951,16.221-14.367.463-2.781-1.39-10.2.463-12.049,1.391-1.391,10.659-1.391,12.513-1.391,1.39,7.416,1.39,9.733,7.879,15.294-6.489,0-11.122,6.488-4.634,9.27,3.708,1.39,14.831.463,18.538,0,16.685-2.318,20.237-24.563,17.92-37.076-2.781-13.9-15.6-29.2-31.36-30.587-11.586-.928-23.172,0-25.49-14.368-1.39-10.658,2.782-20.391,1.854-31.051s-12.05-25.026-23.636-25.026" transform="translate(-375.901 -403.562)" fill="#f5f3f3"/>
        <path id="Trazado_4185" data-name="Trazado 4185" d="M433.688,517.777c-23.4-14.7-27.742,21.989-15.332,30.085,2.8,1.882,5.175-8.767,7.492-12.937,1.854-5.1,5.987-11.585,7.84-17.147" transform="translate(-329.615 -411.915)" fill="#ae6f4c"/>
        <path id="Trazado_4186" data-name="Trazado 4186" d="M745.154,601.476c-8.727-7.467-9.772-3.245-10.235,3.707,0,3.709-3.206,19.465-.425,21.32,6.489,4.633,28.6-14.158,10.66-25.027" transform="translate(-587.321 -478.544)" fill="#ae6f4c"/>
        <path id="Trazado_4187" data-name="Trazado 4187" d="M509.272,802.32a102.5,102.5,0,0,0,35.073-5.647l-1.037-2.922c-15.578,5.527-32.494,6.8-54.849,4.113l-.369,3.079a178.012,178.012,0,0,0,21.183,1.378" transform="translate(-390.893 -635.687)" fill="#ff9436"/>
        <path id="Trazado_4188" data-name="Trazado 4188" d="M538.993,641.207c20.867,3.794,5.927,24.3-1.371,17.747a11.763,11.763,0,0,0-10.45-2.917c-3.983.918-7.946-1.566-7.607-8.353.588-7.065,11.185-12.952,17.073-7.065" transform="translate(-416.084 -511.118)" fill="#ae6f4c"/>
        <path id="Trazado_4189" data-name="Trazado 4189" d="M587.623,638.841c9.966,4.249-.735,7.424-2.746,6.645-2.684-1.039-8.59-11.041,2.746-6.645" transform="translate(-465.245 -510.735)" fill="#252526"/>
        <path id="Trazado_4190" data-name="Trazado 4190" d="M623.626,691.752a.126.126,0,0,0,0-.253.126.126,0,0,0,0,.253" transform="translate(-499.342 -553.797)" fill="#17214e"/>
        <path id="Trazado_4191" data-name="Trazado 4191" d="M639.787,711.146a.126.126,0,0,0,0-.253.126.126,0,0,0,0,.253" transform="translate(-512.284 -569.329)" fill="#17214e"/>
        <path id="Trazado_4192" data-name="Trazado 4192" d="M617.158,714.375a.126.126,0,0,0,0-.253.126.126,0,0,0,0,.253" transform="translate(-494.162 -571.915)" fill="#17214e"/>
        <path id="Trazado_4193" data-name="Trazado 4193" d="M568.673,678.821a.126.126,0,0,0,0-.253.126.126,0,0,0,0,.253" transform="translate(-455.332 -543.441)" fill="#17214e"/>
        <path id="Trazado_4194" data-name="Trazado 4194" d="M562.21,701.449a.126.126,0,0,0,0-.253.126.126,0,0,0,0,.253" transform="translate(-450.156 -561.563)" fill="#17214e"/>
        <path id="Trazado_4195" data-name="Trazado 4195" d="M539.582,688.518a.126.126,0,0,0,0-.253.126.126,0,0,0,0,.253" transform="translate(-432.034 -551.207)" fill="#17214e"/>
        <path id="Trazado_4196" data-name="Trazado 4196" d="M663.4,620.946a3.26,3.26,0,1,0,3.26-3.26,3.26,3.26,0,0,0-3.26,3.26" transform="translate(-531.29 -494.683)" fill="#252526"/>
        <path id="Trazado_4197" data-name="Trazado 4197" d="M558.589,585.953a3.26,3.26,0,1,0,3.26-3.26,3.26,3.26,0,0,0-3.26,3.26" transform="translate(-447.353 -466.658)" fill="#252526"/>
        <path id="Trazado_4198" data-name="Trazado 4198" d="M575.707,690.717a3.161,3.161,0,0,1-2.028,2.6,1.976,1.976,0,0,1-2.289-.549,1.757,1.757,0,0,1-.057-1.529c.063-.18-.228-.244-.29-.065a2.1,2.1,0,0,0,.007,1.592,1.712,1.712,0,0,0,.993.852,2.934,2.934,0,0,0,2.944-.767,3.718,3.718,0,0,0,1.01-2.073C576.028,690.595,575.738,690.528,575.707,690.717Z" transform="translate(-457.205 -553.08)" fill="none" stroke="#202021" stroke-width="2"/>
        <path id="Trazado_4199" data-name="Trazado 4199" d="M593.39,691.408c-.089.571-.237,1.132-.308,1.707a2.889,2.889,0,0,0,.155,1.608,2.014,2.014,0,0,0,1.253.915,2.634,2.634,0,0,0,1.539-.021,2.086,2.086,0,0,0,1.263-1.094c.081-.172-.2-.263-.283-.092a2.048,2.048,0,0,1-2.4.932,1.712,1.712,0,0,1-1.126-.82,2.8,2.8,0,0,1-.095-1.473c.073-.554.214-1.1.3-1.648C593.716,691.233,593.419,691.22,593.39,691.408Z" transform="translate(-474.943 -553.616)" fill="none" stroke="#202021" stroke-width="2"/>
        <path id="Trazado_4200" data-name="Trazado 4200" d="M674.927,1152.505a26.789,26.789,0,0,1,15.535,3.088c-2.166,6.485-7.31,12.9-15.189,9.9-5.561-2.318-3.708-6.025-1.853-10.2a22.993,22.993,0,0,1,1.507-2.79" transform="translate(-537.833 -922.874)" fill="#72623c"/>
        <path id="Trazado_4201" data-name="Trazado 4201" d="M707.059,1203.487a13.865,13.865,0,0,0-.938,2.832.272.272,0,0,1-.523-.144,14.511,14.511,0,0,1,.993-2.961c.155-.313.623-.038.469.274" transform="translate(-565.08 -963.5)" fill="#8b744a"/>
        <path id="Trazado_4202" data-name="Trazado 4202" d="M685.027,1197.4l-.724,2.9a.272.272,0,0,1-.523-.144l.724-2.9a.272.272,0,0,1,.523.144" transform="translate(-547.607 -958.685)" fill="#8b744a"/>
        <path id="Trazado_4203" data-name="Trazado 4203" d="M563.336,1131.065a35.365,35.365,0,0,1,9.557,1.349c.771,4.482.294,8.7-3.926,11.86-4.171,3.244-11.123,2.318-12.513-4.17-.553-2.214-.143-5.253.277-8.231a22.054,22.054,0,0,1,6.6-.806" transform="translate(-445.429 -905.827)" fill="#72623c"/>
        <path id="Trazado_4204" data-name="Trazado 4204" d="M604.542,1188.892a7.442,7.442,0,0,0-.232,2.342.271.271,0,0,1-.542,0,7.921,7.921,0,0,1,.251-2.486.277.277,0,0,1,.334-.189.274.274,0,0,1,.19.334" transform="translate(-483.535 -951.866)" fill="#8b744a"/>
        <path id="Trazado_4205" data-name="Trazado 4205" d="M577.875,1186.49a9.635,9.635,0,0,0-.232,2.342.272.272,0,0,1-.543,0,10.271,10.271,0,0,1,.251-2.486.272.272,0,0,1,.523.144" transform="translate(-462.179 -949.947)" fill="#8b744a"/>
        <path id="Trazado_4206" data-name="Trazado 4206" d="M618.614,484.026c0,1.318-.13,2.631-.131,3.948a.193.193,0,0,0,.386,0c0-1.317.13-2.631.132-3.948a.193.193,0,0,0-.386,0" transform="translate(-495.32 -387.49)" fill="#f8a53d"/>
        <path id="Trazado_4207" data-name="Trazado 4207" d="M610.039,503.73a3.732,3.732,0,0,1-.9.762,6.224,6.224,0,0,1-1.092.6.2.2,0,0,0-.135.237.194.194,0,0,0,.237.135,6.7,6.7,0,0,0,1.211-.653,4.123,4.123,0,0,0,1.01-.883.194.194,0,0,0-.069-.264.2.2,0,0,0-.264.069" transform="translate(-486.85 -403.343)" fill="#f8a53d"/>
        <path id="Trazado_4208" data-name="Trazado 4208" d="M617.828,505.217a6.9,6.9,0,0,1,.125,1.659.193.193,0,0,0,.386,0,7.329,7.329,0,0,0-.139-1.762c-.059-.241-.432-.139-.372.1" transform="translate(-494.791 -404.418)" fill="#f8a53d"/>
        <path id="Trazado_4209" data-name="Trazado 4209" d="M618.584,503.33c.026.017.051.035.076.054,0,0,.039.029.018.013l.023.018q.065.053.126.111c.081.076.158.157.233.24.136.152.263.311.406.455a.193.193,0,0,0,.273-.273c-.147-.148-.277-.312-.416-.466a3.006,3.006,0,0,0-.544-.486.194.194,0,0,0-.264.069.2.2,0,0,0,.069.264" transform="translate(-495.326 -402.811)" fill="#f8a53d"/>
        <path id="Trazado_4210" data-name="Trazado 4210" d="M599.1,480.775c0,1.317-.13,2.631-.132,3.948a.193.193,0,0,0,.386,0c0-1.317.13-2.631.132-3.948a.193.193,0,0,0-.386,0" transform="translate(-479.695 -384.886)" fill="#f8a53d"/>
        <path id="Trazado_4211" data-name="Trazado 4211" d="M590.53,500.478a3.732,3.732,0,0,1-.9.762,6.235,6.235,0,0,1-1.092.6.2.2,0,0,0-.135.237.194.194,0,0,0,.237.135,6.691,6.691,0,0,0,1.211-.653,4.114,4.114,0,0,0,1.01-.883.194.194,0,0,0-.069-.264.2.2,0,0,0-.264.069" transform="translate(-471.226 -400.738)" fill="#f8a53d"/>
        <path id="Trazado_4212" data-name="Trazado 4212" d="M598.318,501.965a6.909,6.909,0,0,1,.125,1.659.193.193,0,0,0,.386,0,7.322,7.322,0,0,0-.139-1.762c-.059-.241-.431-.139-.372.1" transform="translate(-479.166 -401.814)" fill="#f8a53d"/>
        <path id="Trazado_4213" data-name="Trazado 4213" d="M599.074,500.079l.076.054.017.013.023.018c.043.035.085.072.126.111.081.076.158.157.233.24.136.151.263.311.406.455a.193.193,0,1,0,.273-.273c-.147-.148-.277-.311-.416-.466a2.993,2.993,0,0,0-.544-.485.194.194,0,0,0-.264.069.2.2,0,0,0,.069.264" transform="translate(-479.701 -400.208)" fill="#f8a53d"/>
        <path id="Trazado_4214" data-name="Trazado 4214" d="M593.172,472.763c-.855,4.5,3.082,4.34,2.819,1.05" transform="translate(-474.952 -378.619)" fill="#08773f"/>
        <path id="Trazado_4215" data-name="Trazado 4215" d="M612.571,482.846c-.37,2.884,3.075,2.764,2.679.263" transform="translate(-490.563 -386.694)" fill="#08773f"/>
        <path id="Trazado_4216" data-name="Trazado 4216" d="M569.555,347.455c-.466,6.06-1.4,12.587,1.4,18.181,3.263,6.76,12.354,7.925,16.783,1.165-8.625-.7-3.424-12.625-4.382-17.982-1.324-7.4-10.536-8.591-13.567-1.831" transform="translate(-455.71 -274.323)" fill="#0ea54e"/>
        <path id="Trazado_4217" data-name="Trazado 4217" d="M582.809,415.341a13.075,13.075,0,0,1-5.327-2.165,8.944,8.944,0,0,1-3.122-4.694,15.387,15.387,0,0,1-.571-3.609,9.9,9.9,0,0,0-.659-4.128c-.587-1.14-1.929-2.665-3.382-2.147a2.73,2.73,0,0,0-.678.359c-.163,3.97.1,7.923,1.888,11.5a9.608,9.608,0,0,0,12.313,4.979c-.154-.029-.307-.059-.46-.091" transform="translate(-455.714 -319.14)" fill="#0ee063"/>
        <path id="Trazado_4218" data-name="Trazado 4218" d="M660.487,436.637a3.041,3.041,0,0,1,.036.436,3.592,3.592,0,0,1-.028.44,3.865,3.865,0,0,1-.075.434c-.032.143-.065.287-.111.426a8.58,8.58,0,0,1-.683,1.607,10.718,10.718,0,0,1-.954,1.452,7.311,7.311,0,0,1-1.208,1.247l.874-1.475c.286-.488.567-.977.837-1.47s.526-.992.756-1.5a7.747,7.747,0,0,0,.555-1.6" transform="translate(-526.54 -349.687)" fill="#08773f"/>
        <path id="Trazado_4219" data-name="Trazado 4219" d="M663.813,446.392a11.9,11.9,0,0,1-1.144,1.165c-.4.362-.818.708-1.243,1.039s-.859.651-1.3.957-.9.6-1.378.868a10.683,10.683,0,0,1,1.126-1.184c.4-.367.814-.714,1.24-1.046s.863-.649,1.311-.952a15.425,15.425,0,0,1,1.393-.847" transform="translate(-527.564 -357.5)" fill="#08773f"/>
        <path id="Trazado_4220" data-name="Trazado 4220" d="M663.293,458.263c-.49.168-.958.341-1.43.517s-.943.349-1.422.512-.964.315-1.458.441a8.275,8.275,0,0,1-1.517.258c.46-.237.922-.443,1.389-.641s.939-.38,1.421-.544a12.667,12.667,0,0,1,1.477-.413,5.493,5.493,0,0,1,1.541-.129" transform="translate(-526.54 -366.996)" fill="#08773f"/>
        <path id="Trazado_4221" data-name="Trazado 4221" d="M658.256,439.889a6.878,6.878,0,0,1,.088,1.382,11.676,11.676,0,0,1-.12,1.369,11.548,11.548,0,0,1-.278,1.346,6.773,6.773,0,0,1-.482,1.3c0-.467.041-.92.084-1.372s.1-.9.167-1.347.141-.893.228-1.338.184-.89.313-1.338" transform="translate(-526.54 -352.292)" fill="#08773f"/>
        <path id="Trazado_4222" data-name="Trazado 4222" d="M657.464,466.917c.47-.027.929-.018,1.387,0s.914.05,1.369.1.911.107,1.365.191a7.674,7.674,0,0,1,1.347.362,13.044,13.044,0,0,1-1.388.04c-.459-.009-.918-.035-1.375-.082a13.382,13.382,0,0,1-1.367-.207,7.38,7.38,0,0,1-1.337-.4" transform="translate(-526.539 -373.924)" fill="#08773f"/>
        <path id="Trazado_4223" data-name="Trazado 4223" d="M611.68,408.49c-.7-3.03-3.1-14.929-7.995-8.869-1.166,1.632-.748,5.324-.466,7.226.482,3.248,2.8,6.294,3.263,2.1.466,1.4,1.1,2.331,2.1,2.331,1.052-.39.466-1.615.466-2.314.7,1.166,1.446,1.708,2.1,1.614,1.059-.194.693-1.238.536-2.087" transform="translate(-482.848 -318.685)" fill="#0ee063"/>
        <path id="Trazado_4224" data-name="Trazado 4224" d="M609.929,338.29a4.989,4.989,0,0,1,1.321-1.127,7.8,7.8,0,0,1,1.58-.728,8.072,8.072,0,0,1,1.7-.372,5.454,5.454,0,0,1,1.733.069c-.565.131-1.107.261-1.644.408s-1.066.306-1.591.48-1.043.365-1.556.575-1.02.439-1.54.7" transform="translate(-488.47 -269.11)" fill="#f8a53d"/>
        <path id="Trazado_4225" data-name="Trazado 4225" d="M609.929,343.819a12.763,12.763,0,0,1,1.859-.551,14.571,14.571,0,0,1,1.915-.294,11.278,11.278,0,0,1,1.948,0,6.992,6.992,0,0,1,1.9.418c-.652.016-1.283.032-1.914.067s-1.258.082-1.887.134-1.26.11-1.9.158-1.277.088-1.929.073" transform="translate(-488.47 -274.64)" fill="#f8a53d"/>
        <path id="Trazado_4226" data-name="Trazado 4226" d="M609.929,347.266c.76-.026,1.505-.036,2.257-.032a17.828,17.828,0,0,1,2.266.14,8.256,8.256,0,0,1,2.224.609,6.03,6.03,0,0,1,1.887,1.3,13.13,13.13,0,0,0-2.057-.842,13.787,13.787,0,0,0-2.139-.452c-.728-.1-1.469-.171-2.215-.269a13.311,13.311,0,0,1-2.223-.45" transform="translate(-488.47 -278.087)" fill="#f8a53d"/>
        <path id="Trazado_4227" data-name="Trazado 4227" d="M545.8,372.2a26.46,26.46,0,0,0,3.938.574c1.711.132,2.237.526,2.369-1.316.132-3.159-2.632-1.316-4.343-.658" transform="translate(-437.11 -296.049)" fill="#f8873d"/>
        <path id="Trazado_4228" data-name="Trazado 4228" d="M547.313,357.2c-2.8-.932-7.234,2.091-7.226,5.594,2.755-1.086,4.748-2.564,8.477-1.865" transform="translate(-432.536 -285.931)" fill="#f8a53d"/>
        <path id="Trazado_4229" data-name="Trazado 4229" d="M591.928,357.921a.893.893,0,1,1-.893-.892.893.893,0,0,1,.893.892" transform="translate(-472.624 -285.931)" fill="#232121"/>
        <path id="Trazado_4230" data-name="Trazado 4230" d="M379.738,1105.23c-6.411-7.543-22.843-12.675-30.365-.975-4.457,6.686-1.672,15.739,5.014,17.968,8.636,2.507,19.5,1.95,27.3-2.507" transform="translate(-278.064 -878.829)" fill="#9a9ca0"/>
        <path id="Trazado_4231" data-name="Trazado 4231" d="M476.546,1205.463c1.95,1.393,8.079,4.736,4.457,6.686-3.343,1.672-6.407-3.065-7.243-5.293" transform="translate(-379.417 -965.412)" fill="#9a9ca0"/>
        <path id="Trazado_4232" data-name="Trazado 4232" d="M358,1205.463c-7.8,6.964,3.065,8.915,3.9,2.507" transform="translate(-284.468 -965.412)" fill="#9a9ca0"/>
        <path id="Trazado_4233" data-name="Trazado 4233" d="M332.624,1098.877c2.507-6.686-6.407-10.865-9.471-4.736-3.065,5.85,4.931,9.177,8.34,5.817" transform="translate(-258.251 -873.869)" fill="#9a9ca0"/>
        <path id="Trazado_4234" data-name="Trazado 4234" d="M484.451,1139.462a13.345,13.345,0,0,1-6.488-9.692,11.42,11.42,0,0,1,3.405-9.665l1.127,1.126a9.858,9.858,0,0,0-2.951,8.338,11.9,11.9,0,0,0,5.718,8.52Z" transform="translate(-382.708 -897.052)" fill="#a54c81"/>
        <path id="Trazado_4235" data-name="Trazado 4235" d="M498.61,1104.674c-17.829.836-11.979,27.579,5.85,23.958,16.157-3.343,11.757-24.653-5.85-23.958" transform="translate(-390.669 -884.68)" fill="#9a9ca0"/>
        <path id="Trazado_4236" data-name="Trazado 4236" d="M541.915,1189.817a1.245,1.245,0,1,0-1.245-1.245,1.259,1.259,0,0,0,1.245,1.245" transform="translate(-433.003 -950.888)" fill="#e780ab"/>
        <path id="Trazado_4237" data-name="Trazado 4237" d="M466.265,1066.66a34.712,34.712,0,0,0-7.661-9.332c-2.4-1.922-6.547-3.2-8.218-1.811-5.293,5.294,11,10.864,13.511,12.815" transform="translate(-359.856 -844.856)" fill="#9a9ca0"/>
        <path id="Trazado_4238" data-name="Trazado 4238" d="M518.964,1051.69c.017-6.824-5.766-15.6-9.944-14.486-5.571,1.672,5.014,12.258,6.965,14.486" transform="translate(-406.371 -830.583)" fill="#9a9ca0"/>
        <path id="Trazado_4239" data-name="Trazado 4239" d="M471.381,1069.773a21.8,21.8,0,0,1,2.909,1.636c.918.6,1.8,1.242,2.66,1.93a24.57,24.57,0,0,1,2.444,2.235,12.863,12.863,0,0,1,2.016,2.7,30.913,30.913,0,0,1-2.83-1.744c-.9-.616-1.778-1.259-2.629-1.947a29.106,29.106,0,0,1-2.452-2.2,15.787,15.787,0,0,1-2.118-2.6" transform="translate(-377.512 -856.742)" fill="#6a6b6d"/>
        <path id="Trazado_4240" data-name="Trazado 4240" d="M522.441,1049.49a7.346,7.346,0,0,1,1.382,1.008l.313.288c.1.1.2.2.3.3.2.2.389.408.572.62a20.647,20.647,0,0,1,1.974,2.7,21.266,21.266,0,0,1,1.527,2.969c.109.257.209.519.3.784s.182.532.262.8a8.666,8.666,0,0,1,.335,1.672c-.728-.885-1.371-1.762-2-2.66s-1.216-1.807-1.783-2.734-1.114-1.863-1.639-2.816-1.023-1.915-1.543-2.933" transform="translate(-418.404 -840.499)" fill="#6a6b6d"/>
        <path id="Trazado_4241" data-name="Trazado 4241" d="M562.307,1152.691a.872.872,0,1,1-.872-.872.872.872,0,0,1,.872.872" transform="translate(-448.934 -922.45)" fill="#231f20"/>
        <path id="Trazado_4242" data-name="Trazado 4242" d="M593.855,1151.691a.872.872,0,1,1-.872-.872.872.872,0,0,1,.872.872" transform="translate(-474.2 -921.649)" fill="#231f20"/>
        <path id="Trazado_4243" data-name="Trazado 4243" d="M613.886,1168.58a23.509,23.509,0,0,0,4.491-.562c.159-.032.092-.275-.067-.244a23.143,23.143,0,0,1-4.424.553.126.126,0,0,0,0,.253" transform="translate(-491.541 -935.226)" fill="#17214e"/>
        <path id="Trazado_4244" data-name="Trazado 4244" d="M614.587,1179.206l3.775.244.543.035c.162.01.162-.242,0-.253l-3.775-.243-.543-.035c-.162-.01-.162.243,0,.253" transform="translate(-492.103 -944.181)" fill="#17214e"/>
        <path id="Trazado_4245" data-name="Trazado 4245" d="M512.86,1178.393l-4.627-.122-.666-.017a.126.126,0,0,0,0,.253l4.627.122.666.017a.126.126,0,0,0,0-.253" transform="translate(-406.394 -943.621)" fill="#17214e"/>
        <path id="Trazado_4246" data-name="Trazado 4246" d="M512.959,1185.256c-1.8.45-3.629.8-5.432,1.254a.126.126,0,0,0,.067.244c1.8-.45,3.629-.8,5.432-1.254a.126.126,0,0,0-.067-.244" transform="translate(-406.388 -949.225)" fill="#17214e"/>
        <path id="Trazado_4247" data-name="Trazado 4247" d="M569.1,1167.163c-4.179-.836-5.293,5.85-.278,6.408,4.457.557,7.243-7.243,1.95-6.686" transform="translate(-452.881 -934.492)" fill="#f2e5d2"/>
        <path id="Trazado_4248" data-name="Trazado 4248" d="M579.751,1165.131c-2.773.094-.511,1.841.041,1.841.737,0,3.072-1.843-.041-1.841" transform="translate(-463.219 -933.111)" fill="#17214e"/>
        <path id="Trazado_4249" data-name="Trazado 4249" d="M575.43,1171.61a1.75,1.75,0,0,1-.309,1.8,1.081,1.081,0,0,1-1.24.328.96.96,0,0,1-.417-.725c-.025-.16-.269-.092-.244.067a1.227,1.227,0,0,0,.447.819,1.012,1.012,0,0,0,.756.166,1.7,1.7,0,0,0,1.3-1.2,2.148,2.148,0,0,0-.047-1.328c-.052-.153-.3-.087-.244.067" transform="translate(-459.07 -938.177)" fill="#17214e"/>
        <path id="Trazado_4250" data-name="Trazado 4250" d="M585.243,1172.979c.1.6.06,1.363.512,1.831a1.181,1.181,0,0,0,.866.285,1.534,1.534,0,0,0,.847-.288,1.229,1.229,0,0,0,.509-.848c.02-.161-.233-.16-.253,0a1.119,1.119,0,0,1-1.088.883.93.93,0,0,1-.721-.231,1.551,1.551,0,0,1-.3-.758c-.058-.311-.078-.628-.128-.94-.026-.16-.27-.092-.244.067" transform="translate(-468.698 -939.27)" fill="#17214e"/>
        <path id="Trazado_4251" data-name="Trazado 4251" d="M305.38,634.665c-1.4,2.142-3.179,3.53-4.273,3.415-1.042.35-3.082-.616-4.913-2.4-2.1-2.045-3.125-4.393-2.3-5.245.694-.711,2.462-.153,4.249,1.24-.193-2.641.467-4.789,1.567-4.921,1.13-.136,2.313,1.912,2.717,4.638,1.48-1.885,3.18-2.911,4.045-2.348,1,.65.5,3.166-1.1,5.621" transform="translate(-235.142 -501.939)" fill="#f9a2c1"/>
        <path id="Trazado_4252" data-name="Trazado 4252" d="M294.754,693.8a27.1,27.1,0,0,1-23.093-.142l1.8-3.86,1.324-2.837,1.714-3.671,1.3-2.776,1.683-3.6v0l1.3-2.781,1.76-3.77a.9.9,0,0,1,1.627.011l3.113,6.888,1.679,3.715,2.268,5.014,1.6,3.536,1.855,4.106Z" transform="translate(-217.563 -536.452)" fill="#ef1664"/>
        <path id="Trazado_4253" data-name="Trazado 4253" d="M320.395,698.21c-2.652-.743-7.01-2.168-9.477-4.06v0l1.3-2.781a39.922,39.922,0,0,0,6.5,3.129Z" transform="translate(-249.003 -553.691)" fill="#f9a2c1"/>
        <path id="Trazado_4254" data-name="Trazado 4254" d="M312.28,732.445c-3.012-.55-12.228-2.487-16.321-6.231l1.3-2.776a46.633,46.633,0,0,0,13.427,5.472Z" transform="translate(-237.023 -579.375)" fill="#f9a2c1"/>
        <path id="Trazado_4255" data-name="Trazado 4255" d="M302,762.651a27.072,27.072,0,0,1-6.488,2.063c-3.982-.839-11.385-2.769-14.8-6.064l1.324-2.837c3.128,1.6,12.128,5.909,19.89,6.667Z" transform="translate(-224.806 -605.303)" fill="#f9a2c1"/>
        <path id="Trazado_4256" data-name="Trazado 4256" d="M244.095,380.209c0,2.094-1.357,2.212-3.03,2.212s-3.03-.118-3.03-2.212,3.03-4.242,3.03-4.242,3.03,2.148,3.03,4.242" transform="translate(-190.633 -301.099)" fill="#ef1664"/>
        <path id="Trazado_4257" data-name="Trazado 4257" d="M240.173,381.549c-1.449,0-3.252,0-3.252-2.434,0-2.184,3-4.332,3.124-4.423l.128-.091.128.091c.127.09,3.123,2.239,3.123,4.423,0,2.434-1.8,2.434-3.252,2.434m0-6.4c-.566.431-2.808,2.249-2.808,3.965,0,1.852,1.112,1.99,2.808,1.99s2.808-.138,2.808-1.99c0-1.719-2.241-3.534-2.808-3.965" transform="translate(-189.741 -300.005)" fill="#390075"/>
        <g id="Grupo_2233" data-name="Grupo 2233" transform="translate(47.402 74.868)" opacity="0.3">
          <g id="Grupo_2232" data-name="Grupo 2232">
            <g id="Grupo_2231" data-name="Grupo 2231" clip-path="url(#clip-path-3)">
              <path id="Trazado_4258" data-name="Trazado 4258" d="M244.095,380.209c0,2.094-1.357,2.212-3.03,2.212s-3.03-.118-3.03-2.212,3.03-4.242,3.03-4.242,3.03,2.148,3.03,4.242" transform="translate(-238.035 -375.967)" fill="#6b184e"/>
              <path id="Trazado_4259" data-name="Trazado 4259" d="M244.095,380.209c0,2.094-1.357,2.212-3.03,2.212s-3.03-.118-3.03-2.212,3.03-4.242,3.03-4.242S244.095,378.115,244.095,380.209Z" transform="translate(-238.035 -375.967)" fill="none" stroke="#390075"/>
            </g>
          </g>
        </g>
        <path id="Trazado_4260" data-name="Trazado 4260" d="M235.953,377.425c-1.287,0-4.3,0-4.3-3.483,0-2.674,3.2-5.02,3.566-5.279l.735-.521.735.521c.365.259,3.566,2.6,3.566,5.279,0,3.483-3.014,3.483-4.3,3.483m0-6.094c-.869.781-1.761,1.859-1.761,2.611,0,.8,0,.941,1.759.941s1.759-.144,1.759-.941c0-.758-.889-1.833-1.757-2.611" transform="translate(-185.522 -294.832)" fill="#6b184e"/>
        <path id="Trazado_4261" data-name="Trazado 4261" d="M171.393,33.462c0,20.674-12.129,41.409-27.09,41.409s-27.09-20.735-27.09-41.409S129.342,0,144.3,0s27.09,12.785,27.09,33.459" transform="translate(-93.872 -0.003)" fill="#ff9436"/>
        <path id="Trazado_4262" data-name="Trazado 4262" d="M227.145,462.758h-1.8a7.872,7.872,0,0,1,2.473-5.721,6.087,6.087,0,0,0,0-9.069,7.853,7.853,0,0,1,0-11.442,6.085,6.085,0,0,0,0-9.067,7.853,7.853,0,0,1,0-11.442,6.129,6.129,0,0,0,2.026-4.533h1.8a7.87,7.87,0,0,1-2.473,5.721,6.085,6.085,0,0,0,0,9.067,7.853,7.853,0,0,1,0,11.441,6.086,6.086,0,0,0,0,9.068,7.854,7.854,0,0,1,0,11.443,6.129,6.129,0,0,0-2.026,4.534" transform="translate(-180.471 -329.543)" fill="#6b184e"/>
        <g id="Grupo_2236" data-name="Grupo 2236" transform="translate(29.068 15.357)" opacity="0.4">
          <g id="Grupo_2235" data-name="Grupo 2235">
            <g id="Grupo_2234" data-name="Grupo 2234" clip-path="url(#clip-path-4)">
              <path id="Trazado_4263" data-name="Trazado 4263" d="M146.382,92.484c-1.188-4.676.13-11.866,4.893-14.915,3.693-2.364,2.363,5.374,1.865,7.272-1.22,4.655-5.737,11.662-6.758,7.643" transform="translate(-145.971 -77.123)" fill="#fff"/>
            </g>
          </g>
        </g>
        <g id="Grupo_2239" data-name="Grupo 2239" transform="translate(36.682 7.8)" opacity="0.4">
          <g id="Grupo_2238" data-name="Grupo 2238">
            <g id="Grupo_2237" data-name="Grupo 2237" clip-path="url(#clip-path-5)">
              <path id="Trazado_4264" data-name="Trazado 4264" d="M184.207,44.841c-.085-2.1,1.3-4.941,3.908-5.611,2.024-.52.578,2.544.141,3.274-1.072,1.79-3.975,4.145-4.049,2.337" transform="translate(-184.203 -39.17)" fill="#fff"/>
            </g>
          </g>
        </g>
        <path id="Trazado_4265" data-name="Trazado 4265" d="M968.638,881.006a.9.9,0,0,1-.788-.46l-2.3-4.078a19.892,19.892,0,0,1,.04-19.508,18.016,18.016,0,0,0,2.354-8.9v-3.095a.9.9,0,1,1,1.807,0v3.095a19.829,19.829,0,0,1-2.59,9.789,18.075,18.075,0,0,0-.036,17.727l2.3,4.078a.9.9,0,0,1-.787,1.348" transform="translate(-771.244 -675.981)" fill="#6b184e"/>
        <path id="Trazado_4266" data-name="Trazado 4266" d="M979.545,816.624c0,1.953-1.891,3.536-4.223,3.536s-4.223-1.583-4.223-3.536,1.891-3.536,4.223-3.536,4.223,1.583,4.223,3.536" transform="translate(-777.718 -651.173)" fill="#27a5f1"/>
        <g id="Grupo_2242" data-name="Grupo 2242" transform="translate(193.381 161.915)" opacity="0.3">
          <g id="Grupo_2241" data-name="Grupo 2241">
            <g id="Grupo_2240" data-name="Grupo 2240" clip-path="url(#clip-path-6)">
              <path id="Trazado_4267" data-name="Trazado 4267" d="M979.545,816.624c0,1.953-1.891,3.536-4.223,3.536s-4.223-1.583-4.223-3.536,1.891-3.536,4.223-3.536,4.223,1.583,4.223,3.536" transform="translate(-971.099 -813.088)" fill="#6b184e"/>
            </g>
          </g>
        </g>
        <path id="Trazado_4268" data-name="Trazado 4268" d="M919.764,570.258c0,15.7-10.748,28.434-24.007,28.434s-24.007-12.73-24.007-28.434,10.748-28.434,24.007-28.434,24.007,12.73,24.007,28.434" transform="translate(-698.152 -433.928)" fill="#683da3"/>
        <g id="Grupo_2245" data-name="Grupo 2245" transform="translate(177.225 120.7)" opacity="0.4">
          <g id="Grupo_2244" data-name="Grupo 2244">
            <g id="Grupo_2243" data-name="Grupo 2243" clip-path="url(#clip-path-7)">
              <path id="Trazado_4269" data-name="Trazado 4269" d="M890.376,621.48c-1.188-4.676.13-11.866,4.893-14.915,3.693-2.364,2.363,5.374,1.865,7.272-1.22,4.655-5.737,11.662-6.758,7.643" transform="translate(-889.966 -606.12)" fill="#fff"/>
            </g>
          </g>
        </g>
        <g id="Grupo_2248" data-name="Grupo 2248" transform="translate(184.838 113.142)" opacity="0.4">
          <g id="Grupo_2247" data-name="Grupo 2247">
            <g id="Grupo_2246" data-name="Grupo 2246" clip-path="url(#clip-path-8)">
              <path id="Trazado_4270" data-name="Trazado 4270" d="M928.2,573.837c-.086-2.1,1.3-4.941,3.907-5.611,2.024-.52.578,2.544.141,3.274-1.072,1.79-3.975,4.145-4.049,2.337" transform="translate(-928.197 -568.167)" fill="#fff"/>
            </g>
          </g>
        </g>
        <path id="Trazado_4271" data-name="Trazado 4271" d="M1081.641,771.248c0,1.953-1.891,3.536-4.223,3.536s-4.223-1.583-4.223-3.536,1.891-3.536,4.223-3.536,4.223,1.583,4.223,3.536" transform="translate(-859.482 -614.833)" fill="#ed4945"/>
        <g id="Grupo_2251" data-name="Grupo 2251" transform="translate(213.714 152.879)" opacity="0.3">
          <g id="Grupo_2250" data-name="Grupo 2250">
            <g id="Grupo_2249" data-name="Grupo 2249" clip-path="url(#clip-path-9)">
              <path id="Trazado_4272" data-name="Trazado 4272" d="M1081.641,771.248c0,1.953-1.891,3.536-4.223,3.536s-4.223-1.583-4.223-3.536,1.891-3.536,4.223-3.536,4.223,1.583,4.223,3.536" transform="translate(-1073.196 -767.712)" fill="#6b184e"/>
            </g>
          </g>
        </g>
        <path id="Trazado_4273" data-name="Trazado 4273" d="M1021.86,524.882c0,15.7-10.748,28.434-24.008,28.434s-24.007-12.73-24.007-28.434,10.748-28.434,24.007-28.434,24.008,12.73,24.008,28.434" transform="translate(-779.917 -397.588)" fill="#ed4945"/>
        <g id="Grupo_2254" data-name="Grupo 2254" transform="translate(197.556 111.664)" opacity="0.4">
          <g id="Grupo_2253" data-name="Grupo 2253">
            <g id="Grupo_2252" data-name="Grupo 2252" clip-path="url(#clip-path-7)">
              <path id="Trazado_4274" data-name="Trazado 4274" d="M992.473,576.1c-1.188-4.676.13-11.866,4.893-14.915,3.693-2.364,2.363,5.374,1.865,7.272-1.22,4.655-5.737,11.662-6.758,7.643" transform="translate(-992.062 -560.744)" fill="#fff"/>
            </g>
          </g>
        </g>
        <g id="Grupo_2257" data-name="Grupo 2257" transform="translate(205.169 104.106)" opacity="0.4">
          <g id="Grupo_2256" data-name="Grupo 2256">
            <g id="Grupo_2255" data-name="Grupo 2255" clip-path="url(#clip-path-8)">
              <path id="Trazado_4275" data-name="Trazado 4275" d="M1030.3,528.462c-.086-2.1,1.3-4.941,3.908-5.611,2.024-.52.578,2.544.141,3.274-1.072,1.79-3.975,4.145-4.049,2.337" transform="translate(-1030.293 -522.791)" fill="#fff"/>
            </g>
          </g>
        </g>
        <path id="Trazado_4276" data-name="Trazado 4276" d="M1082.74,844.671a.9.9,0,0,1-.837-1.243l1.347-3.323a13.72,13.72,0,0,0-4.768-16.38,15.491,15.491,0,0,1-5.332-18.683l2.422-5.8a.9.9,0,0,1,1.668.7l-2.422,5.8a13.694,13.694,0,0,0,4.713,16.514,15.52,15.52,0,0,1,5.394,18.531l-1.347,3.323a.9.9,0,0,1-.838.564" transform="translate(-858.469 -639.64)" fill="#6b184e"/>
        <path id="Trazado_4277" data-name="Trazado 4277" d="M979.693,1075.359v26.213a.432.432,0,0,1-.457.4H942.214a1.718,1.718,0,0,1-1.083-.369,1.3,1.3,0,0,1-.516-1.02v-24.228a1.5,1.5,0,0,1,1.6-1.39h37.023a.432.432,0,0,1,.457.4" transform="translate(-753.303 -860.898)" fill="#ff9436"/>
        <rect id="Rectángulo_1192" data-name="Rectángulo 1192" width="7.747" height="27.007" transform="translate(203.247 214.064)" fill="#27a5f1"/>
        <g id="Grupo_2260" data-name="Grupo 2260" transform="translate(203.247 214.573)" opacity="0.2">
          <g id="Grupo_2259" data-name="Grupo 2259">
            <g id="Grupo_2258" data-name="Grupo 2258" clip-path="url(#clip-path-12)">
              <rect id="Rectángulo_1193" data-name="Rectángulo 1193" width="7.746" height="2.073" transform="translate(0.001)" fill="#4d1c54"/>
            </g>
          </g>
        </g>
        <g id="Grupo_2263" data-name="Grupo 2263" transform="translate(203.247 233.958)" opacity="0.2">
          <g id="Grupo_2262" data-name="Grupo 2262">
            <g id="Grupo_2261" data-name="Grupo 2261" clip-path="url(#clip-path-13)">
              <rect id="Rectángulo_1195" data-name="Rectángulo 1195" width="7.746" height="7.114" transform="translate(0.001)" fill="#4d1c54"/>
            </g>
          </g>
        </g>
        <g id="Grupo_2266" data-name="Grupo 2266" transform="translate(201.783 190.41)" opacity="0.2">
          <g id="Grupo_2265" data-name="Grupo 2265">
            <g id="Grupo_2264" data-name="Grupo 2264" clip-path="url(#clip-path-14)">
              <path id="Trazado_4278" data-name="Trazado 4278" d="M1017.706,967.957c-4.1-2.859-4.406-9.994-4.421-11.592a.18.18,0,0,1,.282-.15c.935.648,3.9,3.356,4.14,11.742" transform="translate(-1013.286 -956.182)" fill="#4d1c54"/>
            </g>
          </g>
        </g>
        <g id="Grupo_2269" data-name="Grupo 2269" transform="translate(207.803 190.41)" opacity="0.2">
          <g id="Grupo_2268" data-name="Grupo 2268">
            <g id="Grupo_2267" data-name="Grupo 2267" clip-path="url(#clip-path-15)">
              <path id="Trazado_4279" data-name="Trazado 4279" d="M1047.94,956.355v.009c0,.022,0,.045,0,.07,0,.139-.005.312-.014.513,0,.077-.005.157-.011.241-.016.364-.047.8-.1,1.29-.011.1-.022.207-.034.313-.027.243-.061.5-.1.762-.009.067-.02.133-.031.2-.056.36-.124.735-.205,1.117-.015.072-.031.144-.047.218-.057.258-.121.519-.191.78-.018.07-.038.14-.058.211-.052.187-.108.375-.167.564l-.065.2c-.027.083-.054.164-.084.247s-.051.146-.078.22c-.11.3-.229.593-.36.884-.033.072-.065.144-.1.216a10.549,10.549,0,0,1-.816,1.448l-.09.13c-.06.086-.122.173-.185.256l-.114.148c-.018.024-.036.047-.056.069-.047.06-.1.119-.146.177a7.243,7.243,0,0,1-.881.877c-.079.068-.158.131-.241.195s-.162.122-.245.18c.25-8.334,3.2-11.027,4.137-11.674a.181.181,0,0,1,.283.141" transform="translate(-1043.52 -956.182)" fill="#4d1c54"/>
            </g>
          </g>
        </g>
        <path id="Trazado_4280" data-name="Trazado 4280" d="M979.971,969.3a94.9,94.9,0,0,1-10.223-3.53,19.681,19.681,0,0,1-2.389-1.217,6.065,6.065,0,0,1-.849-.617,1.077,1.077,0,0,1-.241-1.294c.738-1.46,3.073-4.984,9.034-6.83a.18.18,0,0,1,.234.171c0,.194.006.5.026.888a24.154,24.154,0,0,0,.434,3.549c.52,2.59,1.623,5.607,3.962,7.236.016.524.02,1.074.012,1.644" transform="translate(-773.755 -765.468)" fill="#27a5f1"/>
        <g id="Grupo_2272" data-name="Grupo 2272" transform="translate(192.704 190.642)" opacity="0.6">
          <g id="Grupo_2271" data-name="Grupo 2271">
            <g id="Grupo_2270" data-name="Grupo 2270" clip-path="url(#clip-path-16)">
              <path id="Trazado_4281" data-name="Trazado 4281" d="M977.108,958.413c-4.945,1.724-7.348,4.676-8.191,6.154a1.5,1.5,0,0,0-.012,1.527,6.055,6.055,0,0,1-.849-.617,1.077,1.077,0,0,1-.242-1.294c.738-1.46,3.074-4.984,9.034-6.829a.18.18,0,0,1,.234.171c0,.194.006.5.026.888" transform="translate(-967.696 -957.347)" fill="#fff"/>
            </g>
          </g>
        </g>
        <g id="Grupo_2275" data-name="Grupo 2275" transform="translate(195.941 194.95)" opacity="0.3">
          <g id="Grupo_2274" data-name="Grupo 2274">
            <g id="Grupo_2273" data-name="Grupo 2273" clip-path="url(#clip-path-17)">
              <path id="Trazado_4282" data-name="Trazado 4282" d="M994.227,987.857A94.9,94.9,0,0,1,984,984.327l-.052-.152s3.517,1.136,4.243.466c.651-.6-2.047-3.04-2.211-3.169.2.132,4.492,3.225,4.368,1.569-.129-1.7-.573-2.136-.23-3.832a.315.315,0,0,1,.131-.232c.52,2.59,1.623,5.607,3.962,7.236q.023.787.012,1.644" transform="translate(-983.952 -978.977)" fill="#6b184e"/>
            </g>
          </g>
        </g>
        <path id="Trazado_4283" data-name="Trazado 4283" d="M1017.706,967.957c-4.1-2.859-4.406-9.994-4.421-11.592a.18.18,0,0,1,.282-.15c.935.648,3.9,3.356,4.14,11.742" transform="translate(-811.503 -765.772)" fill="#27a5f1"/>
        <g id="Grupo_2278" data-name="Grupo 2278" transform="translate(201.783 190.41)" opacity="0.3">
          <g id="Grupo_2277" data-name="Grupo 2277">
            <g id="Grupo_2276" data-name="Grupo 2276" clip-path="url(#clip-path-14)">
              <path id="Trazado_4284" data-name="Trazado 4284" d="M1017.706,967.957c-4.1-2.859-4.406-9.994-4.421-11.592a.18.18,0,0,1,.282-.15c.935.648,3.9,3.356,4.14,11.742" transform="translate(-1013.286 -956.182)" fill="#6b184e"/>
            </g>
          </g>
        </g>
        <path id="Trazado_4285" data-name="Trazado 4285" d="M1056.893,963.935c-2.574,2.307-13.461,5.364-13.461,5.364-.007-.6,0-1.167.014-1.713.083-.058.166-.117.245-.18s.162-.126.241-.195a7.218,7.218,0,0,0,.881-.877c.05-.057.1-.117.146-.176.02-.022.038-.045.056-.068l.114-.148c.063-.083.126-.169.186-.256l.09-.13a10.544,10.544,0,0,0,.816-1.448c.034-.072.067-.144.1-.216.131-.292.25-.587.36-.884.027-.074.052-.146.078-.22s.058-.164.085-.247l.065-.2c.059-.189.115-.376.167-.564.02-.07.04-.141.058-.211.07-.261.133-.522.191-.78.016-.074.032-.146.047-.218.081-.382.149-.757.205-1.117.011-.067.021-.133.031-.2.04-.263.074-.519.1-.762.012-.106.023-.211.034-.313.052-.488.083-.926.1-1.29.006-.085.009-.164.011-.241.009-.2.012-.375.014-.513,0-.025,0-.049,0-.07v-.079a.18.18,0,0,1,.234-.169c5.96,1.844,8.295,5.37,9.033,6.829a1.077,1.077,0,0,1-.241,1.293" transform="translate(-835.644 -765.47)" fill="#27a5f1"/>
        <path id="Trazado_4286" data-name="Trazado 4286" d="M1047.94,956.355v.009c0,.022,0,.045,0,.07,0,.139-.005.312-.014.513,0,.077-.005.157-.011.241-.016.364-.047.8-.1,1.29-.011.1-.022.207-.034.313-.027.243-.061.5-.1.762-.009.067-.02.133-.031.2-.056.36-.124.735-.205,1.117-.015.072-.031.144-.047.218-.057.258-.121.519-.191.78-.018.07-.038.14-.058.211-.052.187-.108.375-.167.564l-.065.2c-.027.083-.054.164-.084.247s-.051.146-.078.22c-.11.3-.229.593-.36.884-.033.072-.065.144-.1.216a10.549,10.549,0,0,1-.816,1.448l-.09.13c-.06.086-.122.173-.185.256l-.114.148c-.018.024-.036.047-.056.069-.047.06-.1.119-.146.177a7.243,7.243,0,0,1-.881.877c-.079.068-.158.131-.241.195s-.162.122-.245.18c.25-8.334,3.2-11.027,4.137-11.674a.181.181,0,0,1,.283.141" transform="translate(-835.717 -765.772)" fill="#2b9b1b"/>
        <path id="Trazado_4287" data-name="Trazado 4287" d="M1047.94,956.355v.009c0,.022,0,.045,0,.07,0,.139-.005.312-.014.513,0,.077-.005.157-.011.241-.016.364-.047.8-.1,1.29-.011.1-.022.207-.034.313-.027.243-.061.5-.1.762-.009.067-.02.133-.031.2-.056.36-.124.735-.205,1.117-.015.072-.031.144-.047.218-.057.258-.121.519-.191.78-.018.07-.038.14-.058.211-.052.187-.108.375-.167.564l-.065.2c-.027.083-.054.164-.084.247s-.051.146-.078.22c-.11.3-.229.593-.36.884-.033.072-.065.144-.1.216a10.549,10.549,0,0,1-.816,1.448l-.09.13c-.06.086-.122.173-.185.256l-.114.148c-.018.024-.036.047-.056.069-.047.06-.1.119-.146.177a7.243,7.243,0,0,1-.881.877c-.079.068-.158.131-.241.195s-.162.122-.245.18c.25-8.334,3.2-11.027,4.137-11.674a.181.181,0,0,1,.283.141" transform="translate(-835.717 -765.772)" fill="#27a5f1"/>
        <g id="Grupo_2281" data-name="Grupo 2281" transform="translate(207.803 190.41)" opacity="0.3">
          <g id="Grupo_2280" data-name="Grupo 2280">
            <g id="Grupo_2279" data-name="Grupo 2279" clip-path="url(#clip-path-15)">
              <path id="Trazado_4288" data-name="Trazado 4288" d="M1047.94,956.355v.009c0,.022,0,.045,0,.07,0,.139-.005.312-.014.513,0,.077-.005.157-.011.241-.016.364-.047.8-.1,1.29-.011.1-.022.207-.034.313-.027.243-.061.5-.1.762-.009.067-.02.133-.031.2-.056.36-.124.735-.205,1.117-.015.072-.031.144-.047.218-.057.258-.121.519-.191.78-.018.07-.038.14-.058.211-.052.187-.108.375-.167.564l-.065.2c-.027.083-.054.164-.084.247s-.051.146-.078.22c-.11.3-.229.593-.36.884-.033.072-.065.144-.1.216a10.549,10.549,0,0,1-.816,1.448l-.09.13c-.06.086-.122.173-.185.256l-.114.148c-.018.024-.036.047-.056.069-.047.06-.1.119-.146.177a7.243,7.243,0,0,1-.881.877c-.079.068-.158.131-.241.195s-.162.122-.245.18c.25-8.334,3.2-11.027,4.137-11.674a.181.181,0,0,1,.283.141" transform="translate(-1043.52 -956.182)" fill="#6b184e"/>
            </g>
          </g>
        </g>
        <g id="Grupo_2284" data-name="Grupo 2284" transform="translate(207.803 194.95)" opacity="0.3">
          <g id="Grupo_2283" data-name="Grupo 2283">
            <g id="Grupo_2282" data-name="Grupo 2282" clip-path="url(#clip-path-17)">
              <path id="Trazado_4289" data-name="Trazado 4289" d="M1043.523,987.857a94.913,94.913,0,0,0,10.223-3.53l.052-.152s-3.517,1.136-4.243.466c-.651-.6,2.047-3.04,2.211-3.169-.2.132-4.492,3.225-4.367,1.569.129-1.7.573-2.136.23-3.832a.314.314,0,0,0-.131-.232c-.52,2.59-1.623,5.607-3.962,7.236q-.023.787-.012,1.644" transform="translate(-1043.519 -978.977)" fill="#6b184e"/>
            </g>
          </g>
        </g>
        <path id="Trazado_4290" data-name="Trazado 4290" d="M1026.374,1008.681a2.649,2.649,0,0,1,5.3,0" transform="translate(-821.985 -805.695)" fill="#2b9b1b"/>
        <g id="Grupo_2287" data-name="Grupo 2287" transform="translate(204.388 200.337)" opacity="0.2">
          <g id="Grupo_2286" data-name="Grupo 2286">
            <g id="Grupo_2285" data-name="Grupo 2285" clip-path="url(#clip-path-21)">
              <path id="Trazado_4291" data-name="Trazado 4291" d="M1026.374,1008.681a2.649,2.649,0,0,1,5.3,0" transform="translate(-1026.373 -1006.032)" fill="#4d1c54"/>
            </g>
          </g>
        </g>
        <g id="Grupo_2290" data-name="Grupo 2290" transform="translate(211.915 190.642)" opacity="0.6">
          <g id="Grupo_2289" data-name="Grupo 2289">
            <g id="Grupo_2288" data-name="Grupo 2288" clip-path="url(#clip-path-22)">
              <path id="Trazado_4292" data-name="Trazado 4292" d="M1064.172,958.413c4.945,1.724,7.348,4.676,8.191,6.154a1.5,1.5,0,0,1,.012,1.527,6.035,6.035,0,0,0,.849-.617,1.077,1.077,0,0,0,.242-1.294c-.738-1.46-3.073-4.984-9.034-6.829a.18.18,0,0,0-.234.171c0,.194-.006.5-.026.888" transform="translate(-1064.172 -957.347)" fill="#fff"/>
            </g>
          </g>
        </g>
        <path id="Trazado_4293" data-name="Trazado 4293" d="M1026.374,1008.681a2.649,2.649,0,0,1,5.3,0" transform="translate(-821.985 -805.695)" fill="#27a5f1"/>
        <path id="Trazado_4294" data-name="Trazado 4294" d="M972.669,1018.74v10.754a.429.429,0,0,1-.457.4h-42.2a1.485,1.485,0,0,1-1.579-1.372V1019.8a1.487,1.487,0,0,1,1.579-1.372h42.3a.332.332,0,0,1,.352.308" transform="translate(-743.549 -815.625)" fill="#ff9436"/>
        <g id="Grupo_2293" data-name="Grupo 2293" transform="translate(185.66 202.466)" opacity="0.3">
          <g id="Grupo_2292" data-name="Grupo 2292">
            <g id="Grupo_2291" data-name="Grupo 2291" clip-path="url(#clip-path-23)">
              <path id="Trazado_4295" data-name="Trazado 4295" d="M975.691,1018.31v10.055h-2.476v-.076H933.85a1.453,1.453,0,0,1-1.524-1.371v-2.632a1.453,1.453,0,0,0,1.524,1.371h35.607a3.537,3.537,0,0,0,3.757-3.264v-5.669h.891a1.586,1.586,0,0,1,1.586,1.586" transform="translate(-932.326 -1016.724)" fill="#6b184e"/>
            </g>
          </g>
        </g>
        <rect id="Rectángulo_1207" data-name="Rectángulo 1207" width="7.747" height="11.459" transform="translate(203.202 202.807)" fill="#27a5f1"/>
        <g id="Grupo_2296" data-name="Grupo 2296" transform="translate(203.203 202.807)" opacity="0.6">
          <g id="Grupo_2295" data-name="Grupo 2295">
            <g id="Grupo_2294" data-name="Grupo 2294" clip-path="url(#clip-path-24)">
              <rect id="Rectángulo_1208" data-name="Rectángulo 1208" width="7.746" height="1.683" transform="translate(0)" fill="#fff"/>
            </g>
          </g>
        </g>
        <g id="Grupo_2299" data-name="Grupo 2299" transform="translate(203.203 211.381)" opacity="0.2">
          <g id="Grupo_2298" data-name="Grupo 2298">
            <g id="Grupo_2297" data-name="Grupo 2297" clip-path="url(#clip-path-25)">
              <rect id="Rectángulo_1210" data-name="Rectángulo 1210" width="7.746" height="2.727" transform="translate(0)" fill="#4d1c54"/>
            </g>
          </g>
        </g>
        <path id="Trazado_4296" data-name="Trazado 4296" d="M784.5,175.75a17.392,17.392,0,0,0-6.347-.468,24.682,24.682,0,0,1-6.9-.2c-.415-.1-.983-.132-1.036-.571-.048-.4.521-.485.861-.651a12.68,12.68,0,0,0,5.3-4.49,2.672,2.672,0,0,0,0-3.2,2.759,2.759,0,0,0-2.831-1.071,8.081,8.081,0,0,0-7.122,6.954c-.05.4-.159.618-.573.548-1.949-.324-3.478-1.1-4.011-3.407a4.887,4.887,0,0,1,2.178-5.207,9.538,9.538,0,0,0,4.446-3.989,1.844,1.844,0,0,0-1.193-2.839,2.328,2.328,0,0,0-2.013.469,11.432,11.432,0,0,0-3.369,4.2A2.048,2.048,0,0,1,760.255,163a10.891,10.891,0,0,1-4.664-.195c-1.794-.461-3.654-1.08-4.3-3.092-.33-1.03-1.045-1.2-1.859-1.427-.5-.135-.588.025-.551.527a5.682,5.682,0,0,0,1.956,4.011c2.2,1.945,4.88,2.38,7.669,2.388,1.838.005,1.775-.06,1.424,1.79-.374,1.969-.311,3.868,1.153,5.513a7.212,7.212,0,0,0,5.145,2.213,1.854,1.854,0,0,1,1.523.607,5.587,5.587,0,0,0,3.936,2.1,39.14,39.14,0,0,0,9.454-.332,5.1,5.1,0,0,1,4.714,1.363c.2.218.41.5.769.522.389-1.422-.449-2.706-2.121-3.238m-18.552-16.334c.274-.146.564-.415.843-.085a.646.646,0,0,1-.112.871,7.426,7.426,0,0,1-2.587,1.736,3.829,3.829,0,0,1,1.856-2.522m2.68,12.067a6.508,6.508,0,0,1,4.358-4.115c.938-.108,1.422.335,1.293,1.183a1.239,1.239,0,0,1-.353.759,11.034,11.034,0,0,1-4.526,2.868c-.584.2-.894-.031-.772-.695" transform="translate(-599.745 -125.812)" fill="#ee9623"/>
        <path id="Trazado_4297" data-name="Trazado 4297" d="M415.336,238.635a8.945,8.945,0,0,1,4.465,4.037,4.35,4.35,0,0,1-1.595,5.169c-.975.744-2,1.418-3.007,2.124a3.336,3.336,0,0,0-1.312,1.562,41.488,41.488,0,0,0,6.4-.946,6.358,6.358,0,0,0,.727-.239c2.583-.732,3.768.194,3.732,2.9a5.43,5.43,0,0,1-2.5,4.511,6.99,6.99,0,0,0-2.127,1.769,5.027,5.027,0,0,0,2.287-.086c1.63-.429,3.282-.81,4.863-1.38,2.173-.784,3.728.325,3.548,2.7a7.96,7.96,0,0,1-1.964,4.39c-1.467,1.851-3.1,3.032-5.635,2.438.522-2.582,3.345-3.648,4.514-6.271a54.752,54.752,0,0,1-6.428,1.46,7.039,7.039,0,0,1-4.461-.686c-1.482-.894-1.659-2.028-.436-3.216,1.1-1.067,2.324-2,3.5-2.983a3.613,3.613,0,0,0,1.466-2.273c-1.617.3-3.1.613-4.6.855a9.109,9.109,0,0,1-4.554-.17,2.675,2.675,0,0,1-1.391-4.4,7.52,7.52,0,0,1,2.884-2.462,7.006,7.006,0,0,0,2.314-1.474,2.187,2.187,0,0,0,.368-2.812c-1.122-1.9-1.142-1.89-1.058-4.513" transform="translate(-328.47 -191.115)" fill="#ed4945"/>
        <path id="Trazado_4298" data-name="Trazado 4298" d="M298.616,535.637c.325.077.72.4.96.037.193-.289-.2-.576-.369-.824a17.148,17.148,0,0,1-1.939-3.695,3.632,3.632,0,0,1-.047-2.622c.357-.969.925-1.235,1.822-.738,1.188.658,2.314,1.427,3.478,2.129a2.449,2.449,0,0,0,.36.178c.192.077.45.168.607-.018s-.021-.392-.113-.583q-.818-1.686-1.622-3.379a4.219,4.219,0,0,1-.353-2.094,1.9,1.9,0,0,1,2.679-1.72,6.793,6.793,0,0,1,2.608,1.828c1.326,1.472,2.318,1.39,3.465-.216.544-.762,1.55-.349,2.216-.925-.168,3.3-2.22,5.225-4.747,4.275a8.383,8.383,0,0,1-2.244-1.62c-.471-.387-1-1.216-1.575-.795-.485.353.324,1.072.519,1.558a16.028,16.028,0,0,0,1.761,3.274,1.192,1.192,0,0,1,.028,1.592c-1.033,1.471-3.433,1.6-5.1.255-.469-.379-.925-.773-1.515-1.266a2.316,2.316,0,0,0,.482,1.591,25.8,25.8,0,0,0,2.276,3.5c.532.6.316,1.434-.485,2.028a3.721,3.721,0,0,1-3.59.315,12.534,12.534,0,0,1-2.418-1.127,2.682,2.682,0,0,1-.97-1.819c-.11-.5.186-.593.58-.592l.379.077c.983.408,1.847,1.061,2.867,1.4" transform="translate(-236.067 -418.174)" fill="#ef9623"/>
        <path id="Trazado_4299" data-name="Trazado 4299" d="M309.625,148.8a21.048,21.048,0,0,1,.9-5.589,4.108,4.108,0,0,1,4.457-3.118,8.542,8.542,0,0,1,3.312.852c.54.244.581.476.223.953-2.4,3.2-2.906,6.879-2.608,10.731.054.706,0,.891-.759.684a5.422,5.422,0,0,0-4.056.63c-.784.424-.864.086-.991-.524a42.719,42.719,0,0,1-.48-4.619" transform="translate(-247.967 -112.194)" fill="#ee9623"/>
        <path id="Trazado_4300" data-name="Trazado 4300" d="M554.4,182.821a12.525,12.525,0,0,1,3.072,1.379,2.444,2.444,0,0,1,1.1,3.042,5.08,5.08,0,0,1-1,1.772c-.223.272-.363.26-.582-.019a9.018,9.018,0,0,0-5.764-3.152c-.414-.077-.512-.137-.276-.541a3.226,3.226,0,0,0,.263-2.428c-.123-.516.084-.51.454-.488a25.419,25.419,0,0,1,2.728.436" transform="translate(-441.142 -146.061)" fill="#bb60ef"/>
        <path id="Trazado_4301" data-name="Trazado 4301" d="M183.105,346.884a30.029,30.029,0,0,1,5.934-5.477c2.8-1.782,5.17-1.7,7.747.427a12.185,12.185,0,0,1,2.967,3.873c.391.749.232,1.046-.589,1.266-5.512,1.474-9.318,5.159-12.378,9.744-.561.84-.785,1-1.454.1a7.733,7.733,0,0,0-5.106-2.865c-1.254-.215-1.045-.665-.65-1.461a60.987,60.987,0,0,1,3.529-5.606" transform="translate(-143.572 -272.412)" fill="#35b7eb"/>
        <path id="Trazado_4302" data-name="Trazado 4302" d="M957.591,377.945a30.029,30.029,0,0,0-3.845-7.1c-2.078-2.592-4.343-3.28-7.47-2.1a12.186,12.186,0,0,0-4.059,2.706c-.612.582-.558.915.148,1.388,4.74,3.176,7.151,7.894,8.565,13.221.259.977.42,1.2,1.344.564a7.732,7.732,0,0,1,5.758-1.061c1.256.2,1.2-.292,1.087-1.172a60.958,60.958,0,0,0-1.528-6.446" transform="translate(-754.248 -294.868)" fill="#ed4945"/>
        <path id="Trazado_4303" data-name="Trazado 4303" d="M665.4,312.543a7.658,7.658,0,0,0,6.344.374c.474-.166.619.056.6.5-.18,4.262-.461,8.5-2.541,12.374-1.631,3.034-4.63,3.79-8.206,2.064-2.238-1.08-2.29-1.195-.714-3.007a19.179,19.179,0,0,0,4.394-10.783c.053-.46.076-.923.124-1.525" transform="translate(-528.408 -250.305)" fill="#bb60ef"/>
        <path id="Trazado_4304" data-name="Trazado 4304" d="M820.755,552.577c-.387-.681-1.018.08-1.471.278a4.182,4.182,0,0,1-3.836-.033c-.226-.122-.507-.342-.554-.561-.071-.332.332-.4.561-.488a7.908,7.908,0,0,0,2.856-1.993c1.048-1.105,1.293-2.241.636-3.148a2.92,2.92,0,0,0-3.44-.53,6.744,6.744,0,0,0-3.148,3.336c-.21.422-.379,1.006-.971.792-1.515-.549-2.78.542-4.232.523a6.484,6.484,0,0,0,3.89,1.817c.405.087.749.082,1,.606,1.272,2.689,5.954,3.558,8.2,1.543a1.794,1.794,0,0,0,.514-2.142m-6.466-2.927a3.448,3.448,0,0,1,1.923-1.878.825.825,0,0,1,.893.405c.188.391-.05.69-.37.867-.676.37-1.376.7-1.923.976-.474.059-.582-.04-.523-.37" transform="translate(-646.422 -437.1)" fill="#35b7eb"/>
        <path id="Trazado_4305" data-name="Trazado 4305" d="M810.039,390.329c-.32-.563-.842.066-1.216.23a3.459,3.459,0,0,1-3.173-.027c-.187-.1-.419-.283-.458-.464-.058-.275.275-.329.464-.4a6.541,6.541,0,0,0,2.362-1.649c.867-.914,1.07-1.853.526-2.6a2.415,2.415,0,0,0-2.845-.439,5.578,5.578,0,0,0-2.6,2.76c-.173.349-.314.832-.8.655a3.162,3.162,0,0,0-2.124.161.654.654,0,0,0-.089,1.216,9.544,9.544,0,0,0,1.93.558c.335.072.62.068.824.5,1.052,2.224,4.925,2.943,6.78,1.276a1.483,1.483,0,0,0,.425-1.772m-5.348-2.421a2.852,2.852,0,0,1,1.59-1.553.683.683,0,0,1,.739.335c.156.324-.041.571-.306.717-.559.306-1.138.579-1.59.807-.392.049-.481-.033-.433-.306" transform="translate(-640.455 -308.102)" fill="#ed4945"/>
      </g>
    </g>
  </g>
</svg>
