<svg id="Grupo_2225" data-name="Grupo 2225" xmlns="http://www.w3.org/2000/svg" xmlns:xlink="http://www.w3.org/1999/xlink" width="295.5" height="212.067" viewBox="0 0 295.5 212.067">
  <defs>
    <clipPath id="clip-path">
      <rect id="Rectángulo_1170" data-name="Rectángulo 1170" width="295.5" height="212.067" fill="none"/>
    </clipPath>
    <clipPath id="clip-path-3">
      <rect id="Rectángulo_1157" data-name="Rectángulo 1157" width="4.647" height="2.673" fill="none"/>
    </clipPath>
    <clipPath id="clip-path-4">
      <path id="Trazado_4045" data-name="Trazado 4045" d="M213.205,208.1c-8.684,2.2-14.165,9.633-10.955,18.7s5.855,10.388,7.556,15.487,3.966,11.9,17.187,12.088,15.676-10.388,15.676-17.565-2.723-10.955-2.723-10.955,2.912-3.4,1.023-6.61-6.8-3.4-6.8,2.266c0,0-6.231-13.863-17.419-13.864a14.387,14.387,0,0,0-3.545.454" transform="translate(-201.323 -207.646)" fill="none"/>
    </clipPath>
    <clipPath id="clip-path-5">
      <rect id="Rectángulo_1160" data-name="Rectángulo 1160" width="9.68" height="10.32" fill="none"/>
    </clipPath>
    <clipPath id="clip-path-6">
      <rect id="Rectángulo_1161" data-name="Rectángulo 1161" width="9.68" height="10.319" fill="none"/>
    </clipPath>
    <clipPath id="clip-path-8">
      <path id="Trazado_4054" data-name="Trazado 4054" d="M225.475,390.531c-4.817,2.59-16.336,6.476-20.809,10.254s-8.873,37.774-8.986,42.81,6.408,14.858,8.986,12.843,6.991-24.678,6.991-24.678c.252,4.532,0,54.141,0,54.141,26.694,3.022,77.059-1.511,77.059-1.511-.252-.755-11.836-58.424-14.607-70.511S263.282,397.007,257,394.49s-19.464-5.29-19.464-5.29c-4.848,4.029-12.058,1.331-12.058,1.331" transform="translate(-195.679 -389.2)" fill="none"/>
    </clipPath>
    <clipPath id="clip-path-10">
      <rect id="Rectángulo_1166" data-name="Rectángulo 1166" width="15.837" height="19.2" fill="none"/>
    </clipPath>
    <clipPath id="clip-path-11">
      <rect id="Rectángulo_1163" data-name="Rectángulo 1163" width="10.061" height="15.807" fill="none"/>
    </clipPath>
    <clipPath id="clip-path-12">
      <rect id="Rectángulo_1164" data-name="Rectángulo 1164" width="10.294" height="16.09" fill="none"/>
    </clipPath>
    <clipPath id="clip-path-13">
      <rect id="Rectángulo_1165" data-name="Rectángulo 1165" width="10.629" height="17.239" fill="none"/>
    </clipPath>
    <clipPath id="clip-path-14">
      <rect id="Rectángulo_1167" data-name="Rectángulo 1167" width="6.743" height="7.189" fill="none"/>
    </clipPath>
  </defs>
  <g id="Grupo_2224" data-name="Grupo 2224" clip-path="url(#clip-path)">
    <g id="Grupo_2191" data-name="Grupo 2191">
      <g id="Grupo_2190" data-name="Grupo 2190" clip-path="url(#clip-path)">
        <path id="Trazado_3984" data-name="Trazado 3984" d="M292.1,167.733c-5.883,19.113-17.767,32.834-30.786,40.786l-.216.131H14.434c-.022-.045-.045-.087-.065-.131C3.417,186.768-.655,157.023.084,133.852c.083-2.6,2.418-58.969,29.546-82.138,2.8-2.4,10.341-8.667,20.611-9.241,8.045-.449,15.046,2.751,20.776,6.81a68.853,68.853,0,0,1,8.048,6.792c1.887,1.824,3.505,3.529,4.843,4.881.446.452,1.057.111,1.2-.667q.188-1.05.4-2.106c.581-2.9,1.308-5.834,2.2-8.774q.97-3.185,2.13-6.143c12.831-32.84,42.054-44.641,63.143-43.14,1.709.12,38.168,3.5,54.141,42.078q.425,1.018.827,2.072c.606,1.585,1.586,4.187,2.588,7.641.243.834.488,1.72.727,2.65A91.314,91.314,0,0,1,213.3,64.873c.115.819.744,1.205,1.21.739.539-.544,1.113-1.077,1.731-1.6a28.967,28.967,0,0,1,4.4-3.057c.163-.093.323-.182.486-.272.1-.054.19-.1.286-.156,15.41-8.284,33.377-2.4,45.95,9.669,20.646,19.813,35,64.212,24.738,97.536" transform="translate(0 0)" fill="#e6ecff"/>
        <path id="Trazado_3985" data-name="Trazado 3985" d="M449.18,259.7s-3.4,6.758-1.46,13c0,0-12.5,4.158-18.059-2.08l6.39-20.239Z" transform="translate(-304.774 -177.602)" fill="#d6a38a"/>
        <path id="Trazado_3986" data-name="Trazado 3986" d="M456.439,118.076c-6.336,16.258-21.684,25.459-34.28,20.55s-17.672-22.069-11.336-38.327S432.506,74.84,445.1,79.749s17.672,22.069,11.336,38.327" transform="translate(-289.476 -55.632)" fill="#f4bd9e"/>
        <path id="Trazado_3987" data-name="Trazado 3987" d="M409.49,135.8c-1.047,2.839-3.719,4.469-5.968,3.64s-3.225-3.8-2.178-6.643,3.719-4.47,5.968-3.64,3.224,3.8,2.178,6.643" transform="translate(-284.39 -91.463)" fill="#f4bd9e"/>
        <path id="Trazado_3988" data-name="Trazado 3988" d="M560.091,212.185c-1.048,2.839-3.719,4.469-5.968,3.64s-3.225-3.8-2.178-6.643,3.718-4.47,5.968-3.64,3.224,3.8,2.178,6.643" transform="translate(-391.217 -145.645)" fill="#f4bd9e"/>
        <path id="Trazado_3989" data-name="Trazado 3989" d="M541.678,203.88c-.747,1.268-1.892,1.981-2.558,1.589s-.6-1.738.145-3.008,1.891-1.983,2.557-1.591.6,1.738-.144,3.01" transform="translate(-382.091 -142.408)" fill="#1d1815"/>
        <path id="Trazado_3990" data-name="Trazado 3990" d="M468.332,175.938c-.747,1.272-1.892,1.982-2.557,1.592s-.6-1.741.144-3.009,1.891-1.983,2.558-1.591.6,1.738-.144,3.008" transform="translate(-330.064 -122.589)" fill="#1d1815"/>
        <path id="Trazado_3991" data-name="Trazado 3991" d="M548.51,180.485a1.893,1.893,0,0,1,.29-.17,2.606,2.606,0,0,1,.83-.218,2.205,2.205,0,0,1,.561-.011,3.135,3.135,0,0,1,.618.089,6.176,6.176,0,0,1,.629.228,2.32,2.32,0,0,1,.6.344c.184.142.371.284.539.438a2.9,2.9,0,0,1,.412.526c.12.184.224.365.315.536a1.7,1.7,0,0,1,.165.539,3.159,3.159,0,0,1,.059,1.171,5.4,5.4,0,0,1-.992-.524,3.5,3.5,0,0,0-.39-.25c-.143-.078-.285-.161-.419-.253s-.255-.2-.4-.288a4.384,4.384,0,0,1-.42-.272c-.248-.227-.554-.365-.8-.594-.135-.1-.267-.2-.391-.285s-.244-.215-.362-.3c-.237-.177-.436-.366-.588-.488l-.257-.219" transform="translate(-389.078 -127.733)" fill="#935520"/>
        <path id="Trazado_3992" data-name="Trazado 3992" d="M471.07,223.146s.161.256.455.667.714,1,1.223,1.639c.266.317.551.651.864.979.291.353.685.629,1.011.98a10.412,10.412,0,0,0,1.178.837c.208.124.412.257.624.375l.668.294a13.091,13.091,0,0,0,1.379.459c.485.056.961.169,1.437.226.482-.012.954.024,1.414.051.455-.033.9-.073,1.312-.084a7.767,7.767,0,0,0,1.141-.1c.341-.053.649-.081.9-.105.513-.046.821-.056.821-.056s-.226.189-.651.492c-.215.148-.474.337-.788.525-.158.1-.324.2-.5.308-.189.078-.389.16-.6.247a13.765,13.765,0,0,1-1.388.512c-.52.1-1.08.215-1.665.285a16.038,16.038,0,0,1-1.852-.055,9.365,9.365,0,0,1-1.871-.534l-.889-.42c-.285-.158-.537-.366-.8-.545a8.557,8.557,0,0,1-1.357-1.266,8.746,8.746,0,0,1-.953-1.4,7.487,7.487,0,0,1-.62-1.352,8.341,8.341,0,0,1-.485-2.133,4.836,4.836,0,0,1-.017-.824" transform="translate(-334.141 -158.286)" fill="#d6a38a"/>
        <path id="Trazado_3993" data-name="Trazado 3993" d="M503.415,193.352s-.758,10.661-4.272,9.488,4.272-9.488,4.272-9.488" transform="translate(-353.414 -137.152)" fill="#d6a38a"/>
        <path id="Trazado_3994" data-name="Trazado 3994" d="M484.038,153.01a1.712,1.712,0,0,0-.073-.329,2.605,2.605,0,0,0-.4-.76,2.293,2.293,0,0,0-.37-.422,3.23,3.23,0,0,0-.484-.394,5.793,5.793,0,0,0-.592-.31,2.354,2.354,0,0,0-.659-.21c-.228-.04-.457-.082-.685-.1a2.915,2.915,0,0,0-.666.05c-.215.035-.42.081-.607.131a1.719,1.719,0,0,0-.51.241,3.168,3.168,0,0,0-.9.746,5.383,5.383,0,0,0,1.056.379,3.245,3.245,0,0,1,.447.118,4.25,4.25,0,0,0,.47.139c.158.045.322.05.483.1a4.011,4.011,0,0,0,.481.125c.336.031.644.162.979.19.166.031.326.064.476.094s.324.034.462.066c.292.054.564.076.76.106.213.025.335.042.335.042" transform="translate(-339.127 -106.739)" fill="#935520"/>
        <path id="Trazado_3995" data-name="Trazado 3995" d="M479.153,66.405c-1.281-8.467-18.24-26.213-33.566-11.456,0,0-8-5.656-17.96,18.627l.8,5.717s4.162-8.333,8.441-10.895a15.21,15.21,0,0,1,17.942,2.135c3.188,2.858,10.511,6.626,16.854,8.621.082,3.911.957,9.356-3.6,17.013a8.242,8.242,0,0,1,4.2,1.04s3.813-9.522,4.219-16.8c3.789.42,7.106-.209,9.067-2.6,0,0-5.124-2.939-6.4-11.406" transform="translate(-303.332 -34.956)" fill="#935520"/>
        <path id="Trazado_3996" data-name="Trazado 3996" d="M441.627,354.968a18.078,18.078,0,0,1-4.238,5.712.731.731,0,0,0-.067.067c-1.087,1.075-2.314,2.168-3.613,3.255-.151.125-.3.25-.453.372-.674.558-1.369,1.11-2.075,1.654-.378.3-.761.587-1.145.875s-.738.552-1.107.825c-.544.4-1.087.794-1.628,1.177,0,0-.006.006-.009.006-.273.2-.544.389-.814.578h0l-.372.262c-.291.2-.578.4-.866.6a.249.249,0,0,1-.029.017c-1.18.814-2.322,1.578-3.4,2.282-1.767,1.157-3.34,2.145-4.543,2.886-.076.046-.148.093-.221.137-1.4.855-2.241,1.349-2.241,1.349s-.07.857-.169,2.34c0,0,0,0,0,0-.052.77-.113,1.712-.174,2.79-.5,8.784-1.11,26.709,1.34,36.653H340c-1.477-6.168-3.869-20.166-6.127-35.019-.058-.387-.116-.773-.174-1.163-9.3-.512-16.417-2.032-18.739-3.892-1.663-1.328-2.607-5.589-3.055-11.3v0c-.041-.5-.076-1.02-.108-1.546-.724-11.874.451-28.965,1.735-39.356.044-.36.087-.709.131-1.052.206-1.575.413-2.968.613-4.136v0a25.651,25.651,0,0,1,.683-3.142A10.077,10.077,0,0,1,317,314.743c4.177-4.877,12.478-8.13,12.478-8.13,1.907-1.357,9.075-3.819,13.594-5.3,2.163-.7,3.718-1.183,3.8-1.209h0s6.084,4.206,11.464,3.11a7.929,7.929,0,0,0,5.081-3.485,80.7,80.7,0,0,1,15.856-3.337c.715-.058,1.424-.1,2.116-.11.788-.017,1.552,0,2.285.049a27.829,27.829,0,0,1,8.208,1.991h0c.081.032.166.064.25.1a.122.122,0,0,1,.029.012q.868.344,1.77.744,1.155.51,2.369,1.11c2.613,1.285,5.453,2.872,8.63,4.741,3.064,1.8,6.438,3.866,10.226,6.177a42.284,42.284,0,0,1,7.063,5.566c.006,0,.009.009.015.012a65.414,65.414,0,0,1,4.642,4.953c1.308,1.541,2.567,3.154,3.767,4.81q.842,1.16,1.642,2.349a75.812,75.812,0,0,1,7.351,13.527,39.394,39.394,0,0,1,1.863,5.7c.663,2.822.753,5.2.128,6.848" transform="translate(-221.014 -210.159)" fill="#683da3"/>
        <path id="Trazado_3997" data-name="Trazado 3997" d="M315.994,371.708s-6.658,51,0,60.536,47.5,3.468,55.929-1l-5.058-15.372s-29.7-.256-31.974-3.116,2.341-40.248-18.9-41.052" transform="translate(-222.047 -263.666)" fill="#523284"/>
        <path id="Trazado_3998" data-name="Trazado 3998" d="M674.608,501.979H674.6a10.662,10.662,0,0,1,.953-3.03h.008c.35-.029,10.619-.987,11.878-8.232.629-3.611-.982-8.782-7.175-16.177.514-.58,8.185,6.347,10.412,13.413,1.992,6.316-.364,12.745-16.071,14.026" transform="translate(-478.52 -336.584)" fill="#814d24"/>
        <path id="Trazado_3999" data-name="Trazado 3999" d="M524.173,380.732c.952.246,1.824,3.486,1.824,3.486s5.011,9.744-9.245,14.061c.077-3.223,5.984-14.154,5.984-14.154s-1.071-1.33-.942-1.828a2.88,2.88,0,0,1,2.377-1.566" transform="translate(-366.552 -270.053)" fill="#814d24"/>
        <path id="Trazado_4000" data-name="Trazado 4000" d="M468.52,312.338c3.522,1.673,36.91,11.007,36.91,11.007s8.592-9.658,4.905-15.334c.089-3,1.27-4.391-.058-7.857-2.322-6.06-15.45-16.38-24.278-9.139-.916.751-9.507-.616-12.722-1.089-.768-.107-5.576-2.589-4.967,6.338.026.3-1,8.759,16.678,14.422-2.742.912-17.111-3.651-17.111-3.651s-2.879,3.624.643,5.3" transform="translate(-331.096 -204.668)" fill="#fff"/>
        <path id="Trazado_4001" data-name="Trazado 4001" d="M538.375,310.664c-.052,1.77,2.019,2.5,3.348,3.065.809.342,1.375,1.33,2.367,1.36,3.226.1,5.9-1.731,5.966-4.079.056-1.892-1.523-3.241-3.133-3.9a6.266,6.266,0,0,0-5.165.307c-1.164.556-3.339,1.764-3.383,3.245" transform="translate(-381.888 -217.547)" fill="#9a7150"/>
        <path id="Trazado_4002" data-name="Trazado 4002" d="M463.6,290.914c2.072,8.989,7.871-.708,6.711-2.5-.348-.537-8.366-4.68-6.711,2.5" transform="translate(-328.688 -203.394)" fill="#814d24"/>
        <path id="Trazado_4003" data-name="Trazado 4003" d="M548.97,318.405s.638-2.979-2.565-1.736c1.108.3,2.178.332,2.565,1.736" transform="translate(-387.585 -224.41)" fill="#613a1b"/>
        <path id="Trazado_4004" data-name="Trazado 4004" d="M531.6,300.809s.639-2.979-2.564-1.735c1.108.3,2.177.332,2.564,1.735" transform="translate(-375.261 -211.929)" fill="#814d24"/>
        <path id="Trazado_4005" data-name="Trazado 4005" d="M537.654,586.1c.06,0,.121,0,.181,0l-.146,0a.138.138,0,0,0-.035,0" transform="translate(-381.378 -415.74)" fill="#fff"/>
        <path id="Trazado_4006" data-name="Trazado 4006" d="M538.277,586.109l.058,0a.318.318,0,0,0-.052,0s0,0-.006,0" transform="translate(-381.819 -415.748)" fill="#fff"/>
        <path id="Trazado_4007" data-name="Trazado 4007" d="M544.906,586.3c.17.008.337.01.5.015l-.454-.011-.044,0" transform="translate(-386.522 -415.887)" fill="#fff"/>
        <path id="Trazado_4008" data-name="Trazado 4008" d="M551.566,586.5c.034,0,.063,0,.092,0a.463.463,0,0,0-.06,0l-.032,0" transform="translate(-391.246 -416.029)" fill="#fff"/>
        <path id="Trazado_4009" data-name="Trazado 4009" d="M675.555,558.6h.008a14.867,14.867,0,0,1-.956,3.03H674.6a10.65,10.65,0,0,1,.953-3.03" transform="translate(-478.52 -396.236)" fill="#fff"/>
        <path id="Trazado_4010" data-name="Trazado 4010" d="M529.091,449.862a3.7,3.7,0,0,1,3.281-1.818c.032-1.142.222-3.854.558-7.5.987-10.794,3.24-29.8,6.455-40.753.072-.237.142-.468.212-.694.057-.189.115-.374.172-.557v0s0,0,0-.006c.125-.386.251-.758.379-1.119.045-.139.094-.274.142-.408.011-.027.02-.054.029-.081.024-.066.046-.128.071-.191l.009,0c.046,0,.092,0,.138.005a.658.658,0,0,1,.072,0s0,0,0,0c.659.024,1.292.07,1.9.137a.648.648,0,0,1,.075.006l.308.036a22.068,22.068,0,0,1,7.537,2.217.069.069,0,0,0,.021.009,10.337,10.337,0,0,1,1.38.841s.055.06.157.175c.576.644,2.677,3.032,5.332,6.505a112.19,112.19,0,0,1,9.21,13.958c4.072,7.452,7.1,15.721,5.914,22.634a37.714,37.714,0,0,1-4.832,2.093c-.406.144-.805.27-1.195.381-2.471.718-4.533.843-5.878.173a11.312,11.312,0,0,1-3.8-3.875l.222.461c-5.12,2.506-9.361,2.844-12.751,2.162-.375-.074-.743-.164-1.1-.26-.313-.087-.616-.183-.911-.289a26.262,26.262,0,0,1-3.863,3.351q-.647.461-1.387.911a38.279,38.279,0,0,1-7.247,3.061Z" transform="translate(-375.304 -281.417)" fill="#fff"/>
        <path id="Trazado_4011" data-name="Trazado 4011" d="M600.634,528.611c-2.472.719-4.533.843-5.878.173a11.311,11.311,0,0,1-3.8-3.875l.221.461c-5.12,2.506-9.361,2.844-12.751,2.162-.375-.074-.743-.164-1.1-.26,0-.444,0-.872.02-1.284a18.163,18.163,0,0,1,.373-3.039,10.568,10.568,0,0,1,8.051-8.523.918.918,0,0,1,.114-.033c.681-.2,1.345-.342,1.971-.464,5.406-1.052,8.646.314,10.526,2.761,2.413,3.135,2.6,8.043,2.248,11.92" transform="translate(-409.522 -364.295)" fill="#cfd1d3"/>
        <path id="Trazado_4012" data-name="Trazado 4012" d="M604.51,531.056c-.406.144-.805.27-1.195.381-2.471.719-4.534.843-5.879.173a11.312,11.312,0,0,1-3.8-3.875l.221.461c-5.12,2.506-9.361,2.844-12.751,2.162.207-7.757,4.143-10.551,7.879-11.776.069-.024.135-.046.2-.068a22.531,22.531,0,0,1,2.438-.6c4.479-.871,7.471-.084,9.435,1.6,3.054,2.624,3.627,7.422,3.442,11.539" transform="translate(-412.203 -367.121)" fill="#fff"/>
        <path id="Trazado_4013" data-name="Trazado 4013" d="M535.486,508.156l1.274-7.78.235-1.444.3-1.815,2.315-14.15c1.888-1.668,3.12-2.015,3.923-1.7,1.815.719,1.422,4.858,1.422,4.858l-.768,2.746-.8,2.87-1.288,4.6L541.04,500.1l-.538,1.927-1.69,6.036a26.8,26.8,0,0,1-6.6,2.857c-.04.159-.029-.349-.036-.171.029,0-.235-.1-.2-.094-.086,0-.011.3-.1.294-.121,0-.185,0-.3-.007Z" transform="translate(-377.066 -341.307)" fill="#cfd1d3"/>
        <path id="Trazado_4014" data-name="Trazado 4014" d="M551.658,586.507c.012,0,.026,0,.037,0-.032,0-.063,0-.1,0l-.032,0c.034,0,.063,0,.092,0" transform="translate(-391.246 -416.03)" fill="#fff"/>
        <path id="Trazado_4015" data-name="Trazado 4015" d="M552.585,586.534c.029,0,.043,0,.043,0a.231.231,0,0,1-.043,0" transform="translate(-391.969 -416.05)" fill="#fff"/>
        <path id="Trazado_4016" data-name="Trazado 4016" d="M547.292,486.9l-.739,2.642-1.048,3.748-.974,3.476-1.077,3.845-.771,2.755-1.268,4.528q-.647.461-1.387.911a26.791,26.791,0,0,1-6.6,2.857c.573-2.272,4.4-2.733,4.4-2.733l1.277-7.806.069-.426.487-2.965,2.289-13.992a7.191,7.191,0,0,1,2.8-1.731c3.083-.764,2.544,4.89,2.544,4.89" transform="translate(-378.379 -341.859)" fill="#fff"/>
        <path id="Trazado_4017" data-name="Trazado 4017" d="M578.32,288.986s2.01-2.694-.849-3.065c.945-.4,3.888-.459,3.292,5.12a12.621,12.621,0,0,1-2.443-2.054" transform="translate(-409.621 -202.701)" fill="#faa37b"/>
        <path id="Trazado_4018" data-name="Trazado 4018" d="M588.023,289.645s3.891-1.036,1.481-3.511c1.187.324,3.994,2.46-.712,7.258a15.1,15.1,0,0,1-.768-3.747" transform="translate(-417.106 -202.965)" fill="#faa37b"/>
        <g id="Grupo_2189" data-name="Grupo 2189" transform="translate(135.372 83.742)" opacity="0.38">
          <g id="Grupo_2188" data-name="Grupo 2188">
            <g id="Grupo_2187" data-name="Grupo 2187" clip-path="url(#clip-path-3)">
              <path id="Trazado_4019" data-name="Trazado 4019" d="M470.381,289.287s-5.091-3.473-4.615,1.492c.937-1.255,1.45-2.21,4.615-1.492" transform="translate(-465.735 -288.106)" fill="#f9e9dd"/>
            </g>
          </g>
        </g>
        <path id="Trazado_4020" data-name="Trazado 4020" d="M561.692,310.36l2.29,3.941-1.2-.035-2.654-3.237Z" transform="translate(-397.318 -220.15)" fill="#613a1b"/>
        <path id="Trazado_4021" data-name="Trazado 4021" d="M544.188,292.926l-2.6-1.341-.529.362,2.071,2.336Z" transform="translate(-383.791 -206.832)" fill="#814d24"/>
        <rect id="Rectángulo_1158" data-name="Rectángulo 1158" width="3.085" height="15.848" transform="matrix(0.03, -1, 1, 0.03, 162.51, 118.326)" fill="#e55c70"/>
        <path id="Trazado_4022" data-name="Trazado 4022" d="M600.282,346.63c1.589-.187,4.819,4.211,4.819,4.211s13.337,11.823-5.737,26.764c-1.781-4.93.74-24.984.74-24.984s-2.408-1.385-2.5-2.216c-.132-1.15,1.532-3.639,2.681-3.775" transform="translate(-423.895 -245.873)" fill="#814d24"/>
        <path id="Trazado_4023" data-name="Trazado 4023" d="M564.618,397.5a1.877,1.877,0,1,0,1.932-1.821,1.877,1.877,0,0,0-1.932,1.821" transform="translate(-400.503 -280.667)" fill="#fcc066"/>
        <path id="Trazado_4024" data-name="Trazado 4024" d="M565.794,397.532a1.877,1.877,0,1,0,1.932-1.821,1.877,1.877,0,0,0-1.932,1.821" transform="translate(-401.338 -280.692)" fill="#fcc066"/>
        <path id="Trazado_4025" data-name="Trazado 4025" d="M565.794,397.52a1.714,1.714,0,1,0,1.761-1.826,1.8,1.8,0,0,0-1.761,1.826" transform="translate(-401.338 -280.68)" fill="#ff9436"/>
        <path id="Trazado_4026" data-name="Trazado 4026" d="M591.3,468.214c-.052,1.77,2.019,2.5,3.347,3.065.809.342,1.375,1.33,2.367,1.359,3.226.1,5.9-1.73,5.966-4.078.056-1.892-1.523-3.241-3.133-3.9a6.263,6.263,0,0,0-5.165.307c-1.164.556-3.338,1.764-3.383,3.245" transform="translate(-419.433 -329.302)" fill="#814d24"/>
        <path id="Trazado_4027" data-name="Trazado 4027" d="M519.963,528.375c-.16.128-.343.285-.552.465-.3.259-.645.567-1.052.907a26.8,26.8,0,0,1-4.281,2.976q-.706.4-1.506.773a27.087,27.087,0,0,1-6.988,2.244c-.288.049-.628.131-.924.174l-.2-.667-.237-.85-4.017-12.211s5.877-3.95,8.118-2.883.535,4.055-1.494,5.124a20.411,20.411,0,0,0,2.511.7c.587.128,1.256.253,1.985.352q.549.079,1.142.131c.169.017.337.032.512.044a21.052,21.052,0,0,0,2.715.015c.282-.015.564-.038.849-.067.134-.015.262-.026.39-.038a7.452,7.452,0,0,1,3.183.238c1.343.535.956,1.695-.157,2.575" transform="translate(-354.817 -368.231)" fill="#f4bd9e"/>
        <path id="Trazado_4028" data-name="Trazado 4028" d="M560.551,521.737c-5.464,1.982-9.8,1.863-13.164.8-.372-.116-.735-.247-1.084-.384-.308-.122-.6-.253-.892-.392a15.722,15.722,0,0,1-2.5-1.477c-.32-.232-.625-.468-.913-.709a17.568,17.568,0,0,1-1.959-1.91c-.137-.157-.27-.314-.4-.468-.331-.4-.619-.794-.863-1.145q-.153-.22-.283-.422a.9.9,0,0,1,.768-1.386h.016c.4.006.8.006,1.18,0a32.652,32.652,0,0,0,3.77-.259c.45-.055.875-.122,1.273-.192a15.718,15.718,0,0,0,5.279-1.695,7.755,7.755,0,0,1-3.912-1.724,4.6,4.6,0,0,1-.831-.916,2.329,2.329,0,0,1-.378-2.148c.163-.451.724-.645,1.506-.674a7.969,7.969,0,0,1,1.174.052,40.992,40.992,0,0,1,7.557,1.982.009.009,0,0,0,.006,0l.483,1.354.491,1.381,3.5,9.833Z" transform="translate(-381.869 -359.375)" fill="#f4bd9e"/>
        <path id="Trazado_4029" data-name="Trazado 4029" d="M643.612,404.986c-1.773,3.308-5.476,6.895-9.949,10.164-1.151.84-2.352,1.66-3.584,2.45a72.006,72.006,0,0,1-12.786,6.531,38.437,38.437,0,0,1-5.127,1.6c-.427.1-.846.186-1.253.256-2.584.459-4.688.36-5.979-.465a11.534,11.534,0,0,1-3.427-4.343,55.346,55.346,0,0,1-3.718-9.787c-.142-.488-.273-.959-.4-1.407-.134-.491-.259-.95-.369-1.378-.451-1.756-.695-2.907-.695-2.907a70.176,70.176,0,0,0,17.434-5.159c3.447-1.674,5.93-3.651,6.037-5.807.273-5.418-8.65-19.469-8.65-19.469L624.2,366.79c7.063,5.566,25.209,27.38,19.408,38.2" transform="translate(-422.999 -260.178)" fill="#683da3"/>
        <path id="Trazado_4030" data-name="Trazado 4030" d="M152.9,466.33s-3.023,4.142-3.2,4.667,2.6.435,3.9-.789,2.618-3.62,3.335-3.831l-.4-1.52-2.169.051Z" transform="translate(-106.185 -329.74)" fill="#dba78d"/>
        <path id="Trazado_4031" data-name="Trazado 4031" d="M144.592,459.312s-3.595,4.923-3.8,5.548,3.085.516,4.631-.939,3.111-4.3,3.964-4.554l-.481-1.807-2.577.061Z" transform="translate(-99.86 -324.564)" fill="#dba78d"/>
        <path id="Trazado_4032" data-name="Trazado 4032" d="M137.555,455.752s-3.388,4.656-3.585,5.244,2.914.483,4.371-.892,2.933-4.067,3.738-4.306l-.457-1.706-2.434.06Z" transform="translate(-95.024 -322.104)" fill="#dba78d"/>
        <path id="Trazado_4033" data-name="Trazado 4033" d="M148.948,460.764s-3.162-9.2-4.339-10.78-6.836-3.734-8.209-3.44-8.092,1.392-8.214,2.02,1.643,2.427,4.34,1.847,4.56-.35,5.492.328,4.413,4.337,2.55,5.612-3.788-1.384-4.91-1.575-3.377-.064-3.181.56,2.489,2.283,3.181,4.566,4.664,3.006,6.626,3.675Z" transform="translate(-90.923 -316.731)" fill="#f4bd9e"/>
        <path id="Trazado_4034" data-name="Trazado 4034" d="M294.021,347.976s2.314,4.911.993,9.444c0,0,8.5,3.022,12.276-1.511L302.946,341.2Z" transform="translate(-208.56 -242.027)" fill="#dba78d"/>
        <path id="Trazado_4035" data-name="Trazado 4035" d="M191.824,211.1s-8.2,14.8,5.809,26.486c0,0-6.014-13.625-1.229-22.313Z" transform="translate(-134.376 -149.738)" fill="#eb4c29"/>
        <path id="Trazado_4036" data-name="Trazado 4036" d="M213.205,208.1c-8.684,2.2-14.165,9.632-10.955,18.7s5.855,10.388,7.555,15.487,3.966,11.9,17.187,12.088,15.676-10.388,15.676-17.565-2.723-10.955-2.723-10.955,2.912-3.4,1.023-6.61-6.8-3.4-6.8,2.266c0,0-7.555-16.81-20.965-13.41" transform="translate(-142.806 -147.291)" fill="#f4bd9e"/>
        <path id="Trazado_4037" data-name="Trazado 4037" d="M226.588,309.527c.684.975,1.655,1.477,2.167,1.118s.373-1.441-.311-2.419-1.654-1.479-2.166-1.119-.373,1.441.31,2.42" transform="translate(-160.288 -217.76)" fill="#1d1815"/>
        <path id="Trazado_4038" data-name="Trazado 4038" d="M283.989,282.255c.684.978,1.654,1.479,2.166,1.121s.375-1.444-.31-2.42-1.653-1.479-2.166-1.119-.374,1.442.31,2.418" transform="translate(-201.005 -198.416)" fill="#1d1815"/>
        <path id="Trazado_4039" data-name="Trazado 4039" d="M217.126,290.869a1.462,1.462,0,0,0-.245-.119,2.106,2.106,0,0,0-.684-.123,1.741,1.741,0,0,0-.453.028,2.508,2.508,0,0,0-.494.111,5.268,5.268,0,0,0-.493.225,1.891,1.891,0,0,0-.46.316c-.14.127-.281.253-.407.388a2.375,2.375,0,0,0-.3.452c-.085.156-.158.308-.22.453a1.377,1.377,0,0,0-.1.445,2.559,2.559,0,0,0,.027.949,4.375,4.375,0,0,0,.767-.487,2.793,2.793,0,0,1,.3-.226,3.833,3.833,0,0,0,.322-.232c.107-.078.192-.18.3-.258a3.658,3.658,0,0,0,.321-.247c.186-.2.424-.33.607-.531l.3-.255c.1-.087.182-.189.273-.263.18-.158.329-.323.444-.432l.193-.193" transform="translate(-151.262 -206.149)" fill="#f45d37"/>
        <path id="Trazado_4040" data-name="Trazado 4040" d="M271.029,319.942s-.1.181-.279.474-.439.707-.756,1.165c-.166.226-.344.466-.541.7-.181.253-.436.457-.641.709a7.109,7.109,0,0,1-.762.621c-.136.093-.268.193-.406.282l-.439.229a8.8,8.8,0,0,1-.915.374c-.326.06-.644.158-.964.218-.327.013-.646.058-.957.1-.31,0-.611-.009-.893,0a5.315,5.315,0,0,1-.778-.017c-.233-.021-.443-.025-.617-.031-.349-.009-.559,0-.559,0s.161.118.463.3c.152.09.337.207.558.32.111.058.228.119.352.187l.416.141a9.356,9.356,0,0,0,.964.285c.357.046.742.1,1.142.118a10.935,10.935,0,0,0,1.252-.12,6.377,6.377,0,0,0,1.245-.446l.583-.324c.185-.12.347-.273.517-.406a5.793,5.793,0,0,0,.864-.92,5.911,5.911,0,0,0,.583-.992,5.113,5.113,0,0,0,.359-.945,5.658,5.658,0,0,0,.232-1.468,3.323,3.323,0,0,0-.025-.56" transform="translate(-185.507 -226.947)" fill="#d69d80"/>
        <path id="Trazado_4041" data-name="Trazado 4041" d="M256.2,298.749s1.3,8.557,4.059,7.384-4.059-7.384-4.059-7.384" transform="translate(-181.732 -211.914)" fill="#d69d80"/>
        <path id="Trazado_4042" data-name="Trazado 4042" d="M265.488,264.727a1.473,1.473,0,0,1,.037-.27,2.117,2.117,0,0,1,.273-.639,1.828,1.828,0,0,1,.272-.364,2.668,2.668,0,0,1,.365-.351,4.714,4.714,0,0,1,.458-.287,1.9,1.9,0,0,1,.518-.212c.182-.047.364-.095.547-.125a2.389,2.389,0,0,1,.541,0c.176.015.344.039.5.067a1.382,1.382,0,0,1,.427.162,2.557,2.557,0,0,1,.777.544,4.35,4.35,0,0,1-.828.374,2.571,2.571,0,0,0-.353.124,3.614,3.614,0,0,1-.37.142c-.125.046-.257.061-.383.111a3.384,3.384,0,0,1-.381.132c-.269.046-.51.172-.777.216l-.378.107c-.124.034-.258.048-.369.083-.232.063-.451.1-.606.134s-.267.055-.267.055" transform="translate(-188.32 -186.174)" fill="#f45d37"/>
      </g>
    </g>
    <g id="Grupo_2199" data-name="Grupo 2199" transform="translate(58.517 60.355)">
      <g id="Grupo_2198" data-name="Grupo 2198" clip-path="url(#clip-path-4)">
        <g id="Grupo_2194" data-name="Grupo 2194" transform="translate(27.825 20.643)" opacity="0.5">
          <g id="Grupo_2193" data-name="Grupo 2193">
            <g id="Grupo_2192" data-name="Grupo 2192" clip-path="url(#clip-path-5)">
              <path id="Trazado_4043" data-name="Trazado 4043" d="M306.734,283.828a4.85,4.85,0,1,1-4.84-5.16,5.008,5.008,0,0,1,4.84,5.16" transform="translate(-297.054 -278.668)" fill="#ffadad"/>
            </g>
          </g>
        </g>
        <g id="Grupo_2197" data-name="Grupo 2197" transform="translate(2.506 33.974)" opacity="0.5">
          <g id="Grupo_2196" data-name="Grupo 2196">
            <g id="Grupo_2195" data-name="Grupo 2195" clip-path="url(#clip-path-6)">
              <path id="Trazado_4044" data-name="Trazado 4044" d="M219.626,329.692a4.85,4.85,0,1,1-4.84-5.16,5.007,5.007,0,0,1,4.84,5.16" transform="translate(-209.946 -324.532)" fill="#ffadad"/>
            </g>
          </g>
        </g>
      </g>
    </g>
    <g id="Grupo_2201" data-name="Grupo 2201">
      <g id="Grupo_2200" data-name="Grupo 2200" clip-path="url(#clip-path)">
        <path id="Trazado_4046" data-name="Trazado 4046" d="M288.712,484.389s-1.453.131-4,.334H211.66c.035-7.537.224-48.846-.006-52.965,0,0-2.07,10.635-4.2,17.983v0c-.98,3.378-1.974,6.057-2.787,6.694-2.578,2.014-9.1-7.807-8.987-12.844.055-2.392,1.075-11.327,2.616-20.448v0c1.7-10.074,4.023-20.376,6.371-22.358,4.473-3.779,15.992-7.665,20.809-10.255h0a16.642,16.642,0,0,0,5.976.866c.151-.006.3-.017.453-.029a12.149,12.149,0,0,0,1.378-.192,9.5,9.5,0,0,0,4.066-1.831c.061-.047.119-.1.18-.145,0,0,3.122.657,7.051,1.622a106.188,106.188,0,0,1,12.411,3.668h0c6.284,2.517,14.341,7.3,17.111,19.39.637,2.773,1.735,7.941,3.055,14.272,1.134,5.432,2.427,11.722,3.732,18.085,3.8,18.547,7.676,37.719,7.819,38.153" transform="translate(-138.8 -276.074)" fill="#ff9436"/>
        <path id="Trazado_4047" data-name="Trazado 4047" d="M428.956,545.563h-.1c-.25-.474-.6-1.157-1.055-2.026-.113-.224-.235-.459-.363-.706-.1-.256-.212-.526-.328-.805q-.345-.841-.741-1.814c-.253-.648-.57-1.331-.82-2.072s-.509-1.526-.782-2.343-.573-1.666-.834-2.555-.512-1.814-.779-2.764c-.558-1.892-1.052-3.909-1.546-6-.523-2.087-.98-4.261-1.439-6.467-.477-2.206-.866-4.462-1.3-6.712-.076-.453-.151-.9-.227-1.354-.305-1.8-.61-3.6-.913-5.383-.346-2.227-.66-4.421-.962-6.546-.488-3.581-.91-6.967-1.238-9.987-.061-.564-.119-1.119-.174-1.657-.366-3.412-.573-6.267-.744-8.261-.087-1-.122-1.785-.16-2.32s-.049-.823-.049-.823.724,4.517,1.811,11.289c.1.6.2,1.227.3,1.866.474,2.936,1,6.22,1.564,9.691.355,2.113.721,4.293,1.09,6.511.32,1.805.642,3.63.965,5.462.073.416.148.828.221,1.244.421,2.241.791,4.494,1.247,6.691s.825,4.38,1.305,6.461c.456,2.087.863,4.116,1.343,6.011.227.953.448,1.88.663,2.776s.468,1.75.686,2.575c.451,1.648.846,3.168,1.305,4.476.212.66.413,1.279.6,1.852.093.285.183.561.267.823.108.253.206.494.305.724.384.919.68,1.645.884,2.142" transform="translate(-293.949 -336.914)" fill="#f68a00"/>
        <path id="Trazado_4048" data-name="Trazado 4048" d="M252.262,464.576a24.671,24.671,0,0,1,.445,3.246c.044.489.091,1.019.1,1.579s.051,1.153.052,1.765c.012,1.225-.045,2.529-.112,3.833-.136,1.3-.221,2.6-.437,3.814-.094.606-.212,1.189-.319,1.741s-.2,1.074-.343,1.548c-.524,1.9-1,3.126-1,3.126s-.019-1.332.145-3.259c.047-.481.038-1.012.082-1.564s.058-1.138.115-1.739.061-1.225.117-1.856.09-1.274.136-1.917.091-1.284.137-1.918.12-1.254.156-1.858c.083-1.207.212-2.333.307-3.3s.208-1.777.284-2.344.135-.895.135-.895" transform="translate(-177.794 -329.541)" fill="#f68a00"/>
        <path id="Trazado_4049" data-name="Trazado 4049" d="M256.281,520.893a5.067,5.067,0,0,0,.2.579,9.026,9.026,0,0,0,2.569,3.46,9.772,9.772,0,0,0,2.929,1.64,11.6,11.6,0,0,0,1.858.491l.494.094c.107.028.333.038.495.057a9.975,9.975,0,0,0,1.066.079,10.564,10.564,0,0,0,4.227-.824,32.136,32.136,0,0,0,4.238-2.311,14.589,14.589,0,0,1,2.385-1.186,7.31,7.31,0,0,1,1.377-.371l.736-.063a.7.7,0,0,1,.133,0l.08,0,.16.007.32.017a10.628,10.628,0,0,1,4.981,2.146,18.4,18.4,0,0,0,4.164,2.272,13.552,13.552,0,0,0,2.175.546,15.911,15.911,0,0,0,2.163.23,12.581,12.581,0,0,0,3.929-.458,8.978,8.978,0,0,0,2.979-1.512,7.685,7.685,0,0,0,1.763-1.93,8.949,8.949,0,0,0,.806-1.514l.233-.57-.156.6a4.688,4.688,0,0,1-.223.708,5.848,5.848,0,0,1-.406.927,8.134,8.134,0,0,1-1.648,2.207,8.782,8.782,0,0,1-3.069,1.908,12.4,12.4,0,0,1-4.215.765c-.381.006-.767.01-1.165-.022-.4-.017-.8-.051-1.171-.1a13.223,13.223,0,0,1-2.415-.516,18.059,18.059,0,0,1-4.546-2.316,9.339,9.339,0,0,0-4.266-1.857l-.32-.02-.16-.009-.08-.006c.06,0-.022,0-.026.006l-.54.04a5.789,5.789,0,0,0-1.088.284,13.308,13.308,0,0,0-2.163,1.053,29.1,29.1,0,0,1-4.489,2.287,11.03,11.03,0,0,1-4.807.7,10.25,10.25,0,0,1-1.093-.138c-.19-.033-.321-.036-.556-.093l-.525-.136a12.508,12.508,0,0,1-1.96-.672,9.422,9.422,0,0,1-2.981-2.027,9.226,9.226,0,0,1-1.633-2.214,7.333,7.333,0,0,1-.637-1.635,5.065,5.065,0,0,1-.126-.6" transform="translate(-181.79 -369.488)" fill="#f68a00"/>
        <path id="Trazado_4050" data-name="Trazado 4050" d="M175.129,490.661s13.039,27.848,11.155,35.009-6.125,8.6-10.854,4.61-9.452-32.448-9.586-36.484Z" transform="translate(-117.64 -348.044)" fill="#ffb946"/>
      </g>
    </g>
    <g id="Grupo_2203" data-name="Grupo 2203" transform="translate(56.877 113.126)">
      <g id="Grupo_2202" data-name="Grupo 2202" clip-path="url(#clip-path-8)">
        <path id="Trazado_4051" data-name="Trazado 4051" d="M264.636,395.633a11.384,11.384,0,0,1-1.225-.975l.525-.543a10.906,10.906,0,0,0,1.137.9Z" transform="translate(-243.724 -392.686)" fill="#f68a00"/>
        <path id="Trazado_4052" data-name="Trazado 4052" d="M289.616,399.272c-.179,0-.358,0-.536-.005l.014-.755c.2,0,.4,0,.6,0s.377,0,.566,0c.635-.01,1.267-.051,1.877-.12l.085.751c-.635.072-1.291.114-1.95.125-.222,0-.44,0-.657,0m-3.661-.211a30.031,30.031,0,0,1-3.093-.523l.166-.737a29.06,29.06,0,0,0,3.014.51Zm9.365-.538-.212-.724a16.434,16.434,0,0,0,2.81-1.114l.342.673a17.053,17.053,0,0,1-2.94,1.166m-15.477-.847a24.737,24.737,0,0,1-2.9-1.221l.338-.675a24.107,24.107,0,0,0,2.809,1.183Zm21.09-2.011-.462-.6a16.92,16.92,0,0,0,2.22-2.059l.561.506a17.637,17.637,0,0,1-2.319,2.15" transform="translate(-253.324 -391.902)" fill="#f68a00"/>
        <path id="Trazado_4053" data-name="Trazado 4053" d="M372.471,381.914l-.642-.4a11.236,11.236,0,0,0,.694-1.277l.694.3a11.57,11.57,0,0,1-.745,1.375" transform="translate(-320.629 -382.844)" fill="#f68a00"/>
      </g>
    </g>
    <g id="Grupo_2223" data-name="Grupo 2223">
      <g id="Grupo_2222" data-name="Grupo 2222" clip-path="url(#clip-path)">
        <path id="Trazado_4055" data-name="Trazado 4055" d="M197.324,183.788s20.381,11.206,32.847,6.673c0,0,.077-4.806,3.627-4.48s4.651,5.488,2.149,8.824c0,0,2.7,11.755,0,18.572s-6.28,12.843-1.873,19.265,18.509,8.311,23.42,1.386,5.666-22.206,1.889-31.627-13.473-25.79-19.391-31.456-19.516-10.7-32.612-3.525-13.061,14.1-10.056,16.369" transform="translate(-138.806 -116.243)" fill="#f45d37"/>
        <path id="Trazado_4056" data-name="Trazado 4056" d="M138.116,430.621q1.12,2.047,2.24,4.093a.273.273,0,0,0,.251.118l2.555-.213c.9-.074,1.991-.358,2.193.914.058.354.611.309.553-.047-.358-2.244-3.107-1.4-4.655-1.27l-.549.047c-.3.026.17.246.05.029L140,432.915l-1.432-2.614c-.173-.317-.625.008-.453.32" transform="translate(-97.944 -305.136)" fill="#8d6b6b"/>
        <path id="Trazado_4057" data-name="Trazado 4057" d="M137.421,444.286c-1.446.12-3.843-.147-3.768,1.972.013.361.566.313.553-.046-.029-.8.469-1.136,1.166-1.194l2.1-.175a.28.28,0,0,0-.046-.557" transform="translate(-94.804 -315.148)" fill="#8d6b6b"/>
        <path id="Trazado_4058" data-name="Trazado 4058" d="M29.306,475.7S38.483,460.4,39.942,459.4s11.032-6.462,11.032-6.462S39.517,470.379,38.541,472.2s-8.581,3.83-9.235,3.508" transform="translate(-20.788 -321.283)" fill="#ffca4c"/>
        <g id="Grupo_2215" data-name="Grupo 2215" transform="translate(10.325 133.867)" opacity="0.5">
          <g id="Grupo_2214" data-name="Grupo 2214">
            <g id="Grupo_2213" data-name="Grupo 2213" clip-path="url(#clip-path-10)">
              <g id="Grupo_2206" data-name="Grupo 2206" transform="translate(0 3.393)" opacity="0.5">
                <g id="Grupo_2205" data-name="Grupo 2205">
                  <g id="Grupo_2204" data-name="Grupo 2204" clip-path="url(#clip-path-11)">
                    <path id="Trazado_4059" data-name="Trazado 4059" d="M36.075,487.894l9.464-15.278c.193-.311-.321-.551-.511-.244l-9.465,15.278c-.193.312.321.552.512.245" transform="translate(-35.521 -472.229)" fill="#f1ad09"/>
                  </g>
                </g>
              </g>
              <g id="Grupo_2209" data-name="Grupo 2209" transform="translate(2.41 2.311)" opacity="0.5">
                <g id="Grupo_2208" data-name="Grupo 2208">
                  <g id="Grupo_2207" data-name="Grupo 2207" clip-path="url(#clip-path-12)">
                    <path id="Trazado_4060" data-name="Trazado 4060" d="M44.366,484.454l9.7-15.562c.194-.311-.32-.551-.511-.244q-4.849,7.782-9.7,15.561c-.194.311.321.552.511.245" transform="translate(-43.812 -468.506)" fill="#f1ad09"/>
                  </g>
                </g>
              </g>
              <g id="Grupo_2212" data-name="Grupo 2212" transform="translate(5.207)" opacity="0.5">
                <g id="Grupo_2211" data-name="Grupo 2211">
                  <g id="Grupo_2210" data-name="Grupo 2210" clip-path="url(#clip-path-13)">
                    <path id="Trazado_4061" data-name="Trazado 4061" d="M53.989,477.651l10.037-16.706c.188-.314-.326-.555-.512-.244L53.477,477.407c-.188.314.325.555.511.244" transform="translate(-53.436 -460.557)" fill="#f1ad09"/>
                  </g>
                </g>
              </g>
            </g>
          </g>
        </g>
        <path id="Trazado_4062" data-name="Trazado 4062" d="M49.324,426.858s-4.711,6.718-4.656,9.1c0,0-2.872,1.849-2.69,4.038,0,0-4.077,5.223-3.14,5.936s9.228-5.089,15.554-10.394,8.42-8.334,9.283-10.44-11.4-1.368-14.352,1.766" transform="translate(-27.45 -300.686)" fill="#00cd6b"/>
        <path id="Trazado_4063" data-name="Trazado 4063" d="M75.4,360.553s8.524-16.03,12.369-22.034,7.708-10.06,13-8.437c6,1.838,4.215,12.46.96,21.535s-13.582,13.5-26.331,8.936" transform="translate(-53.481 -233.884)" fill="#00e189"/>
        <path id="Trazado_4064" data-name="Trazado 4064" d="M160.754,341.885a.905.905,0,1,1-.978-.836.91.91,0,0,1,.978.836" transform="translate(-112.747 -241.917)" fill="#352a30"/>
        <path id="Trazado_4065" data-name="Trazado 4065" d="M172.892,341s2.623-.247,2.377,2.044l-1.256-.182a1.3,1.3,0,0,0,1.155.721s.068.968-1.548.945a2.887,2.887,0,0,1-.729-3.528" transform="translate(-122.383 -241.875)" fill="#6c717c"/>
        <path id="Trazado_4066" data-name="Trazado 4066" d="M58.658,405.389s5.28-9.721,8.555-14.262,8.477-8.623,12.568-7.176,3.024,9.275,1.018,11.029-3.287-2.178-3.287-2.178-2.316,6.613-4.551,7.52-2.379-1.9-2.379-1.9-6.336,9.968-11.924,6.968" transform="translate(-41.608 -272.14)" fill="#ffca4c"/>
        <path id="Trazado_4067" data-name="Trazado 4067" d="M63.456,389.646S68.046,379.58,71,374.822s7.855-9.192,12.037-8.034,3.663,9.041,1.783,10.931-3.43-1.943-3.43-1.943-1.85,6.757-4.016,7.817-2.506-1.731-2.506-1.731-5.626,10.387-11.408,7.783" transform="translate(-45.012 -260.044)" fill="#00cd6b"/>
        <path id="Trazado_4068" data-name="Trazado 4068" d="M133.786,432.5l2.241,4.093a.269.269,0,0,0,.251.117l2.556-.213c.9-.074,1.989-.357,2.192.914.057.354.61.31.554-.046-.36-2.243-3.108-1.4-4.655-1.269l-.55.046c-.3.025.17.248.05.028l-.754-1.374q-.716-1.31-1.432-2.615c-.173-.317-.626.007-.453.32" transform="translate(-94.872 -306.472)" fill="#aa8181"/>
        <path id="Trazado_4069" data-name="Trazado 4069" d="M133.091,446.165c-1.446.121-3.843-.146-3.768,1.973.013.362.566.313.554-.046-.028-.8.468-1.136,1.166-1.194l2.095-.175a.28.28,0,0,0-.047-.558" transform="translate(-91.732 -316.48)" fill="#aa8181"/>
        <path id="Trazado_4070" data-name="Trazado 4070" d="M667.534,222.069c-1.729-28.229-8.219-33.238-8.219-33.238l-20.467,3.71-.174,8.917-.176-8.917-20.467-3.71s-6.49,5.009-8.219,33.238S591,263.86,604.626,278.994c11.321,12.574,28.54,12.844,34.047,12.575,5.506.268,22.725,0,34.046-12.575,13.628-15.134-3.457-28.7-5.186-56.925" transform="translate(-425.17 -133.945)" fill="#5c1e11"/>
        <path id="Trazado_4071" data-name="Trazado 4071" d="M610.983,450.051s-16.286-10.563-15.2-29.924c0,0-8.484,25.157,15.2,33.321Z" transform="translate(-421.562 -298.011)" fill="#d5936f"/>
        <path id="Trazado_4072" data-name="Trazado 4072" d="M705.526,364.74s-2.3,6.132-4.982,8.24c0,0,9.006,10.348,21.653.958,0,0-4.79-6.516-4.79-9.2Z" transform="translate(-496.921 -258.723)" fill="#d6a38a"/>
        <path id="Trazado_4073" data-name="Trazado 4073" d="M705.854,210.081c0,15.359-9.477,27.811-21.167,27.811s-21.168-12.452-21.168-27.811,9.477-27.81,21.168-27.81,21.167,12.451,21.167,27.81" transform="translate(-470.658 -129.291)" fill="#f4bd9e"/>
        <path id="Trazado_4074" data-name="Trazado 4074" d="M657.358,281.752c0,2.273-1.467,4.116-3.275,4.116s-3.276-1.842-3.276-4.116,1.467-4.116,3.276-4.116,3.275,1.843,3.275,4.116" transform="translate(-461.641 -196.937)" fill="#f4bd9e"/>
        <path id="Trazado_4075" data-name="Trazado 4075" d="M808.784,281.752c0,2.273-1.467,4.116-3.276,4.116s-3.276-1.842-3.276-4.116,1.467-4.116,3.276-4.116,3.276,1.843,3.276,4.116" transform="translate(-569.052 -196.937)" fill="#f4bd9e"/>
        <path id="Trazado_4076" data-name="Trazado 4076" d="M768.445,285.991c-.161,1.315-.849,2.314-1.54,2.23s-1.121-1.217-.961-2.533.848-2.314,1.538-2.231,1.12,1.217.963,2.534" transform="translate(-543.289 -201.063)" fill="#1d1815"/>
        <path id="Trazado_4077" data-name="Trazado 4077" d="M697.911,289.3c-.159,1.317-.848,2.315-1.537,2.232s-1.124-1.219-.963-2.533.848-2.315,1.538-2.231,1.121,1.218.961,2.533" transform="translate(-493.257 -203.408)" fill="#1d1815"/>
        <path id="Trazado_4078" data-name="Trazado 4078" d="M768.037,264.9a1.61,1.61,0,0,1,.178-.245,2.35,2.35,0,0,1,.605-.478,2.026,2.026,0,0,1,.46-.21,2.777,2.777,0,0,1,.54-.149,5.432,5.432,0,0,1,.6-.038,2.1,2.1,0,0,1,.616.069c.2.051.409.1.6.168a2.608,2.608,0,0,1,.527.285,5.514,5.514,0,0,1,.453.329,1.544,1.544,0,0,1,.331.384,2.847,2.847,0,0,1,.469.945,4.867,4.867,0,0,1-1-.076,3.229,3.229,0,0,0-.412-.065c-.146-.014-.292-.031-.436-.059s-.284-.076-.432-.095a3.9,3.9,0,0,1-.443-.074c-.286-.1-.589-.1-.874-.2-.147-.034-.29-.065-.425-.094s-.278-.09-.405-.115c-.259-.061-.49-.145-.66-.192l-.29-.088" transform="translate(-544.797 -187.103)" fill="#5c1e11"/>
        <path id="Trazado_4079" data-name="Trazado 4079" d="M714.528,329.554s.224.153.615.387.945.564,1.6.912c.332.165.689.338,1.064.5.367.187.79.272,1.184.444a9.421,9.421,0,0,0,1.273.267c.217.028.434.064.65.085l.656,0a11.917,11.917,0,0,0,1.3-.117c.42-.128.854-.206,1.267-.33.393-.183.8-.324,1.185-.467.363-.191.713-.381,1.052-.54a6.892,6.892,0,0,0,.9-.492c.262-.166.506-.3.708-.411.405-.222.658-.342.658-.342s-.119.237-.36.64c-.124.2-.271.448-.462.716l-.3.433-.4.419a12.315,12.315,0,0,1-.961.921c-.393.272-.813.566-1.271.833a14.467,14.467,0,0,1-1.547.62,8.425,8.425,0,0,1-1.735.232l-.883-.027c-.292-.028-.574-.109-.856-.162a7.689,7.689,0,0,1-1.573-.557,7.874,7.874,0,0,1-1.29-.812,6.781,6.781,0,0,1-1-.894,7.526,7.526,0,0,1-1.167-1.584,4.268,4.268,0,0,1-.309-.674" transform="translate(-506.841 -233.691)" fill="#d6a38a"/>
        <path id="Trazado_4080" data-name="Trazado 4080" d="M737.1,289.078s3.2,9.065-.115,9.361.115-9.361.115-9.361" transform="translate(-521.746 -205.054)" fill="#d6a38a"/>
        <path id="Trazado_4081" data-name="Trazado 4081" d="M691.79,264.406a1.8,1.8,0,0,0-.178-.246,2.4,2.4,0,0,0-.6-.484,2.081,2.081,0,0,0-.459-.214,2.854,2.854,0,0,0-.54-.152,4.94,4.94,0,0,0-.6-.042,2.111,2.111,0,0,0-.619.063c-.2.049-.406.1-.6.164a2.6,2.6,0,0,0-.532.281c-.165.106-.317.218-.455.326a1.575,1.575,0,0,0-.332.382,2.846,2.846,0,0,0-.476.94,4.832,4.832,0,0,0,1.007-.067,2.95,2.95,0,0,1,.411-.063,3.929,3.929,0,0,0,.438-.054c.147-.02.284-.075.434-.092a3.693,3.693,0,0,0,.442-.07c.288-.1.59-.1.876-.2.149-.034.292-.065.427-.094s.278-.088.4-.112c.26-.06.491-.14.663-.185s.293-.086.293-.086" transform="translate(-486.886 -186.742)" fill="#5c1e11"/>
        <path id="Trazado_4082" data-name="Trazado 4082" d="M656.172,194.687s11.782-6.152,13.684-16.063c0,0,10.47,15.806,27.437,15.714l3.542.883s7.22-39.533-26.054-34.741c0,0-30.265-4.111-21.5,33.858Z" transform="translate(-462.265 -113.549)" fill="#5c1e11"/>
        <g id="Grupo_2218" data-name="Grupo 2218" transform="translate(196.138 88.69)" opacity="0.5">
          <g id="Grupo_2217" data-name="Grupo 2217">
            <g id="Grupo_2216" data-name="Grupo 2216" clip-path="url(#clip-path-14)">
              <path id="Trazado_4083" data-name="Trazado 4083" d="M681.538,308.723a3.379,3.379,0,1,1-3.372-3.595,3.488,3.488,0,0,1,3.372,3.595" transform="translate(-674.795 -305.128)" fill="#ffadad"/>
            </g>
          </g>
        </g>
        <g id="Grupo_2221" data-name="Grupo 2221" transform="translate(224.166 88.69)" opacity="0.5">
          <g id="Grupo_2220" data-name="Grupo 2220">
            <g id="Grupo_2219" data-name="Grupo 2219" clip-path="url(#clip-path-14)">
              <path id="Trazado_4084" data-name="Trazado 4084" d="M777.965,308.723a3.379,3.379,0,1,1-3.372-3.595,3.488,3.488,0,0,1,3.372,3.595" transform="translate(-771.222 -305.128)" fill="#ffadad"/>
            </g>
          </g>
        </g>
        <path id="Trazado_4085" data-name="Trazado 4085" d="M698.652,483.4h-54.8c4.372-8.188,5.592-25.192,5.9-36.717.017-.747.035-1.471.047-2.165.038-2.067.046-3.895.041-5.386,0-.259,0-.509,0-.747-.009-2.168-.047-3.453-.047-3.453a15.937,15.937,0,0,1-1.1-2.171c-.076-.18-.145-.357-.209-.535,0-.006,0-.009-.006-.015q-.118-.314-.218-.628c-.041-.119-.076-.238-.11-.355-.049-.169-.1-.337-.142-.506,0,0,0-.006,0-.009a15.843,15.843,0,0,1-.442-2.564,19.853,19.853,0,0,1,1.648-9.339c.189-.445.381-.866.573-1.261.026-.055.052-.108.079-.16a22.17,22.17,0,0,1,2.035-3.389.14.14,0,0,0,.012-.017s-.006-.07-.017-.206c-.029-.442-.078-.907-.14-1.389,0-.035-.009-.073-.015-.11s-.009-.09-.014-.137c-.02-.148-.041-.3-.064-.451-.968-6.709-4.127-16.126-5.22-19.271-.224-.639-.36-1.02-.375-1.064,0,0,0,0,0-.006,4.886-2.7,15.827-4.014,15.827-4.014a0,0,0,0,0,0,0,9.67,9.67,0,0,0,4.456,3.8,11.106,11.106,0,0,0,1.238.456,9.822,9.822,0,0,0,3.433.474l0-.058s.093.015.241.032c.151-.017.241-.032.241-.032v.058a10.642,10.642,0,0,0,8.917-4.4c.073-.108.145-.221.215-.334,0,0,10.941,1.311,15.827,4.014,0,0-.012.052-.032.151v0c-.209.974-1.357,6.438-2.322,12.231-.607,3.627-1.139,7.389-1.325,10.255a22.993,22.993,0,0,1,2.07,5.584c.169.709.317,1.468.427,2.27.093.666.16,1.357.192,2.072.029.61.032,1.238,0,1.878v0c-.015.349-.038.7-.073,1.058a19.432,19.432,0,0,1-.308,2.058v0c-.107.523-.238,1.049-.4,1.581-.049.169-.1.334-.157.506s-.11.328-.169.491a18.976,18.976,0,0,1-1.645,3.439s-.015.535-.029,1.494c-.015.907-.026,2.192-.023,3.764v0c0,.75.006,1.564.015,2.436.125,11.173,1.058,31.554,5.976,40.771" transform="translate(-456.706 -274.754)" fill="#579d9d"/>
        <path id="Trazado_4086" data-name="Trazado 4086" d="M599.257,401.152s-4.694,1.872-10.827,15.286-11.689,30.277-10.349,32.385,25.963,12.075,60.838,8.434l-5.356-11.537s-34.4-2.454-36.319-4.371,7.858-17.565,7.858-17.565-1.534-18.181-5.846-22.632" transform="translate(-409.911 -284.552)" fill="#a1d7d6"/>
        <path id="Trazado_4087" data-name="Trazado 4087" d="M773.385,556s4.214-3.413,5.222-2.765c.737.475.332,1.533-1.009,2.968a33.087,33.087,0,0,0,5.633-1.387c1.556-.716,2.09-1.679,2.687-.7s-2.03,6.966-9.187,9.093Z" transform="translate(-548.59 -392.375)" fill="#f4bd9e"/>
        <path id="Trazado_4088" data-name="Trazado 4088" d="M810.838,471.276h4a161.593,161.593,0,0,1-4.022-15.978c-1.53-8.877,1.659-5.795,4.905-4.631v0a3.938,3.938,0,0,0,2.731.191c4.819-1.865-.6-1.751,0-3.733-23.191-15.838-7.61,24.149-7.61,24.149" transform="translate(-571.524 -314.532)" fill="#ebc3b3"/>
        <path id="Trazado_4089" data-name="Trazado 4089" d="M698.623,479.251h40.23a.09.09,0,0,0,.085-.121h0c-.046-.137-.092-.271-.14-.408a58.207,58.207,0,0,0-7.375-14.906c-6.877-9.479-14.515-10.2-20.67-8.321a30.838,30.838,0,0,0-11.963,7.528Z" transform="translate(-495.559 -322.507)" fill="#fff"/>
        <path id="Trazado_4090" data-name="Trazado 4090" d="M711.122,499.956A8.094,8.094,0,0,0,711.1,497a5.9,5.9,0,0,0-.954-2.241c-1-1.552-2.9-3.144-3.566-2.957-.253.072-.059.1-.033,1.3.076,3.6,1.286,4.183,1.148,6.4-.141,2.263-3.206,3.165-2.327,4.456.127.186-1.9,1.449-.707,1.588.133.016,1.493.168,3.888-1.42a7.249,7.249,0,0,0,2.576-4.177" transform="translate(-499.572 -348.845)" fill="#8e6b61"/>
        <path id="Trazado_4091" data-name="Trazado 4091" d="M743.568,521.33h.422c.867-2.516-.586-7.126-.658-7.349.911,4.022.765,6.168.237,7.349" transform="translate(-527.272 -364.586)" fill="#b5b6b6"/>
        <path id="Trazado_4092" data-name="Trazado 4092" d="M768.411,506.843a17.261,17.261,0,0,0,1.713,2.766h17.64c.067-.054.116-.1.148-.121l.042-.036c-.061-.125-3.332-3.523-3.393-3.645-7.985-15.882-13.2-2.724-16.15,1.036" transform="translate(-545.062 -353.357)" fill="#b5b6b6"/>
        <path id="Trazado_4093" data-name="Trazado 4093" d="M758.231,527.981s-2.337-.57-4.633,3.258c2.406,0,6.346-.492,6.346-.492Z" transform="translate(-534.555 -374.495)" fill="#b5b6b6"/>
        <path id="Trazado_4094" data-name="Trazado 4094" d="M769.538,508.044a17.246,17.246,0,0,0,1.713,2.766h17.64c.068-.054.117-.095.148-.122l.043-.036c-.06-.124-.123-.249-.184-.371-7.984-15.882-13.728-13.049-19.36-2.237" transform="translate(-545.861 -354.067)" fill="#faeed4"/>
        <path id="Trazado_4095" data-name="Trazado 4095" d="M754.752,532.183h6.011l-1.713-2.766s-2-1.061-4.3,2.766" transform="translate(-535.373 -375.439)" fill="#faeed4"/>
        <path id="Trazado_4096" data-name="Trazado 4096" d="M740.344,455.494c1.815,2.515,4.636,5.473,8.052,5.854,6.07.677,6.376,3.466,10.407,2.974a12.364,12.364,0,0,0,2.212-.507c-6.876-9.479-14.514-10.2-20.671-8.321" transform="translate(-525.153 -322.507)" fill="#ebc3b3"/>
        <path id="Trazado_4097" data-name="Trazado 4097" d="M759.114,535.9h1.028a3.113,3.113,0,0,1,.71-1.378,1.986,1.986,0,0,0-1.737,1.378" transform="translate(-538.467 -379.156)" fill="#b5b6b6"/>
        <path id="Trazado_4098" data-name="Trazado 4098" d="M637.08,456.941c.472-2.064,2.934-10.27,4.912-10.18,1.42.065,2.757,7.314,2.806,9.408Z" transform="translate(-451.904 -316.903)" fill="#c4a397"/>
        <path id="Trazado_4099" data-name="Trazado 4099" d="M699.688,460.553c-.222-2.105-1.684-10.547-3.658-10.695-1.418-.105-3.612,6.931-3.911,9.005Z" transform="translate(-490.945 -319.1)" fill="#c4a397"/>
        <path id="Trazado_4100" data-name="Trazado 4100" d="M650.027,456.744l.26,6.19-1.259-.076Z" transform="translate(-460.379 -323.985)" fill="#8e6b61"/>
        <path id="Trazado_4101" data-name="Trazado 4101" d="M703.447,459.952l.26,6.19-1.258-.076Z" transform="translate(-498.272 -326.26)" fill="#8e6b61"/>
        <path id="Trazado_4102" data-name="Trazado 4102" d="M644.235,471.2c-7.432-.446-13.8.2-14.251,8.21-.614,11.011,8.34,11.833,16.178,11.955,7.327-.083,12.663-4.993,10.7-12.956-1.393-5.837-7.417-6.9-12.628-7.209" transform="translate(-446.849 -334.167)" fill="#ebc3b3"/>
        <path id="Trazado_4103" data-name="Trazado 4103" d="M642.73,487.76c-3.444-.858-3.352.888-5.685,2.347s-3.99-.361-6.274.055c-6.489.916-2.849,8.752.538,10.827,4.24,2.463,12.464,2.41,17.509,1.865,6.025-.652,9.976-8.418,4.147-10.433-1.548-.421-3.343.714-5.057.112-2.054-.793-2.089-3.757-4.664-4.574Z" transform="translate(-444.883 -345.825)" fill="#fff"/>
        <path id="Trazado_4104" data-name="Trazado 4104" d="M674.594,492.141c-2.926-.077-.654,1.906-.073,1.941.776.047,3.352-1.746.073-1.941" transform="translate(-477.477 -349.092)" fill="#202021"/>
        <path id="Trazado_4105" data-name="Trazado 4105" d="M671.474,496.948a1.89,1.89,0,0,1-.454,1.92,1.181,1.181,0,0,1-1.381.271,1.05,1.05,0,0,1-.411-.817c-.011-.114-.185-.076-.174.037a1.256,1.256,0,0,0,.4.864,1.026,1.026,0,0,0,.752.216,1.753,1.753,0,0,0,1.409-1.149,2.223,2.223,0,0,0,.033-1.378c-.03-.11-.2-.074-.174.037" transform="translate(-474.584 -352.43)" fill="#202021"/>
        <path id="Trazado_4106" data-name="Trazado 4106" d="M677.988,497.981c.035.344.034.691.08,1.034a1.726,1.726,0,0,0,.333.906,1.2,1.2,0,0,0,.863.34,1.576,1.576,0,0,0,.887-.245,1.249,1.249,0,0,0,.565-.824c.021-.112-.157-.121-.178-.01a1.224,1.224,0,0,1-1.248.9,1.024,1.024,0,0,1-.776-.3,1.674,1.674,0,0,1-.278-.837c-.042-.332-.042-.666-.076-1-.011-.113-.185-.076-.174.037" transform="translate(-480.921 -353.161)" fill="#202021"/>
        <path id="Trazado_4107" data-name="Trazado 4107" d="M620.832,501.923l-4.932-.933-.694-.131c-.112-.021-.122.157-.011.178l4.932.933.694.131c.112.021.122-.156.011-.177" transform="translate(-436.324 -355.276)" fill="#202021"/>
        <path id="Trazado_4108" data-name="Trazado 4108" d="M619.563,508.207l-6.032-.362a.089.089,0,0,0-.011.177l6.032.362a.089.089,0,0,0,.011-.177" transform="translate(-435.135 -360.232)" fill="#202021"/>
        <path id="Trazado_4109" data-name="Trazado 4109" d="M619.549,513.606l-4.888.236-.7.034c-.113.005-.125.183-.01.177l4.888-.236.7-.034c.113-.005.125-.183.011-.177" transform="translate(-435.442 -364.319)" fill="#202021"/>
        <path id="Trazado_4110" data-name="Trazado 4110" d="M719.631,508.876l5.008-.336.7-.047c.113-.008.125-.185.011-.177l-5.008.336-.7.047c-.113.008-.125.185-.011.177" transform="translate(-510.404 -360.567)" fill="#202021"/>
        <path id="Trazado_4111" data-name="Trazado 4111" d="M719.356,514.378l6.032.362a.089.089,0,0,0,.011-.177l-6.032-.362a.089.089,0,0,0-.011.177" transform="translate(-510.208 -364.741)" fill="#202021"/>
        <path id="Trazado_4112" data-name="Trazado 4112" d="M719.915,518.99l4.825.819.688.117c.113.019.123-.158.011-.177l-4.825-.819-.688-.117c-.113-.019-.122.158-.011.177" transform="translate(-510.606 -368.012)" fill="#202021"/>
        <path id="Trazado_4113" data-name="Trazado 4113" d="M654.6,486.268a.931.931,0,1,1-.873-.985.931.931,0,0,1,.873.985" transform="translate(-463.01 -344.228)" fill="#252526"/>
        <path id="Trazado_4114" data-name="Trazado 4114" d="M698.24,488.889a.931.931,0,1,1-.873-.985.931.931,0,0,1,.873.985" transform="translate(-493.968 -346.087)" fill="#252526"/>
        <path id="Trazado_4115" data-name="Trazado 4115" d="M682.129,527.582a4.627,4.627,0,0,0-2.158-2.741,12,12,0,0,1-3.317-2.244c-.493-.549-1.334,2.089.693,3.238,0,0-7.726-2.736-8.4-2.609s-1.064,1.229.99,2.012,3.557,1.447,3.557,1.447-7.356-1.931-8.42-1.326c-.656.374-.612,1.307,1.6,2.009,2.073.657,6.609,1.581,6.609,1.581s-6.974-1.286-7.551-.443c-.426.624.131,1.438,2.151,1.823s5.086.914,5.086.914-5.541-.452-5.6.435,2.851,1.177,5.208,1.5,5.76,1.465,8.011-.781Z" transform="translate(-471.502 -370.645)" fill="#f4bd9e"/>
        <path id="Trazado_4116" data-name="Trazado 4116" d="M747.605,416.438c-6.132-13.414-10.828-15.286-10.828-15.286-1.429,1.475-2.55,4.46-3.414,7.789l-.987,8.294a19.186,19.186,0,0,0,.516,7.224l1.3,4.846c.385.686.766,1.369,1.132,2.039,2.142,3.925,3.762,7.4,2.771,8.392-1.916,1.916-33.367-1.41-33.367-1.41l-4.18,9.935c34.875,3.641,51.676,9.231,54.829,1.349,1.556-3.889-1.637-19.758-7.768-33.172" transform="translate(-496.921 -284.552)" fill="#a1d7d6"/>
        <path id="Trazado_4117" data-name="Trazado 4117" d="M518.634,577.1s4.222-.469,4.362-.5a20.539,20.539,0,0,1,2.128.907s.07,1.953-.14,2.023-4.813.384-4.918.349-1.432-2.775-1.432-2.775" transform="translate(-367.886 -409.001)" fill="#683da3"/>
      </g>
    </g>
  </g>
</svg>
