<svg id="Grupo_2110" data-name="Grupo 2110" xmlns="http://www.w3.org/2000/svg" xmlns:xlink="http://www.w3.org/1999/xlink" width="37" height="37" viewBox="0 0 37 37">
  <defs>
    <clipPath id="clip-path">
      <rect id="Rectángulo_1125" data-name="Rectángulo 1125" width="37" height="37" fill="#57419d"/>
    </clipPath>
  </defs>
  <g id="Grupo_2109" data-name="Grupo 2109" clip-path="url(#clip-path)">
    <path id="Trazado_3543" data-name="Trazado 3543" d="M33.884,0H3.116A3.12,3.12,0,0,0,0,3.116V33.884A3.12,3.12,0,0,0,3.116,37H33.884A3.119,3.119,0,0,0,37,33.884V3.116A3.12,3.12,0,0,0,33.884,0m.73,3.116V33.884a.731.731,0,0,1-.73.73H3.116a.731.731,0,0,1-.73-.73V3.116a.731.731,0,0,1,.73-.73H33.884a.731.731,0,0,1,.73.73" fill="#57419d"/>
    <path id="Trazado_3544" data-name="Trazado 3544" d="M70.206,49.062a25.745,25.745,0,0,0-19.266-2.52,26.545,26.545,0,0,0-6.18,2.52,1.463,1.463,0,0,0-.608,1.667l2.265,7.842a1.316,1.316,0,0,0,.675.834,1.063,1.063,0,0,0,.457.1,1.076,1.076,0,0,0,.564-.163,17.635,17.635,0,0,1,18.741,0,1.073,1.073,0,0,0,1.022.058,1.308,1.308,0,0,0,.675-.834l2.265-7.843a1.462,1.462,0,0,0-.608-1.666m-12.723,2.33a1.293,1.293,0,0,0-1.193,1.372v1.187a20.186,20.186,0,0,0-8.041,2.258l-1.5-5.184c.163-.081.327-.159.49-.235l.122.4a1.216,1.216,0,0,0,1.125.916,1.059,1.059,0,0,0,.421-.088,1.448,1.448,0,0,0,.7-1.742l-.132-.428c.73-.264,1.468-.491,2.2-.679l.059.389A1.25,1.25,0,0,0,52.915,50.7a1.1,1.1,0,0,0,.215-.022,1.374,1.374,0,0,0,.962-1.582l-.057-.388c.747-.11,1.5-.184,2.255-.222v.368a1.2,1.2,0,1,0,2.386,0v-.368c.751.037,1.508.112,2.255.222l-.057.389a1.373,1.373,0,0,0,.963,1.583,1.215,1.215,0,0,0,1.389-1.118l.058-.391c.732.187,1.47.415,2.2.679l-.132.429a1.446,1.446,0,0,0,.705,1.742,1.06,1.06,0,0,0,.421.088,1.218,1.218,0,0,0,1.125-.915l.122-.4c.163.076.327.153.489.234l-1.5,5.185a20.182,20.182,0,0,0-8.04-2.258V52.765a1.293,1.293,0,0,0-1.193-1.372" transform="translate(-38.983 -40.403)" fill="#8c939b"/>
    <path id="Trazado_3545" data-name="Trazado 3545" d="M150.25,163.953V174.8a1.13,1.13,0,0,0,2.259,0V163.953a1.13,1.13,0,0,0-2.259,0" transform="translate(-132.843 -143.993)" fill="#8c939b"/>
  </g>
</svg>
