<svg id="Grupo_2108" data-name="Grupo 2108" xmlns="http://www.w3.org/2000/svg" xmlns:xlink="http://www.w3.org/1999/xlink" width="37.841" height="40.919" viewBox="0 0 37.841 40.919">
  <defs>
    <clipPath id="clip-path">
      <rect id="Rectángulo_1124" data-name="Rectángulo 1124" width="37.841" height="40.919" fill="none"/>
    </clipPath>
  </defs>
  <g id="Grupo_2106" data-name="Grupo 2106" clip-path="url(#clip-path)">
    <path id="Trazado_3541" data-name="Trazado 3541" d="M22.608,88.714a11.46,11.46,0,0,1-9.424,9.424h0a.684.684,0,0,0-.585.683v2.1a.667.667,0,0,0,.683.683h2.832v2.443H13.282a.667.667,0,0,0-.683.683v1.758H10.157v-1.758a.667.667,0,0,0-.683-.683H6.641V101.6H9.473a.667.667,0,0,0,.683-.683v-2.1a.685.685,0,0,0-.587-.683,11.361,11.361,0,0,1,1.074-22.558,12.778,12.778,0,0,0-.878,2.734,8.832,8.832,0,0,0-7.129,8.594,8.731,8.731,0,0,0,8.74,8.74c9.277,0,12.158-12.695,3.761-16.65A7.088,7.088,0,0,1,16.261,76.6a11.374,11.374,0,0,1,6.347,12.111" transform="translate(0 -65.568)" fill="#8c939b"/>
    <path id="Trazado_3542" data-name="Trazado 3542" d="M108.385,0l-5.937.638a.178.178,0,0,0-.106.3l1.406,1.392a.654.654,0,0,1-.039.936L100.877,6.1a.731.731,0,0,1-.927.049,11.4,11.4,0,0,0-18.018,7.422A11.277,11.277,0,0,0,88.28,25.637,7.174,7.174,0,0,0,89.4,23.243a8.748,8.748,0,1,1,12.5-7.909,8.831,8.831,0,0,1-7.129,8.593,12.739,12.739,0,0,1-.878,2.735A11.41,11.41,0,0,0,102.2,8.4a.617.617,0,0,1,.1-.878l2.832-2.833a.653.653,0,0,1,.978,0l.634.636h.027l.466.461a.178.178,0,0,0,.3-.085L108.776.447A.362.362,0,0,0,108.385,0" transform="translate(-70.945 -0.001)" fill="#57419d"/>
  </g>
</svg>
