<svg id="Grupo_2114" data-name="Grupo 2114" xmlns="http://www.w3.org/2000/svg" xmlns:xlink="http://www.w3.org/1999/xlink" width="40" height="38.825" viewBox="0 0 40 38.825">
  <defs>
    <clipPath id="clip-path">
      <rect id="Rectángulo_1127" data-name="Rectángulo 1127" width="40" height="38.825" fill="none"/>
    </clipPath>
  </defs>
  <g id="Grupo_2113" data-name="Grupo 2113" clip-path="url(#clip-path)">
    <path id="Trazado_3549" data-name="Trazado 3549" d="M135.541,222.724c.018-.091.026-.138.028-.156q-.013.076-.028.152v0" transform="translate(-119.703 -196.561)" fill="#e99248"/>
    <path id="Trazado_3550" data-name="Trazado 3550" d="M27.277,12.518a1.027,1.027,0,0,0-.333-.45,4.081,4.081,0,0,0-2.088-1.093,15.829,15.829,0,0,0-2.863-.414c-.956-.068-1.921-.092-2.882-.07q-.317-.632-.664-1.247a8.054,8.054,0,0,0-2.093-2.729,6.664,6.664,0,0,0-3.28-.845c-.326-.026-.653-.043-.981-.053A9.562,9.562,0,0,0,11.376,1.4,2.251,2.251,0,0,0,8.82.065a3.4,3.4,0,0,0-1.73,1.247A20.34,20.34,0,0,0,4.228,7.089C3.313,9.566,2.556,12.1,1.853,14.645Q.87,18.2.037,21.8a1.268,1.268,0,0,0,.857,1.509c2.193.888,4.4,1.74,6.636,2.521a42.465,42.465,0,0,0,6.781,1.934c.694.119,1.653-.316,1.553-1.183-.016-.141-.019-.277-.027-.415,0,0,0,0,0-.006l-.008.039c0-.014.005-.029.008-.043,0-.07.031-.194.028-.152.013-.078.027-.155.044-.232a2.4,2.4,0,0,1,.724-1.455,1.114,1.114,0,0,1,.393-.187c.238-.073.479-.138.72-.2.685-.185,1.371-.364,2.053-.557a24.129,24.129,0,0,0,4.825-1.77,5.489,5.489,0,0,0,2.72-3.545c.489-1.62.88-3.987-.067-5.54M15.012,8.566c.036.028.05.043,0,0m-5.5-4.8c0-.021,0-.018,0,0m-.628-.788c.03-.041.033-.043,0,0M25.057,17.128q-.083.31-.188.614c-.056.163-.113.31-.121.331a4.768,4.768,0,0,1-.249.49c-.038.065-.078.127-.118.191-.014.022-.023.038-.03.049l-.026.026c-.066.067-.134.132-.2.194-.007,0-.18.134-.237.171a8.024,8.024,0,0,1-.949.515,29.521,29.521,0,0,1-4.5,1.5c-1.248.339-2.736.534-3.671,1.511a5.283,5.283,0,0,0-1.247,2.392,52.435,52.435,0,0,1-5.333-1.639c-1.858-.649-3.7-1.349-5.528-2.077.93-3.914,1.963-7.814,3.233-11.631.365-1.1.751-2.184,1.181-3.255q.079-.2.16-.392l.042-.1.017-.04c.1-.242.211-.483.322-.723.188-.4.385-.805.6-1.2.191-.347.4-.68.623-1.007l.039-.056c.037-.046.074-.092.112-.136.078-.09.162-.174.247-.257a5.44,5.44,0,0,1,.19.674c.028.128.049.257.072.386.008.044.014.089.021.133,0,.016,0,.034.006.056.03.287.055.575.07.863a18.654,18.654,0,0,1,0,2.137,1.236,1.236,0,0,0,1.227,1.227c.639-.024,1.282-.01,1.921.029a8.3,8.3,0,0,1,1.357.158,5.527,5.527,0,0,1,.711.19c.349.121-.22-.075.1.046a.365.365,0,0,1,.072.043,3.845,3.845,0,0,1,.354.376c.024.031.066.083.086.111.074.1.147.208.218.314.285.426.545.869.793,1.317.31.56.606,1.129.877,1.709a1.2,1.2,0,0,0,1.059.608,30.766,30.766,0,0,1,3.265.02c.431.024.862.059,1.291.108l.2.026.194.03c.209.034.418.074.625.12s.384.092.573.151c.075.023.342.135.342.127.091.05.179.106.272.151v0a.268.268,0,0,0,.041.055.23.23,0,0,0,.04.051c0,.018.009.047.021.094.04.156.083.31.109.469l.006.088c.01.133.016.266.018.4a7.582,7.582,0,0,1-.3,2.262" transform="translate(0 0)" fill="#57419d"/>
    <path id="Trazado_3551" data-name="Trazado 3551" d="M277.473,188.988l-.007.017.007-.018h0" transform="translate(-245.044 -166.904)" fill="#e99248"/>
    <path id="Trazado_3552" data-name="Trazado 3552" d="M200.969,142.8a31.711,31.711,0,0,0-1.162-3.48c-.152-.486-.226-1-.341-1.5-.368-1.584-.792-3.585-2.022-4.746a2.164,2.164,0,0,0-2.591-.353,5.479,5.479,0,0,0-1.733,1.8,19.032,19.032,0,0,0-1.7,3.2,11.671,11.671,0,0,0-2.563.443,5.155,5.155,0,0,0-2.242,1.221c-.677.694-.774,1.65-1.283,2.445a8.285,8.285,0,0,1-1.746,1.814,2.474,2.474,0,0,0-1.1,1.457,7.538,7.538,0,0,0,1.1,5.254,4.863,4.863,0,0,0,1.185,1.25,6.208,6.208,0,0,0,1.258.572c.983.416,1.536,1.757,1.86,2.7a1.4,1.4,0,0,0,.294.5,1.079,1.079,0,0,0,1.215.353,41.845,41.845,0,0,0,10.307-4.492,1.229,1.229,0,0,0,.608-1.059c-.149-2.514,1.129-4.868.652-7.379m-4.81-7.995c-.123.07-.1.091-.152.09l.017-.017a.629.629,0,0,1,.136-.072m-.27.195h0m.016-.116-.033,0,.033,0m-5.008,5.35h0m-6.028,5.389a.171.171,0,0,1,.026-.077c.038-.045.016,0-.026.077m13.542.12a18.6,18.6,0,0,0-.561,3.759,38.826,38.826,0,0,1-8.062,3.537,8.284,8.284,0,0,0-1.191-1.9,4.517,4.517,0,0,0-1.194-1.013,4.078,4.078,0,0,0-.695-.3c-.1-.034-.206-.056-.306-.093-.048-.024-.1-.05-.142-.078-.029-.017-.134-.091-.148-.1-.042-.037-.084-.075-.122-.113s-.247-.282-.228-.249a4.709,4.709,0,0,1-.511-.948,7.455,7.455,0,0,1-.315-1.141,4.672,4.672,0,0,1-.089-.934c0-.134.011-.267.014-.4.055-.049.108-.1.162-.146a13.193,13.193,0,0,0,1.694-1.579,7.166,7.166,0,0,0,1.516-2.728c0-.015.007-.028.01-.039q.03-.053.062-.1c-.011.026.072-.067.138-.136-.012.024.257-.176.318-.209s.129-.067.194-.1l.056-.028.063-.023a7.849,7.849,0,0,1,1.106-.313c.2-.042.4-.076.6-.109l.076-.011.255-.029c.374-.038.751-.066,1.127-.067a1.273,1.273,0,0,0,1.183-.9c.024-.059.048-.118.073-.177-.039.1-.038.087.007-.017l.019-.045-.018.045.033-.075c.069-.157.139-.315.21-.471.3-.655.62-1.3.98-1.924.18-.313.37-.621.576-.917.055-.078.11-.156.167-.232l.007-.01.038-.043c.111-.126.228-.246.343-.368l.016-.017c.012.018.025.036.036.055.088.15.177.3.255.452a5.451,5.451,0,0,1,.361.9,22.889,22.889,0,0,1,.608,2.229c.1.445.169.908.305,1.345.324,1.038.806,2.018,1.072,3.077a5.55,5.55,0,0,1-.1,2.694" transform="translate(-161.076 -116.962)" fill="#8c939b"/>
    <path id="Trazado_3553" data-name="Trazado 3553" d="M97.376,89.553a1.346,1.346,0,1,1-1.346-1.346,1.346,1.346,0,0,1,1.346,1.346" transform="translate(-83.62 -77.9)" fill="#57419d"/>
    <path id="Trazado_3554" data-name="Trazado 3554" d="M248.4,217.263a1.136,1.136,0,1,1-1.136-1.136,1.136,1.136,0,0,1,1.136,1.136" transform="translate(-217.365 -190.873)" fill="#8c939b"/>
  </g>
</svg>
