<svg xmlns="http://www.w3.org/2000/svg" width="24" height="24" viewBox="0 0 24 24">
  <g id="vuesax_bold_pet" data-name="vuesax/bold/pet" transform="translate(-428 -444)">
    <g id="pet">
      <path id="Vector" d="M15.221,6.4A7.937,7.937,0,0,0,7.661,0,7.811,7.811,0,0,0,.021,7.03a5.153,5.153,0,0,0,5.2,5.65H9.9a5.362,5.362,0,0,0,4.18-1.85A5.393,5.393,0,0,0,15.221,6.4Z" transform="translate(431.859 453.32)" fill="#57419d"/>
      <path id="Vector-2" data-name="Vector" d="M5.86,2.93A2.93,2.93,0,1,1,2.93,0,2.93,2.93,0,0,1,5.86,2.93Z" transform="translate(435.35 446)" fill="#57419d"/>
      <path id="Vector-3" data-name="Vector" d="M4.88,2.44A2.44,2.44,0,1,1,2.44,0,2.44,2.44,0,0,1,4.88,2.44Z" transform="translate(442.5 448.15)" fill="#57419d"/>
      <path id="Vector-4" data-name="Vector" d="M3.9,1.95A1.95,1.95,0,1,1,1.95,0,1.95,1.95,0,0,1,3.9,1.95Z" transform="translate(446.6 453.03)" fill="#57419d"/>
      <path id="Vector-5" data-name="Vector" d="M4.88,2.44A2.44,2.44,0,1,1,2.44,0,2.44,2.44,0,0,1,4.88,2.44Z" transform="translate(429.5 450.1)" fill="#57419d"/>
      <path id="Vector-6" data-name="Vector" d="M0,0H24V24H0Z" transform="translate(452 468) rotate(180)" fill="none" opacity="0"/>
    </g>
  </g>
</svg>
