<svg xmlns="http://www.w3.org/2000/svg" width="189" height="147.913" viewBox="0 0 189 147.913">
  <g id="Grupo_629" data-name="Grupo 629" transform="translate(-136 -120.03)">
    <g id="Grupo_617" data-name="Grupo 617" transform="translate(136 120.03)">
      <g id="Grupo_615" data-name="Grupo 615" transform="translate(0 47.429)">
        <path id="Trazado_1363" data-name="Trazado 1363" d="M327.272,369.233l-3.714,49.728H206.288l-3.718-49.728a10.537,10.537,0,0,1,10.466-11.245h103.77A10.537,10.537,0,0,1,327.272,369.233Z" transform="translate(-187.906 -352.617)" fill="#779cf7"/>
        <path id="Trazado_1364" data-name="Trazado 1364" d="M299.511,741c-7.42,1.15-21.294,1.924-37.185,1.924S160.35,742.148,152.93,741c7.42-1.15,93.5-1.924,109.4-1.924S292.091,739.847,299.511,741Z" transform="translate(-149.205 -649.145)" fill="#c7d2e2"/>
        <path id="Trazado_1365" data-name="Trazado 1365" d="M304.282,506.63l-1.46,13.4-1.378,12.662a8.31,8.31,0,0,1-6.741,7.25,8.174,8.174,0,0,1-.973.124c-.193.016-.389.022-.588.022H172.622c-.2,0-.4-.007-.588-.022a8.178,8.178,0,0,1-.973-.124,8.31,8.31,0,0,1-6.741-7.25l-1.378-12.662-1.46-13.4a1.927,1.927,0,0,1,1.331-2.043,1.843,1.843,0,0,1,.48-.092l6.539-.7a5.4,5.4,0,0,1,4.791,1.864,5.315,5.315,0,0,1,1.169,2.518l2.26,12.324.1.538.123.673v.191H287.491v-.191l.123-.673.1-.538,2.26-12.324a5.316,5.316,0,0,1,1.169-2.518,5.4,5.4,0,0,1,4.791-1.864l6.538.7a1.844,1.844,0,0,1,.48.092A1.927,1.927,0,0,1,304.282,506.63Z" transform="translate(-155.866 -466.037)" fill="#436ec4"/>
        <path id="Trazado_1366" data-name="Trazado 1366" d="M732.2,684.649l-.194-17.123h-6.333l3.722,17.136a1.035,1.035,0,0,0,.964.663h1.3A.561.561,0,0,0,732.2,684.649Z" transform="translate(-595.935 -593.472)" fill="#4c231c"/>
        <path id="Trazado_1367" data-name="Trazado 1367" d="M342.166,567.386a2.09,2.09,0,0,1-.012.219c-.249,2.146-4.165,4.045-10.146,5.282-6.768,1.4-85.97,1.4-92.742,0-6.178-1.276-10.158-3.263-10.158-5.5a1.968,1.968,0,0,1,.067-.5,3.807,3.807,0,0,1,1.634-1.967,23.436,23.436,0,0,1,7.982-2.932A18.876,18.876,0,0,1,241,561.71c10.356-.878,48.016-1.093,71.817-.646,2.789.052,5.391.112,7.733.183.823.024,1.61.048,2.365.076,1.452.052,2.777.107,3.956.167a46.835,46.835,0,0,1,5.613.495c1.349.291,2.587.618,3.69.973.348.116.684.232,1.009.351h0a14.519,14.519,0,0,1,3.279,1.607,3.8,3.8,0,0,1,1.63,1.967A1.975,1.975,0,0,1,342.166,567.386Z" transform="translate(-208.623 -510.457)" fill="#97baff"/>
        <path id="Trazado_1368" data-name="Trazado 1368" d="M216.681,684.649l.194-17.123h6.333l-3.722,17.136a1.035,1.035,0,0,1-.964.663h-1.3A.561.561,0,0,1,216.681,684.649Z" transform="translate(-198.92 -593.472)" fill="#4c231c"/>
        <path id="Trazado_1369" data-name="Trazado 1369" d="M325.548,641.8v5.966a2.152,2.152,0,0,1-2.143,2.161H201.572a2.152,2.152,0,0,1-2.143-2.161V641.8Z" transform="translate(-185.473 -573.455)" fill="#643429"/>
        <path id="Trazado_1370" data-name="Trazado 1370" d="M341.441,583.027a23.75,23.75,0,0,1-.117,2.384,2.771,2.771,0,0,1-2.639,2.374c-5.338.417-11.425.7-17.954.806-6.529-.105-84.827-.389-90.165-.806a2.771,2.771,0,0,1-2.639-2.374,24.381,24.381,0,0,1,0-4.768,2.368,2.368,0,0,1,.237-.822,2.805,2.805,0,0,1,1.729-1.428,3.1,3.1,0,0,1,.673-.128c5.338-.414,83.636-.7,90.165-.8,4.228.067,8.27.21,12.044.417q3.081.163,5.91.386a3.1,3.1,0,0,1,.673.128,2.806,2.806,0,0,1,1.729,1.428,2.282,2.282,0,0,1,.218.695.808.808,0,0,1,.019.127A23.846,23.846,0,0,1,341.441,583.027Z" transform="translate(-207.61 -523.393)" fill="#779cf7"/>
        <path id="Trazado_1371" data-name="Trazado 1371" d="M290.031,515.1a7.724,7.724,0,0,1-7.076,7.729c-.013,0-.022,0-.035,0l-1.343,12.541a8.4,8.4,0,0,1-6.741,7.368,8.15,8.15,0,0,1-.973.124c-.193.016-.389.022-.588.022H152.756c-.2,0-.4-.006-.588-.022a8.153,8.153,0,0,1-.973-.124,8.4,8.4,0,0,1-6.741-7.368l-1.343-12.541c-.013,0-.022,0-.035,0a7.763,7.763,0,0,1-1.119-15.282,6.824,6.824,0,0,1,.989-.163,7.149,7.149,0,0,1,.743-.038,7.627,7.627,0,0,1,5.208,2.049,7.777,7.777,0,0,1,2.3,4.363l.164.918,3.088,17.35a4.1,4.1,0,0,0,4.014,3.315h109.1a4.1,4.1,0,0,0,4.013-3.315l3.088-17.35.164-.918a7.777,7.777,0,0,1,2.3-4.363,7.627,7.627,0,0,1,5.208-2.049,7.15,7.15,0,0,1,.743.038,6.823,6.823,0,0,1,.989.163A7.733,7.733,0,0,1,290.031,515.1Z" transform="translate(-136 -468.833)" fill="#779cf7"/>
        <path id="Trazado_1372" data-name="Trazado 1372" d="M327.274,369.239l-.054.8a10.525,10.525,0,0,0-10.413-9.284H213.037a10.525,10.525,0,0,0-10.413,9.284l-.054-.8a10.538,10.538,0,0,1,10.467-11.244h103.77A10.538,10.538,0,0,1,327.274,369.239Z" transform="translate(-187.906 -352.622)" fill="#97baff"/>
        <g id="Grupo_613" data-name="Grupo 613" transform="translate(142.035 49.702)">
          <path id="Trazado_1373" data-name="Trazado 1373" d="M792.078,558.024a5.955,5.955,0,0,1-9.722,1.754.476.476,0,0,0-.67.676,6.9,6.9,0,0,0,11.212-1.947c.261-.553-.556-1.038-.819-.482Z" transform="translate(-781.544 -557.779)" fill="#436ec4"/>
        </g>
        <g id="Grupo_614" data-name="Grupo 614" transform="translate(0.697 49.702)">
          <path id="Trazado_1374" data-name="Trazado 1374" d="M139.219,558.508a6.9,6.9,0,0,0,11.212,1.947.476.476,0,0,0-.67-.676,5.953,5.953,0,0,1-9.723-1.754c-.263-.555-1.08-.071-.819.482Z" transform="translate(-139.168 -557.78)" fill="#436ec4"/>
        </g>
        <path id="Trazado_1375" data-name="Trazado 1375" d="M592,727.7a1.591,1.591,0,0,1-2.3.945,2.557,2.557,0,0,0-2.247.755,1.56,1.56,0,0,1-1.529.407c-.477-.2-1.451-.586-1.66-1.241a4.825,4.825,0,0,1-1.105.618c-1.979.792-3.326-.966-5.195-1.135a3.2,3.2,0,0,0-1.6.264,1.622,1.622,0,0,1-1.571-.137,1.589,1.589,0,0,1-1.351-2.672c1.336-1.267,3.451-4.346,5.557-2.783a4.155,4.155,0,0,1,.9,1.177c.445,1.046-.131.951.927.486a17.845,17.845,0,0,1,3.991-1.605c1.293-.206,1.288.275,2.215.84.723.444-.016.291.848.238.55-.032,1.1-.365,1.681-.365a2.55,2.55,0,0,1,1.822.65A3.64,3.64,0,0,1,592,727.7Z" transform="translate(-476.819 -636.081)" fill="#eaeff9"/>
        <path id="Trazado_1376" data-name="Trazado 1376" d="M262.234,745.693a1.624,1.624,0,0,1-1.833.9c-2.8-.639-3.147,2.767-5.494,3.312-1.985.459-2.372-1.278-3.891-1.8a1.8,1.8,0,0,0-.372-.084c-1.707-.19-3.76,1.954-5.394.417-1.267-1.194-.707-3.7-.178-5.07a1.6,1.6,0,0,1,2.629-.7c.864.761,2.074-.982,2.765-1.267a2.141,2.141,0,0,1,1.807.026c1.8.729,1.917,2.725,3.839.539.717-.814,1.037-1.828,2.336-1.854a3.955,3.955,0,0,1,2.7,1.537c.539.56,1.021,1.162,1.445,1.59A1.548,1.548,0,0,1,262.234,745.693Z" transform="translate(-220.613 -649.951)" fill="#eaeff9"/>
        <path id="Trazado_1377" data-name="Trazado 1377" d="M605.929,571.505a6.68,6.68,0,0,1-2.99-1.954,5.862,5.862,0,0,1-.749-1.1,2.278,2.278,0,0,1-2.163.856c-.759-.153-1.461-1.4-1.754-2.16a2.256,2.256,0,0,1-1.639.512A2.736,2.736,0,0,1,594.7,566.6a1.749,1.749,0,0,1-.786-2.7.557.557,0,0,1,.052-.063c.707-.893,1.383-1.8,2.042-2.731a1.594,1.594,0,0,1,2.467-.322,2.307,2.307,0,0,1,.848,1.352,2.03,2.03,0,0,1,.524-.1,5.666,5.666,0,0,1,2.7-1.431c2.273-.2,2.006,2.292,2.587,3.623.785-.111,1.466-.222,2.084.708a5.6,5.6,0,0,1,.613,2.678c.037.856.026,1.722.089,2.366A1.587,1.587,0,0,1,605.929,571.505Z" transform="translate(-492.87 -510.065)" fill="#eaeff9"/>
        <path id="Trazado_1378" data-name="Trazado 1378" d="M429.049,341.8a1.121,1.121,0,0,1-.419.18,8.923,8.923,0,0,1-3.3.148,18.519,18.519,0,0,0-1.9-.57c-.749-.026-1.215.57-1.77,1.115-1.356,1.331-1.828,2.181-3.687,1.431-2.079-.84-4.488-1.157-6.117-2.963a2.477,2.477,0,0,1-.44-.655c-.555-1.257.524-2.4,1.351-3.544.843-1.162,1.885-2.747,3.509-1.764.9.544,1.362,2.477,2.294,2.651.068.127.136.254.2.386.236-.391.471-.776.707-1.167a12.237,12.237,0,0,1,.953-1.51,2.525,2.525,0,0,1,3.781-.412,1.6,1.6,0,0,1,.45.655,1.534,1.534,0,0,1,.241-.623,2.766,2.766,0,0,1,1.6-1.3,1.557,1.557,0,0,1,1.529.407,3.751,3.751,0,0,1,.3.28c1.278,1.294,2.032,3.332,2.755,4.943A1.7,1.7,0,0,1,429.049,341.8Z" transform="translate(-350.695 -333.782)" fill="#eaeff9"/>
        <path id="Trazado_1379" data-name="Trazado 1379" d="M609.74,734.2a1.591,1.591,0,0,1-2.3.945,2.557,2.557,0,0,0-2.247.755,1.561,1.561,0,0,1-1.529.407c-.477-.2-1.451-.586-1.66-1.241a4.826,4.826,0,0,1-1.105.618c-1.98.792-3.325-.966-5.2-1.135a2.312,2.312,0,0,1,.4-1.083.8.8,0,0,1,1.079-.28,15.37,15.37,0,0,0,2.362,1.738,4.029,4.029,0,0,1,.518-.523c.539-.322.812-.94,1.451-1.12,1.293-.354,1.519.665,2.179,1.352,1.063-1.278,1.838-2.023,3.786-1.5a2.337,2.337,0,0,1,.885.491c.016-.016.036-.032.052-.048-.1-.57.1-1.4.016-1.959a.84.84,0,0,1,.691-.977A3.641,3.641,0,0,1,609.74,734.2Z" transform="translate(-494.555 -642.581)" fill="#b2bfd6"/>
        <path id="Trazado_1380" data-name="Trazado 1380" d="M279.393,751.083a1.624,1.624,0,0,1-1.833.9c-2.8-.639-3.147,2.768-5.493,3.312-1.985.46-2.372-1.278-3.891-1.8a1.789,1.789,0,0,0-.372-.085c-.079-.116-.157-.232-.23-.343a6.446,6.446,0,0,0-.723-.6.792.792,0,0,1-.319-.945c-.278-.75.675-1.6,1.246-.882.141.18.346.475.592.834a9.478,9.478,0,0,1,1.948,1.606,2.668,2.668,0,0,0,.6.084,25.659,25.659,0,0,1,2.5-1.922,2.87,2.87,0,0,1,.592-1.093c.712-.729,1.388-.28,2.194.063a8.587,8.587,0,0,0,1.053.444,6.437,6.437,0,0,0,1.121-.158,1.7,1.7,0,0,0,.251-.259.654.654,0,0,1,.272-.084c.094-.412-.869-1.041-1.272-1.9a.874.874,0,0,1,.675-1.215c.539.56,1.021,1.162,1.445,1.59A1.548,1.548,0,0,1,279.393,751.083Z" transform="translate(-237.771 -655.342)" fill="#b2bfd6"/>
        <path id="Trazado_1381" data-name="Trazado 1381" d="M429.589,344.476a1.119,1.119,0,0,1-.419.179,8.923,8.923,0,0,1-3.3.148,18.5,18.5,0,0,0-1.9-.571c-.749-.026-1.215.571-1.77,1.115-1.356,1.331-1.828,2.181-3.687,1.431-2.079-.84-4.488-1.157-6.117-2.963a2.478,2.478,0,0,1-.44-.655.782.782,0,0,1,.325.1c1.095.581,2.194,1.31,3.341,1.785,1.917.787,3.194,1.194,4.252-.771.555-1.019.838-2.313,1.943-2.9,1.529-.813,2.571.676,4.048.993.293.074.581.148.875.216,1.037.106,1.487-.333,1.362-1.326a17.855,17.855,0,0,0,.775-4.029c1.278,1.294,2.032,3.332,2.755,4.943A1.7,1.7,0,0,1,429.589,344.476Z" transform="translate(-351.235 -336.457)" fill="#b2bfd6"/>
        <path id="Trazado_1382" data-name="Trazado 1382" d="M605.929,583.768a6.68,6.68,0,0,1-2.99-1.954,5.865,5.865,0,0,1-.749-1.1,2.278,2.278,0,0,1-2.163.856c-.759-.153-1.461-1.4-1.754-2.16a2.256,2.256,0,0,1-1.639.512,2.736,2.736,0,0,1-1.932-1.056,1.749,1.749,0,0,1-.786-2.7.573.573,0,0,1,.052-.063c.419.9,1.006,2.556,2.063,2.588.995.026,1.639-1.051,2.262-1.785a.789.789,0,0,1,1.315.349c.157,1.088-.681,2.54-.409,3.422.576,1.838,2.8-1.838,3.493-2.736a.791.791,0,0,1,1.314.354,12.783,12.783,0,0,1,.283,1.606,22.975,22.975,0,0,1,2.006-1.764.793.793,0,0,1,1.309.349,5.881,5.881,0,0,1,.2,1.368c.01.011.021.016.026.026.037.855.026,1.722.089,2.366A1.586,1.586,0,0,1,605.929,583.768Z" transform="translate(-492.87 -522.328)" fill="#b2bfd6"/>
      </g>
      <g id="Grupo_616" data-name="Grupo 616" transform="translate(109.396 0)">
        <path id="Trazado_1383" data-name="Trazado 1383" d="M793.748,765.8c0,.659-12.708,1.193-28.386,1.193s-28.385-.534-28.385-1.193,12.708-1.192,28.385-1.192S793.748,765.139,793.748,765.8Z" transform="translate(-714.144 -621.582)" fill="#7da1b7" opacity="0.75"/>
        <path id="Trazado_1384" data-name="Trazado 1384" d="M793.216,224.833a28.341,28.341,0,0,1-10.7-5.361c-1.116-.848-2.2-1.758-3.251-2.706-5.622-5.088-15.944-15.481-18.679-19.569.153-.2.309-.4.462-.595.879-1.135,1.769-2.263,2.651-3.4,4.589,4.988,16.212,13.447,21.4,16.728,1.071.678,2.113,1.311,3.1,1.9,5.172,3.05,9.028,4.808,9.028,4.808C798.943,224.029,793.216,224.833,793.216,224.833Z" transform="translate(-732.558 -176.968)" fill="#f17785"/>
        <path id="Trazado_1385" data-name="Trazado 1385" d="M859.431,283.5a28.341,28.341,0,0,1-10.7-5.361c-1.116-.848-2.2-1.758-3.251-2.706a22.711,22.711,0,0,1,5.838-6.833c1.071.678,2.113,1.311,3.1,1.9,5.172,3.05,9.029,4.808,9.029,4.808C865.158,282.692,859.431,283.5,859.431,283.5Z" transform="translate(-798.773 -235.631)" fill="#6fa052"/>
        <path id="Trazado_1386" data-name="Trazado 1386" d="M900.978,726.868c.942,1.994.138,4.43-1.217,6.165s-3.2,3.008-4.738,4.58c-.41.419-.83,1-.554,1.549a.97.97,0,0,0,.656.487,2.513,2.513,0,0,0,1.45-.229l10.887-4.028a1.076,1.076,0,0,0,.494-1.632,14.133,14.133,0,0,1-2.607-7.461C904.08,726.87,902.361,726.739,900.978,726.868Z" transform="translate(-836.915 -591.775)" fill="#16162b"/>
        <path id="Trazado_1387" data-name="Trazado 1387" d="M790.485,725.863c-1.062.016-2.132.3-3.194.315a14.937,14.937,0,0,1-9.627,7.428c-.553.13-1.221.324-1.356.88a1.018,1.018,0,0,0,.556,1.06,2.865,2.865,0,0,0,1.24.265,85.869,85.869,0,0,0,12.421-.134A20.946,20.946,0,0,1,790.485,725.863Z" transform="translate(-744.806 -591.436)" fill="#16162b"/>
        <path id="Trazado_1388" data-name="Trazado 1388" d="M862.618,476.112a12.763,12.763,0,0,1-5.131,1.041,13.858,13.858,0,0,1-1.989-.145c-.876-2.349-2.575-7.051-4.43-13.036-3.636-11.737-14.138-44.2-13.956-57.68l12.747-4.5s6.075,39.824,9.616,60.614A108.42,108.42,0,0,0,862.618,476.112Z" transform="translate(-792.246 -339.274)" fill="#3e3e63"/>
        <path id="Trazado_1389" data-name="Trazado 1389" d="M815.714,424.245l-.319,68.861a5.209,5.209,0,0,0,6.374,0l6.055-68.861Z" transform="translate(-775.308 -356.744)" fill="#3e3e63"/>
        <path id="Trazado_1390" data-name="Trazado 1390" d="M841.405,475.261a76.325,76.325,0,0,1-4.123-14.489,147.807,147.807,0,0,1-2.67-15.412c-.062-.612-1.019-.618-.956,0,.189,1.869.449,3.727.751,5.577q-.7-1.117-1.318-2.281c-.29-.548-1.116-.061-.826.487a37.361,37.361,0,0,0,2.485,4.045.577.577,0,0,0,.056.065c.473,2.6,1.013,5.189,1.555,7.776a77.469,77.469,0,0,0,4.219,14.719C840.822,476.315,841.646,475.825,841.405,475.261Z" transform="translate(-788.418 -372.814)" fill="#262642"/>
        <path id="Trazado_1391" data-name="Trazado 1391" d="M673.687,131.362a3.693,3.693,0,0,1-1.352,2.153,5.207,5.207,0,0,1-2.352,1,6.1,6.1,0,0,1-1,.09,6.779,6.779,0,0,1-2.938-.636l-.022-.01a11.063,11.063,0,0,1,1.53,2.038,4.389,4.389,0,0,1,.736,2.735,2.607,2.607,0,0,1-2.546,2.24,24.638,24.638,0,0,1-2.186,8.53,23.666,23.666,0,0,1-1.584,2.921,23.132,23.132,0,0,1-2.649,3.449,16.366,16.366,0,0,1,1.9,3.4,5.588,5.588,0,0,1,.153,3.824,7.932,7.932,0,0,1-2.919-4.551,6.142,6.142,0,0,1-2.094.228,6.21,6.21,0,0,1-2.406-.646,1.411,1.411,0,0,1-.156-.077,6.353,6.353,0,0,1-3.069-3.564,9.262,9.262,0,0,1-.628,5.46,9.365,9.365,0,0,1-1.689,2.61.056.056,0,0,1-.013.016,9.875,9.875,0,0,1-4.261,2.677,10.18,10.18,0,0,1-3.12.482c-.14,0-.277,0-.417-.01a8.964,8.964,0,0,1-4.1-1.173,7,7,0,0,1-1.628-1.3,6.168,6.168,0,0,1-.876-1.208,5.806,5.806,0,0,1-.494-4.756,4.753,4.753,0,0,1,3.894-3.044,3.748,3.748,0,0,1,1.167.074,8.991,8.991,0,0,1,2.954,1.565,6.185,6.185,0,0,0,2.951,1.3,3.45,3.45,0,0,0,3.047-1.475,4.669,4.669,0,0,0,.714-2.69,3.5,3.5,0,0,0-.178-1.019q-.349-.993-.647-2.012c-.182-.623-.347-1.257-.494-1.89a31.584,31.584,0,0,1-.657-3.77q-.143-1.244-.169-2.491a23.358,23.358,0,0,1,.182-3.625,21.063,21.063,0,0,1,.424-2.343c.022-.09.045-.18.07-.27a18.887,18.887,0,0,1,1.163-3.285,18.537,18.537,0,0,1,1.4-2.513,17.315,17.315,0,0,1,1.941-2.439,15.316,15.316,0,0,1,2.3-1.977,13.529,13.529,0,0,1,2.8-1.523c.1-.045.2-.083.306-.122a17.8,17.8,0,0,1,8.984-.765,4.923,4.923,0,0,1,1.479-2.941c.1.125.2.257.29.389a9.492,9.492,0,0,1,1.453,3.185c.006.022.01.045.016.067.284.058.609.09.892.148a4.153,4.153,0,0,1,1.759-1.7,1.688,1.688,0,0,1,.077.17,6.241,6.241,0,0,1,.36,2.831c0,.013,0,.022,0,.035a4.408,4.408,0,0,1,1.358,4.188A2.93,2.93,0,0,1,673.687,131.362Z" transform="translate(-633.203 -120.03)" fill="#993636"/>
        <path id="Trazado_1392" data-name="Trazado 1392" d="M840.22,296.179c-1.415,2.044-3.41,3.635-4.78,5.714-2.33,3.522-1.963,8.861-1.957,13.1-5.982,3.539-18.184,2.137-18.184,2.137s0-.019,0-.055c-.038-.91-.453-13.1,4.5-22.41a21.75,21.75,0,0,1,4.755-6.174,17.585,17.585,0,0,1,9.382-4.245l0,0a12.456,12.456,0,0,1,7.043,4.949C842.378,291.245,841.638,294.131,840.22,296.179Z" transform="translate(-775.212 -247.803)" fill="#6fa052"/>
        <path id="Trazado_1393" data-name="Trazado 1393" d="M898.3,265.717c1.589.178,4.992,2.6,5.854,3.346a28.814,28.814,0,0,1,1.454-4.874c1.492-5.679-3.5-4.924-3.5-4.924-.483,2.372-2.872,4.811-4,5.851A.348.348,0,0,0,898.3,265.717Z" transform="translate(-839.732 -228.344)" fill="#fca2a2"/>
        <path id="Trazado_1394" data-name="Trazado 1394" d="M911.835,221.385a19.888,19.888,0,0,1-9.392,4.329c-2.677,1.146-5.706.129-6.451-1.821-.463-1.211.036-2.168,1.093-3.23.128-.131.265-.26.409-.394.368-.342.785-.7,1.239-1.077l-.348-.473a.445.445,0,0,1,.185-.678l3.2-1.365a18.843,18.843,0,0,0,2.386-2.639c.262-.372.454-.9.9-1.063a.772.772,0,0,1,.742,1.334A18.014,18.014,0,0,1,911.835,221.385Z" transform="translate(-838.037 -192.309)" fill="#fca2a2"/>
        <path id="Trazado_1395" data-name="Trazado 1395" d="M929.914,208.809a1.264,1.264,0,0,1,1.146.026,1.285,1.285,0,0,1,.644.956,1.674,1.674,0,0,1-.309,1.111,2.4,2.4,0,0,1-2.652.929,6.11,6.11,0,0,0,.748,4.1,17.151,17.151,0,0,0,6.727-3.068c1.021-.859,2.607-2.172,2.919-3.475.592-2.469-1.3-4.912-3.256-6.763a22.7,22.7,0,0,0-3.345-5.423c-1.15.994-2.992,2.365-2.731,3.869a4.509,4.509,0,0,0,1.495,2.584c.594.518-.983,2.113-1.238,2.862A4.755,4.755,0,0,0,929.914,208.809Z" transform="translate(-863.65 -180.079)" fill="#86472f"/>
        <path id="Trazado_1396" data-name="Trazado 1396" d="M811.218,159.194a.67.67,0,0,0-.526.072.507.507,0,0,0-.124.114c-.278-.073-.614.212-.413.516.105.159.208.32.316.477s.222.294.434.285a1.245,1.245,0,0,0,.826-.651C811.952,159.611,811.576,159.291,811.218,159.194Z" transform="translate(-771.174 -150.486)" fill="#1e110e"/>
        <path id="Trazado_1397" data-name="Trazado 1397" d="M801.159,154.457a.323.323,0,0,0-.2.065.314.314,0,0,0-.186.232.425.425,0,1,0,.386-.3Z" transform="translate(-763.895 -146.818)" fill="#1e110e"/>
        <path id="Trazado_1398" data-name="Trazado 1398" d="M814.943,154.769a.371.371,0,0,0-.411-.068.378.378,0,0,0-.3.361.369.369,0,0,0,.358.361.417.417,0,0,0,.353-.143A.373.373,0,0,0,814.943,154.769Z" transform="translate(-774.401 -146.982)" fill="#1e110e"/>
        <path id="Trazado_1399" data-name="Trazado 1399" d="M805.732,133.044c-.465-.18-1.023-.44-1.055-.935a3.256,3.256,0,0,1,.628-1.825.276.276,0,0,1,.067-.071A6.24,6.24,0,0,1,805.732,133.044Z" transform="translate(-766.946 -127.954)" fill="#7f2626"/>
        <path id="Trazado_1400" data-name="Trazado 1400" d="M788.081,124.968c-.475-.129-.96-.244-1.422-.411a.8.8,0,0,1-.564-.453,3.413,3.413,0,0,1,.532-2.32A9.493,9.493,0,0,1,788.081,124.968Z" transform="translate(-752.399 -121.394)" fill="#7f2626"/>
        <path id="Trazado_1401" data-name="Trazado 1401" d="M783.225,178.191a6.779,6.779,0,0,1-2.938-.636,2.634,2.634,0,0,1-.606-1.054.361.361,0,0,1,.44-.444c.583.2,1.026.829,1.517,1.2A8.694,8.694,0,0,0,783.225,178.191Z" transform="translate(-747.441 -163.612)" fill="#7f2626"/>
        <path id="Trazado_1402" data-name="Trazado 1402" d="M728.9,140.431c-.605.154-1.625-.566-2.087-.884-.319-.219-.695-.466-1.036-.742a13.526,13.526,0,0,1,2.8-1.523,14.678,14.678,0,0,1,.555,1.726C729.24,139.434,729.539,140.267,728.9,140.431Z" transform="translate(-705.41 -133.453)" fill="#7f2626"/>
        <path id="Trazado_1403" data-name="Trazado 1403" d="M710.269,155.681a.352.352,0,0,1-.344.264c-.73-.084-1.46-.177-2.186-.286-.386-.061-.832-.087-1.253-.164a17.327,17.327,0,0,1,1.941-2.439,14.405,14.405,0,0,1,1.125,1.247C709.867,154.694,710.387,155.141,710.269,155.681Z" transform="translate(-690.362 -145.727)" fill="#7f2626"/>
        <path id="Trazado_1404" data-name="Trazado 1404" d="M699.187,176.85c-.054.6-1.109.717-1.517.855l-2.83.955A18.871,18.871,0,0,1,696,175.375q1.033.275,2.046.627C698.422,176.13,699.238,176.278,699.187,176.85Z" transform="translate(-681.278 -163.095)" fill="#7f2626"/>
        <path id="Trazado_1405" data-name="Trazado 1405" d="M695.216,203.072c-.679.55-1.377,1.073-2.1,1.565-.4.267-.883.665-1.377.942a23.373,23.373,0,0,1,.182-3.625,16.831,16.831,0,0,1,3.139.514A.365.365,0,0,1,695.216,203.072Z" transform="translate(-678.853 -183.776)" fill="#7f2626"/>
        <path id="Trazado_1406" data-name="Trazado 1406" d="M694.261,231.252a15.455,15.455,0,0,1-1.068,1.562,31.583,31.583,0,0,1-.656-3.77,10.4,10.4,0,0,1,1.514-.135c.462,0,.826.1.886.63A3.1,3.1,0,0,1,694.261,231.252Z" transform="translate(-679.482 -204.75)" fill="#7f2626"/>
        <path id="Trazado_1407" data-name="Trazado 1407" d="M699.012,257.1a3.682,3.682,0,0,1-.421.906,3.5,3.5,0,0,0-.178-1.019q-.349-.993-.647-2.012c.714-.048,1.488,0,1.616.778A2.427,2.427,0,0,1,699.012,257.1Z" transform="translate(-683.56 -225.025)" fill="#7f2626"/>
        <path id="Trazado_1408" data-name="Trazado 1408" d="M740.736,241.041a.363.363,0,0,0-.453.35c-.06,1.189.969,2.07,1.823,2.748,1.087.861,2.241,1.649,3.388,2.436a23.681,23.681,0,0,0,1.584-2.921A23.074,23.074,0,0,0,740.736,241.041Zm2.983,2.561a13.836,13.836,0,0,1-1.393-.774,13.884,13.884,0,0,1,1.421.749A.223.223,0,0,0,743.718,243.6Z" transform="translate(-716.721 -214.179)" fill="#7f2626"/>
        <path id="Trazado_1409" data-name="Trazado 1409" d="M739.177,214.49c-2-2.574-5.318-2.826-8.169-3.888a.362.362,0,0,0-.454.349,1.154,1.154,0,0,0,.28.754.3.3,0,0,0,.159.4c.207.1.414.193.622.288a14.069,14.069,0,0,0,1.3.74,17.982,17.982,0,0,0,3.268,1.292,6.178,6.178,0,0,0,1.577.6.367.367,0,0,0,.379-.14c.229.07.458.141.689.209C739.2,215.2,739.382,214.753,739.177,214.49Z" transform="translate(-709.134 -190.49)" fill="#7f2626"/>
        <path id="Trazado_1410" data-name="Trazado 1410" d="M757.617,176.041a31.242,31.242,0,0,1-3.6-7.313.355.355,0,0,0-.373-.247.39.39,0,0,0-.585.3l-.034.417a.379.379,0,0,0-.328.447,8.537,8.537,0,0,1,.153,1.7.339.339,0,0,0,.482.321,25.052,25.052,0,0,0,1.749,4.035c.176.362.811.1.655-.278l-.2-.5a18.348,18.348,0,0,0,1.517,1.557C757.341,176.743,757.854,176.4,757.617,176.041Z" transform="translate(-726.403 -157.685)" fill="#7f2626"/>
        <path id="Trazado_1411" data-name="Trazado 1411" d="M656.406,275.8c-.453,1.4-1.01,2.77-1.587,4.136a.361.361,0,0,1-.621,0,24.9,24.9,0,0,1-1.912-5.775,3.747,3.747,0,0,1,1.167.074A8.993,8.993,0,0,1,656.406,275.8Z" transform="translate(-648.086 -239.948)" fill="#7f2626"/>
        <path id="Trazado_1412" data-name="Trazado 1412" d="M639.336,308.353a7,7,0,0,1-1.628-1.3,6.168,6.168,0,0,1-.876-1.208c.242-.222.491-.427.749-.627.077-.058.156-.116.236-.167a.385.385,0,0,1,.59-.119.553.553,0,0,1,.229.151,3.929,3.929,0,0,1,.615,1.967A7.15,7.15,0,0,1,639.336,308.353Z" transform="translate(-636.033 -263.834)" fill="#7f2626"/>
        <path id="Trazado_1413" data-name="Trazado 1413" d="M671.888,302.865a10.177,10.177,0,0,1-3.12.482c.37-1.263.755-2.516,1.167-3.763.239-.73.411-2.243,1.157-2.651a.36.36,0,0,1,.526.215A49.586,49.586,0,0,1,671.888,302.865Z" transform="translate(-660.943 -257.646)" fill="#7f2626"/>
        <path id="Trazado_1414" data-name="Trazado 1414" d="M700.914,295.919a9.364,9.364,0,0,1-1.689,2.61c-.631-1.5-1.549-4.12-.166-3.709a6.118,6.118,0,0,1,1.578.916C700.71,295.788,700.809,295.849,700.914,295.919Z" transform="translate(-684.006 -256.003)" fill="#7f2626"/>
        <path id="Trazado_1415" data-name="Trazado 1415" d="M729.982,285c-.006.418-.01.836-.016,1.253a6.209,6.209,0,0,1-2.406-.646c.271-.321.545-.639.829-.948s.685-.925,1.182-.774C730.043,284.024,729.988,284.616,729.982,285Z" transform="translate(-706.799 -247.508)" fill="#7f2626"/>
        <path id="Trazado_1416" data-name="Trazado 1416" d="M813.738,148.773l-.1-.084a.244.244,0,0,0-.257-.033c-.432-.1-.867-.175-1.307-.228-.3-.037-.3.446,0,.482a12.007,12.007,0,0,1,1.437.265C813.718,149.228,813.936,148.932,813.738,148.773Z" transform="translate(-772.536 -142.126)" fill="#1e110e"/>
        <path id="Trazado_1417" data-name="Trazado 1417" d="M795.347,146.948a2.008,2.008,0,0,0-1.012.273c-.371.155-.732.329-1.087.518-.272.145-.031.561.241.417s.55-.283.833-.409a2.572,2.572,0,0,1,.9-.334C795.52,147.455,795.65,146.99,795.347,146.948Z" transform="translate(-757.941 -140.969)" fill="#1e110e"/>
        <path id="Trazado_1418" data-name="Trazado 1418" d="M848.472,311.833l-12.626-2.272a21.751,21.751,0,0,1,4.755-6.174Z" transform="translate(-791.26 -262.702)" fill="#416f25"/>
        <path id="Trazado_1419" data-name="Trazado 1419" d="M890.8,289.7s-17.48.354-6.048-3.948C884.755,285.751,889.8,286.137,890.8,289.7Z" transform="translate(-826.383 -248.98)" fill="#fca2a2"/>
        <path id="Trazado_1420" data-name="Trazado 1420" d="M769.114,197.978a28.341,28.341,0,0,1-10.7-5.361c-10.88-8.269-24.648-26.6-24.648-26.6a3.708,3.708,0,0,1-3.2-2.571,3.757,3.757,0,0,1,1.24-3.934c.778.4,1.772.794,2.46.251a2.637,2.637,0,0,0,.7-1.568,1.787,1.787,0,0,1,.924-1.4,18.878,18.878,0,0,1,.1,5.068c5.469,7.993,20.922,18.872,28.112,23.114,5.172,3.05,9.028,4.808,9.028,4.808C774.84,197.174,769.114,197.978,769.114,197.978Z" transform="translate(-709.029 -148.635)" fill="#fca2a2"/>
        <path id="Trazado_1421" data-name="Trazado 1421" d="M868.466,297.652c-3.732-.832-7.472-3.659-10.821-6.2a17.227,17.227,0,0,1,5.692-7.642,83.491,83.491,0,0,0,9.671,4.888C874.716,296.085,868.466,297.652,868.466,297.652Z" transform="translate(-808.262 -247.465)" fill="#6fa052"/>
      </g>
    </g>
    <g id="Grupo_628" data-name="Grupo 628" transform="translate(185.18 186.283)">
      <path id="Trazado_1422" data-name="Trazado 1422" d="M364.744,539.547a26.85,26.85,0,0,0-4.64,5.286c-1.461,2.513,0,5.893,2.406,7.279a3.954,3.954,0,0,1,2.063,3.813s3.867-1.906,1.031-4.42a2.054,2.054,0,0,1,1.976,2.34,2.57,2.57,0,0,0-.859-4.16c-3.008-1.733-1.031-7.106-1.031-7.106Z" transform="translate(-359.52 -512.715)" fill="#9e6142"/>
      <path id="Trazado_1423" data-name="Trazado 1423" d="M415.1,428.79a46.21,46.21,0,0,0,4.957,11.109,24.36,24.36,0,0,1,2.638,7.97s5,3.643,1.247,5.036l-42.793-.173s-3.237-11.673,3.179-13.9,17.245-1.214,18.448-2.629-.4-8.7,0-11.324l-1.4,5.662c-.4,1.618-3.609.55-4.01-.938s2.517-9.235,4.322-9.639,2.083-1.258,6.476-1.343c3.732-.072,5.618,1.4,7.022,1.2s6.9,7.238,6.071,8.5-2.636,2.831-3.638,1.618-3.041-4.443-3.041-4.443Z" transform="translate(-375.752 -418.621)" fill="#9e6142"/>
      <path id="Trazado_1424" data-name="Trazado 1424" d="M500.136,438.984c-2.674.051-3.488-.751-3.767-2.551s2.292-2.208,1.883-3.568-1.9-4.623-1.9-4.623a3.478,3.478,0,0,1,4.461,0s-.943,4.049-.673,4.948,1.753,1.443,2.158,2.667A2.544,2.544,0,0,1,500.136,438.984Z" transform="translate(-466.243 -425.449)" fill="#b57b5b"/>
      <path id="Trazado_1425" data-name="Trazado 1425" d="M505.168,459.375c.42.3-.86.925-1.444.925s-2.017-.347-1.756-.867C502.429,458.514,504.445,458.855,505.168,459.375Z" transform="translate(-470.602 -449.931)" fill="#40250c"/>
      <path id="Trazado_1426" data-name="Trazado 1426" d="M506.535,471.656s1.117,3.336-.086,3.943-2.535-1-3.094-3.726l1.676-.477Z" transform="translate(-471.709 -459.686)" fill="#de9989"/>
      <g id="Grupo_618" data-name="Grupo 618" transform="translate(33.237 11.753)">
        <path id="Trazado_1427" data-name="Trazado 1427" d="M511.225,473.843a.172.172,0,0,0,.172-.162,5.9,5.9,0,0,0-.486-1.986.172.172,0,0,0-.226-.091.175.175,0,0,0-.09.228,5.679,5.679,0,0,1,.459,1.827.173.173,0,0,0,.161.184Z" transform="translate(-510.581 -471.59)" fill="#cc5c49"/>
      </g>
      <g id="Grupo_619" data-name="Grupo 619" transform="translate(30.358 9.476)">
        <path id="Trazado_1428" data-name="Trazado 1428" d="M499.186,464.192a1.508,1.508,0,0,0,1.178-.638c.247-.3.038-1.561-.063-2.088a.172.172,0,1,0-.337.066,5.036,5.036,0,0,1,.134,1.8,1.184,1.184,0,0,1-.912.511h-.011a2.188,2.188,0,0,1-1.37-.826.17.17,0,0,0-.241-.03.174.174,0,0,0-.03.243,2.492,2.492,0,0,0,1.635.959Z" transform="translate(-497.498 -461.325)" fill="#40250c"/>
      </g>
      <g id="Grupo_620" data-name="Grupo 620" transform="translate(32.92 11.234)">
        <path id="Trazado_1429" data-name="Trazado 1429" d="M510.579,470.186a1.44,1.44,0,0,0,1.253-.668.175.175,0,0,0-.046-.241.172.172,0,0,0-.239.046c-.712,1.058-2.086.178-2.144.139a.172.172,0,0,0-.238.051.174.174,0,0,0,.05.24A2.643,2.643,0,0,0,510.579,470.186Z" transform="translate(-509.139 -469.248)" fill="#40250c"/>
      </g>
      <g id="Grupo_621" data-name="Grupo 621" transform="translate(38.555 2.738)">
        <path id="Trazado_1430" data-name="Trazado 1430" d="M535.017,435.27l.026,0a.173.173,0,0,0,.144-.2,28.131,28.131,0,0,1-.035-3.924.173.173,0,0,0-.162-.183.168.168,0,0,0-.181.163,27.766,27.766,0,0,0,.038,4A.172.172,0,0,0,535.017,435.27Z" transform="translate(-534.751 -430.962)" fill="#905222"/>
      </g>
      <g id="Grupo_622" data-name="Grupo 622" transform="translate(26.692 2.74)">
        <path id="Trazado_1431" data-name="Trazado 1431" d="M481.166,434.662a.173.173,0,0,0,.172-.166,26.5,26.5,0,0,0-.16-3.375.176.176,0,0,0-.191-.152.173.173,0,0,0-.151.192,25.981,25.981,0,0,1,.158,3.32.173.173,0,0,0,.165.181Z" transform="translate(-480.835 -430.968)" fill="#905222"/>
      </g>
      <path id="Trazado_1432" data-name="Trazado 1432" d="M444.744,512.461s3.749-2.327,2.253-6.245-1.642-6.432,1.574-6.869,6.826,2.447,8.15,6.437c.959,2.891,2.1,7.411-2.777,9.815s-24.564.465-24.564.465a61.122,61.122,0,0,0,0-7.723C429.127,504.1,437.484,514.318,444.744,512.461Z" transform="translate(-414.006 -481.4)" fill="#b57b5b"/>
      <path id="Trazado_1433" data-name="Trazado 1433" d="M542.135,550.437s-6.14,1.191-6.527,2.986c-1.116,5.17,7.477,3.437,9.368,2.05S542.135,550.437,542.135,550.437Z" transform="translate(-496.787 -521.189)" fill="#9e6142"/>
      <path id="Trazado_1434" data-name="Trazado 1434" d="M472.314,514.208c1.286,3.664,1.148,6.065,2.48,6.815s8.166,1.369,8.623,4.437c0,0-12.874,3.018-15.354,0s-5.325-5.423-5.477-6.8S469.871,507.252,472.314,514.208Z" transform="translate(-439.906 -491.104)" fill="#9e6142"/>
      <path id="Trazado_1435" data-name="Trazado 1435" d="M391.589,560.535s11.015,1.855,10.844,5.581-9.968-2.947-18.389-3.12C385.762,559.271,391.589,560.535,391.589,560.535Z" transform="translate(-378.647 -528.885)" fill="#9e6142"/>
      <g id="Grupo_623" data-name="Grupo 623" transform="translate(38.567 29.668)">
        <path id="Trazado_1436" data-name="Trazado 1436" d="M536.3,557.827a.172.172,0,0,0,.156-.1.174.174,0,0,0-.084-.23,2.2,2.2,0,0,1-1.142-2.562c.362-1.513,4.907-2.145,6.627-2.261a.173.173,0,0,0-.023-.346c-.263.018-6.443.457-6.938,2.525a2.578,2.578,0,0,0,1.332,2.959A.168.168,0,0,0,536.3,557.827Z" transform="translate(-534.807 -552.327)" fill="#905222"/>
      </g>
      <g id="Grupo_624" data-name="Grupo 624" transform="translate(22.507 27.379)">
        <path id="Trazado_1437" data-name="Trazado 1437" d="M467.462,549.163a.169.169,0,0,0,.109-.039.174.174,0,0,0,.025-.244l-5.477-6.8a.17.17,0,0,0-.242-.025.174.174,0,0,0-.025.243l5.477,6.8A.171.171,0,0,0,467.462,549.163Z" transform="translate(-461.813 -542.013)" fill="#905222"/>
      </g>
      <g id="Grupo_625" data-name="Grupo 625" transform="translate(5.482 31.252)">
        <path id="Trazado_1438" data-name="Trazado 1438" d="M384.605,562.151a.172.172,0,0,0,.168-.142l.43-2.34a.172.172,0,1,0-.338-.063l-.43,2.34a.173.173,0,0,0,.138.2Z" transform="translate(-384.433 -559.465)" fill="#905222"/>
      </g>
      <g id="Grupo_626" data-name="Grupo 626" transform="translate(10.031 20.495)">
        <path id="Trazado_1439" data-name="Trazado 1439" d="M410.453,517.607h.013a.173.173,0,0,0,.159-.186c-.463-6.274-5.293-6.43-5.342-6.431a.171.171,0,0,0-.175.17.173.173,0,0,0,.169.176c.186,0,4.566.159,5,6.11A.172.172,0,0,0,410.453,517.607Z" transform="translate(-405.109 -510.989)" fill="#905222"/>
      </g>
      <path id="Trazado_1440" data-name="Trazado 1440" d="M517.375,442.888c0,.462.18.837.4.837s.4-.375.4-.837-.18-.837-.4-.837S517.375,442.426,517.375,442.888Z" transform="translate(-482.643 -436.852)" fill="#40250c"/>
      <path id="Trazado_1441" data-name="Trazado 1441" d="M491.784,442.888c0,.462.18.837.4.837s.4-.375.4-.837-.18-.837-.4-.837S491.784,442.426,491.784,442.888Z" transform="translate(-462.683 -436.852)" fill="#40250c"/>
      <g id="Grupo_627" data-name="Grupo 627" transform="translate(32.037 22.438)">
        <path id="Trazado_1442" data-name="Trazado 1442" d="M512.966,528.623a.173.173,0,0,0,.025-.345c-1.747-.264-4.492-.8-4.894-1.179a17.485,17.485,0,0,1-1.259-3.435,23.481,23.481,0,0,0-1.393-3.84.17.17,0,0,0-.237-.053.174.174,0,0,0-.052.24,23.736,23.736,0,0,1,1.354,3.757,14.021,14.021,0,0,0,1.352,3.583c.608.58,4.623,1.2,5.079,1.27Z" transform="translate(-505.129 -519.745)" fill="#905222"/>
      </g>
    </g>
  </g>
</svg>
