<svg xmlns="http://www.w3.org/2000/svg" width="24" height="24" viewBox="0 0 24 24">
  <g id="vuesax_bold_medal" data-name="vuesax/bold/medal" transform="translate(-108 -316)">
    <g id="medal">
      <path id="Vector" d="M0,0H24V24H0Z" transform="translate(108 316)" fill="none" opacity="0"/>
      <path id="Vector-2" data-name="Vector" d="M13.5,6.5A6.629,6.629,0,0,1,6.75,13,6.629,6.629,0,0,1,0,6.5,6.629,6.629,0,0,1,6.75,0,6.629,6.629,0,0,1,13.5,6.5Z" transform="translate(113.25 318)" fill="#57419d"/>
      <path id="Vector-3" data-name="Vector" d="M8.29.054A.491.491,0,0,1,9,.5v4.85c0,.9-.63,1.34-1.41.97L4.91,5.054a1.158,1.158,0,0,0-.82,0L1.41,6.324C.63,6.684,0,6.244,0,5.344L.02.5A.5.5,0,0,1,.73.054,8.343,8.343,0,0,0,4.5.944,8.459,8.459,0,0,0,8.29.054Z" transform="translate(115.5 331.556)" fill="#eb9448"/>
    </g>
  </g>
</svg>
